# This file uses centimeters as units for non-parametric coordinates.

mtllib flatrock2.mtl
g default
v -37.180294 -0.300316 67.084856
v 45.943784 -0.746733 66.421846
v -40.269546 11.736780 67.552405
v 46.380517 11.523120 64.629930
v -46.372880 13.058996 -29.372161
v 45.909744 12.956205 -23.080967
v -37.219621 0.272482 -25.530721
v 53.903816 0.821688 -29.572103
v -44.214993 9.519015 71.078326
v 47.324835 9.603544 65.904823
v 45.909744 11.057966 -23.111983
v -46.372880 11.160757 -29.403177
v -37.180294 -0.289977 67.085023
v 45.943784 -0.736395 66.422013
v 53.903816 0.832026 -29.571936
v -37.219621 0.282821 -25.530550
v 44.102000 -0.746733 66.421846
v 52.062032 0.821688 -29.572103
v 52.062024 0.832026 -29.571936
v 44.067952 11.057966 -23.111983
v 44.067960 12.956205 -23.080967
v 42.193849 11.968699 62.446011
v 45.483051 9.603544 65.904823
v 44.102000 -0.736395 66.422013
v -42.208161 11.528437 64.304486
v 42.664584 11.598061 60.043196
v 46.388670 11.908049 60.804314
v 47.324835 9.645893 63.312845
v 45.943784 -0.694045 63.830031
v 45.943784 -0.704383 63.829822
v 44.102000 -0.704383 63.829865
v -39.384940 -0.257966 64.492836
v -39.384940 -0.247627 64.493003
v -44.214993 9.561365 68.486302
v -37.219621 0.252600 -24.313833
v 52.062032 0.801805 -28.355232
v 53.903816 0.801805 -28.355210
v 53.903816 0.812144 -28.355065
v 45.909744 11.038084 -21.895112
v 44.973579 13.258661 -21.858830
v 43.244724 12.936324 -21.864075
v -46.372880 13.039113 -28.155290
v -46.372880 11.140874 -28.186285
v -37.219621 0.262939 -24.313662
v -11.499491 -0.815716 70.643908
v -11.499491 -0.787070 68.890678
v -11.499491 0.870161 -32.538863
v -11.499491 0.893994 -33.997535
v -11.499499 0.904332 -33.997369
v -11.499499 11.080179 -24.471479
v -11.499491 12.993198 -25.345078
v -11.792702 12.979139 -24.484617
v -9.111303 11.535757 63.856494
v -7.569957 11.813066 66.120174
v -10.110166 9.606926 65.697778
v -11.499491 -0.805377 70.644074
v 26.702420 0.904332 -33.997369
v 26.702420 0.893994 -33.997535
v 26.702420 0.870161 -32.538871
v 26.702428 -0.787071 68.890700
v 26.702420 -0.815716 70.643908
v 26.702420 -0.805377 70.644074
v 27.249823 9.479716 73.483563
v 28.250685 11.788961 71.141315
v 27.144509 11.430726 70.284876
v 26.088022 12.980184 -24.548545
v 26.702420 12.993198 -25.345078
v 26.702420 11.080179 -24.471479
v -53.903816 12.520240 3.601961
v -10.871716 12.483380 5.857992
v 26.450893 18.221524 8.295031
v 50.717463 12.515120 3.915292
v 52.446318 12.818936 5.054229
v 53.382483 10.598359 5.017947
v 53.382483 0.269628 4.849189
v 53.382483 0.259290 4.849019
v 51.540699 0.259290 4.849020
v 26.702420 -10.165764 0.876865
v -11.499491 0.300950 2.299244
v -37.235748 0.259290 4.849019
v -37.235748 0.269628 4.849188
v -52.700681 10.598359 5.017946
v -51.201276 11.788976 48.358364
v -9.573757 17.522040 51.106253
v 26.962300 11.785128 48.593900
v 50.717468 11.776642 49.113247
v 52.446318 12.054352 51.849925
v 53.382487 9.833776 51.813643
v 53.382487 -0.494955 51.644884
v 53.382487 -0.505292 51.644683
v 51.540699 -0.505293 51.644713
v 26.702428 -0.501256 51.397594
v -11.499491 -10.967967 49.975199
v -38.331067 -0.505292 51.644683
v -38.331067 -0.494954 51.644849
v -49.726028 9.833776 51.813613
vt 0.620384 0.250000
vt 0.620384 0.211220
vt 0.625000 0.211220
vt 0.625000 0.250000
vt 0.625000 0.496972
vt 0.620384 0.496972
vt 0.620384 0.414360
vt 0.625000 0.414360
vt 0.620384 0.538780
vt 0.620384 0.500000
vt 0.625000 0.500000
vt 0.625000 0.538780
vt 0.625000 0.835640
vt 0.620384 0.835640
vt 0.620384 0.753028
vt 0.625000 0.753028
vt 0.789360 0.250000
vt 0.789360 0.211220
vt 0.871972 0.211220
vt 0.871972 0.250000
vt 0.128028 0.250000
vt 0.128028 0.211220
vt 0.210640 0.211220
vt 0.210640 0.250000
vt 0.620384 0.000211
vt 0.625000 0.000211
vt 0.789360 0.000211
vt 0.871972 0.000211
vt 0.620384 0.749789
vt 0.625000 0.749789
vt 0.128028 0.000211
vt 0.210640 0.000211
vt 0.620384 0.000000
vt 0.625000 0.000000
vt 0.789360 0.000000
vt 0.871972 0.000000
vt 0.620384 0.750000
vt 0.625000 0.750000
vt 0.128028 0.000000
vt 0.210640 0.000000
vt 0.558136 0.835640
vt 0.462397 0.835640
vt 0.462397 0.753028
vt 0.558136 0.753028
vt 0.462397 0.750000
vt 0.462397 0.749789
vt 0.558136 0.749789
vt 0.558136 0.750000
vt 0.462397 0.538780
vt 0.558136 0.538780
vt 0.462397 0.500000
vt 0.558136 0.500000
vt 0.462397 0.496972
vt 0.462397 0.414360
vt 0.558136 0.414360
vt 0.558136 0.496972
vt 0.462397 0.250000
vt 0.462397 0.211220
vt 0.558136 0.211220
vt 0.558136 0.250000
vt 0.462397 0.000211
vt 0.558136 0.000211
vt 0.462397 0.000000
vt 0.558136 0.000000
vt 0.462397 0.256449
vt 0.558136 0.256449
vt 0.625000 0.256449
vt 0.620384 0.256449
vt 0.631449 0.211220
vt 0.631449 0.250000
vt 0.631449 0.000211
vt 0.631449 0.000000
vt 0.620384 1.000000
vt 0.620384 0.993551
vt 0.625000 0.993551
vt 0.625000 1.000000
vt 0.462397 1.000000
vt 0.462397 0.993551
vt 0.558136 0.993551
vt 0.558136 1.000000
vt 0.368551 0.000211
vt 0.368551 0.000000
vt 0.375000 0.000000
vt 0.375000 0.000211
vt 0.368551 0.211220
vt 0.375000 0.211220
vt 0.368551 0.250000
vt 0.375000 0.250000
vt 0.875000 0.000000
vt 0.875000 0.000211
vt 0.875000 0.211220
vt 0.875000 0.250000
vt 0.125000 0.211220
vt 0.125000 0.250000
vt 0.125000 0.000211
vt 0.125000 0.000000
vt 0.375000 0.993551
vt 0.375000 1.000000
vt 0.375000 0.753028
vt 0.375000 0.835640
vt 0.375000 0.750000
vt 0.375000 0.749789
vt 0.375000 0.538780
vt 0.375000 0.500000
vt 0.375000 0.496972
vt 0.375000 0.414360
vt 0.375000 0.256449
vt 0.375000 0.297931
vt 0.462397 0.297931
vt 0.558136 0.297931
vt 0.620384 0.297931
vt 0.625000 0.297931
vt 0.672931 0.250000
vt 0.672931 0.211220
vt 0.672931 0.000211
vt 0.672931 0.000000
vt 0.625000 0.952069
vt 0.620384 0.952069
vt 0.558136 0.952069
vt 0.462397 0.952069
vt 0.375000 0.952069
vt 0.327069 0.000000
vt 0.327069 0.000211
vt 0.327069 0.211220
vt 0.327069 0.250000
vn -0.229440 0.610654 0.757931
vn -0.229440 0.610654 0.757931
vn -0.229440 0.610654 0.757931
vn -0.229440 0.610654 0.757931
vn -0.194899 0.979073 0.058578
vn 0.115398 0.989331 -0.088923
vn 0.105268 0.994326 0.015303
vn -0.186042 0.982231 0.024692
vn 0.103248 0.580735 -0.807519
vn 0.091836 -0.193776 -0.976738
vn 0.000000 0.016337 -0.999867
vn 0.000000 0.487523 -0.873110
vn 0.000000 -0.999867 -0.016337
vn 0.195978 -0.980588 -0.006347
vn 0.205316 -0.966790 -0.152195
vn 0.000000 -0.999867 -0.016337
vn 0.917151 0.388138 -0.090461
vn 0.977675 0.204244 -0.049358
vn 0.912394 0.392560 -0.115907
vn 0.898388 0.376940 -0.225421
vn -0.916863 -0.348761 -0.194236
vn -0.693627 -0.715115 -0.086561
vn -0.661826 -0.749190 -0.026459
vn -0.894305 -0.436521 -0.098329
vn 0.284249 0.119963 0.951216
vn 0.289849 -0.121552 0.949322
vn 0.000000 0.049896 0.998754
vn -0.060762 0.200587 0.977790
vn 0.977675 0.204244 -0.049358
vn 0.985692 0.163278 -0.041857
vn 0.909062 0.406578 -0.091107
vn 0.912394 0.392560 -0.115907
vn 0.090857 0.624888 -0.775410
vn 0.103248 0.580735 -0.807519
vn 0.000000 0.487523 -0.873110
vn 0.000000 0.533482 -0.845811
vn -0.693627 -0.715115 -0.086561
vn -0.647981 -0.758369 -0.070694
vn -0.624472 -0.780506 -0.029069
vn -0.661826 -0.749190 -0.026459
vn 0.289849 -0.121552 0.949322
vn 0.214356 -0.015686 0.976630
vn 0.000000 -0.016109 0.999870
vn 0.000000 0.049896 0.998754
vn 0.985692 0.163278 -0.041857
vn 0.999979 -0.000370 0.006515
vn 0.999885 -0.000873 0.015142
vn 0.909062 0.406578 -0.091107
vn 0.160589 0.016046 -0.986891
vn 0.090857 0.624888 -0.775410
vn 0.000000 0.533482 -0.845811
vn 0.000000 0.016109 -0.999870
vn -0.647981 -0.758369 -0.070694
vn -0.999999 0.001003 -0.000531
vn -0.999894 0.000392 -0.014571
vn -0.624472 -0.780506 -0.029069
vn 0.046916 -0.997123 -0.059542
vn -0.079395 -0.993771 -0.078198
vn -0.083927 -0.990377 -0.110042
vn -0.002801 -0.986806 -0.161885
vn -0.132247 0.016157 -0.991085
vn -0.021361 0.541968 -0.840128
vn 0.034823 0.669130 -0.742329
vn 0.069467 0.016134 -0.997454
vn -0.021361 0.541968 -0.840128
vn -0.010977 0.426014 -0.904650
vn 0.038893 0.578350 -0.814861
vn 0.034823 0.669130 -0.742329
vn -0.010977 0.426014 -0.904650
vn 0.058497 -0.323587 -0.944389
vn 0.029479 -0.359171 -0.932806
vn 0.038893 0.578350 -0.814861
vn -0.033761 0.999124 -0.024713
vn -0.037762 0.999005 -0.023726
vn 0.029351 0.999562 -0.003786
vn -0.008148 0.996876 -0.078562
vn -0.100641 0.486078 0.868101
vn -0.033975 0.172029 0.984506
vn 0.026485 0.152775 0.987906
vn 0.078943 0.687776 0.721618
vn -0.033975 0.172029 0.984506
vn -0.040950 0.085230 0.995519
vn 0.033623 0.031286 0.998945
vn 0.026485 0.152775 0.987906
vn -0.040950 0.085230 0.995519
vn -0.055372 -0.016081 0.998336
vn 0.075723 -0.016045 0.997000
vn 0.033623 0.031286 0.998945
vn 0.004162 0.985122 0.171804
vn 0.019474 0.985984 -0.165701
vn -0.074240 0.975787 -0.205740
vn 0.046015 0.994409 0.095042
vn -0.059424 0.997744 -0.031234
vn -0.006854 0.999942 0.008258
vn -0.094921 0.985564 -0.140192
vn 0.015830 0.999869 0.003511
vn 0.998474 -0.055179 0.002337
vn 0.907194 0.023812 0.420039
vn 0.737357 0.536840 0.410010
vn 0.901212 0.432343 0.029930
vn 0.991199 -0.132359 -0.002163
vn 0.908058 -0.065690 0.413662
vn 0.907194 0.023812 0.420039
vn 0.998474 -0.055179 0.002337
vn 1.000000 0.000254 0.000000
vn 0.893091 -0.008911 0.449787
vn 0.908058 -0.065690 0.413662
vn 0.991199 -0.132359 -0.002163
vn 0.000000 -0.999867 -0.016337
vn 0.000000 -0.999867 -0.016337
vn 0.000000 -0.999867 -0.016337
vn 0.000000 -0.999867 -0.016337
vn -0.007807 -0.999893 -0.012376
vn 0.003164 -0.968144 0.250374
vn 0.085249 -0.981727 0.170129
vn 0.000000 -0.999867 -0.016337
vn -0.762635 -0.631738 0.138904
vn -0.997440 -0.000193 0.071515
vn -0.761783 -0.009784 0.647759
vn -0.752383 -0.580772 0.310844
vn -0.873184 -0.445077 0.198637
vn -0.762635 -0.631738 0.138904
vn -0.752383 -0.580772 0.310844
vn -0.882234 -0.319414 0.345887
vn -0.639094 0.714808 0.283917
vn -0.873184 -0.445077 0.198637
vn -0.882234 -0.319414 0.345887
vn -0.455884 0.881034 0.126292
vn -0.083927 -0.990377 -0.110042
vn 0.006197 -0.999847 -0.016336
vn 0.000000 -0.999867 -0.016337
vn -0.002801 -0.986806 -0.161885
vn 0.000000 -0.999867 -0.016337
vn 0.205316 -0.966790 -0.152195
vn 0.000000 -0.999867 -0.016337
vn 0.000000 -0.999867 -0.016337
vn 0.909062 0.406578 -0.091107
vn 0.999885 -0.000873 0.015142
vn 1.000000 -0.000380 0.000000
vn 0.791265 0.611391 0.009989
vn 0.912394 0.392560 -0.115907
vn 0.909062 0.406578 -0.091107
vn 0.791265 0.611391 0.009989
vn 0.818426 0.572578 0.048312
vn 0.898388 0.376940 -0.225421
vn 0.912394 0.392560 -0.115907
vn 0.818426 0.572578 0.048312
vn 0.921620 0.204082 0.330101
vn -0.016397 0.999674 -0.019576
vn 0.115398 0.989331 -0.088923
vn -0.194899 0.979073 0.058578
vn -0.088228 0.980211 -0.177206
vn 0.000000 0.999866 0.016338
vn -0.033761 0.999124 -0.024713
vn -0.008148 0.996876 -0.078562
vn 0.000000 0.999867 0.016337
vn -0.820148 -0.572075 -0.009347
vn -0.693627 -0.715115 -0.086561
vn -0.916863 -0.348761 -0.194236
vn -1.000000 -0.000008 0.000000
vn -0.763519 -0.645699 -0.010550
vn -0.647981 -0.758369 -0.070694
vn -0.693627 -0.715115 -0.086561
vn -0.820148 -0.572075 -0.009347
vn -1.000000 0.000722 0.000000
vn -0.999999 0.001003 -0.000531
vn -0.647981 -0.758369 -0.070694
vn -0.763519 -0.645699 -0.010550
vn -0.194116 -0.938436 0.285756
vn 0.003164 -0.968144 0.250374
vn -0.007807 -0.999893 -0.012376
vn -0.018460 -0.999805 -0.006970
vn 0.011183 -0.999897 -0.008991
vn -0.083927 -0.990377 -0.110042
vn -0.079395 -0.993771 -0.078198
vn -0.126809 -0.988319 -0.084527
vn 0.018780 -0.999690 -0.016334
vn 0.006197 -0.999847 -0.016336
vn -0.083927 -0.990377 -0.110042
vn 0.011183 -0.999897 -0.008991
vn -0.058869 0.234865 -0.970244
vn -0.021361 0.541968 -0.840128
vn -0.132247 0.016157 -0.991085
vn -0.312980 0.015747 -0.949629
vn -0.008567 0.113940 -0.993451
vn -0.010977 0.426014 -0.904650
vn -0.021361 0.541968 -0.840128
vn -0.058869 0.234865 -0.970244
vn 0.124001 -0.214199 -0.968887
vn 0.058497 -0.323587 -0.944389
vn -0.010977 0.426014 -0.904650
vn -0.008567 0.113940 -0.993451
vn 0.000000 0.999867 0.016337
vn -0.033761 0.999124 -0.024713
vn 0.000000 0.999866 0.016338
vn 0.000000 0.999867 0.016337
vn -0.040107 0.998959 -0.021736
vn -0.037762 0.999005 -0.023726
vn -0.033761 0.999124 -0.024713
vn 0.000000 0.999867 0.016337
vn -0.003708 0.996335 -0.085451
vn 0.019474 0.985984 -0.165701
vn 0.004162 0.985122 0.171804
vn -0.075839 0.974095 0.213045
vn 0.041024 0.129841 0.990686
vn -0.033975 0.172029 0.984506
vn -0.100641 0.486078 0.868101
vn 0.087675 0.482752 0.871358
vn 0.030694 0.055586 0.997982
vn -0.040950 0.085230 0.995519
vn -0.033975 0.172029 0.984506
vn 0.041024 0.129841 0.990686
vn -0.137570 -0.015947 0.990364
vn -0.055372 -0.016081 0.998336
vn -0.040950 0.085230 0.995519
vn 0.030694 0.055586 0.997982
vn 0.069467 0.016134 -0.997454
vn 0.034823 0.669130 -0.742329
vn 0.090857 0.624888 -0.775410
vn 0.160589 0.016046 -0.986891
vn -0.002801 -0.986806 -0.161885
vn 0.000000 -0.999867 -0.016337
vn 0.000000 -0.999867 -0.016337
vn 0.205316 -0.966790 -0.152195
vn 0.195978 -0.980588 -0.006347
vn 0.046916 -0.997123 -0.059542
vn -0.002801 -0.986806 -0.161885
vn 0.205316 -0.966790 -0.152195
vn 0.000000 -0.999867 -0.016337
vn 0.085249 -0.981727 0.170129
vn 0.000000 -0.999867 -0.016337
vn 0.000000 -0.999867 -0.016337
vn 0.033623 0.031286 0.998945
vn 0.075723 -0.016045 0.997000
vn 0.214356 -0.015686 0.976630
vn 0.289849 -0.121552 0.949322
vn 0.026485 0.152775 0.987906
vn 0.033623 0.031286 0.998945
vn 0.289849 -0.121552 0.949322
vn 0.284249 0.119963 0.951216
vn 0.078943 0.687776 0.721618
vn 0.026485 0.152775 0.987906
vn 0.284249 0.119963 0.951216
vn 0.251518 0.797354 0.548603
vn 0.046015 0.994409 0.095042
vn -0.074240 0.975787 -0.205740
vn -0.094921 0.985564 -0.140192
vn -0.006854 0.999942 0.008258
vn -0.008148 0.996876 -0.078562
vn 0.029351 0.999562 -0.003786
vn 0.105268 0.994326 0.015303
vn 0.115398 0.989331 -0.088923
vn 0.000000 0.999867 0.016337
vn -0.008148 0.996876 -0.078562
vn 0.115398 0.989331 -0.088923
vn -0.016397 0.999674 -0.019576
vn 0.038893 0.578350 -0.814861
vn 0.029479 -0.359171 -0.932806
vn 0.091836 -0.193776 -0.976738
vn 0.103248 0.580735 -0.807519
vn 0.034823 0.669130 -0.742329
vn 0.038893 0.578350 -0.814861
vn 0.103248 0.580735 -0.807519
vn 0.090857 0.624888 -0.775410
vn -0.067267 0.997728 -0.003861
vn -0.026284 0.998741 0.042716
vn -0.037762 0.999005 -0.023726
vn -0.040107 0.998959 -0.021736
vn 0.029351 0.999562 -0.003786
vn -0.037762 0.999005 -0.023726
vn -0.026284 0.998741 0.042716
vn 0.048850 0.996749 0.064066
vn 0.105268 0.994326 0.015303
vn 0.029351 0.999562 -0.003786
vn 0.048850 0.996749 0.064066
vn 0.073780 0.995178 0.064631
vn -0.186042 0.982231 0.024692
vn 0.105268 0.994326 0.015303
vn 0.073780 0.995178 0.064631
vn -0.119110 0.992680 -0.019961
vn 0.893262 0.435203 0.112615
vn 0.991207 0.070475 0.111993
vn 0.977675 0.204244 -0.049358
vn 0.917151 0.388138 -0.090461
vn 0.991207 0.070475 0.111993
vn 0.993398 -0.011473 0.114146
vn 0.985692 0.163278 -0.041857
vn 0.977675 0.204244 -0.049358
vn 0.993398 -0.011473 0.114146
vn 0.992187 -0.002482 0.124735
vn 0.999979 -0.000370 0.006515
vn 0.985692 0.163278 -0.041857
vn 0.000000 -0.999867 -0.016337
vn 0.157495 -0.985180 0.067942
vn 0.195978 -0.980588 -0.006347
vn 0.000000 -0.999867 -0.016337
vn 0.157495 -0.985180 0.067942
vn 0.084274 -0.994181 0.067092
vn 0.046916 -0.997123 -0.059542
vn 0.195978 -0.980588 -0.006347
vn 0.084274 -0.994181 0.067092
vn -0.062060 -0.997761 0.024920
vn -0.079395 -0.993771 -0.078198
vn 0.046916 -0.997123 -0.059542
vn -0.126809 -0.988319 -0.084527
vn -0.079395 -0.993771 -0.078198
vn -0.062060 -0.997761 0.024920
vn -0.206470 -0.978453 -0.000667
vn -0.624472 -0.780506 -0.029069
vn -0.999894 0.000392 -0.014571
vn -0.999359 0.000487 -0.035784
vn -0.641465 -0.766867 0.020916
vn -0.661826 -0.749190 -0.026459
vn -0.624472 -0.780506 -0.029069
vn -0.641465 -0.766867 0.020916
vn -0.701439 -0.711376 0.043908
vn -0.894305 -0.436521 -0.098329
vn -0.661826 -0.749190 -0.026459
vn -0.701439 -0.711376 0.043908
vn -0.884121 -0.462246 0.068249
vn -0.075839 0.974095 0.213045
vn 0.004162 0.985122 0.171804
vn -0.026284 0.998741 0.042716
vn -0.067267 0.997728 -0.003861
vn 0.048850 0.996749 0.064066
vn -0.026284 0.998741 0.042716
vn 0.004162 0.985122 0.171804
vn 0.046015 0.994409 0.095042
vn 0.073780 0.995178 0.064631
vn 0.048850 0.996749 0.064066
vn 0.046015 0.994409 0.095042
vn -0.006854 0.999942 0.008258
vn -0.119110 0.992680 -0.019961
vn 0.073780 0.995178 0.064631
vn -0.006854 0.999942 0.008258
vn -0.059424 0.997744 -0.031234
vn 0.737357 0.536840 0.410010
vn 0.907194 0.023812 0.420039
vn 0.991207 0.070475 0.111993
vn 0.893262 0.435203 0.112615
vn 0.907194 0.023812 0.420039
vn 0.908058 -0.065690 0.413662
vn 0.993398 -0.011473 0.114146
vn 0.991207 0.070475 0.111993
vn 0.908058 -0.065690 0.413662
vn 0.893091 -0.008911 0.449787
vn 0.992187 -0.002482 0.124735
vn 0.993398 -0.011473 0.114146
vn 0.000000 -0.999867 -0.016337
vn 0.000000 -0.999867 -0.016337
vn 0.157495 -0.985180 0.067942
vn 0.000000 -0.999867 -0.016337
vn 0.085249 -0.981727 0.170129
vn 0.084274 -0.994181 0.067092
vn 0.157495 -0.985180 0.067942
vn 0.000000 -0.999867 -0.016337
vn 0.003164 -0.968144 0.250374
vn -0.062060 -0.997761 0.024920
vn 0.084274 -0.994181 0.067092
vn 0.085249 -0.981727 0.170129
vn -0.206470 -0.978453 -0.000667
vn -0.062060 -0.997761 0.024920
vn 0.003164 -0.968144 0.250374
vn -0.194116 -0.938436 0.285756
vn -0.641465 -0.766867 0.020916
vn -0.999359 0.000487 -0.035784
vn -0.997440 -0.000193 0.071515
vn -0.762635 -0.631738 0.138904
vn -0.701439 -0.711376 0.043908
vn -0.641465 -0.766867 0.020916
vn -0.762635 -0.631738 0.138904
vn -0.873184 -0.445077 0.198637
vn -0.884121 -0.462246 0.068249
vn -0.701439 -0.711376 0.043908
vn -0.873184 -0.445077 0.198637
vn -0.639094 0.714808 0.283917
s off
g Rocks_concrete_and_Brick:Concrete2
usemtl initialShadingGroup
f 22/1/1 23/2/2 10/3/3 4/4/4
f 40/5/5 41/6/6 72/7/7 73/8/8
f 20/9/9 21/10/10 6/11/11 11/12/12
f 76/13/13 77/14/14 36/15/15 37/16/16
f 73/17/17 74/18/18 39/19/19 40/20/20
f 42/21/21 43/22/22 82/23/23 69/24/24
f 23/2/25 24/25/26 14/26/27 10/3/28
f 74/18/29 75/27/30 38/28/31 39/19/32
f 19/29/33 20/9/34 11/12/35 15/30/36
f 43/22/37 44/31/38 81/32/39 82/23/40
f 24/25/41 17/33/42 2/34/43 14/26/44
f 75/27/45 76/35/46 37/36/47 38/28/48
f 18/37/49 19/29/50 15/30/51 8/38/52
f 44/31/53 35/39/54 80/40/55 81/32/56
f 78/41/57 79/42/58 47/43/59 59/44/60
f 48/45/61 49/46/62 57/47/63 58/48/64
f 49/46/65 50/49/66 68/50/67 57/47/68
f 50/49/69 51/51/70 67/52/71 68/50/72
f 52/53/73 70/54/74 71/55/75 66/56/76
f 54/57/77 55/58/78 63/59/79 64/60/80
f 55/58/81 56/61/82 62/62/83 63/59/84
f 56/61/85 45/63/86 61/64/87 62/62/88
f 53/65/89 54/57/90 64/60/91 65/66/92
f 27/67/93 26/68/94 22/1/95 4/4/96
f 10/3/97 28/69/98 27/70/99 4/4/100
f 14/26/101 29/71/102 28/69/103 10/3/104
f 2/34/105 30/72/106 29/71/107 14/26/108
f 17/73/109 31/74/110 30/75/111 2/76/112
f 45/77/113 46/78/114 60/79/115 61/80/116
f 33/81/117 32/82/118 1/83/119 13/84/120
f 34/85/121 33/81/122 13/84/123 9/86/124
f 25/87/125 34/85/126 9/86/127 3/88/128
f 47/43/129 48/45/130 58/48/131 59/44/132
f 37/16/133 36/15/134 18/37/135 8/38/136
f 38/28/137 37/36/138 8/89/139 15/90/140
f 39/19/141 38/28/142 15/90/143 11/91/144
f 40/20/145 39/19/146 11/91/147 6/92/148
f 21/10/149 41/6/150 40/5/151 6/11/152
f 51/51/153 52/53/154 66/56/155 67/52/156
f 12/93/157 43/22/158 42/21/159 5/94/160
f 16/95/161 44/31/162 43/22/163 12/93/164
f 7/96/165 35/39/166 44/31/167 16/95/168
f 32/97/169 46/78/170 45/77/171 1/98/172
f 35/99/173 47/43/174 79/42/175 80/100/176
f 7/101/177 48/45/178 47/43/179 35/99/180
f 16/102/181 49/46/182 48/45/183 7/101/184
f 12/103/185 50/49/186 49/46/187 16/102/188
f 5/104/189 51/51/190 50/49/191 12/103/192
f 42/105/193 52/53/194 51/51/195 5/104/196
f 69/106/197 70/54/198 52/53/199 42/105/200
f 3/88/201 54/57/202 53/65/203 25/107/204
f 9/86/205 55/58/206 54/57/207 3/88/208
f 13/84/209 56/61/210 55/58/211 9/86/212
f 1/83/213 45/63/214 56/61/215 13/84/216
f 58/48/217 57/47/218 19/29/219 18/37/220
f 59/44/221 58/48/222 18/37/223 36/15/224
f 77/14/225 78/41/226 59/44/227 36/15/228
f 61/80/229 60/79/230 31/74/231 17/73/232
f 62/62/233 61/64/234 17/33/235 24/25/236
f 63/59/237 62/62/238 24/25/239 23/2/240
f 64/60/241 63/59/242 23/2/243 22/1/244
f 65/66/245 64/60/246 22/1/247 26/68/248
f 66/56/249 71/55/250 72/7/251 41/6/252
f 67/52/253 66/56/254 41/6/255 21/10/256
f 68/50/257 67/52/258 21/10/259 20/9/260
f 57/47/261 68/50/262 20/9/263 19/29/264
f 83/108/265 84/109/266 70/54/267 69/106/268
f 71/55/269 70/54/270 84/109/271 85/110/272
f 72/7/273 71/55/274 85/110/275 86/111/276
f 73/8/277 72/7/278 86/111/279 87/112/280
f 87/113/281 88/114/282 74/18/283 73/17/284
f 88/114/285 89/115/286 75/27/287 74/18/288
f 89/115/289 90/116/290 76/35/291 75/27/292
f 90/117/293 91/118/294 77/14/295 76/13/296
f 91/118/297 92/119/298 78/41/299 77/14/300
f 92/119/301 93/120/302 79/42/303 78/41/304
f 80/100/305 79/42/306 93/120/307 94/121/308
f 81/32/309 80/40/310 94/122/311 95/123/312
f 82/23/313 81/32/314 95/123/315 96/124/316
f 69/24/317 82/23/318 96/124/319 83/125/320
f 25/107/321 53/65/322 84/109/323 83/108/324
f 85/110/325 84/109/326 53/65/327 65/66/328
f 86/111/329 85/110/330 65/66/331 26/68/332
f 87/112/333 86/111/334 26/68/335 27/67/336
f 27/70/337 28/69/338 88/114/339 87/113/340
f 28/69/341 29/71/342 89/115/343 88/114/344
f 29/71/345 30/72/346 90/116/347 89/115/348
f 30/75/349 31/74/350 91/118/351 90/117/352
f 60/79/353 92/119/354 91/118/355 31/74/356
f 46/78/357 93/120/358 92/119/359 60/79/360
f 94/121/361 93/120/362 46/78/363 32/97/364
f 95/123/365 94/122/366 32/82/367 33/81/368
f 96/124/369 95/123/370 33/81/371 34/85/372
f 83/125/373 96/124/374 34/85/375 25/87/376
