# This file uses centimeters as units for non-parametric coordinates.

mtllib large tray.mtl
g default
v -8.456359 0.016683 -3.173818
v 8.279443 0.016683 -3.173818
v -8.456359 0.016683 -12.079390
v 8.279443 0.016683 -12.079390
v -8.026820 0.124407 -3.253847
v 7.849904 0.124407 -3.253847
v 8.222830 1.181654 -3.253847
v -8.399747 1.181654 -3.253847
v -8.399747 1.181654 -11.999361
v 8.222830 1.181654 -11.999361
v 7.849904 0.124407 -11.999361
v -8.026820 0.124407 -11.999361
v -8.456363 1.039820 -3.173818
v -8.456363 1.039820 -12.079390
v 8.279446 1.039820 -12.079390
v 8.279446 1.039820 -3.173818
v -8.714646 1.038395 -3.057666
v -8.714646 1.038395 -12.195542
v -8.714646 1.183079 -3.057666
v -8.714646 1.183079 -12.195542
v 8.537729 1.183079 -12.195542
v 8.537729 1.038395 -12.195542
v 8.537729 1.038395 -3.057666
v 8.537729 1.183079 -3.057666
vt 0.375000 0.000000
vt 0.625000 0.000000
vt 0.375000 0.750000
vt 0.625000 0.750000
vt 0.375000 1.000000
vt 0.625000 1.000000
vt 0.875000 0.000000
vt 0.125000 0.000000
vt 0.375000 0.000000
vt 0.625000 0.000000
vt 0.625000 0.750000
vt 0.375000 0.750000
vt 0.625000 1.000000
vt 0.375000 1.000000
vt 0.875000 0.000000
vt 0.125000 0.000000
vt 0.625000 0.250000
vt 0.375000 0.250000
vt 0.375000 0.500000
vt 0.625000 0.500000
vt 0.875000 0.250000
vt 0.125000 0.250000
vt 0.375000 0.205958
vt 0.125000 0.205958
vt 0.375000 0.544042
vt 0.625000 0.544042
vt 0.875000 0.205958
vt 0.625000 0.205958
vt 0.125000 0.205958
vt 0.375000 0.205958
vt 0.375000 0.250000
vt 0.125000 0.250000
vt 0.375000 0.500000
vt 0.625000 0.500000
vt 0.625000 0.544042
vt 0.375000 0.544042
vt 0.625000 0.205958
vt 0.875000 0.205958
vt 0.875000 0.250000
vt 0.625000 0.250000
vn 0.000000 0.000000 -1.000000
vn 0.000000 0.000000 -1.000000
vn 0.000000 0.000000 -1.000000
vn 0.000000 0.000000 -1.000000
vn 0.000000 0.000000 1.000000
vn 0.000000 0.000000 1.000000
vn 0.000000 0.000000 1.000000
vn 0.000000 0.000000 1.000000
vn 0.000000 1.000000 0.000000
vn 0.000000 1.000000 0.000000
vn 0.000000 1.000000 0.000000
vn 0.000000 1.000000 0.000000
vn -0.943052 0.332646 0.000000
vn -0.943052 0.332646 0.000000
vn -0.943052 0.332646 0.000000
vn -0.943052 0.332646 0.000000
vn 0.943052 0.332646 0.000000
vn 0.943052 0.332646 0.000000
vn 0.943052 0.332646 0.000000
vn 0.943052 0.332646 0.000000
vn 0.000000 0.000000 1.000000
vn 0.000000 0.000000 1.000000
vn 0.000000 0.000000 1.000000
vn 0.000000 0.000000 1.000000
vn 0.000000 0.000000 -1.000000
vn 0.000000 0.000000 -1.000000
vn 0.000000 0.000000 -1.000000
vn 0.000000 0.000000 -1.000000
vn -0.000000 -1.000000 -0.000000
vn -0.000000 -1.000000 -0.000000
vn -0.000000 -1.000000 -0.000000
vn -0.000000 -1.000000 -0.000000
vn 1.000000 -0.000003 0.000000
vn 1.000000 -0.000003 0.000000
vn 1.000000 -0.000003 0.000000
vn 1.000000 -0.000003 0.000000
vn -1.000000 -0.000003 -0.000000
vn -1.000000 -0.000003 -0.000000
vn -1.000000 -0.000003 -0.000000
vn -1.000000 -0.000003 -0.000000
vn -0.001823 0.999989 -0.004338
vn -0.002161 0.999990 -0.003795
vn 0.000000 0.999974 -0.007264
vn 0.000000 0.999974 -0.007264
vn -0.004526 0.999990 0.000000
vn -0.004526 0.999990 0.000000
vn -1.000000 0.000000 0.000000
vn -1.000000 0.000000 0.000000
vn -1.000000 0.000000 0.000000
vn -1.000000 0.000000 0.000000
vn 0.000000 0.000000 -1.000000
vn 0.000000 0.000000 -1.000000
vn 0.000000 0.000000 -1.000000
vn 0.000000 0.000000 -1.000000
vn 1.000000 0.000000 0.000000
vn 1.000000 0.000000 0.000000
vn 1.000000 0.000000 0.000000
vn 1.000000 0.000000 0.000000
vn 0.000000 0.000000 1.000000
vn 0.000000 0.000000 1.000000
vn 0.000000 0.000000 1.000000
vn 0.000000 0.000000 1.000000
vn 0.005518 -0.999985 -0.000000
vn 0.005518 -0.999985 -0.000000
vn 0.005518 -0.999985 -0.000000
vn 0.005518 -0.999985 -0.000000
vn 0.001823 0.999989 0.004338
vn 0.004526 0.999990 0.000000
vn 0.004526 0.999990 0.000000
vn 0.002161 0.999990 0.003795
vn 0.000000 0.999974 0.007264
vn 0.000000 0.999974 0.007264
vn -0.000000 -0.999925 0.012269
vn -0.000000 -0.999925 0.012269
vn -0.000000 -0.999925 0.012269
vn -0.000000 -0.999925 0.012269
vn -0.005518 -0.999985 0.000000
vn -0.005518 -0.999985 0.000000
vn -0.005518 -0.999985 0.000000
vn -0.005518 -0.999985 0.000000
vn 0.000000 -0.999925 -0.012269
vn 0.000000 -0.999925 -0.012269
vn 0.000000 -0.999925 -0.012269
vn 0.000000 -0.999925 -0.012269
s off
g darkroom_tray_large
usemtl initialShadingGroup
f 5/1/1 8/18/2 7/17/3 6/2/4
f 10/20/5 9/19/6 12/3/7 11/4/8
f 5/5/9 6/6/10 11/4/11 12/3/12
f 6/2/13 7/17/14 10/21/15 11/7/16
f 9/22/17 8/18/18 5/1/19 12/8/20
f 13/23/21 1/9/22 2/10/23 16/28/24
f 3/12/25 14/25/26 15/26/27 4/11/28
f 4/11/29 2/13/30 1/14/31 3/12/32
f 16/28/33 2/10/34 4/15/35 15/27/36
f 1/9/37 13/23/38 14/24/39 3/16/40
s 1
f 24/40/41 7/17/42 8/18/43 19/31/44
f 10/21/45 7/17/42 24/40/41 21/39/46
s off
f 17/30/47 19/31/48 20/32/49 18/29/50
f 18/36/51 20/33/52 21/34/53 22/35/54
f 24/40/55 23/37/56 22/38/57 21/39/58
f 19/31/59 17/30/60 23/37/61 24/40/62
f 13/23/63 17/30/64 18/29/65 14/24/66
s 2
f 20/32/67 19/31/68 8/18/69 9/22/70
f 10/20/71 21/34/72 20/33/67 9/19/70
s off
f 14/25/73 18/36/74 22/35/75 15/26/76
f 23/37/77 16/28/78 15/27/79 22/38/80
f 17/30/81 13/23/82 16/28/83 23/37/84
