# This file uses centimeters as units for non-parametric coordinates.

mtllib small tray.mtl
g default
v 2.949860 0.005468 1.851570
v 5.421429 0.005468 1.851570
v 2.949860 0.005468 -1.851570
v 5.421429 0.005468 -1.851570
v 2.985758 0.056183 1.818292
v 5.385531 0.056183 1.818292
v 5.441899 0.553910 1.818292
v 2.929390 0.553910 1.818292
v 2.929390 0.553910 -1.818292
v 5.441899 0.553910 -1.818292
v 5.385531 0.056183 -1.818292
v 2.985758 0.056183 -1.818292
v 2.891806 0.487138 1.851570
v 2.891806 0.487138 -1.851570
v 5.479483 0.487138 -1.851570
v 5.479483 0.487138 1.851570
v 2.843766 0.486467 1.888779
v 2.843766 0.486467 -1.888779
v 2.843766 0.554581 1.888779
v 2.843766 0.554581 -1.888779
v 5.527524 0.554581 -1.888779
v 5.527524 0.486467 -1.888779
v 5.527524 0.486467 1.888779
v 5.527524 0.554581 1.888779
vt 0.375000 0.000000
vt 0.625000 0.000000
vt 0.375000 0.750000
vt 0.625000 0.750000
vt 0.375000 1.000000
vt 0.625000 1.000000
vt 0.875000 0.000000
vt 0.125000 0.000000
vt 0.375000 0.000000
vt 0.625000 0.000000
vt 0.625000 0.750000
vt 0.375000 0.750000
vt 0.625000 1.000000
vt 0.375000 1.000000
vt 0.875000 0.000000
vt 0.125000 0.000000
vt 0.625000 0.250000
vt 0.375000 0.250000
vt 0.375000 0.500000
vt 0.625000 0.500000
vt 0.875000 0.250000
vt 0.125000 0.250000
vt 0.375000 0.205958
vt 0.125000 0.205958
vt 0.375000 0.544042
vt 0.625000 0.544042
vt 0.875000 0.205958
vt 0.625000 0.205958
vt 0.125000 0.205958
vt 0.375000 0.205958
vt 0.375000 0.250000
vt 0.125000 0.250000
vt 0.375000 0.500000
vt 0.625000 0.500000
vt 0.625000 0.544042
vt 0.375000 0.544042
vt 0.625000 0.205958
vt 0.875000 0.205958
vt 0.875000 0.250000
vt 0.625000 0.250000
vn 0.000000 0.000000 -1.000000
vn 0.000000 0.000000 -1.000000
vn 0.000000 0.000000 -1.000000
vn 0.000000 0.000000 -1.000000
vn 0.000000 0.000000 1.000000
vn 0.000000 0.000000 1.000000
vn 0.000000 0.000000 1.000000
vn 0.000000 0.000000 1.000000
vn 0.000000 1.000000 0.000000
vn 0.000000 1.000000 0.000000
vn 0.000000 1.000000 0.000000
vn 0.000000 1.000000 0.000000
vn -0.993648 0.112531 -0.000000
vn -0.993648 0.112531 -0.000000
vn -0.993648 0.112531 -0.000000
vn -0.993648 0.112531 -0.000000
vn 0.993648 0.112531 0.000000
vn 0.993648 0.112531 0.000000
vn 0.993648 0.112531 0.000000
vn 0.993648 0.112531 0.000000
vn 0.000000 0.000000 1.000000
vn 0.000000 0.000000 1.000000
vn 0.000000 0.000000 1.000000
vn 0.000000 0.000000 1.000000
vn 0.000000 0.000000 -1.000000
vn 0.000000 0.000000 -1.000000
vn 0.000000 0.000000 -1.000000
vn 0.000000 0.000000 -1.000000
vn -0.000000 -1.000000 -0.000000
vn -0.000000 -1.000000 -0.000000
vn -0.000000 -1.000000 -0.000000
vn -0.000000 -1.000000 -0.000000
vn 0.992815 -0.119661 0.000000
vn 0.992815 -0.119661 0.000000
vn 0.992815 -0.119661 0.000000
vn 0.992815 -0.119661 0.000000
vn -0.992815 -0.119661 -0.000000
vn -0.992815 -0.119661 -0.000000
vn -0.992815 -0.119661 -0.000000
vn -0.992815 -0.119661 -0.000000
vn -0.006083 0.999979 -0.002128
vn -0.004551 0.999982 -0.003990
vn -0.000000 0.999955 -0.009518
vn -0.000000 0.999955 -0.009518
vn -0.007835 0.999969 -0.000000
vn -0.007835 0.999969 -0.000000
vn -1.000000 0.000000 0.000000
vn -1.000000 0.000000 0.000000
vn -1.000000 0.000000 0.000000
vn -1.000000 0.000000 0.000000
vn 0.000000 0.000000 -1.000000
vn 0.000000 0.000000 -1.000000
vn 0.000000 0.000000 -1.000000
vn 0.000000 0.000000 -1.000000
vn 1.000000 0.000000 0.000000
vn 1.000000 0.000000 0.000000
vn 1.000000 0.000000 0.000000
vn 1.000000 0.000000 0.000000
vn 0.000000 0.000000 1.000000
vn 0.000000 0.000000 1.000000
vn 0.000000 0.000000 1.000000
vn 0.000000 0.000000 1.000000
vn 0.013964 -0.999903 -0.000000
vn 0.013964 -0.999903 -0.000000
vn 0.013964 -0.999903 -0.000000
vn 0.013964 -0.999903 -0.000000
vn 0.006083 0.999979 0.002128
vn 0.007835 0.999969 0.000000
vn 0.007835 0.999969 0.000000
vn 0.004551 0.999982 0.003990
vn 0.000000 0.999955 0.009518
vn 0.000000 0.999955 0.009518
vn -0.000000 -0.999837 0.018028
vn -0.000000 -0.999837 0.018028
vn -0.000000 -0.999837 0.018028
vn -0.000000 -0.999837 0.018028
vn -0.013964 -0.999903 0.000000
vn -0.013964 -0.999903 0.000000
vn -0.013964 -0.999903 0.000000
vn -0.013964 -0.999903 0.000000
vn 0.000000 -0.999837 -0.018029
vn 0.000000 -0.999837 -0.018029
vn 0.000000 -0.999837 -0.018029
vn 0.000000 -0.999837 -0.018029
s off
g drarkroom_tray_small
usemtl initialShadingGroup
f 5/1/1 8/18/2 7/17/3 6/2/4
f 10/20/5 9/19/6 12/3/7 11/4/8
f 12/3/9 5/5/10 6/6/11 11/4/12
f 6/2/13 7/17/14 10/21/15 11/7/16
f 9/22/17 8/18/18 5/1/19 12/8/20
f 13/23/21 1/9/22 2/10/23 16/28/24
f 3/12/25 14/25/26 15/26/27 4/11/28
f 1/14/29 3/12/30 4/11/31 2/13/32
f 16/28/33 2/10/34 4/15/35 15/27/36
f 1/9/37 13/23/38 14/24/39 3/16/40
s 1
f 24/40/41 7/17/42 8/18/43 19/31/44
f 10/21/45 7/17/42 24/40/41 21/39/46
s off
f 17/30/47 19/31/48 20/32/49 18/29/50
f 18/36/51 20/33/52 21/34/53 22/35/54
f 24/40/55 23/37/56 22/38/57 21/39/58
f 19/31/59 17/30/60 23/37/61 24/40/62
f 13/23/63 17/30/64 18/29/65 14/24/66
s 2
f 20/32/67 19/31/68 8/18/69 9/22/70
f 10/20/71 21/34/72 20/33/67 9/19/70
s off
f 14/25/73 18/36/74 22/35/75 15/26/76
f 23/37/77 16/28/78 15/27/79 22/38/80
f 17/30/81 13/23/82 16/28/83 23/37/84
