# This file uses centimeters as units for non-parametric coordinates.

mtllib platter.mtl
g default
v 0.891264 0.191419 -0.682537
v 0.616774 0.191419 -1.229889
v 0.220124 0.191419 -1.533647
v -0.220124 0.191419 -1.533647
v -0.616774 0.191419 -1.229890
v -0.891264 0.191419 -0.682537
v -0.989228 0.191419 -0.000000
v -0.891264 0.191419 0.682537
v -0.616774 0.191419 1.229889
v -0.220124 0.191419 1.533647
v 0.220124 0.191419 1.533647
v 0.616774 0.191419 1.229890
v 0.891264 0.191419 0.682537
v 0.989229 0.191419 0.000000
v 0.891264 0.270435 -0.682537
v 0.616774 0.270435 -1.229889
v 0.220124 0.270435 -1.533647
v -0.220124 0.270435 -1.533647
v -0.616774 0.270435 -1.229890
v -0.891264 0.270435 -0.682537
v -0.989228 0.270435 -0.000000
v -0.891264 0.270435 0.682537
v -0.616774 0.270435 1.229889
v -0.220124 0.270435 1.533647
v 0.220124 0.270435 1.533647
v 0.616774 0.270435 1.229890
v 0.891264 0.270435 0.682537
v 0.989229 0.270435 0.000000
v 0.000000 0.114229 0.000000
v 0.659367 0.101371 -0.504948
v 0.731842 0.101371 -0.000000
v 0.659366 0.101371 0.504948
v 0.456296 0.101371 0.909885
v 0.162850 0.101371 1.134609
v -0.162850 0.101371 1.134608
v -0.456296 0.101371 0.909885
v -0.659367 0.101371 0.504948
v -0.731841 0.101371 -0.000000
v -0.659366 0.101371 -0.504948
v -0.456296 0.101371 -0.909885
v -0.162850 0.101371 -1.134608
v 0.162850 0.101371 -1.134608
v 0.456296 0.101371 -0.909885
v 0.682181 0.135200 -0.522419
v 0.472083 0.135200 -0.941367
v 0.168485 0.135200 -1.173865
v -0.168485 0.135200 -1.173865
v -0.472083 0.135200 -0.941367
v -0.682180 0.135200 -0.522419
v -0.757163 0.135200 -0.000000
v -0.682181 0.135200 0.522419
v -0.472084 0.135200 0.941367
v -0.168485 0.135200 1.173865
v 0.168485 0.135200 1.173866
v 0.472083 0.135200 0.941367
v 0.682180 0.135200 0.522419
v 0.757163 0.135200 -0.000000
v 0.426504 0.005645 -0.850479
v 0.616317 0.005645 -0.471980
v 0.000000 0.024592 0.000000
v 0.152218 0.005645 -1.060530
v -0.152218 0.005645 -1.060530
v -0.426504 0.005645 -0.850479
v -0.616316 0.005645 -0.471980
v -0.684059 0.005645 -0.000000
v -0.616317 0.005645 0.471980
v -0.426504 0.005645 0.850479
v -0.152218 0.005645 1.060530
v 0.152218 0.005645 1.060530
v 0.426504 0.005645 0.850479
v 0.616316 0.005645 0.471980
v 0.684060 0.005645 0.000000
v 0.838993 0.236626 -0.642507
v 0.580601 0.236626 -1.157759
v 0.207214 0.236626 -1.443702
v -0.207214 0.236626 -1.443702
v -0.580601 0.236626 -1.157759
v -0.838993 0.236626 -0.642508
v -0.931212 0.236626 -0.000000
v -0.838993 0.236626 0.642507
v -0.580601 0.236626 1.157759
v -0.207214 0.236626 1.443702
v 0.207214 0.236626 1.443702
v 0.580601 0.236626 1.157759
v 0.838993 0.236626 0.642508
v 0.931212 0.236626 -0.000000
v 0.838993 0.168907 -0.642507
v 0.931212 0.168907 -0.000000
v 0.838993 0.168907 0.642508
v 0.580601 0.168907 1.157759
v 0.207214 0.168907 1.443702
v -0.207214 0.168907 1.443702
v -0.580601 0.168907 1.157759
v -0.838993 0.168907 0.642507
v -0.931212 0.168907 -0.000000
v -0.838993 0.168907 -0.642508
v -0.580601 0.168907 -1.157759
v -0.207214 0.168907 -1.443702
v 0.207214 0.168907 -1.443702
v 0.580601 0.168907 -1.157759
v 0.754633 0.135139 -0.577903
v 0.522222 0.135139 -1.041346
v 0.186379 0.135139 -1.298537
v -0.186379 0.135139 -1.298537
v -0.522222 0.135139 -1.041346
v -0.754632 0.135139 -0.577904
v -0.837579 0.135139 -0.000000
v -0.754633 0.135139 0.577903
v -0.522222 0.135139 1.041346
v -0.186379 0.135139 1.298537
v 0.186379 0.135139 1.298538
v 0.522222 0.135139 1.041346
v 0.754632 0.135139 0.577904
v 0.837579 0.135139 -0.000000
v 0.449294 0.037198 -0.895923
v 0.649249 0.037198 -0.497199
v 0.720611 0.037198 -0.000000
v 0.649248 0.037198 0.497200
v 0.449294 0.037198 0.895923
v 0.160351 0.037198 1.117198
v -0.160351 0.037198 1.117197
v -0.449294 0.037198 0.895923
v -0.649249 0.037198 0.497200
v -0.720611 0.037198 -0.000000
v -0.649248 0.037198 -0.497200
v -0.449294 0.037198 -0.895923
v -0.160351 0.037198 -1.117197
v 0.160351 0.037198 -1.117197
v 0.798941 0.185913 -0.611835
v 0.886757 0.185913 -0.000000
v 0.798941 0.185913 0.611835
v 0.552884 0.185913 1.102489
v 0.197322 0.185913 1.374781
v -0.197322 0.185913 1.374781
v -0.552884 0.185913 1.102489
v -0.798941 0.185913 0.611835
v -0.886757 0.185913 -0.000000
v -0.798940 0.185913 -0.611835
v -0.552884 0.185913 -1.102489
v -0.197322 0.185913 -1.374781
v 0.197322 0.185913 -1.374781
v 0.552884 0.185913 -1.102489
vt 0.640776 0.088456
vt 0.597420 0.034089
vt 0.534769 0.003918
vt 0.465231 0.003918
vt 0.402580 0.034089
vt 0.359224 0.088456
vt 0.343750 0.156250
vt 0.359224 0.224044
vt 0.402580 0.278411
vt 0.465231 0.308582
vt 0.534769 0.308582
vt 0.597420 0.278411
vt 0.640776 0.224044
vt 0.656250 0.156250
vt 0.375000 0.312500
vt 0.392857 0.312500
vt 0.410714 0.312500
vt 0.428571 0.312500
vt 0.446429 0.312500
vt 0.464286 0.312500
vt 0.482143 0.312500
vt 0.500000 0.312500
vt 0.517857 0.312500
vt 0.535714 0.312500
vt 0.553571 0.312500
vt 0.571428 0.312500
vt 0.589286 0.312500
vt 0.607143 0.312500
vt 0.625000 0.312500
vt 0.375000 0.688440
vt 0.392857 0.688440
vt 0.410714 0.688440
vt 0.428571 0.688440
vt 0.446429 0.688440
vt 0.464286 0.688440
vt 0.482143 0.688440
vt 0.500000 0.688440
vt 0.517857 0.688440
vt 0.535714 0.688440
vt 0.553571 0.688440
vt 0.571428 0.688440
vt 0.589286 0.688440
vt 0.607143 0.688440
vt 0.625000 0.688440
vt 0.640776 0.775956
vt 0.597420 0.721589
vt 0.534769 0.691418
vt 0.465231 0.691418
vt 0.402580 0.721589
vt 0.359224 0.775956
vt 0.343750 0.843750
vt 0.359224 0.911544
vt 0.402580 0.965911
vt 0.465231 0.996082
vt 0.534769 0.996082
vt 0.597420 0.965911
vt 0.640776 0.911544
vt 0.656250 0.843750
vt 0.500000 0.150000
vt 0.500000 0.837500
vt 0.570388 0.119228
vt 0.578125 0.153125
vt 0.570388 0.187022
vt 0.548710 0.214206
vt 0.517384 0.229291
vt 0.482616 0.229291
vt 0.451290 0.214206
vt 0.429612 0.187022
vt 0.421875 0.153125
vt 0.429612 0.119228
vt 0.451290 0.092044
vt 0.482616 0.076959
vt 0.517384 0.076959
vt 0.548710 0.092044
vt 0.570388 0.874522
vt 0.548710 0.901706
vt 0.517384 0.916791
vt 0.482616 0.916791
vt 0.451290 0.901706
vt 0.429612 0.874522
vt 0.421875 0.840625
vt 0.429612 0.806728
vt 0.451290 0.779544
vt 0.482616 0.764459
vt 0.517384 0.764459
vt 0.548710 0.779544
vt 0.570388 0.806728
vt 0.578125 0.840625
vt 0.548710 0.092044
vt 0.570388 0.119228
vt 0.517384 0.076959
vt 0.482616 0.076959
vt 0.451290 0.092044
vt 0.429612 0.119228
vt 0.421875 0.153125
vt 0.429612 0.187022
vt 0.451290 0.214206
vt 0.482616 0.229291
vt 0.517384 0.229291
vt 0.548710 0.214206
vt 0.570388 0.187022
vt 0.578125 0.153125
vt 0.605582 0.893033
vt 0.573065 0.933808
vt 0.526077 0.956437
vt 0.473923 0.956437
vt 0.426935 0.933808
vt 0.394418 0.893033
vt 0.382813 0.842188
vt 0.394418 0.791342
vt 0.426935 0.750567
vt 0.473923 0.727938
vt 0.526077 0.727938
vt 0.573065 0.750567
vt 0.605582 0.791342
vt 0.617188 0.842188
vt 0.605582 0.103842
vt 0.617188 0.154687
vt 0.605582 0.205533
vt 0.573065 0.246308
vt 0.526077 0.268937
vt 0.473923 0.268937
vt 0.426935 0.246308
vt 0.394418 0.205533
vt 0.382813 0.154687
vt 0.394418 0.103842
vt 0.426935 0.063067
vt 0.473923 0.040438
vt 0.526077 0.040438
vt 0.573065 0.063067
vt 0.587985 0.111535
vt 0.560888 0.077556
vt 0.521731 0.058698
vt 0.478269 0.058698
vt 0.439112 0.077556
vt 0.412015 0.111535
vt 0.402344 0.153906
vt 0.412015 0.196278
vt 0.439112 0.230257
vt 0.478269 0.249114
vt 0.521731 0.249114
vt 0.560888 0.230257
vt 0.587985 0.196278
vt 0.597656 0.153906
vt 0.548710 0.092044
vt 0.570388 0.119228
vt 0.578125 0.153125
vt 0.570388 0.187022
vt 0.548710 0.214206
vt 0.517384 0.229291
vt 0.482616 0.229291
vt 0.451290 0.214206
vt 0.429612 0.187022
vt 0.421875 0.153125
vt 0.429612 0.119228
vt 0.451290 0.092044
vt 0.482616 0.076959
vt 0.517384 0.076959
vt 0.587985 0.883778
vt 0.597656 0.841406
vt 0.587985 0.799035
vt 0.560888 0.765056
vt 0.521731 0.746198
vt 0.478269 0.746198
vt 0.439112 0.765056
vt 0.412015 0.799035
vt 0.402344 0.841406
vt 0.412015 0.883778
vt 0.439112 0.917757
vt 0.478269 0.936614
vt 0.521731 0.936614
vt 0.560888 0.917757
vn 0.957076 0.000000 -0.289837
vn 0.785237 0.000000 -0.619196
vn 0.785237 0.000000 -0.619196
vn 0.957076 0.000000 -0.289837
vn 0.341179 0.000000 -0.939998
vn 0.341179 0.000000 -0.939998
vn -0.341179 0.000000 -0.939999
vn -0.341179 0.000000 -0.939999
vn -0.785237 0.000000 -0.619196
vn -0.785237 0.000000 -0.619196
vn -0.957076 0.000000 -0.289837
vn -0.957076 0.000000 -0.289837
vn -1.000000 0.000000 -0.000000
vn -1.000000 0.000000 -0.000000
vn -0.957076 0.000000 0.289837
vn -0.957076 0.000000 0.289837
vn -0.785237 0.000000 0.619196
vn -0.785237 0.000000 0.619196
vn -0.341179 0.000000 0.939998
vn -0.341179 0.000000 0.939998
vn 0.341178 0.000000 0.939999
vn 0.341178 0.000000 0.939999
vn 0.785237 0.000000 0.619196
vn 0.785237 0.000000 0.619196
vn 0.957076 0.000000 0.289837
vn 0.957076 0.000000 0.289837
vn 1.000000 0.000000 0.000000
vn 1.000000 0.000000 0.000000
vn -0.017265 -0.999758 0.013614
vn -0.024946 -0.999660 0.007555
vn -0.000000 -1.000000 -0.000000
vn -0.006162 -0.999837 0.016978
vn 0.006162 -0.999837 0.016978
vn 0.017265 -0.999758 0.013614
vn 0.024946 -0.999660 0.007555
vn 0.027687 -0.999617 -0.000000
vn 0.024946 -0.999660 -0.007555
vn 0.017265 -0.999758 -0.013614
vn 0.006162 -0.999837 -0.016978
vn -0.006162 -0.999837 -0.016978
vn -0.017265 -0.999758 -0.013614
vn -0.024946 -0.999660 -0.007555
vn -0.027687 -0.999617 0.000000
vn -0.121973 0.991846 0.036938
vn -0.084606 0.994179 0.066716
vn -0.000000 1.000000 0.000000
vn -0.030253 0.996061 0.083351
vn 0.030253 0.996061 0.083351
vn 0.084606 0.994179 0.066716
vn 0.121973 0.991846 0.036938
vn 0.135238 0.990813 0.000000
vn 0.121973 0.991846 -0.036938
vn 0.084606 0.994178 -0.066716
vn 0.030253 0.996061 -0.083351
vn -0.030253 0.996061 -0.083351
vn -0.084606 0.994179 -0.066716
vn -0.121972 0.991846 -0.036938
vn -0.135238 0.990813 -0.000000
vn 0.316216 -0.943842 -0.095762
vn 0.348539 -0.937294 0.000000
vn 0.322177 -0.946679 0.000000
vn 0.292002 -0.952321 -0.088429
vn 0.316216 -0.943842 0.095762
vn 0.292002 -0.952321 0.088429
vn 0.222359 -0.959069 0.175340
vn 0.204841 -0.965375 0.161527
vn 0.080415 -0.971827 0.221554
vn 0.073930 -0.976241 0.203688
vn -0.080415 -0.971827 0.221555
vn -0.073930 -0.976241 0.203688
vn -0.222359 -0.959068 0.175340
vn -0.204842 -0.965375 0.161527
vn -0.316217 -0.943842 0.095762
vn -0.292002 -0.952321 0.088429
vn -0.348539 -0.937294 -0.000000
vn -0.322177 -0.946679 -0.000000
vn -0.316216 -0.943842 -0.095762
vn -0.292002 -0.952321 -0.088429
vn -0.222359 -0.959068 -0.175340
vn -0.204841 -0.965375 -0.161527
vn -0.080415 -0.971827 -0.221554
vn -0.073930 -0.976241 -0.203688
vn 0.080415 -0.971827 -0.221554
vn 0.073930 -0.976241 -0.203688
vn 0.222359 -0.959068 -0.175340
vn 0.204842 -0.965375 -0.161527
vn -0.582743 0.793264 0.176475
vn -0.426743 0.839436 0.336507
vn -0.337887 0.902686 0.266440
vn -0.470898 0.870585 0.142605
vn -0.160192 0.882919 0.441353
vn -0.124395 0.931163 0.342727
vn 0.160192 0.882919 0.441353
vn 0.124395 0.931163 0.342727
vn 0.426743 0.839436 0.336507
vn 0.337887 0.902686 0.266440
vn 0.582743 0.793264 0.176475
vn 0.470898 0.870585 0.142605
vn 0.631927 0.775028 0.000000
vn 0.514718 0.857360 0.000000
vn 0.582743 0.793263 -0.176475
vn 0.470898 0.870585 -0.142605
vn 0.426743 0.839436 -0.336507
vn 0.337887 0.902686 -0.266440
vn 0.160192 0.882919 -0.441353
vn 0.124395 0.931163 -0.342727
vn -0.160192 0.882919 -0.441353
vn -0.124395 0.931163 -0.342727
vn -0.426743 0.839436 -0.336507
vn -0.337887 0.902686 -0.266440
vn -0.582742 0.793264 -0.176475
vn -0.470898 0.870585 -0.142605
vn -0.631927 0.775028 -0.000000
vn -0.514718 0.857360 -0.000000
vn 0.784391 -0.479580 -0.393363
vn 0.784391 -0.479580 -0.393363
vn 0.547321 -0.790635 -0.274475
vn 0.547321 -0.790635 -0.274475
vn 0.505147 -0.556526 -0.659626
vn 0.505147 -0.556526 -0.659626
vn 0.324773 -0.845381 -0.424091
vn 0.324773 -0.845381 -0.424091
vn 0.000000 -0.605157 -0.796106
vn 0.000000 -0.605157 -0.796106
vn 0.000000 -0.873696 -0.486472
vn 0.000000 -0.873696 -0.486472
vn -0.505146 -0.556526 -0.659626
vn -0.505146 -0.556526 -0.659626
vn -0.324772 -0.845381 -0.424092
vn -0.324772 -0.845381 -0.424092
vn -0.784391 -0.479579 -0.393362
vn -0.784391 -0.479579 -0.393362
vn -0.547322 -0.790634 -0.274475
vn -0.547322 -0.790634 -0.274475
vn -0.890517 -0.436626 -0.127816
vn -0.890517 -0.436626 -0.127816
vn -0.650588 -0.753668 -0.093379
vn -0.650588 -0.753668 -0.093379
vn -0.890517 -0.436627 0.127815
vn -0.890517 -0.436627 0.127815
vn -0.650589 -0.753667 0.093378
vn -0.650589 -0.753667 0.093378
vn -0.784391 -0.479580 0.393362
vn -0.784391 -0.479580 0.393362
vn -0.547321 -0.790635 0.274475
vn -0.547321 -0.790635 0.274475
vn -0.505147 -0.556525 0.659626
vn -0.505147 -0.556525 0.659626
vn -0.324773 -0.845381 0.424092
vn -0.324773 -0.845381 0.424092
vn -0.000001 -0.605157 0.796106
vn -0.000001 -0.605157 0.796106
vn -0.000000 -0.873696 0.486472
vn -0.000000 -0.873696 0.486472
vn 0.505147 -0.556526 0.659625
vn 0.505147 -0.556526 0.659625
vn 0.324773 -0.845381 0.424091
vn 0.324773 -0.845381 0.424091
vn 0.784391 -0.479579 0.393362
vn 0.784391 -0.479579 0.393362
vn 0.547322 -0.790634 0.274475
vn 0.547322 -0.790634 0.274475
vn 0.890517 -0.436627 0.127816
vn 0.890517 -0.436627 0.127816
vn 0.650588 -0.753668 0.093379
vn 0.650588 -0.753668 0.093379
vn 0.890517 -0.436627 -0.127815
vn 0.890517 -0.436627 -0.127815
vn 0.650588 -0.753668 -0.093378
vn 0.650588 -0.753668 -0.093378
vn -0.460318 0.876741 0.139401
vn -0.329746 0.907556 0.260020
vn -0.121213 0.934761 0.333959
vn 0.121213 0.934761 0.333959
vn 0.329746 0.907556 0.260020
vn 0.460318 0.876741 0.139401
vn 0.503491 0.864001 0.000000
vn 0.460318 0.876741 -0.139401
vn 0.329746 0.907556 -0.260020
vn 0.121213 0.934761 -0.333959
vn -0.121213 0.934761 -0.333959
vn -0.329746 0.907556 -0.260020
vn -0.460318 0.876741 -0.139401
vn -0.503490 0.864001 -0.000000
vn 0.328381 -0.939296 -0.099446
vn 0.361752 -0.932275 0.000000
vn 0.328381 -0.939296 0.099446
vn 0.231208 -0.955669 0.182318
vn 0.083706 -0.969436 0.230623
vn -0.083706 -0.969436 0.230623
vn -0.231208 -0.955669 0.182319
vn -0.328382 -0.939296 0.099446
vn -0.361752 -0.932274 -0.000000
vn -0.328382 -0.939296 -0.099446
vn -0.231208 -0.955669 -0.182319
vn -0.083706 -0.969436 -0.230623
vn 0.083706 -0.969436 -0.230623
vn 0.231208 -0.955669 -0.182318
vn 0.275550 -0.957658 -0.083447
vn 0.193009 -0.969321 -0.152197
vn 0.069571 -0.978989 -0.191679
vn -0.069571 -0.978989 -0.191679
vn -0.193009 -0.969321 -0.152197
vn -0.275550 -0.957658 -0.083446
vn -0.304223 -0.952601 -0.000000
vn -0.275551 -0.957658 0.083446
vn -0.193009 -0.969321 0.152197
vn -0.069571 -0.978989 0.191679
vn 0.069571 -0.978989 0.191679
vn 0.193009 -0.969321 0.152197
vn 0.275550 -0.957658 0.083447
vn 0.304223 -0.952601 0.000000
vn 0.877358 -0.191458 -0.439985
vn 0.877358 -0.191458 -0.439985
vn 0.975331 -0.170683 -0.139989
vn 0.975331 -0.170683 -0.139989
vn 0.975331 -0.170682 0.139989
vn 0.975331 -0.170682 0.139989
vn 0.877358 -0.191458 0.439984
vn 0.877358 -0.191458 0.439984
vn 0.591337 -0.232526 0.772173
vn 0.591337 -0.232526 0.772173
vn -0.000001 -0.261845 0.965110
vn -0.000001 -0.261845 0.965110
vn -0.591337 -0.232526 0.772174
vn -0.591337 -0.232526 0.772174
vn -0.877358 -0.191458 0.439984
vn -0.877358 -0.191458 0.439984
vn -0.975331 -0.170684 0.139988
vn -0.975331 -0.170684 0.139988
vn -0.975331 -0.170681 -0.139989
vn -0.975331 -0.170681 -0.139989
vn -0.877358 -0.191458 -0.439984
vn -0.877358 -0.191458 -0.439984
vn -0.591337 -0.232526 -0.772174
vn -0.591337 -0.232526 -0.772174
vn 0.000000 -0.261845 -0.965110
vn 0.000000 -0.261845 -0.965110
vn 0.591337 -0.232526 -0.772174
vn 0.591337 -0.232526 -0.772174
s 1
g platter
usemtl initialShadingGroup
f 1/15/1 2/16/2 16/31/3 15/30/4
f 2/16/2 3/17/5 17/32/6 16/31/3
f 3/17/5 4/18/7 18/33/8 17/32/6
f 4/18/7 5/19/9 19/34/10 18/33/8
f 5/19/9 6/20/11 20/35/12 19/34/10
f 6/20/11 7/21/13 21/36/14 20/35/12
f 7/21/13 8/22/15 22/37/16 21/36/14
f 8/22/15 9/23/17 23/38/18 22/37/16
f 9/23/17 10/24/19 24/39/20 23/38/18
f 10/24/19 11/25/21 25/40/22 24/39/20
f 11/25/21 12/26/23 26/41/24 25/40/22
f 12/26/23 13/27/25 27/42/26 26/41/24
f 13/27/25 14/28/27 28/43/28 27/42/26
f 14/28/27 1/29/1 15/44/4 28/43/28
s 2
f 58/89/29 59/90/30 60/59/31
f 61/91/32 58/89/29 60/59/31
f 62/92/33 61/91/32 60/59/31
f 63/93/34 62/92/33 60/59/31
f 64/94/35 63/93/34 60/59/31
f 65/95/36 64/94/35 60/59/31
f 66/96/37 65/95/36 60/59/31
f 67/97/38 66/96/37 60/59/31
f 68/98/39 67/97/38 60/59/31
f 69/99/40 68/98/39 60/59/31
f 70/100/41 69/99/40 60/59/31
f 71/101/42 70/100/41 60/59/31
f 72/102/43 71/101/42 60/59/31
f 59/90/30 72/102/43 60/59/31
s 3
f 44/75/44 45/76/45 29/60/46
f 45/76/45 46/77/47 29/60/46
f 46/77/47 47/78/48 29/60/46
f 47/78/48 48/79/49 29/60/46
f 48/79/49 49/80/50 29/60/46
f 49/80/50 50/81/51 29/60/46
f 50/81/51 51/82/52 29/60/46
f 51/82/52 52/83/53 29/60/46
f 52/83/53 53/84/54 29/60/46
f 53/84/54 54/85/55 29/60/46
f 54/85/55 55/86/56 29/60/46
f 55/86/56 56/87/57 29/60/46
f 56/87/57 57/88/58 29/60/46
f 57/88/58 44/75/44 29/60/46
s 4
f 87/117/59 88/118/60 114/144/61 101/131/62
f 88/118/60 89/119/63 113/143/64 114/144/61
f 89/119/63 90/120/65 112/142/66 113/143/64
f 90/120/65 91/121/67 111/141/68 112/142/66
f 91/121/67 92/122/69 110/140/70 111/141/68
f 92/122/69 93/123/71 109/139/72 110/140/70
f 93/123/71 94/124/73 108/138/74 109/139/72
f 94/124/73 95/125/75 107/137/76 108/138/74
f 95/125/75 96/126/77 106/136/78 107/137/76
f 96/126/77 97/127/79 105/135/80 106/136/78
f 97/127/79 98/128/81 104/134/82 105/135/80
f 98/128/81 99/129/83 103/133/84 104/134/82
f 99/129/83 100/130/85 102/132/86 103/133/84
f 100/130/85 87/117/59 101/131/62 102/132/86
s 3
f 73/103/87 74/104/88 142/172/89 129/159/90
f 74/104/88 75/105/91 141/171/92 142/172/89
f 75/105/91 76/106/93 140/170/94 141/171/92
f 76/106/93 77/107/95 139/169/96 140/170/94
f 77/107/95 78/108/97 138/168/98 139/169/96
f 78/108/97 79/109/99 137/167/100 138/168/98
f 79/109/99 80/110/101 136/166/102 137/167/100
f 80/110/101 81/111/103 135/165/104 136/166/102
f 81/111/103 82/112/105 134/164/106 135/165/104
f 82/112/105 83/113/107 133/163/108 134/164/106
f 83/113/107 84/114/109 132/162/110 133/163/108
f 84/114/109 85/115/111 131/161/112 132/162/110
f 85/115/111 86/116/113 130/160/114 131/161/112
f 86/116/113 73/103/87 129/159/90 130/160/114
s 6
f 115/145/115 116/146/116 59/90/117 58/89/118
s 7
f 128/158/119 115/145/120 58/89/121 61/91/122
s 8
f 127/157/123 128/158/124 61/91/125 62/92/126
s 9
f 126/156/127 127/157/128 62/92/129 63/93/130
s 10
f 125/155/131 126/156/132 63/93/133 64/94/134
s 11
f 124/154/135 125/155/136 64/94/137 65/95/138
s 12
f 123/153/139 124/154/140 65/95/141 66/96/142
s 13
f 122/152/143 123/153/144 66/96/145 67/97/146
s 14
f 121/151/147 122/152/148 67/97/149 68/98/150
s 15
f 120/150/151 121/151/152 68/98/153 69/99/154
s 16
f 119/149/155 120/150/156 69/99/157 70/100/158
s 17
f 118/148/159 119/149/160 70/100/161 71/101/162
s 18
f 117/147/163 118/148/164 71/101/165 72/102/166
s 19
f 116/146/167 117/147/168 72/102/169 59/90/170
s 3
f 15/57/171 16/56/172 74/104/88 73/103/87
f 16/56/172 17/55/173 75/105/91 74/104/88
f 17/55/173 18/54/174 76/106/93 75/105/91
f 18/54/174 19/53/175 77/107/95 76/106/93
f 19/53/175 20/52/176 78/108/97 77/107/95
f 20/52/176 21/51/177 79/109/99 78/108/97
f 21/51/177 22/50/178 80/110/101 79/109/99
f 22/50/178 23/49/179 81/111/103 80/110/101
f 23/49/179 24/48/180 82/112/105 81/111/103
f 24/48/180 25/47/181 83/113/107 82/112/105
f 25/47/181 26/46/182 84/114/109 83/113/107
f 26/46/182 27/45/183 85/115/111 84/114/109
f 27/45/183 28/58/184 86/116/113 85/115/111
f 28/58/184 15/57/171 73/103/87 86/116/113
s 4
f 1/1/185 14/14/186 88/118/60 87/117/59
f 14/14/186 13/13/187 89/119/63 88/118/60
f 13/13/187 12/12/188 90/120/65 89/119/63
f 12/12/188 11/11/189 91/121/67 90/120/65
f 11/11/189 10/10/190 92/122/69 91/121/67
f 10/10/190 9/9/191 93/123/71 92/122/69
f 9/9/191 8/8/192 94/124/73 93/123/71
f 8/8/192 7/7/193 95/125/75 94/124/73
f 7/7/193 6/6/194 96/126/77 95/125/75
f 6/6/194 5/5/195 97/127/79 96/126/77
f 5/5/195 4/4/196 98/128/81 97/127/79
f 4/4/196 3/3/197 99/129/83 98/128/81
f 3/3/197 2/2/198 100/130/85 99/129/83
f 2/2/198 1/1/185 87/117/59 100/130/85
f 102/132/86 101/131/62 30/61/199 43/74/200
f 103/133/84 102/132/86 43/74/200 42/73/201
f 104/134/82 103/133/84 42/73/201 41/72/202
f 105/135/80 104/134/82 41/72/202 40/71/203
f 106/136/78 105/135/80 40/71/203 39/70/204
f 107/137/76 106/136/78 39/70/204 38/69/205
f 108/138/74 107/137/76 38/69/205 37/68/206
f 109/139/72 108/138/74 37/68/206 36/67/207
f 110/140/70 109/139/72 36/67/207 35/66/208
f 111/141/68 110/140/70 35/66/208 34/65/209
f 112/142/66 111/141/68 34/65/209 33/64/210
f 113/143/64 112/142/66 33/64/210 32/63/211
f 114/144/61 113/143/64 32/63/211 31/62/212
f 101/131/62 114/144/61 31/62/212 30/61/199
s 6
f 43/74/213 30/61/214 116/146/116 115/145/115
s 19
f 30/61/215 31/62/216 117/147/168 116/146/167
s 18
f 31/62/217 32/63/218 118/148/164 117/147/163
s 17
f 32/63/219 33/64/220 119/149/160 118/148/159
s 16
f 33/64/221 34/65/222 120/150/156 119/149/155
s 15
f 34/65/223 35/66/224 121/151/152 120/150/151
s 14
f 35/66/225 36/67/226 122/152/148 121/151/147
s 13
f 36/67/227 37/68/228 123/153/144 122/152/143
s 12
f 37/68/229 38/69/230 124/154/140 123/153/139
s 11
f 38/69/231 39/70/232 125/155/136 124/154/135
s 10
f 39/70/233 40/71/234 126/156/132 125/155/131
s 9
f 40/71/235 41/72/236 127/157/128 126/156/127
s 8
f 41/72/237 42/73/238 128/158/124 127/157/123
s 7
f 42/73/239 43/74/240 115/145/120 128/158/119
s 3
f 130/160/114 129/159/90 44/75/44 57/88/58
f 131/161/112 130/160/114 57/88/58 56/87/57
f 132/162/110 131/161/112 56/87/57 55/86/56
f 133/163/108 132/162/110 55/86/56 54/85/55
f 134/164/106 133/163/108 54/85/55 53/84/54
f 135/165/104 134/164/106 53/84/54 52/83/53
f 136/166/102 135/165/104 52/83/53 51/82/52
f 137/167/100 136/166/102 51/82/52 50/81/51
f 138/168/98 137/167/100 50/81/51 49/80/50
f 139/169/96 138/168/98 49/80/50 48/79/49
f 140/170/94 139/169/96 48/79/49 47/78/48
f 141/171/92 140/170/94 47/78/48 46/77/47
f 142/172/89 141/171/92 46/77/47 45/76/45
f 129/159/90 142/172/89 45/76/45 44/75/44
