# This file uses centimeters as units for non-parametric coordinates.

mtllib woodplank_A.mtl
g default
v -0.480782 0.001410 2.335181
v 0.480782 0.001410 2.335181
v -0.480782 0.069954 2.335181
v 0.480782 0.069954 2.335181
v -0.480782 0.069954 -2.335181
v 0.480782 0.069954 -2.335181
v -0.480782 0.001410 -2.335181
v 0.480782 0.001410 -2.335181
v 0.343365 0.069954 2.107143
v 0.240391 0.069954 -2.335181
v 0.240391 0.001410 -2.335181
v 0.343365 0.001410 2.107143
v 0.151291 0.069954 2.335181
v -0.150330 0.069954 -2.193741
v -0.150330 0.001410 -2.193741
v 0.151291 0.001410 2.335181
v -0.240391 0.069954 2.223698
v -0.323171 0.069954 -2.335181
v -0.323171 0.001410 -2.335181
v -0.240391 0.001410 2.223698
v 0.240391 0.069954 -1.075145
v 0.000000 0.069954 -1.075145
v -0.240391 0.069954 -1.075145
v -0.480782 0.069954 -1.075145
v -0.480782 0.001410 -1.075145
v -0.240391 0.001410 -1.075145
v 0.000000 0.001410 -1.075145
v 0.240391 0.001410 -1.075145
v 0.480782 0.001410 -1.075145
v 0.480782 0.069954 -1.075145
v 0.240391 0.069954 -0.831275
v 0.000000 0.069954 -0.831275
v -0.240391 0.069954 -0.831275
v -0.480782 0.069954 -0.831275
v -0.480782 0.001410 -0.831275
v -0.240391 0.001410 -0.831275
v 0.000000 0.001410 -0.831275
v 0.240391 0.001410 -0.831275
v 0.383986 0.001410 -0.955218
v 0.383986 0.069954 -0.955218
v 0.240391 0.069954 -0.608618
v 0.000000 0.069954 -0.608618
v -0.240391 0.069954 -0.608618
v -0.480782 0.069954 -0.608618
v -0.480782 0.001410 -0.608618
v -0.240391 0.001410 -0.608618
v 0.000000 0.001410 -0.608618
v 0.240391 0.001410 -0.608618
v 0.480782 0.001410 -0.608618
v 0.480782 0.069954 -0.608618
vt 0.375000 0.000000
vt 0.437500 0.000000
vt 0.437500 0.250000
vt 0.375000 0.250000
vt 0.437500 0.312500
vt 0.375000 0.312500
vt 0.375000 0.500000
vt 0.437500 0.500000
vt 0.437500 0.750000
vt 0.375000 0.750000
vt 0.375000 0.937500
vt 0.437500 0.937500
vt 0.437500 1.000000
vt 0.375000 1.000000
vt 0.625000 0.000000
vt 0.687500 0.000000
vt 0.687500 0.250000
vt 0.625000 0.250000
vt 0.312500 0.000000
vt 0.312500 0.250000
vt 0.562500 0.250000
vt 0.625000 0.312500
vt 0.562500 0.312500
vt 0.562500 0.750000
vt 0.562500 0.500000
vt 0.625000 0.500000
vt 0.625000 0.750000
vt 0.562500 1.000000
vt 0.562500 0.937500
vt 0.625000 0.937500
vt 0.625000 1.000000
vt 0.562500 0.000000
vt 0.500000 0.250000
vt 0.500000 0.312500
vt 0.500000 0.750000
vt 0.500000 0.500000
vt 0.500000 1.000000
vt 0.500000 0.937500
vt 0.500000 0.000000
vt 0.500000 0.437500
vt 0.562500 0.437500
vt 0.437500 0.437500
vt 0.375000 0.437500
vt 0.125000 0.000000
vt 0.187500 0.000000
vt 0.187500 0.250000
vt 0.125000 0.250000
vt 0.437500 0.812500
vt 0.375000 0.812500
vt 0.500000 0.812500
vt 0.562500 0.812500
vt 0.625000 0.812500
vt 0.812500 0.250000
vt 0.812500 0.000000
vt 0.875000 0.000000
vt 0.875000 0.250000
vt 0.625000 0.437500
vt 0.500000 0.375000
vt 0.562500 0.375000
vt 0.437500 0.375000
vt 0.375000 0.375000
vt 0.250000 0.000000
vt 0.250000 0.250000
vt 0.437500 0.875000
vt 0.375000 0.875000
vt 0.500000 0.875000
vt 0.562500 0.875000
vt 0.625000 0.875000
vt 0.750000 0.250000
vt 0.750000 0.000000
vt 0.625000 0.375000
vn 0.420717 0.000000 0.907192
vn 0.000000 0.000000 1.000000
vn 0.000000 0.000000 1.000000
vn 0.420717 0.000000 0.907192
vn 0.000000 1.000000 0.000000
vn 0.000000 1.000000 0.000000
vn 0.000000 1.000000 0.000000
vn 0.000000 1.000000 0.000000
vn 0.000001 0.000000 -1.000000
vn 0.393490 0.000000 -0.919329
vn 0.393490 0.000000 -0.919329
vn 0.000001 0.000000 -1.000000
vn 0.000000 -1.000000 0.000000
vn 0.000000 -1.000000 0.000000
vn 0.000000 -1.000000 0.000000
vn 0.000000 -1.000000 0.000000
vn 1.000000 0.000000 0.000000
vn 0.999568 0.000000 -0.029405
vn 0.999568 0.000000 -0.029405
vn 1.000000 0.000000 0.000000
vn -1.000000 0.000000 0.000000
vn -1.000000 0.000000 0.000000
vn -1.000000 0.000000 0.000000
vn -1.000000 0.000000 0.000000
vn 0.000000 1.000000 0.000000
vn 0.000000 1.000000 0.000000
vn 0.000000 1.000000 0.000000
vn 0.000000 1.000000 0.000000
vn -0.218688 0.000000 -0.975795
vn -0.218688 0.000000 -0.975795
vn -0.000001 0.000000 -1.000000
vn -0.000001 0.000000 -1.000000
vn 0.000000 -1.000000 0.000000
vn 0.000000 -1.000000 0.000000
vn 0.000000 -1.000000 0.000000
vn 0.000000 -1.000000 0.000000
vn 0.000000 0.000000 1.000000
vn 0.000000 0.000000 1.000000
vn -0.856506 0.000000 0.516138
vn -0.856506 0.000000 0.516138
vn 0.000000 1.000000 0.000000
vn 0.000000 1.000000 0.000000
vn 0.000000 1.000000 0.000000
vn 0.000000 1.000000 0.000000
vn -0.000000 0.000000 -1.000000
vn -0.000000 0.000000 -1.000000
vn -0.218688 0.000000 -0.975795
vn -0.218688 0.000000 -0.975795
vn 0.000000 -1.000000 0.000000
vn 0.000000 -1.000000 0.000000
vn 0.000000 -1.000000 0.000000
vn 0.000000 -1.000000 0.000000
vn 0.195798 0.000000 0.980644
vn 0.195798 0.000000 0.980644
vn 0.000000 0.000000 1.000000
vn 0.000000 0.000000 1.000000
vn 0.000000 1.000000 0.000000
vn 0.000000 1.000000 0.000000
vn 0.000000 1.000000 0.000000
vn 0.000000 1.000000 0.000000
vn 0.393490 0.000000 -0.919329
vn 0.393490 0.000000 -0.919329
vn -0.000000 0.000000 -1.000000
vn -0.000000 0.000000 -1.000000
vn 0.000000 -1.000000 0.000000
vn 0.000000 -1.000000 0.000000
vn 0.000000 -1.000000 0.000000
vn 0.000000 -1.000000 0.000000
vn 0.000000 0.000000 1.000000
vn 0.000000 0.000000 1.000000
vn 0.195798 0.000000 0.980644
vn 0.195798 0.000000 0.980644
vn 0.000000 1.000000 0.000000
vn 0.000000 1.000000 0.000000
vn 0.000000 1.000000 0.000000
vn 0.000000 1.000000 0.000000
vn -0.000000 1.000000 -0.000000
vn 0.000000 1.000000 0.000000
vn 0.000000 1.000000 0.000000
vn -0.000000 1.000000 -0.000000
vn -0.000000 1.000000 -0.000000
vn -0.000000 1.000000 -0.000000
vn -0.000000 1.000000 -0.000000
vn -0.000000 1.000000 -0.000000
vn -1.000000 0.000000 0.000000
vn -1.000000 0.000000 -0.000000
vn -1.000000 0.000000 -0.000000
vn -1.000000 0.000000 0.000000
vn 0.000000 -1.000000 0.000000
vn 0.000000 -1.000000 0.000000
vn 0.000000 -1.000000 0.000000
vn 0.000000 -1.000000 0.000000
vn 0.000000 -1.000000 0.000000
vn 0.000000 -1.000000 0.000000
vn 0.000000 -1.000000 0.000000
vn 0.000000 -1.000000 0.000000
vn 0.000000 -1.000000 0.000000
vn 0.000000 -1.000000 0.000000
vn 0.000000 -1.000000 0.000000
vn 0.000000 -1.000000 0.000000
vn 0.000000 -1.000000 0.000000
vn 0.000000 -1.000000 0.000000
vn 0.000000 -1.000000 0.000000
vn 0.000000 -1.000000 0.000000
vn 0.997549 0.000000 0.069972
vn 0.997549 0.000000 0.069972
vn 1.000000 0.000000 0.000000
vn 1.000000 0.000000 0.000000
vn 0.000000 1.000000 0.000000
vn 0.000000 1.000000 0.000000
vn 0.000000 1.000000 0.000000
vn 0.000000 1.000000 0.000000
vn 0.000000 1.000000 0.000000
vn 0.000000 1.000000 0.000000
vn 0.000000 1.000000 0.000000
vn 0.000000 1.000000 0.000000
vn 0.000000 1.000000 0.000000
vn 0.000000 1.000000 0.000000
vn 0.000000 1.000000 0.000000
vn -0.000000 1.000000 -0.000000
vn 0.000000 1.000000 0.000000
vn 0.000000 1.000000 0.000000
vn -0.000000 1.000000 -0.000000
vn -0.000000 1.000000 -0.000000
vn -1.000000 0.000000 -0.000000
vn -1.000000 0.000000 0.000000
vn -1.000000 0.000000 0.000000
vn -1.000000 0.000000 -0.000000
vn 0.000000 -1.000000 0.000000
vn 0.000000 -1.000000 0.000000
vn 0.000000 -1.000000 0.000000
vn 0.000000 -1.000000 0.000000
vn 0.000000 -1.000000 0.000000
vn 0.000000 -1.000000 0.000000
vn 0.000000 -1.000000 0.000000
vn 0.000000 -1.000000 0.000000
vn 0.000000 -1.000000 0.000000
vn 0.000000 -1.000000 0.000000
vn 0.000000 -1.000000 0.000000
vn 0.000000 -1.000000 0.000000
vn 0.000000 -1.000000 0.000000
vn 0.000000 -1.000000 0.000000
vn 0.000000 -1.000000 0.000000
vn 0.000000 -1.000000 0.000000
vn 1.000000 0.000000 0.000000
vn 1.000000 0.000000 0.000000
vn 0.997549 0.000000 0.069972
vn 0.997549 0.000000 0.069972
vn 0.000000 1.000000 0.000000
vn 0.000000 1.000000 0.000000
vn 0.000000 1.000000 0.000000
vn 0.000000 1.000000 0.000000
vn 0.000000 1.000000 0.000000
vn 0.000000 1.000000 0.000000
vn 0.000000 1.000000 0.000000
vn 0.000000 1.000000 0.000000
vn 0.000000 1.000000 0.000000
vn 0.000000 1.000000 0.000000
vn 0.000000 1.000000 0.000000
vn 0.000000 1.000000 0.000000
vn 0.000000 1.000000 0.000000
vn 0.000000 1.000000 0.000000
vn 0.000000 1.000000 0.000000
vn 0.000000 1.000000 0.000000
vn -1.000000 0.000000 0.000000
vn -1.000000 0.000000 0.000000
vn -1.000000 0.000000 0.000000
vn -1.000000 0.000000 0.000000
vn 0.000000 -1.000000 0.000000
vn 0.000000 -1.000000 0.000000
vn 0.000000 -1.000000 0.000000
vn 0.000000 -1.000000 0.000000
vn 0.000000 -1.000000 0.000000
vn 0.000000 -1.000000 0.000000
vn 0.000000 -1.000000 0.000000
vn 0.000000 -1.000000 0.000000
vn 0.000000 -1.000000 0.000000
vn 0.000000 -1.000000 0.000000
vn 0.000000 -1.000000 0.000000
vn 0.000000 -1.000000 0.000000
vn 0.000000 -1.000000 0.000000
vn 0.000000 -1.000000 0.000000
vn 0.000000 -1.000000 0.000000
vn 0.000000 -1.000000 0.000000
vn 0.999568 0.000000 -0.029405
vn 0.999568 0.000000 -0.029405
vn 1.000000 0.000000 0.000000
vn 1.000000 0.000000 0.000000
vn 0.000000 1.000000 0.000000
vn 0.000000 1.000000 0.000000
vn 0.000000 1.000000 0.000000
vn 0.000000 1.000000 0.000000
s off
g wood_planks:plank_1
usemtl initialShadingGroup
f 1/1/1 20/2/2 17/3/3 3/4/4
f 3/4/5 17/3/6 43/5/7 44/6/8
f 5/7/9 18/8/10 19/9/11 7/10/12
f 45/11/13 46/12/14 20/13/15 1/14/16
f 2/15/17 49/16/18 50/17/19 4/18/20
f 45/19/21 1/1/22 3/4/23 44/20/24
f 9/21/25 4/18/26 50/22/27 41/23/28
f 11/24/29 10/25/30 6/26/31 8/27/32
f 12/28/33 48/29/34 49/30/35 2/31/36
f 9/21/37 12/32/38 2/15/39 4/18/40
f 13/33/41 9/21/42 41/23/43 42/34/44
f 15/35/45 14/36/46 10/25/47 11/24/48
f 16/37/49 47/38/50 48/29/51 12/28/52
f 13/33/53 16/39/54 12/32/55 9/21/56
f 17/3/57 13/33/58 42/34/59 43/5/60
f 19/9/61 18/8/62 14/36/63 15/35/64
f 20/13/65 46/12/66 47/38/67 16/37/68
f 17/3/69 20/2/70 16/39/71 13/33/72
f 22/40/73 21/41/74 10/25/75 14/36/76
f 23/42/77 22/40/78 14/36/79 18/8/80
f 24/43/81 23/42/82 18/8/83 5/7/84
f 7/44/85 25/45/86 24/46/87 5/47/88
f 7/10/89 19/9/90 26/48/91 25/49/92
f 27/50/93 26/48/94 19/9/95 15/35/96
f 28/51/97 27/50/98 15/35/99 11/24/100
f 29/52/101 28/51/102 11/24/103 8/27/104
f 30/53/105 29/54/106 8/55/107 6/56/108
f 21/41/109 30/57/110 6/26/111 10/25/112
f 32/58/113 31/59/114 21/41/115 22/40/116
f 33/60/117 32/58/118 22/40/119 23/42/120
f 34/61/121 33/60/122 23/42/123 24/43/124
f 25/45/125 35/62/126 34/63/127 24/46/128
f 25/49/129 26/48/130 36/64/131 35/65/132
f 37/66/133 36/64/134 26/48/135 27/50/136
f 38/67/137 37/66/138 27/50/139 28/51/140
f 39/68/141 38/67/142 28/51/143 29/52/144
f 40/69/145 39/70/146 29/54/147 30/53/148
f 31/59/149 40/71/150 30/57/151 21/41/152
f 42/34/153 41/23/154 31/59/155 32/58/156
f 43/5/157 42/34/158 32/58/159 33/60/160
f 44/6/161 43/5/162 33/60/163 34/61/164
f 35/62/165 45/19/166 44/20/167 34/63/168
f 35/65/169 36/64/170 46/12/171 45/11/172
f 47/38/173 46/12/174 36/64/175 37/66/176
f 48/29/177 47/38/178 37/66/179 38/67/180
f 49/30/181 48/29/182 38/67/183 39/68/184
f 50/17/185 49/16/186 39/70/187 40/69/188
f 41/23/189 50/22/190 40/71/191 31/59/192
