# This file uses centimeters as units for non-parametric coordinates.

mtllib woodpile_B.mtl
g default
v 0.868545 0.001037 5.229462
v 1.466791 0.001037 -5.014844
v 0.868545 0.122631 5.229462
v 1.466791 0.122631 -5.014844
v 0.162943 0.122631 5.188257
v 0.761189 0.122631 -5.056050
v 0.162943 0.001037 5.188257
v 0.761189 0.001037 -5.056050
v -0.119122 0.001037 3.650655
v -1.406818 0.001037 -3.163712
v -0.119122 0.122631 3.650655
v -1.406818 0.122631 -3.163712
v -0.813635 0.122631 3.781896
v -2.101332 0.122631 -3.032471
v -0.813635 0.001037 3.781896
v -2.101332 0.001037 -3.032471
v -1.770613 0.130915 1.711800
v 2.101332 0.130915 1.711800
v -1.770613 0.252509 1.711800
v 2.101332 0.252509 1.711800
v -1.770613 0.252509 1.004995
v 2.101332 0.252509 1.004995
v -1.770613 0.130915 1.004995
v 2.101332 0.130915 1.004995
v -1.551417 0.127964 2.607498
v 1.415677 0.127964 3.243458
v -1.551417 0.184082 2.607498
v 1.415677 0.184082 3.243458
v -1.403287 0.184082 1.916390
v 1.563807 0.184082 2.552350
v -1.403287 0.127964 1.916390
v 1.563807 0.127964 2.552350
vt 0.375000 0.000000
vt 0.625000 0.000000
vt 0.625000 0.250000
vt 0.375000 0.250000
vt 0.625000 0.500000
vt 0.375000 0.500000
vt 0.625000 0.750000
vt 0.375000 0.750000
vt 0.625000 1.000000
vt 0.375000 1.000000
vt 0.875000 0.000000
vt 0.875000 0.250000
vt 0.125000 0.000000
vt 0.125000 0.250000
vt 0.375000 0.000000
vt 0.625000 0.000000
vt 0.625000 0.250000
vt 0.375000 0.250000
vt 0.625000 0.500000
vt 0.375000 0.500000
vt 0.625000 0.750000
vt 0.375000 0.750000
vt 0.625000 1.000000
vt 0.375000 1.000000
vt 0.875000 0.000000
vt 0.875000 0.250000
vt 0.125000 0.000000
vt 0.125000 0.250000
vt 0.375000 0.000000
vt 0.625000 0.000000
vt 0.625000 0.250000
vt 0.375000 0.250000
vt 0.625000 0.500000
vt 0.375000 0.500000
vt 0.625000 0.750000
vt 0.375000 0.750000
vt 0.625000 1.000000
vt 0.375000 1.000000
vt 0.875000 0.000000
vt 0.875000 0.250000
vt 0.125000 0.000000
vt 0.125000 0.250000
vt 0.375000 0.000000
vt 0.625000 0.000000
vt 0.625000 0.250000
vt 0.375000 0.250000
vt 0.625000 0.500000
vt 0.375000 0.500000
vt 0.625000 0.750000
vt 0.375000 0.750000
vt 0.625000 1.000000
vt 0.375000 1.000000
vt 0.875000 0.000000
vt 0.875000 0.250000
vt 0.125000 0.000000
vt 0.125000 0.250000
vn 0.998299 0.000000 0.058299
vn 0.998299 0.000000 0.058299
vn 0.998299 0.000000 0.058299
vn 0.998299 0.000000 0.058299
vn 0.000000 1.000000 0.000000
vn 0.000000 1.000000 0.000000
vn 0.000000 1.000000 0.000000
vn 0.000000 1.000000 0.000000
vn -0.998299 0.000000 -0.058299
vn -0.998299 0.000000 -0.058299
vn -0.998299 0.000000 -0.058299
vn -0.998299 0.000000 -0.058299
vn 0.000000 -1.000000 0.000000
vn 0.000000 -1.000000 0.000000
vn 0.000000 -1.000000 0.000000
vn 0.000000 -1.000000 0.000000
vn 0.058298 0.000000 -0.998299
vn 0.058298 0.000000 -0.998299
vn 0.058298 0.000000 -0.998299
vn 0.058298 0.000000 -0.998299
vn -0.058299 0.000000 0.998299
vn -0.058299 0.000000 0.998299
vn -0.058299 0.000000 0.998299
vn -0.058299 0.000000 0.998299
vn 0.982610 0.000000 -0.185682
vn 0.982610 0.000000 -0.185682
vn 0.982610 0.000000 -0.185682
vn 0.982610 0.000000 -0.185682
vn 0.000000 1.000000 0.000000
vn 0.000000 1.000000 0.000000
vn 0.000000 1.000000 0.000000
vn 0.000000 1.000000 0.000000
vn -0.982610 0.000000 0.185682
vn -0.982610 0.000000 0.185682
vn -0.982610 0.000000 0.185682
vn -0.982610 0.000000 0.185682
vn 0.000000 -1.000000 0.000000
vn 0.000000 -1.000000 0.000000
vn 0.000000 -1.000000 0.000000
vn 0.000000 -1.000000 0.000000
vn -0.185682 0.000000 -0.982610
vn -0.185682 0.000000 -0.982610
vn -0.185682 0.000000 -0.982610
vn -0.185682 0.000000 -0.982610
vn 0.185682 0.000000 0.982610
vn 0.185682 0.000000 0.982610
vn 0.185682 0.000000 0.982610
vn 0.185682 0.000000 0.982610
vn 0.000000 0.000000 1.000000
vn 0.000000 0.000000 1.000000
vn 0.000000 0.000000 1.000000
vn 0.000000 0.000000 1.000000
vn 0.000000 1.000000 0.000000
vn 0.000000 1.000000 0.000000
vn 0.000000 1.000000 0.000000
vn 0.000000 1.000000 0.000000
vn 0.000000 0.000000 -1.000000
vn 0.000000 0.000000 -1.000000
vn 0.000000 0.000000 -1.000000
vn 0.000000 0.000000 -1.000000
vn 0.000000 -1.000000 0.000000
vn 0.000000 -1.000000 0.000000
vn 0.000000 -1.000000 0.000000
vn 0.000000 -1.000000 0.000000
vn 1.000000 0.000000 0.000000
vn 1.000000 0.000000 0.000000
vn 1.000000 0.000000 0.000000
vn 1.000000 0.000000 0.000000
vn -1.000000 0.000000 0.000000
vn -1.000000 0.000000 0.000000
vn -1.000000 0.000000 0.000000
vn -1.000000 0.000000 0.000000
vn -0.209578 0.000000 0.977792
vn -0.209578 0.000000 0.977792
vn -0.209578 0.000000 0.977792
vn -0.209578 0.000000 0.977792
vn 0.000000 1.000000 0.000000
vn 0.000000 1.000000 0.000000
vn 0.000000 1.000000 0.000000
vn 0.000000 1.000000 0.000000
vn 0.209578 0.000000 -0.977792
vn 0.209578 0.000000 -0.977792
vn 0.209578 0.000000 -0.977792
vn 0.209578 0.000000 -0.977792
vn 0.000000 -1.000000 0.000000
vn 0.000000 -1.000000 0.000000
vn 0.000000 -1.000000 0.000000
vn 0.000000 -1.000000 0.000000
vn 0.977792 0.000000 0.209578
vn 0.977792 0.000000 0.209578
vn 0.977792 0.000000 0.209578
vn 0.977792 0.000000 0.209578
vn -0.977792 0.000000 -0.209578
vn -0.977792 0.000000 -0.209578
vn -0.977792 0.000000 -0.209578
vn -0.977792 0.000000 -0.209578
s off
g wood_piles:pile_1
usemtl initialShadingGroup
f 1/1/1 2/2/2 4/3/3 3/4/4
f 3/4/5 4/3/6 6/5/7 5/6/8
f 5/6/9 6/5/10 8/7/11 7/8/12
f 7/8/13 8/7/14 2/9/15 1/10/16
f 2/2/17 8/11/18 6/12/19 4/3/20
f 7/13/21 1/1/22 3/4/23 5/14/24
f 9/15/25 10/16/26 12/17/27 11/18/28
f 11/18/29 12/17/30 14/19/31 13/20/32
f 13/20/33 14/19/34 16/21/35 15/22/36
f 15/22/37 16/21/38 10/23/39 9/24/40
f 10/16/41 16/25/42 14/26/43 12/17/44
f 15/27/45 9/15/46 11/18/47 13/28/48
f 17/29/49 18/30/50 20/31/51 19/32/52
f 19/32/53 20/31/54 22/33/55 21/34/56
f 21/34/57 22/33/58 24/35/59 23/36/60
f 23/36/61 24/35/62 18/37/63 17/38/64
f 18/30/65 24/39/66 22/40/67 20/31/68
f 23/41/69 17/29/70 19/32/71 21/42/72
f 25/43/73 26/44/74 28/45/75 27/46/76
f 27/46/77 28/45/78 30/47/79 29/48/80
f 29/48/81 30/47/82 32/49/83 31/50/84
f 31/50/85 32/49/86 26/51/87 25/52/88
f 26/44/89 32/53/90 30/54/91 28/45/92
f 31/55/93 25/43/94 27/46/95 29/56/96
