# This file uses centimeters as units for non-parametric coordinates.

mtllib woodplank_C.mtl
g default
v -0.457688 0.000955 1.649120
v 0.457688 0.000955 1.799905
v -0.457688 0.179911 1.649120
v 0.457688 0.179911 1.799905
v -0.457688 0.179911 -1.844968
v 0.457688 0.179911 -1.728473
v -0.457688 0.000955 -1.844968
v 0.457688 0.000955 -1.728473
v 0.228844 0.179911 1.844968
v 0.228844 0.179911 -1.844968
v 0.228844 0.000955 -1.844968
v 0.228844 0.000955 1.844968
v 0.000000 0.179911 1.589097
v 0.000000 0.179911 -1.802285
v 0.000000 0.000955 -1.802285
v 0.000000 0.000955 1.589097
v -0.374197 0.179911 1.706483
v -0.228844 0.179911 -1.844968
v -0.228844 0.000955 -1.844968
v -0.374197 0.000955 1.706483
vt 0.375000 0.000000
vt 0.437500 0.000000
vt 0.437500 0.250000
vt 0.375000 0.250000
vt 0.437500 0.500000
vt 0.375000 0.500000
vt 0.437500 0.750000
vt 0.375000 0.750000
vt 0.437500 1.000000
vt 0.375000 1.000000
vt 0.625000 0.000000
vt 0.875000 0.000000
vt 0.875000 0.250000
vt 0.625000 0.250000
vt 0.125000 0.000000
vt 0.125000 0.250000
vt 0.562500 0.250000
vt 0.625000 0.500000
vt 0.562500 0.500000
vt 0.562500 0.750000
vt 0.625000 0.750000
vt 0.562500 1.000000
vt 0.625000 1.000000
vt 0.562500 0.000000
vt 0.500000 0.250000
vt 0.500000 0.500000
vt 0.500000 0.750000
vt 0.500000 1.000000
vt 0.500000 0.000000
vn -0.566281 0.000000 0.824213
vn -0.566281 0.000000 0.824213
vn -0.566281 0.000000 0.824213
vn -0.566281 0.000000 0.824213
vn 0.000000 1.000000 0.000000
vn 0.000000 1.000000 0.000000
vn 0.000000 1.000000 0.000000
vn 0.000000 1.000000 0.000000
vn 0.000000 0.000000 -1.000000
vn 0.092856 0.000000 -0.995680
vn 0.092856 0.000000 -0.995680
vn 0.000000 0.000000 -1.000000
vn 0.000000 -1.000000 0.000000
vn 0.000000 -1.000000 0.000000
vn 0.000000 -1.000000 0.000000
vn 0.000000 -1.000000 0.000000
vn 1.000000 0.000000 0.000000
vn 1.000000 0.000000 0.000000
vn 1.000000 0.000000 0.000000
vn 1.000000 0.000000 0.000000
vn -1.000000 0.000000 0.000000
vn -1.000000 0.000000 0.000000
vn -1.000000 0.000000 0.000000
vn -1.000000 0.000000 0.000000
vn 0.000000 1.000000 0.000000
vn 0.000000 1.000000 0.000000
vn 0.000000 1.000000 0.000000
vn 0.000000 1.000000 0.000000
vn 0.159214 0.000000 -0.987244
vn 0.159214 0.000000 -0.987244
vn 0.453662 0.000000 -0.891174
vn 0.453662 0.000000 -0.891174
vn 0.000000 -1.000000 0.000000
vn 0.000000 -1.000000 0.000000
vn 0.000000 -1.000000 0.000000
vn 0.000000 -1.000000 0.000000
vn -0.418350 0.000000 0.908286
vn -0.418350 0.000000 0.908286
vn 0.193207 0.000000 0.981158
vn 0.193207 0.000000 0.981158
vn 0.000000 1.000000 0.000000
vn 0.000000 1.000000 0.000000
vn 0.000000 1.000000 0.000000
vn 0.000000 1.000000 0.000000
vn 0.000000 0.000000 -1.000000
vn 0.000000 0.000000 -1.000000
vn 0.159214 0.000000 -0.987244
vn 0.159214 0.000000 -0.987244
vn 0.000000 -1.000000 0.000000
vn 0.000000 -1.000000 0.000000
vn 0.000000 -1.000000 0.000000
vn 0.000000 -1.000000 0.000000
vn -0.223819 0.000000 0.974631
vn -0.223819 0.000000 0.974631
vn -0.418350 0.000000 0.908286
vn -0.418350 0.000000 0.908286
vn 0.000000 1.000000 0.000000
vn 0.000000 1.000000 0.000000
vn 0.000000 1.000000 0.000000
vn 0.000000 1.000000 0.000000
vn 0.092856 0.000000 -0.995680
vn 0.092856 0.000000 -0.995680
vn 0.000000 0.000000 -1.000000
vn 0.000000 0.000000 -1.000000
vn 0.000000 -1.000000 0.000000
vn 0.000000 -1.000000 0.000000
vn 0.000000 -1.000000 0.000000
vn 0.000000 -1.000000 0.000000
vn 0.130030 0.000000 0.991510
vn 0.130030 0.000000 0.991510
vn -0.223819 0.000000 0.974631
vn -0.223819 0.000000 0.974631
s off
g wood_planks:plank_3
usemtl initialShadingGroup
f 1/1/1 20/2/2 17/3/3 3/4/4
f 3/4/5 17/3/6 18/5/7 5/6/8
f 5/6/9 18/5/10 19/7/11 7/8/12
f 7/8/13 19/7/14 20/9/15 1/10/16
f 2/11/17 8/12/18 6/13/19 4/14/20
f 7/15/21 1/1/22 3/4/23 5/16/24
f 9/17/25 4/14/26 6/18/27 10/19/28
f 11/20/29 10/19/30 6/18/31 8/21/32
f 12/22/33 11/20/34 8/21/35 2/23/36
f 9/17/37 12/24/38 2/11/39 4/14/40
f 13/25/41 9/17/42 10/19/43 14/26/44
f 15/27/45 14/26/46 10/19/47 11/20/48
f 16/28/49 15/27/50 11/20/51 12/22/52
f 13/25/53 16/29/54 12/24/55 9/17/56
f 17/3/57 13/25/58 14/26/59 18/5/60
f 19/7/61 18/5/62 14/26/63 15/27/64
f 20/9/65 19/7/66 15/27/67 16/28/68
f 17/3/69 20/2/70 16/29/71 13/25/72
