# This file uses centimeters as units for non-parametric coordinates.

mtllib long short box.mtl
g default
v -4.667454 2.318434 1.626462
v 4.708678 2.318336 1.626242
v -4.671704 2.948583 1.629028
v 4.712665 2.948583 1.629028
v -4.671702 2.948583 -1.707726
v 4.712666 2.948583 -1.707726
v -4.667716 2.318336 -1.704939
v 4.708416 2.318434 -1.705160
v -4.617457 2.318971 1.576066
v -4.621378 2.898583 1.578418
v 4.658679 2.318874 1.575847
v 4.662334 2.898583 1.578420
v -4.621371 2.898583 -1.657118
v -4.617716 2.318874 -1.654546
v 4.662340 2.898583 -1.657116
v 4.658421 2.318971 -1.654766
v 4.648564 1.889585 0.453945
v 4.648564 2.535095 0.463657
v 4.648564 2.113103 0.463657
v 4.648564 1.889585 -0.543632
v 4.648564 2.535095 -0.562151
v 4.648564 2.113103 -0.562151
v 4.648564 2.039454 0.512501
v 4.648564 2.039454 -0.610995
v 4.648564 1.966139 0.512501
v 4.648564 1.966139 -0.610995
v -4.610446 1.889585 0.453945
v -4.610446 2.535095 0.477773
v -4.610446 2.113103 0.449541
v -4.610446 1.889585 -0.543632
v -4.610446 2.535095 -0.576267
v -4.610446 2.113103 -0.548035
v -4.610446 2.039454 0.512501
v -4.610446 2.039454 -0.610995
v -4.610446 1.966139 0.512501
v -4.610446 1.966139 -0.610995
v 4.548162 1.889585 -0.543632
v 4.548162 2.535095 -0.562151
v 4.548162 2.113103 -0.562151
v 4.548162 2.039454 -0.610995
v 4.548162 1.889585 0.453945
v 4.548162 2.535095 0.463657
v 4.548162 2.113103 0.463657
v 4.548162 2.039454 0.512501
v 4.548162 1.966139 -0.610995
v 4.548162 1.966139 0.512501
v -4.510043 1.889585 -0.543632
v -4.510043 2.535095 -0.576267
v -4.510043 2.113103 -0.548035
v -4.510043 2.039454 -0.610995
v -4.510043 1.889585 0.453945
v -4.510043 2.535095 0.477773
v -4.510043 2.113103 0.449541
v -4.510043 2.039454 0.512501
v -4.510043 1.966139 -0.610995
v -4.510043 1.966139 0.512501
v 4.648563 1.889318 1.568446
v 4.648563 2.535095 -1.645128
v 4.648563 0.002842 -0.576070
v 4.648563 2.535095 1.568446
v 4.648563 2.113103 -1.645128
v 4.648563 2.113103 1.568446
v 4.648563 2.039454 -1.645128
v 4.648563 1.965947 1.568446
v 4.648563 1.889853 -1.645128
v 4.648563 0.002842 0.477629
v 4.648563 1.966331 -1.645128
v 4.648563 2.039454 1.568446
v -4.610444 0.002842 -0.576070
v -4.610446 1.889853 -1.645128
v -4.610446 2.535095 -1.645128
v -4.610446 2.113103 -1.645128
v -4.610446 2.039454 -1.645128
v -4.610444 0.002842 0.477629
v -4.610446 1.889318 1.568446
v -4.610446 2.535095 1.568446
v -4.610446 2.113103 1.568446
v -4.610446 2.039454 1.568446
v -4.610446 1.966331 -1.645128
v -4.610446 1.965947 1.568446
v 4.548162 0.071922 -1.581886
v 4.548162 1.891056 -1.581886
v 4.548162 2.535095 -1.581886
v 4.548162 2.113103 -1.581886
v 4.548162 2.039454 -1.581886
v 4.548162 0.071922 1.507355
v 4.548162 1.888115 1.507355
v 4.548162 2.535095 1.507355
v 4.548162 2.113103 1.507355
v 4.548162 2.039454 1.507355
v 4.548162 1.967196 -1.581886
v 4.548162 1.965081 1.507355
v -4.510044 1.891057 -1.581886
v -4.510044 0.071922 -1.581886
v -4.510044 2.535095 -1.581886
v -4.510044 2.113103 -1.581886
v -4.510044 2.039454 -1.581886
v -4.510044 0.071922 1.507355
v -4.510044 1.888116 1.507355
v -4.510044 2.535095 1.507355
v -4.510044 2.113103 1.507355
v -4.510044 2.039454 1.507355
v -4.510044 1.967197 -1.581886
v -4.510044 1.965082 1.507355
v 4.648563 0.002842 1.568446
v 4.648563 0.002842 -1.645128
v -4.610444 0.002842 -1.645128
v -4.610446 0.002842 1.568446
v -4.510044 0.071922 0.477773
v -4.510044 0.071922 -0.576267
v 4.548162 0.071922 0.477773
v 4.548162 0.071922 -0.576267
vt 0.375000 0.000000
vt 0.625000 0.000000
vt 0.375000 0.250000
vt 0.625000 0.250000
vt 0.125000 0.250000
vt 0.375000 0.500000
vt 0.625000 0.500000
vt 0.875000 0.250000
vt 0.125000 0.000000
vt 0.375000 0.750000
vt 0.625000 0.750000
vt 0.875000 0.000000
vt 0.375000 0.250000
vt 0.375000 0.000000
vt 0.625000 0.000000
vt 0.625000 0.250000
vt 0.125000 0.250000
vt 0.125000 0.000000
vt 0.375000 0.500000
vt 0.625000 0.500000
vt 0.875000 0.250000
vt 0.875000 0.000000
vt 0.625000 0.750000
vt 0.375000 0.750000
vt 0.375000 0.000000
vt 0.625000 0.000000
vt 0.125000 0.000000
vt 0.875000 0.000000
vt 0.625000 0.750000
vt 0.375000 0.750000
vt 0.698447 0.196730
vt 0.779621 0.196730
vt 0.625000 0.845379
vt 0.625000 0.926553
vt 0.698447 0.250000
vt 0.779621 0.250000
vt 0.779621 0.222985
vt 0.698447 0.222985
vt 0.698447 0.222985
vt 0.779621 0.222985
vt 0.779621 0.250000
vt 0.698447 0.250000
vt 0.698447 0.196730
vt 0.625000 0.926553
vt 0.625000 0.845379
vt 0.779621 0.196730
vt 0.698447 0.222985
vt 0.779621 0.222985
vt 0.779621 0.250000
vt 0.698447 0.250000
vt 0.698447 0.250000
vt 0.779621 0.250000
vt 0.779621 0.222985
vt 0.698447 0.222985
vt 0.779621 0.216013
vt 0.779621 0.216013
vt 0.698447 0.216013
vt 0.698447 0.216013
vt 0.779621 0.196730
vt 0.698447 0.196730
vt 0.779621 0.203023
vt 0.779621 0.203023
vt 0.698447 0.203023
vt 0.698447 0.203023
vt 0.779621 0.216013
vt 0.779621 0.216013
vt 0.698447 0.216013
vt 0.698447 0.216013
vt 0.698447 0.196730
vt 0.779621 0.196730
vt 0.698447 0.203023
vt 0.698447 0.203023
vt 0.779621 0.203023
vt 0.779621 0.203023
vt 0.625000 0.250000
vt 0.625000 0.222985
vt 0.625000 0.845379
vt 0.625000 0.750000
vt 0.625000 0.750000
vt 0.625000 0.845379
vt 0.875000 0.250000
vt 0.875000 0.222985
vt 0.625000 0.500000
vt 0.625000 0.500000
vt 0.625000 0.527015
vt 0.625000 0.527015
vt 0.625000 0.196730
vt 0.625000 0.000000
vt 0.625000 0.000000
vt 0.625000 0.196730
vt 0.625000 0.000000
vt 0.625000 0.196730
vt 0.625000 0.553270
vt 0.625000 0.750000
vt 0.625000 0.750000
vt 0.625000 0.553270
vt 0.875000 0.000000
vt 0.875000 0.196730
vt 0.698447 0.000000
vt 0.875000 0.250000
vt 0.875000 0.250000
vt 0.875000 0.250000
vt 0.875000 0.222985
vt 0.779621 0.000000
vt 0.875000 0.000000
vt 0.875000 0.196730
vt 0.625000 0.216013
vt 0.875000 0.216013
vt 0.625000 0.203023
vt 0.875000 0.203023
vt 0.779621 0.000000
vt 0.698447 0.000000
vt 0.625000 0.926553
vt 0.625000 0.926553
vt 0.625000 0.553270
vt 0.625000 0.553270
vt 0.875000 0.196730
vt 0.875000 0.000000
vt 0.875000 0.216013
vt 0.625000 0.533987
vt 0.625000 0.533987
vt 0.625000 0.546977
vt 0.625000 0.546977
vt 0.625000 1.000000
vt 0.625000 1.000000
vt 0.625000 0.203023
vt 0.625000 0.250000
vt 0.625000 0.250000
vt 0.625000 0.250000
vt 0.625000 0.250000
vt 0.625000 0.250000
vt 0.625000 0.222985
vt 0.625000 0.216013
vt 0.875000 0.203023
vt 0.875000 0.196730
vt 0.875000 0.000000
vt 0.875000 0.222985
vt 0.875000 0.216013
vt 0.625000 0.203023
vt 0.625000 0.222985
vt 0.625000 0.216013
vt 0.875000 0.203023
vt 0.875000 0.203023
vt 0.625000 0.546977
vt 0.625000 0.546977
vt 0.625000 0.500000
vt 0.625000 0.500000
vt 0.625000 0.500000
vt 0.625000 0.500000
vt 0.875000 0.250000
vt 0.875000 0.250000
vt 0.625000 0.527015
vt 0.625000 0.527015
vt 0.875000 0.222985
vt 0.625000 0.533987
vt 0.625000 0.533987
vt 0.875000 0.216013
vt 0.625000 0.000000
vt 0.625000 0.196730
vt 0.625000 1.000000
vt 0.625000 0.222985
vt 0.625000 0.216013
vt 0.625000 0.203023
vt 0.625000 1.000000
vn -0.000012 0.004248 -0.999991
vn -0.000012 0.004248 -0.999991
vn -0.000012 0.004248 -0.999991
vn -0.000012 0.004248 -0.999991
vn 0.999979 0.006535 -0.000039
vn 0.999979 0.006535 -0.000039
vn 0.999979 0.006535 -0.000039
vn 0.999979 0.006535 -0.000039
vn 0.000000 -1.000000 0.000000
vn 0.000000 -1.000000 0.000000
vn 0.000000 -1.000000 0.000000
vn 0.000000 -1.000000 0.000000
vn -0.999979 0.006534 0.000039
vn -0.999979 0.006534 0.000039
vn -0.999979 0.006534 0.000039
vn -0.999979 0.006534 0.000039
vn 0.000012 0.004246 0.999991
vn 0.000012 0.004246 0.999991
vn 0.000012 0.004246 0.999991
vn 0.000012 0.004246 0.999991
vn 0.000012 -0.004247 0.999991
vn 0.000012 -0.004247 0.999991
vn 0.000012 -0.004247 0.999991
vn 0.000012 -0.004247 0.999991
vn -0.999979 -0.006535 0.000039
vn -0.999979 -0.006535 0.000039
vn -0.999979 -0.006535 0.000039
vn -0.999979 -0.006535 0.000039
vn 0.000000 1.000000 0.000000
vn 0.000000 1.000000 0.000000
vn 0.000000 1.000000 0.000000
vn 0.000000 1.000000 0.000000
vn 0.999979 -0.006535 -0.000039
vn 0.999979 -0.006535 -0.000039
vn 0.999979 -0.006535 -0.000039
vn 0.999979 -0.006535 -0.000039
vn -0.000012 -0.004247 -0.999991
vn -0.000012 -0.004247 -0.999991
vn -0.000012 -0.004247 -0.999991
vn -0.000012 -0.004247 -0.999991
vn 0.002755 -0.999965 -0.007924
vn 0.002782 -0.999965 -0.007897
vn -0.002796 -0.999965 -0.007912
vn -0.002768 -0.999965 -0.007940
vn 0.002770 -0.999965 0.007934
vn 0.002798 -0.999965 0.007906
vn -0.002780 -0.999965 0.007891
vn -0.002752 -0.999965 0.007919
vn -1.000000 0.000000 -0.000000
vn -1.000000 -0.000000 0.000000
vn -1.000000 -0.000000 0.000000
vn -1.000000 0.000000 -0.000000
vn -1.000000 0.000000 -0.000000
vn -1.000000 0.000000 0.000000
vn -1.000000 0.000000 0.000000
vn -1.000000 0.000000 -0.000000
vn 1.000000 -0.000000 0.000000
vn 1.000000 -0.000000 -0.000000
vn 1.000000 -0.000000 -0.000000
vn 1.000000 -0.000000 0.000000
vn 1.000000 -0.000001 0.000000
vn 1.000000 -0.000001 0.000000
vn 1.000000 -0.000001 -0.000000
vn 1.000000 -0.000001 -0.000000
vn 1.000000 -0.000000 0.000000
vn 1.000000 0.000000 -0.000000
vn 1.000000 0.000000 -0.000000
vn 1.000000 0.000000 0.000000
vn -1.000000 -0.000000 0.000000
vn -1.000000 -0.000000 0.000000
vn -1.000000 -0.000000 0.000000
vn -1.000000 -0.000000 0.000000
vn 0.000000 -0.552699 0.833381
vn 0.000000 -0.552699 0.833381
vn 0.000000 -0.315389 0.948962
vn 0.000000 -0.315390 0.948962
vn 0.000000 -0.315390 -0.948962
vn 0.000000 -0.315390 -0.948962
vn 0.000000 -0.552695 -0.833383
vn 0.000000 -0.552695 -0.833383
vn 0.000000 1.000000 0.000000
vn 0.000000 1.000000 0.000000
vn 0.000000 1.000000 0.000000
vn 0.000000 1.000000 0.000000
vn 0.000000 1.000000 0.000000
vn 0.000000 1.000000 0.000000
vn 0.000000 1.000000 0.000000
vn 0.000000 1.000000 0.000000
vn 0.000000 -1.000000 0.000000
vn 0.000000 -1.000000 0.000000
vn 0.000000 -1.000000 0.000000
vn 0.000000 -1.000000 0.000000
vn 0.000000 0.409974 0.912097
vn 0.000000 0.409974 0.912097
vn 0.000000 0.363926 -0.931428
vn 0.000000 0.363926 -0.931428
vn 0.000000 0.660605 0.750734
vn 0.000000 0.660605 0.750734
vn 0.000000 0.607549 -0.794282
vn 0.000000 0.607549 -0.794282
vn 0.000000 -0.393787 0.919202
vn 0.000000 -0.393787 0.919202
vn 0.000000 -0.649791 0.760113
vn 0.000000 -0.649791 0.760113
vn 0.000000 -0.649791 -0.760113
vn 0.000000 -0.649791 -0.760113
vn 0.000000 -0.393789 -0.919201
vn 0.000000 -0.393789 -0.919201
vn 0.000000 1.000000 0.000000
vn 0.000000 1.000000 0.000000
vn 0.000000 1.000000 0.000000
vn 0.000000 1.000000 0.000000
vn 0.000000 1.000000 0.000000
vn 0.000000 1.000000 0.000000
vn 0.000000 1.000000 -0.000000
vn 0.000000 1.000000 -0.000000
vn 0.000000 -1.000000 0.000000
vn 0.000000 -1.000000 0.000000
vn 0.000000 -1.000000 0.000000
vn 0.000000 -1.000000 0.000000
vn 0.000000 0.363924 -0.931429
vn 0.000000 0.363924 -0.931429
vn 0.000000 0.409974 0.912097
vn 0.000000 0.409974 0.912097
vn 0.000000 0.660605 0.750733
vn 0.000000 0.660605 0.750733
vn 0.000000 0.607548 -0.794283
vn 0.000000 0.607548 -0.794283
vn 1.000000 0.000000 0.000000
vn 1.000000 -0.000001 0.000000
vn 0.000000 -1.000000 -0.000000
vn 0.000000 -1.000000 -0.000000
vn 0.000000 -1.000000 -0.000000
vn 0.000000 -1.000000 -0.000000
vn -1.000000 0.000000 0.000000
vn -1.000000 -0.000001 0.000000
vn 0.000000 0.000000 -1.000000
vn 0.000000 0.000000 -1.000000
vn 0.000000 0.000000 -1.000000
vn 0.000000 0.000000 -1.000000
vn 0.000000 0.000000 1.000000
vn 0.000000 0.000000 1.000000
vn 0.000000 0.000000 1.000000
vn 0.000000 0.000000 1.000000
vn -1.000000 0.000000 -0.000000
vn -1.000000 0.000000 -0.000000
vn 0.000000 0.000000 1.000000
vn 0.000000 0.000000 1.000000
vn 0.000000 0.000000 1.000000
vn 0.000000 0.000000 1.000000
vn 1.000000 -0.000000 -0.000000
vn 1.000000 -0.000000 -0.000000
vn 1.000000 0.000000 0.000000
vn 1.000000 0.000000 0.000000
vn 1.000000 -0.000000 0.000000
vn 1.000000 0.000000 0.000000
vn 0.000000 1.000000 -0.000002
vn 0.000000 1.000000 -0.000003
vn 1.000000 0.000000 -0.000000
vn 1.000000 0.000000 -0.000000
vn 1.000000 -0.000000 -0.000000
vn 1.000000 0.000000 -0.000000
vn 1.000000 0.000000 -0.000000
vn 1.000000 0.000000 -0.000000
vn 1.000000 -0.000003 0.000000
vn 1.000000 -0.000004 0.000000
vn 1.000000 -0.000003 -0.000000
vn 1.000000 -0.000003 -0.000000
vn 1.000000 0.000003 0.000000
vn 1.000000 0.000003 0.000000
vn 1.000000 -0.000000 -0.000000
vn 1.000000 0.000001 -0.000000
vn -1.000000 -0.000001 -0.000000
vn -1.000000 -0.000001 -0.000000
vn -1.000000 -0.000001 -0.000000
vn -1.000000 -0.000001 -0.000000
vn 0.000000 -1.000000 0.000000
vn 0.000000 -1.000000 0.000000
vn 0.000000 0.000000 -1.000000
vn 0.000000 0.000000 -1.000000
vn 0.000000 0.000000 -1.000000
vn 0.000000 0.000000 -1.000000
vn -1.000000 -0.000001 -0.000000
vn -1.000000 -0.000001 -0.000000
vn -1.000000 -0.000003 0.000000
vn -1.000000 -0.000004 0.000000
vn 0.000000 0.000000 -1.000000
vn 0.000000 0.000000 -1.000000
vn 0.000000 0.000000 -1.000000
vn 0.000000 0.000000 -1.000000
vn 0.000000 -1.000000 0.000000
vn 0.000000 -1.000000 0.000000
vn -1.000000 -0.000001 -0.000001
vn -1.000000 -0.000000 -0.000001
vn -1.000000 0.000003 0.000000
vn -1.000000 0.000003 0.000000
vn 0.000000 0.000000 1.000000
vn 0.000000 0.000000 1.000000
vn 0.000000 1.000000 0.000003
vn 0.000000 1.000000 0.000003
vn 0.000000 1.000000 0.000003
vn 0.000000 1.000000 0.000003
vn -1.000000 0.000000 0.000000
vn -1.000000 -0.000001 0.000000
vn 0.000000 0.000000 1.000000
vn 0.000000 0.000000 1.000000
vn 0.000000 0.000000 1.000000
vn 0.000000 0.000000 1.000000
vn 0.000000 0.000000 1.000000
vn 0.000000 0.000000 1.000000
vn -1.000000 -0.000003 0.000000
vn -1.000000 -0.000004 0.000000
vn -1.000000 0.000000 0.000000
vn -1.000000 0.000000 0.000000
vn -1.000000 -0.000000 0.000000
vn -1.000000 -0.000000 0.000000
vn -1.000000 0.000000 0.000000
vn -1.000000 0.000001 0.000000
vn -1.000000 0.000003 0.000000
vn -1.000000 0.000004 0.000000
vn -1.000000 0.000000 -0.000000
vn -1.000000 0.000000 -0.000000
vn -1.000000 0.000000 -0.000000
vn -1.000000 0.000000 -0.000000
vn -1.000000 0.000000 -0.000000
vn -1.000000 0.000000 -0.000000
vn -1.000000 0.000000 0.000000
vn -1.000000 0.000000 0.000000
vn 1.000000 0.000000 -0.000001
vn 1.000000 0.000000 -0.000001
vn -0.000000 0.000000 1.000000
vn -0.000000 0.000000 1.000000
vn 0.000000 1.000000 -0.000002
vn 0.000000 1.000000 -0.000003
vn 0.000000 0.000000 1.000000
vn 0.000000 0.000000 1.000000
vn 0.000000 0.000000 1.000000
vn 0.000000 0.000000 1.000000
vn 1.000000 0.000000 -0.000001
vn 1.000000 0.000000 -0.000001
vn 0.000000 0.000000 1.000000
vn 0.000000 0.000000 1.000000
vn 1.000000 0.000000 -0.000001
vn 1.000000 0.000000 -0.000001
vn 0.000000 0.000000 -1.000000
vn 0.000000 0.000000 -1.000000
vn 0.000000 0.000000 -1.000000
vn 0.000000 0.000000 -1.000000
vn 1.000000 -0.000000 0.000000
vn 1.000000 -0.000000 0.000000
vn 1.000000 0.000000 0.000001
vn 1.000000 0.000000 0.000001
vn 0.000000 0.000000 -1.000000
vn 0.000000 0.000000 -1.000000
vn 0.000000 0.000000 -1.000000
vn 0.000000 0.000000 -1.000000
vn 1.000000 0.000000 0.000001
vn 1.000000 0.000000 0.000001
vn 0.000000 0.000000 -1.000000
vn 0.000000 0.000000 -1.000000
vn 0.000000 0.000000 -1.000000
vn 0.000000 0.000000 -1.000000
vn 1.000000 0.000000 0.000001
vn 1.000000 0.000000 0.000001
vn 0.000000 1.000000 0.000000
vn 0.000000 1.000000 0.000000
vn 0.000000 1.000000 0.000000
vn 0.000000 1.000000 0.000000
vn 0.000000 1.000000 0.000000
vn 0.000000 1.000000 0.000000
vn 0.000000 1.000000 0.000000
vn 0.000000 1.000000 0.000000
s off
g box4
usemtl initialShadingGroup
f 10/3/1 12/4/2 11/26/3 9/25/4
f 13/5/5 10/3/6 9/25/7 14/27/8
f 13/6/9 15/7/10 12/4/11 10/3/12
f 15/8/13 16/28/14 11/26/15 12/4/16
f 16/29/17 15/7/18 13/6/19 14/30/20
f 3/13/21 1/14/22 2/15/23 4/16/24
f 5/17/25 7/18/26 1/14/27 3/13/28
f 5/19/29 3/13/30 4/16/31 6/20/32
f 6/21/33 4/16/34 2/15/35 8/22/36
f 8/23/37 7/24/38 5/19/39 6/20/40
s 1
f 1/1/41 9/25/42 11/26/43 2/2/44
f 7/9/45 14/27/46 9/25/42 1/1/41
f 2/2/44 11/26/43 16/28/47 8/12/48
f 8/11/48 16/29/47 14/30/46 7/10/45
s 2
f 41/31/49 37/32/50 112/33/51 111/34/52
f 42/35/53 38/36/54 39/37/55 43/38/56
s 4
f 53/39/57 49/40/58 48/41/59 52/42/60
f 51/43/61 109/44/62 110/45/63 47/46/64
s 6
f 19/47/65 22/48/66 21/49/67 18/50/68
s 7
f 28/51/69 31/52/70 32/53/71 29/54/72
s 8
f 22/48/73 39/37/74 40/55/75 24/56/76
s 9
f 23/57/77 44/58/78 43/38/79 19/47/80
s off
f 20/59/81 37/32/82 41/31/83 17/60/84
s 10
f 21/49/85 38/36/86 42/35/87 18/50/88
s off
f 19/47/89 43/38/90 39/37/91 22/48/92
s 8
f 45/61/93 26/62/94 24/56/76 40/55/75
s 9
f 44/58/78 23/57/77 25/63/95 46/64/96
s 8
f 26/62/94 45/61/93 37/32/97 20/59/98
s 9
f 17/60/99 41/31/100 46/64/96 25/63/95
s 11
f 34/65/101 50/66/102 49/40/103 32/53/104
s 12
f 29/54/105 53/39/106 54/67/107 33/68/108
s off
f 27/69/109 51/43/110 47/46/111 30/70/112
s 10
f 28/51/113 52/42/114 48/41/115 31/52/116
s off
f 32/53/117 49/40/118 53/39/119 29/54/120
s 12
f 56/71/121 35/72/122 33/68/108 54/67/107
s 11
f 50/66/102 34/65/101 36/73/123 55/74/124
f 30/70/125 47/46/126 55/74/124 36/73/123
s 12
f 35/72/122 56/71/121 51/43/127 27/69/128
s 6
f 19/47/65 18/50/68 60/75/129 62/76/130
s 14
f 69/77/131 107/78/132 106/79/133 59/80/134
s 7
f 32/53/71 31/52/70 71/81/135 72/82/136
s 15
f 71/83/137 58/84/138 61/85/139 72/86/140
s 16
f 75/87/141 108/88/142 105/89/143 57/90/144
s 2
f 86/91/145 87/92/146 41/31/49 111/34/52
s 17
f 93/93/147 94/94/148 81/95/149 82/96/150
s 4
f 94/97/151 93/98/152 47/46/64 110/45/63
s 6
f 57/90/153 105/89/154 66/99/155 17/60/156
s 10
f 58/100/157 83/101/158 38/36/86 21/49/85
s 6
f 58/102/159 21/49/67 22/48/66 61/103/160
f 59/104/161 106/105/162 65/106/163 20/59/164
f 62/76/130 68/107/165 23/57/166 19/47/65
f 63/108/167 61/103/160 22/48/66 24/56/168
f 64/109/169 57/90/153 17/60/156 25/63/170
f 65/106/163 67/110/171 26/62/172 20/59/164
f 66/99/155 59/104/161 20/59/164 17/60/156
f 24/56/168 26/62/172 67/110/171 63/108/167
f 64/109/169 25/63/170 23/57/166 68/107/165
s 7
f 69/111/173 74/112/174 27/69/175 30/70/176
s 14
f 74/113/177 69/77/131 59/80/134 66/114/178
s 15
f 70/115/179 65/116/180 106/79/181 107/78/182
s 7
f 70/117/183 107/118/184 69/111/173 30/70/176
f 72/82/136 73/119/185 34/65/186 32/53/71
s 15
f 73/120/187 72/86/140 61/85/139 63/121/188
f 73/120/187 63/121/188 67/122/189 79/123/190
s 14
f 74/113/177 66/114/178 105/124/191 108/125/192
s 7
f 74/112/174 108/88/193 75/87/194 27/69/175
f 75/87/194 80/126/195 35/72/196 27/69/175
s 16
f 80/126/197 75/87/141 57/90/144 64/109/198
s 10
f 76/127/199 100/128/200 52/42/114 28/51/113
f 100/128/200 76/127/199 60/129/201 88/130/202
s 7
f 76/131/203 28/51/69 29/54/72 77/132/204
s 16
f 76/131/205 77/132/206 62/76/207 60/75/208
f 77/132/206 78/133/209 68/107/210 62/76/207
s 7
f 78/133/211 77/132/204 29/54/72 33/68/212
f 73/119/185 79/134/213 36/73/214 34/65/186
s 15
f 70/115/179 79/123/190 67/122/189 65/116/180
s 7
f 79/134/213 70/117/183 30/70/176 36/73/214
s 16
f 78/133/209 80/126/197 64/109/198 68/107/210
s 7
f 33/68/212 35/72/196 80/126/195 78/133/211
s 2
f 37/32/50 82/135/215 81/136/216 112/33/51
f 39/37/55 38/36/54 83/101/217 84/137/218
f 84/137/218 85/138/219 40/55/220 39/37/55
f 87/92/146 92/139/221 46/64/222 41/31/49
s 10
f 88/130/202 60/129/201 18/50/88 42/35/87
s 2
f 88/130/223 42/35/53 43/38/56 89/140/224
f 90/141/225 89/140/224 43/38/56 44/58/226
f 85/138/219 91/142/227 45/61/228 40/55/220
f 91/142/227 82/135/215 37/32/50 45/61/228
f 44/58/226 46/64/222 92/139/221 90/141/225
s 4
f 93/98/152 103/143/229 55/74/230 47/46/64
s 17
f 103/144/231 93/93/147 82/96/150 91/145/232
s 10
f 71/146/233 95/147/234 83/148/158 58/149/157
f 95/150/234 71/151/233 31/52/116 48/41/115
s 17
f 83/148/235 95/147/236 96/152/237 84/153/238
s 4
f 95/150/239 48/41/59 49/40/58 96/154/240
s 17
f 96/152/237 97/155/241 85/156/242 84/153/238
s 4
f 97/157/243 96/154/240 49/40/58 50/66/244
s 24
f 98/158/245 99/159/246 87/92/247 86/91/248
s 4
f 99/159/249 98/160/250 109/44/62 51/43/61
f 53/39/57 52/42/60 100/128/251 101/161/252
s 24
f 88/130/253 89/140/254 101/161/255 100/128/256
s 4
f 101/161/252 102/162/257 54/67/258 53/39/57
s 24
f 102/162/259 101/161/255 89/140/254 90/141/260
s 17
f 85/156/242 97/155/241 103/144/231 91/145/232
s 4
f 50/66/244 55/74/230 103/143/229 97/157/243
s 24
f 99/159/246 104/163/261 92/139/262 87/92/247
s 4
f 104/163/263 99/159/249 51/43/61 56/71/264
s 24
f 92/139/262 104/163/261 102/162/259 90/141/260
s 4
f 102/162/257 104/163/263 56/71/264 54/67/258
s 26
f 98/160/265 86/164/266 111/34/267 109/44/268
f 111/34/267 112/33/269 110/45/270 109/44/268
f 112/33/269 81/95/271 94/94/272 110/45/270
