# This file uses centimeters as units for non-parametric coordinates.

mtllib face down 3.mtl
g default
v -2.905829 1.111326 1.071210
v -2.869086 1.000793 1.071210
v -2.869086 1.000578 -2.066044
v -2.905829 1.111032 -2.066044
v -1.819068 0.000586 1.071210
v -1.936640 0.000585 1.071210
v -1.936640 0.000585 -2.066044
v -1.819068 0.000586 -2.066044
v -1.816745 0.000697 1.124650
v -1.816745 0.000697 -2.122149
v -1.794510 0.009709 1.124650
v -1.794510 0.009709 -2.122149
v -2.903937 1.137969 1.124650
v -2.903937 1.113103 1.124650
v -2.903937 1.113103 -2.122149
v -2.903937 1.137969 -2.122149
v -2.984510 1.118026 1.071210
v -2.984510 1.013199 1.071210
v -2.984510 1.012869 -2.066044
v -2.984510 1.117689 -2.066044
v -2.984510 0.918459 1.071210
v -2.984510 0.918158 -2.066044
v -3.063191 1.111326 1.071210
v -3.099934 1.000793 1.071210
v -3.099934 1.000578 -2.066044
v -3.063191 1.111032 -2.066044
v -4.149952 0.000586 1.071210
v -4.032381 0.000585 1.071210
v -4.032381 0.000585 -2.066044
v -4.149952 0.000586 -2.066044
v -4.153015 0.000587 1.124650
v -4.153014 0.000587 -2.122149
v -4.175607 0.010261 1.124650
v -4.175607 0.010261 -2.122149
v -3.065083 1.137969 1.124650
v -3.065083 1.113103 1.124650
v -3.065083 1.113103 -2.122149
v -3.065083 1.137969 -2.122149
v -2.952284 1.168936 1.124650
v -2.984510 1.178111 1.124650
v -3.016736 1.168936 1.124650
v -2.952284 1.150276 1.124650
v -2.984510 1.160211 1.124650
v -3.016736 1.150276 1.124650
v -2.952284 1.150276 -2.122149
v -2.984510 1.160211 -2.122149
v -3.016736 1.150276 -2.122149
v -2.952284 1.168936 -2.122149
v -2.984510 1.178111 -2.122149
v -3.016736 1.168936 -2.122149
v -2.783560 0.866320 1.071210
v -2.690269 0.751173 1.071210
v -2.581576 0.650438 1.071210
v -2.783560 0.866320 -2.066044
v -2.690269 0.751173 -2.066044
v -2.581576 0.650438 -2.066044
v -2.651083 0.492200 1.071210
v -2.762245 0.590327 1.071210
v -2.855143 0.705893 1.071210
v -2.651083 0.492200 -2.066044
v -2.762245 0.590327 -2.066044
v -2.855143 0.705893 -2.066044
v -3.185461 0.866320 1.071210
v -3.278752 0.751173 1.071210
v -3.387444 0.650438 1.071210
v -3.185461 0.866320 -2.066044
v -3.278752 0.751173 -2.066044
v -3.387444 0.650438 -2.066044
v -3.113878 0.705893 1.071210
v -3.206775 0.590327 1.071210
v -3.317936 0.492200 1.071210
v -3.317936 0.492200 -2.066044
v -3.206775 0.590327 -2.066044
v -3.113878 0.705893 -2.066044
vt 0.375000 0.000000
vt 0.375000 0.750000
vt 0.375000 1.000000
vt 0.125000 0.000000
vt 0.125000 0.250000
vt 0.000000 0.000000
vt 0.000000 1.000000
vt 0.000000 1.000000
vt 0.000000 0.000000
vt 0.000000 1.000000
vt 0.000000 0.000000
vt 0.464331 0.000000
vt 0.464331 1.000000
vt 0.464331 0.750000
vt 0.375000 0.000000
vt 0.464331 0.000000
vt 0.480475 0.500000
vt 0.464331 0.750000
vt 0.375000 0.750000
vt 0.464331 1.000000
vt 0.375000 1.000000
vt 0.125000 0.000000
vt 0.125000 0.250000
vt 0.000000 0.000000
vt 0.000000 1.000000
vt 0.000000 1.000000
vt 0.000000 0.000000
vt 0.000000 1.000000
vt 0.000000 0.000000
vt 0.250000 0.000000
vt 0.357927 1.000000
vt 0.357927 0.000000
vt 0.250000 0.000000
vt 0.357927 1.000000
vt 0.250000 1.000000
vt 0.357927 0.000000
vt 0.250000 1.000000
vt 0.250000 1.000000
vt 0.357927 0.000000
vt 0.357927 0.000000
vt 0.250000 0.000000
vt 0.357927 1.000000
vt 0.250000 1.000000
vt 0.357927 1.000000
vt 0.250000 0.000000
vt 0.429867 0.000000
vt 0.429867 0.000000
vt 0.429867 0.000000
vt 0.429867 0.000000
vt 0.429867 0.000000
vt 0.429867 0.000000
vt 0.429867 1.000000
vt 0.429867 1.000000
vt 0.429867 1.000000
vt 0.429867 1.000000
vt 0.429867 1.000000
vt 0.429867 1.000000
vt 0.375000 0.250000
vt 0.500000 0.250000
vt 0.500000 0.250000
vt 0.500000 0.500000
vt 0.375000 0.500000
vt 0.375000 0.250000
vt 0.500000 0.500000
vt 0.375005 0.500000
vt 0.375000 0.500000
vt 0.375000 0.250000
vt 0.375000 0.250000
vt 0.500000 0.250000
vt 0.500000 0.500000
vt 0.375000 0.500000
vt 0.500000 0.250000
vt 0.480475 0.250000
vt 0.375000 0.250000
vt 0.375000 0.250000
vt 0.375000 0.500000
vt 0.500000 0.250000
vt 0.375000 0.250000
vt 0.500000 0.500000
vt 0.500000 0.250000
vt 0.375000 0.500000
vt 0.500000 0.500000
vt 0.375000 0.250000
vt 0.375000 0.500000
vt 0.500000 0.500000
vt 0.500000 0.250000
vt 0.375000 0.500000
vt 0.500000 0.500000
vt 0.375000 0.250000
vt 0.375000 0.500000
vt 0.500000 0.250000
vt 0.500000 0.500000
vt 0.375000 0.250000
vt 0.375000 0.500000
vt 0.500000 0.250000
vt 0.500000 0.500000
vn 0.000000 0.000000 1.000000
vn 0.000000 0.000000 1.000000
vn 0.000000 0.000000 1.000000
vn 0.000000 0.000000 1.000000
vn 0.000007 -1.000000 0.000000
vn 0.000007 -1.000000 0.000000
vn 0.000007 -1.000000 0.000000
vn 0.000007 -1.000000 0.000000
vn 0.000000 0.000000 -1.000000
vn -0.000000 0.000000 -1.000000
vn -0.000000 0.000000 -1.000000
vn 0.000000 0.000000 -1.000000
vn 0.084578 0.996417 -0.000100
vn 0.000000 1.000000 -0.000101
vn 0.000000 1.000000 -0.000101
vn 0.084578 0.996417 -0.000100
vn 0.948910 0.315546 -0.000026
vn 0.948910 0.315546 -0.000026
vn 0.894662 0.446743 -0.000022
vn 0.894658 0.446752 -0.000022
vn 0.707550 0.706663 0.000000
vn 0.707550 0.706663 0.000000
vn 0.713033 0.701131 0.000000
vn 0.713033 0.701131 0.000000
vn -0.715165 -0.698955 0.000000
vn -0.715165 -0.698955 0.000000
vn -0.711438 -0.702749 0.000000
vn -0.711438 -0.702749 0.000000
vn -0.000011 0.000000 -1.000000
vn -0.000012 0.000000 -1.000000
vn -0.000012 0.000000 -1.000000
vn -0.000012 0.000000 -1.000000
vn 0.375608 -0.926779 -0.000000
vn 0.375608 -0.926779 -0.000000
vn 0.375608 -0.926779 -0.000000
vn 0.375608 -0.926779 -0.000000
vn 0.000000 0.000000 1.000000
vn 0.000000 0.000000 1.000000
vn 0.000000 0.000000 1.000000
vn 0.000000 0.000000 1.000000
vn 0.000001 0.000000 1.000000
vn 0.000000 0.000000 1.000000
vn -0.000007 -1.000000 0.000000
vn -0.000007 -1.000000 0.000000
vn -0.000007 -1.000000 0.000000
vn -0.000007 -1.000000 0.000000
vn -0.000000 0.000000 -1.000000
vn -0.000001 0.000000 -1.000000
vn -0.084578 0.996417 -0.000100
vn -0.084578 0.996417 -0.000100
vn -0.948910 0.315547 -0.000026
vn -0.894658 0.446753 -0.000022
vn -0.894662 0.446744 -0.000022
vn -0.948910 0.315547 -0.000026
vn -0.707047 0.707167 0.000000
vn -0.712514 0.701658 0.000000
vn -0.712514 0.701658 0.000000
vn -0.707047 0.707167 0.000000
vn 0.714963 -0.699163 0.000000
vn 0.711243 -0.702946 0.000000
vn 0.711243 -0.702946 0.000000
vn 0.714963 -0.699163 0.000000
vn -0.000000 0.000000 -1.000000
vn -0.000000 0.000000 -1.000000
vn 0.000000 0.000000 -1.000000
vn 0.000000 0.000000 -1.000000
vn -0.393639 -0.919265 -0.000000
vn -0.393639 -0.919265 -0.000000
vn -0.393639 -0.919265 -0.000000
vn -0.393639 -0.919265 -0.000000
vn -0.000004 0.000000 1.000000
vn -0.000005 0.000000 1.000000
vn -0.000005 0.000000 1.000000
vn -0.000005 0.000000 1.000000
vn -0.504726 -0.863280 -0.000000
vn -0.504726 -0.863280 -0.000000
vn 0.000002 0.000000 1.000000
vn 0.000003 0.000000 1.000000
vn 0.000000 0.000000 -1.000000
vn 0.000000 0.000000 -1.000000
vn 0.445933 0.895066 0.000000
vn 0.445933 0.895066 0.000000
vn 0.504725 -0.863280 -0.000000
vn 0.504725 -0.863280 -0.000000
vn 0.000002 0.000000 1.000000
vn 0.000003 0.000000 1.000000
vn -0.000001 0.000000 -1.000000
vn 0.000001 0.000000 -1.000000
vn -0.445932 0.895067 0.000000
vn -0.445932 0.895067 0.000000
vn 0.000000 0.000000 1.000000
vn 0.000000 0.000000 1.000000
vn 0.000000 -1.000000 -0.000000
vn 0.000000 -1.000000 -0.000000
vn 0.000003 0.000000 -1.000000
vn 0.000003 0.000000 -1.000000
vn 0.000000 1.000000 0.000000
vn 0.000000 1.000000 0.000000
vn 0.000000 0.000000 1.000000
vn 0.000000 0.000000 1.000000
vn 0.000000 0.000000 1.000000
vn 0.000000 0.000000 1.000000
vn 0.000000 0.000000 1.000000
vn 0.000000 0.000000 1.000000
vn 0.000000 0.000000 -1.000000
vn 0.000001 0.000000 -1.000000
vn 0.000000 0.000000 -1.000000
vn 0.000000 0.000000 -1.000000
vn 0.000000 0.000000 -1.000000
vn 0.000001 0.000000 -1.000000
vn 0.000000 0.000000 1.000000
vn 0.000000 0.000000 1.000000
vn -0.566870 -0.823807 0.000000
vn -0.566870 -0.823807 0.000000
vn -0.581254 -0.813722 0.000000
vn -0.581254 -0.813722 0.000000
vn 0.648645 0.761091 0.000000
vn 0.648645 0.761091 0.000000
vn 0.652717 0.757602 0.000000
vn 0.652717 0.757602 0.000000
vn 0.000001 0.000000 -1.000000
vn 0.000001 0.000000 -1.000000
vn 0.000001 0.000000 -1.000000
vn 0.000001 0.000000 -1.000000
vn 0.812816 0.582520 -0.000010
vn 0.812816 0.582520 -0.000010
vn 0.000000 0.000000 1.000000
vn -0.827820 -0.560993 0.000016
vn -0.827820 -0.560993 0.000016
vn -0.854072 -0.520156 0.000025
vn -0.854072 -0.520156 0.000025
vn -0.000000 0.000000 -1.000000
vn -0.000001 0.000000 -1.000000
vn 0.000000 0.000000 -1.000000
vn 0.000001 0.000000 1.000000
vn 0.000000 0.000000 1.000000
vn -0.812816 0.582520 -0.000010
vn -0.812816 0.582520 -0.000010
vn -0.000000 0.000000 1.000000
vn -0.000000 0.000000 1.000000
vn -0.000000 0.000000 1.000000
vn -0.000000 0.000000 1.000000
vn 0.566869 -0.823808 0.000000
vn 0.581254 -0.813722 0.000000
vn 0.581254 -0.813722 0.000000
vn 0.566869 -0.823808 0.000000
vn 0.000000 0.000000 -1.000000
vn 0.000000 0.000000 -1.000000
vn -0.648645 0.761091 0.000000
vn -0.652717 0.757602 0.000000
vn -0.652717 0.757602 0.000000
vn -0.648645 0.761091 0.000000
vn 0.827820 -0.560994 0.000016
vn 0.854071 -0.520156 0.000025
vn 0.854071 -0.520156 0.000025
vn 0.827820 -0.560994 0.000016
vn 0.730222 0.683210 0.000000
vn 0.730222 0.683210 0.000000
vn -0.723221 -0.690617 0.000000
vn -0.723221 -0.690617 0.000000
vn -0.000001 0.000000 -1.000000
vn -0.000001 0.000000 -1.000000
vn 0.000000 0.000000 1.000000
vn 0.000000 0.000000 1.000000
vn -0.730223 0.683209 0.000000
vn -0.730223 0.683209 0.000000
vn 0.723222 -0.690616 0.000000
vn 0.723222 -0.690616 0.000000
s 1
g book3
usemtl initialShadingGroup
f 1/1/1 17/12/2 18/73/3 2/67/4
s off
f 5/58/5 6/60/6 7/64/7 8/62/8
s 2
f 3/71/9 19/17/10 20/14/11 4/2/12
s 3
f 4/2/13 20/14/14 17/13/15 1/3/16
s 4
f 4/4/17 1/1/18 2/67/19 3/5/20
s 5
f 16/37/21 13/33/22 11/6/23 12/7/24
s 6
f 10/8/25 9/9/26 14/30/27 15/35/28
s 7
f 16/37/29 12/7/30 10/10/31 15/35/32
s off
f 10/10/33 12/7/34 11/6/35 9/11/36
s 8
f 13/33/37 14/30/38 9/11/39 11/6/40
s 1
f 23/15/41 24/74/42 18/73/3 17/16/2
s off
f 27/83/43 30/81/44 29/79/45 28/77/46
s 2
f 25/76/47 26/19/48 20/18/11 19/17/10
s 3
f 26/19/49 23/21/50 17/20/15 20/18/14
s 9
f 26/22/51 25/23/52 24/74/53 23/15/54
s 5
f 38/43/55 34/25/56 33/24/57 35/45/58
s 6
f 32/26/59 37/38/60 36/41/61 31/27/62
s 7
f 38/43/63 37/38/64 32/28/65 34/25/66
s off
f 32/28/67 31/29/68 33/24/69 34/25/70
s 8
f 35/45/71 33/24/72 31/29/73 36/41/74
s 6
f 15/35/28 14/30/27 42/32/75 45/31/76
s 8
f 39/36/77 42/32/78 14/30/38 13/33/37
s 7
f 45/31/79 48/34/80 16/37/29 15/35/32
s 5
f 48/34/81 39/36/82 13/33/22 16/37/21
s 6
f 37/38/60 47/42/83 44/39/84 36/41/61
s 8
f 41/40/85 35/45/71 36/41/74 44/39/86
s 7
f 47/42/87 37/38/64 38/43/63 50/44/88
s 5
f 50/44/89 38/43/55 35/45/58 41/40/90
s 8
f 39/36/77 40/46/91 43/50/92 42/32/78
f 40/47/91 41/40/85 44/39/86 43/51/92
s 6
f 42/32/75 43/49/93 46/54/94 45/31/76
f 43/48/93 44/39/84 47/42/83 46/55/94
s 7
f 45/31/79 46/53/95 49/57/96 48/34/80
f 46/52/95 47/42/87 50/44/88 49/56/96
s 5
f 41/40/90 40/47/97 49/56/98 50/44/89
f 40/46/97 39/36/82 48/34/81 49/57/98
s 1
f 53/63/99 52/89/100 58/91/101 57/59/102
f 52/89/100 51/68/103 59/69/104 58/91/101
s 2
f 68/84/105 67/94/106 73/96/107 72/82/108
f 67/94/106 66/87/109 74/85/110 73/96/107
s 1
f 6/60/111 5/58/112 53/63/99 57/59/102
s 16
f 7/64/113 6/60/114 57/59/115 60/61/116
s 4
f 5/58/117 8/62/118 56/65/119 53/63/120
s 2
f 8/62/121 7/64/122 60/61/123 56/65/124
s 4
f 51/68/125 54/66/126 3/71/20 2/67/19
s 1
f 59/69/104 51/68/103 2/67/4 18/73/3 21/86/127
s 16
f 62/70/128 59/69/129 21/86/130 22/88/131
s 2
f 54/66/132 62/70/133 22/88/134 19/17/10 3/71/9
s 1
f 69/72/135 21/86/127 18/73/3 24/74/42 63/75/136
s 9
f 63/75/137 24/74/53 25/76/52 66/87/138
s 1
f 28/77/139 71/80/140 65/78/141 27/83/142
s 21
f 29/79/143 72/82/144 71/80/145 28/77/146
s 2
f 30/81/147 68/84/105 72/82/108 29/79/148
s 9
f 27/83/149 65/78/150 68/84/151 30/81/152
s 21
f 74/85/153 22/88/154 21/86/155 69/72/156
s 2
f 66/87/109 25/76/47 19/17/10 22/88/134 74/85/110
s 4
f 51/68/125 52/89/157 55/90/158 54/66/126
f 52/89/157 53/63/120 56/65/119 55/90/158
s 16
f 57/59/115 58/91/159 61/92/160 60/61/116
f 58/91/159 59/69/129 62/70/128 61/92/160
s 2
f 54/66/132 55/90/161 61/92/162 62/70/133
f 55/90/161 56/65/124 60/61/123 61/92/162
s 1
f 63/75/136 64/93/163 70/95/164 69/72/135
f 64/93/163 65/78/141 71/80/140 70/95/164
s 9
f 65/78/150 64/93/165 67/94/166 68/84/151
f 64/93/165 63/75/137 66/87/138 67/94/166
s 21
f 69/72/156 70/95/167 73/96/168 74/85/153
f 70/95/167 71/80/145 72/82/144 73/96/168
