# This file uses centimeters as units for non-parametric coordinates.

mtllib face down 2.mtl
g default
v 2.542072 0.425178 1.095520
v 2.732494 0.353071 1.095520
v 2.732494 0.353071 -2.041734
v 2.542072 0.425178 -2.041734
v 4.815423 0.107358 1.095520
v 4.569480 0.016719 1.095520
v 4.569480 0.016719 -2.041734
v 4.815423 0.107358 -2.041734
v 2.996579 0.291953 1.095520
v 2.996579 0.016719 1.095520
v 2.996579 0.016719 -2.041734
v 2.996579 0.291953 -2.041734
v 2.830402 0.317344 1.095520
v 2.909094 0.301138 1.095520
v 2.649761 0.069513 1.095520
v 2.816758 0.028359 1.095520
v 2.649761 0.069513 -2.041734
v 2.816758 0.028359 -2.041734
v 2.830402 0.317345 -2.041734
v 2.909094 0.301138 -2.041734
v 4.974101 0.086218 1.148960
v 4.974101 0.086218 -2.097839
v 4.974101 0.106218 1.148960
v 4.974101 0.106218 -2.097839
v 2.546030 0.445239 1.148960
v 2.546030 0.424684 1.148960
v 2.546030 0.424684 -2.097839
v 2.546030 0.445239 -2.097839
v 2.377483 0.425177 1.095520
v 2.377483 0.305305 1.095520
v 2.377483 0.305305 -2.041734
v 2.377483 0.425177 -2.041734
v 2.377483 0.252335 1.095520
v 2.377483 0.252335 -2.041734
v 2.212894 0.425178 1.095520
v 2.022472 0.353071 1.095520
v 2.022472 0.353071 -2.041734
v 2.212894 0.425178 -2.041734
v -0.060457 0.107358 1.095520
v 0.185485 0.016719 1.095520
v 0.185485 0.016719 -2.041734
v -0.060457 0.107358 -2.041734
v 1.758386 0.291953 1.095520
v 1.758386 0.016719 1.095520
v 1.758386 0.016719 -2.041734
v 1.758386 0.291953 -2.041734
v 1.924564 0.317344 1.095520
v 1.845871 0.301138 1.095520
v 2.105204 0.069513 1.095520
v 1.938207 0.028359 1.095520
v 2.105204 0.069513 -2.041734
v 1.938207 0.028359 -2.041734
v 1.924564 0.317345 -2.041734
v 1.845871 0.301138 -2.041734
v -0.219135 0.086218 1.148960
v -0.219135 0.086218 -2.097839
v -0.219135 0.106218 1.148960
v -0.219135 0.106218 -2.097839
v 2.208935 0.445239 1.148960
v 2.208935 0.424684 1.148960
v 2.208935 0.424684 -2.097839
v 2.208935 0.445239 -2.097839
v 2.444895 0.464285 1.148960
v 2.377483 0.471023 1.148960
v 2.310070 0.464285 1.148960
v 2.444895 0.443492 1.148960
v 2.377483 0.450150 1.148960
v 2.310070 0.443492 1.148960
v 2.444895 0.443492 -2.097839
v 2.377483 0.450150 -2.097839
v 2.310070 0.443492 -2.097839
v 2.444895 0.464285 -2.097839
v 2.377483 0.471023 -2.097839
v 2.310070 0.464285 -2.097839
vt 0.375000 0.000000
vt 0.375000 0.750000
vt 0.375000 1.000000
vt 0.125000 0.000000
vt 0.125000 0.250000
vt 0.375000 0.250000
vt 0.500000 0.250000
vt 0.500000 0.500000
vt 0.375000 0.500000
vt 0.375000 0.250000
vt 0.500000 0.250000
vt 0.375000 0.500000
vt 0.500000 0.500000
vt 0.375000 0.250000
vt 0.375000 0.500000
vt 0.500000 0.250000
vt 0.375000 0.250000
vt 0.500000 0.500000
vt 0.500000 0.250000
vt 0.375000 0.500000
vt 0.500000 0.500000
vt 0.375000 0.250000
vt 0.375000 0.500000
vt 0.000000 0.000000
vt 0.000000 1.000000
vt 0.000000 1.000000
vt 0.000000 0.000000
vt 0.000000 1.000000
vt 0.000000 0.000000
vt 0.464331 0.000000
vt 0.464331 1.000000
vt 0.480475 0.250000
vt 0.480475 0.500000
vt 0.464331 0.750000
vt 0.500000 0.250000
vt 0.500000 0.500000
vt 0.375000 0.000000
vt 0.464331 0.000000
vt 0.480475 0.250000
vt 0.375000 0.250000
vt 0.375000 0.250000
vt 0.500000 0.250000
vt 0.500000 0.500000
vt 0.375000 0.500000
vt 0.375000 0.500000
vt 0.480475 0.500000
vt 0.464331 0.750000
vt 0.375000 0.750000
vt 0.464331 1.000000
vt 0.375000 1.000000
vt 0.125000 0.000000
vt 0.125000 0.250000
vt 0.375000 0.250000
vt 0.500000 0.250000
vt 0.500000 0.500000
vt 0.375000 0.500000
vt 0.375000 0.250000
vt 0.375000 0.250000
vt 0.375000 0.500000
vt 0.375000 0.500000
vt 0.500000 0.250000
vt 0.500000 0.250000
vt 0.500000 0.500000
vt 0.500000 0.500000
vt 0.500000 0.250000
vt 0.000000 0.000000
vt 0.000000 1.000000
vt 0.000000 1.000000
vt 0.000000 0.000000
vt 0.000000 1.000000
vt 0.000000 0.000000
vt 0.500000 0.500000
vt 0.250000 0.000000
vt 0.357927 1.000000
vt 0.357927 0.000000
vt 0.250000 0.000000
vt 0.357927 1.000000
vt 0.250000 1.000000
vt 0.357927 0.000000
vt 0.250000 1.000000
vt 0.250000 1.000000
vt 0.357927 0.000000
vt 0.357927 0.000000
vt 0.250000 0.000000
vt 0.357927 1.000000
vt 0.250000 1.000000
vt 0.357927 1.000000
vt 0.250000 0.000000
vt 0.429867 0.000000
vt 0.429867 0.000000
vt 0.429867 0.000000
vt 0.429867 0.000000
vt 0.429867 0.000000
vt 0.429867 0.000000
vt 0.429867 1.000000
vt 0.429867 1.000000
vt 0.429867 1.000000
vt 0.429867 1.000000
vt 0.429867 1.000000
vt 0.429867 1.000000
vn -0.000000 0.000000 1.000000
vn 0.000000 0.000000 1.000000
vn 0.000000 0.000000 1.000000
vn -0.000000 0.000000 1.000000
vn 0.345803 -0.938307 0.000000
vn 0.345803 -0.938307 0.000000
vn 0.345803 -0.938307 0.000000
vn 0.345803 -0.938307 0.000000
vn 0.000000 0.000000 -1.000000
vn 0.000000 0.000000 -1.000000
vn 0.000000 0.000000 -1.000000
vn 0.000000 0.000000 -1.000000
vn -0.000000 1.000000 0.000000
vn 0.000000 1.000000 0.000000
vn 0.000000 1.000000 0.000000
vn -0.000000 1.000000 0.000000
vn 0.354127 0.935197 0.000000
vn 0.354127 0.935197 0.000000
vn 0.350295 0.936639 0.000000
vn 0.350295 0.936639 0.000000
vn 0.000000 0.000000 1.000000
vn 0.000000 0.000000 1.000000
vn 0.000000 0.000000 1.000000
vn 0.000000 0.000000 1.000000
vn -0.000000 -1.000000 0.000000
vn -0.000000 -1.000000 0.000000
vn -0.006641 -0.999978 0.000000
vn -0.006641 -0.999978 0.000000
vn 0.100971 0.994889 0.000000
vn 0.101130 0.994873 0.000000
vn 0.101130 0.994873 0.000000
vn 0.100971 0.994889 0.000000
vn 0.000000 0.000000 -1.000000
vn -0.000000 0.000000 -1.000000
vn -0.000000 0.000000 -1.000000
vn 0.000000 0.000000 -1.000000
vn 0.282124 0.959378 0.000000
vn 0.151047 0.988527 0.000000
vn 0.151047 0.988527 0.000000
vn 0.282124 0.959378 0.000000
vn 0.000000 0.000000 1.000000
vn 0.000000 0.000000 1.000000
vn 0.000000 0.000000 1.000000
vn 0.000000 0.000000 1.000000
vn -0.150491 -0.988611 0.000000
vn -0.454239 -0.890880 0.000000
vn -0.454239 -0.890880 0.000000
vn -0.150491 -0.988611 0.000000
vn -0.000000 0.000000 -1.000000
vn 0.000000 0.000000 -1.000000
vn 0.000000 0.000000 -1.000000
vn -0.000000 0.000000 -1.000000
vn 0.000000 0.000000 1.000000
vn 0.140175 0.990127 0.000000
vn 0.140175 0.990127 0.000000
vn 0.138284 0.990393 0.000000
vn 0.138284 0.990393 0.000000
vn -0.138062 -0.990424 0.000000
vn -0.138062 -0.990424 0.000000
vn -0.139871 -0.990170 0.000000
vn -0.139871 -0.990170 0.000000
vn 0.000000 0.000000 -1.000000
vn 0.000001 0.000000 -1.000000
vn 0.000001 0.000000 -1.000000
vn 0.000000 0.000000 -1.000000
vn 1.000000 0.000000 0.000000
vn 1.000000 0.000000 0.000000
vn 1.000000 0.000000 0.000000
vn 1.000000 0.000000 0.000000
vn 0.000000 0.000000 1.000000
vn 0.000000 0.000000 1.000000
vn 0.000000 0.000000 1.000000
vn 0.000000 0.000000 1.000000
vn -0.557447 -0.830213 0.000000
vn -0.557447 -0.830213 0.000000
vn 0.000000 0.000000 -1.000000
vn 0.000000 0.000000 1.000000
vn 0.000000 0.000000 1.000000
vn -0.345802 -0.938307 0.000000
vn -0.345802 -0.938307 0.000000
vn -0.345802 -0.938307 0.000000
vn -0.345802 -0.938307 0.000000
vn 0.000000 0.000000 -1.000000
vn 0.000000 0.000000 -1.000000
vn 0.000000 1.000000 0.000000
vn 0.000000 1.000000 0.000000
vn -0.354128 0.935197 0.000000
vn -0.350295 0.936639 0.000000
vn -0.350295 0.936639 0.000000
vn -0.354128 0.935197 0.000000
vn 0.000000 0.000000 1.000000
vn 0.000000 0.000000 1.000000
vn 0.000000 0.000000 1.000000
vn 0.000000 0.000000 1.000000
vn 0.000000 -1.000000 0.000000
vn 0.006641 -0.999978 0.000000
vn 0.006641 -0.999978 0.000000
vn 0.000000 -1.000000 0.000000
vn -0.100971 0.994889 0.000000
vn -0.100971 0.994889 0.000000
vn -0.101130 0.994873 0.000000
vn -0.101130 0.994873 0.000000
vn -0.000000 0.000000 -1.000000
vn -0.000000 0.000000 -1.000000
vn -0.000000 0.000000 -1.000000
vn -0.000000 0.000000 -1.000000
vn -0.282123 0.959378 0.000000
vn -0.282123 0.959378 0.000000
vn -0.151047 0.988527 0.000000
vn -0.151047 0.988527 0.000000
vn 0.000000 0.000000 1.000000
vn 0.000000 0.000000 1.000000
vn -0.000000 0.000000 1.000000
vn -0.000000 0.000000 1.000000
vn 0.150491 -0.988611 0.000000
vn 0.150491 -0.988611 0.000000
vn 0.454239 -0.890880 0.000000
vn 0.454239 -0.890880 0.000000
vn -0.000000 0.000000 -1.000000
vn -0.000000 0.000000 -1.000000
vn -0.000000 0.000000 -1.000000
vn 0.000000 0.000000 -1.000000
vn -0.140175 0.990127 0.000000
vn -0.138284 0.990393 0.000000
vn -0.138284 0.990393 0.000000
vn -0.140175 0.990127 0.000000
vn 0.138062 -0.990424 0.000000
vn 0.139871 -0.990170 0.000000
vn 0.139871 -0.990170 0.000000
vn 0.138062 -0.990424 0.000000
vn 0.000000 0.000000 -1.000000
vn 0.000000 0.000000 -1.000000
vn 0.000000 0.000000 -1.000000
vn 0.000000 0.000000 -1.000000
vn -1.000000 0.000000 0.000000
vn -1.000000 0.000000 0.000000
vn -1.000000 0.000000 0.000000
vn -1.000000 0.000000 0.000000
vn -0.000000 0.000000 1.000000
vn -0.000000 0.000000 1.000000
vn -0.000000 0.000000 1.000000
vn -0.000000 0.000000 1.000000
vn 0.557447 -0.830212 0.000000
vn 0.557447 -0.830212 0.000000
vn -0.149397 -0.988777 -0.000000
vn -0.149397 -0.988777 -0.000000
vn 0.000000 0.000000 1.000000
vn 0.000000 0.000000 1.000000
vn -0.000000 0.000000 -1.000000
vn 0.000000 0.000000 -1.000000
vn 0.151221 0.988500 0.000000
vn 0.151221 0.988500 0.000000
vn 0.149396 -0.988777 -0.000000
vn 0.149396 -0.988777 -0.000000
vn 0.000000 0.000000 1.000000
vn 0.000001 0.000000 1.000000
vn 0.000001 0.000000 -1.000000
vn 0.000001 0.000000 -1.000000
vn -0.151221 0.988500 0.000000
vn -0.151221 0.988500 0.000000
vn 0.000000 0.000000 1.000000
vn 0.000000 0.000000 1.000000
vn -0.000000 -1.000000 -0.000000
vn -0.000000 -1.000000 -0.000000
vn 0.000001 0.000000 -1.000000
vn 0.000001 0.000000 -1.000000
vn 0.000000 1.000000 0.000000
vn 0.000000 1.000000 0.000000
s 1
g book2
usemtl initialShadingGroup
f 1/1/1 29/30/2 30/32/3 2/14/4
s off
f 5/6/5 6/7/6 7/8/7 8/9/8
s 2
f 3/12/9 31/33/10 32/34/11 4/2/12
s 3
f 4/2/13 32/34/14 29/31/15 1/3/16
s 4
f 4/4/17 1/1/18 2/14/19 3/5/20
s 1
f 6/7/21 5/6/22 9/17/23 10/19/24
s 6
f 7/8/25 6/7/26 10/19/27 11/21/28
s 4
f 8/9/29 12/23/30 9/17/31 5/6/32
s 2
f 7/8/33 11/21/34 12/23/35 8/9/36
s 4
f 13/10/37 14/22/38 20/20/39 19/15/40
s 1
f 14/22/41 13/10/42 15/11/43 16/16/44
s 6
f 16/16/45 15/11/46 17/13/47 18/18/48
s 2
f 18/18/49 17/13/50 19/15/51 20/20/52
s 1
f 2/14/4 30/32/3 33/35/53 15/11/43 13/10/42
s 4
f 3/12/20 2/14/19 13/10/37 19/15/40
s 1
f 14/22/41 16/16/44 10/19/24 9/17/23
s 6
f 16/16/45 18/18/48 11/21/28 10/19/27
s 2
f 18/18/49 20/20/52 12/23/35 11/21/34
s 4
f 20/20/39 14/22/38 9/17/31 12/23/30
s 10
f 28/80/54 25/76/55 23/24/56 24/25/57
s 11
f 22/26/58 21/27/59 26/73/60 27/78/61
s 12
f 28/80/62 24/25/63 22/28/64 27/78/65
s off
f 22/28/66 24/25/67 23/24/68 21/29/69
s 13
f 25/76/70 26/73/71 21/29/72 23/24/73
s 6
f 33/35/74 34/36/75 17/13/47 15/11/46
s 2
f 34/36/76 31/33/10 3/12/9 19/15/51 17/13/50
s 1
f 35/37/77 36/40/78 30/39/3 29/38/2
s off
f 39/41/79 42/44/80 41/43/81 40/42/82
s 2
f 37/45/83 38/48/84 32/47/11 31/46/10
s 3
f 38/48/85 35/50/86 29/49/15 32/47/14
s 14
f 38/51/87 37/52/88 36/40/89 35/37/90
s 1
f 40/42/91 44/54/92 43/53/93 39/41/94
s 16
f 41/43/95 45/55/96 44/54/97 40/42/98
s 14
f 42/44/99 39/41/100 43/53/101 46/56/102
s 2
f 41/43/103 42/44/104 46/56/105 45/55/106
s 14
f 47/57/107 53/60/108 54/59/109 48/58/110
s 1
f 48/58/111 50/62/112 49/61/113 47/57/114
s 16
f 50/62/115 52/64/116 51/63/117 49/61/118
s 2
f 52/64/119 54/59/120 53/60/121 51/63/122
s 1
f 36/40/78 47/57/114 49/61/113 33/65/53 30/39/3
s 14
f 37/45/88 53/60/108 47/57/107 36/40/89
s 1
f 48/58/111 43/53/93 44/54/92 50/62/112
s 16
f 50/62/115 44/54/97 45/55/96 52/64/116
s 2
f 52/64/119 45/55/106 46/56/105 54/59/120
s 14
f 54/59/109 46/56/102 43/53/101 48/58/110
s 10
f 62/86/123 58/67/124 57/66/125 59/88/126
s 11
f 56/68/127 61/81/128 60/84/129 55/69/130
s 12
f 62/86/131 61/81/132 56/70/133 58/67/134
s off
f 56/70/135 55/71/136 57/66/137 58/67/138
s 13
f 59/88/139 57/66/140 55/71/141 60/84/142
s 16
f 33/65/143 49/61/118 51/63/117 34/72/144
s 2
f 34/72/76 51/63/122 53/60/121 37/45/83 31/46/10
s 11
f 27/78/61 26/73/60 66/75/145 69/74/146
s 13
f 63/79/147 66/75/148 26/73/71 25/76/70
s 12
f 69/74/149 72/77/150 28/80/62 27/78/65
s 10
f 72/77/151 63/79/152 25/76/55 28/80/54
s 11
f 61/81/128 71/85/153 68/82/154 60/84/129
s 13
f 65/83/155 59/88/139 60/84/142 68/82/156
s 12
f 71/85/157 61/81/132 62/86/131 74/87/158
s 10
f 74/87/159 62/86/123 59/88/126 65/83/160
s 13
f 63/79/147 64/89/161 67/93/162 66/75/148
f 64/90/161 65/83/155 68/82/156 67/94/162
s 11
f 66/75/145 67/92/163 70/97/164 69/74/146
f 67/91/163 68/82/154 71/85/153 70/98/164
s 12
f 69/74/149 70/96/165 73/100/166 72/77/150
f 70/95/165 71/85/157 74/87/158 73/99/166
s 10
f 65/83/160 64/90/167 73/99/168 74/87/159
f 64/89/167 63/79/152 72/77/151 73/100/168
