# This file uses centimeters as units for non-parametric coordinates.

mtllib open book 1.mtl
g default
v -2.626889 0.021497 0.822766
v -2.817311 0.093603 0.822766
v -2.817311 0.093603 -2.314488
v -2.626889 0.021497 -2.314488
v -2.396580 0.150212 0.822766
v -2.396580 0.150212 -2.314488
v -2.396580 0.021497 -2.314488
v -2.396580 0.021497 0.822766
v -3.532740 0.104302 0.822766
v -3.553864 0.369913 0.822766
v -3.553864 0.369913 -2.314488
v -3.532740 0.104302 -2.314488
v -3.933321 0.066393 0.822766
v -3.954446 0.287277 0.822766
v -3.954446 0.287277 -2.314488
v -3.933321 0.066393 -2.314488
v -4.900240 0.021498 0.822766
v -4.654297 0.162493 0.822766
v -4.654297 0.162493 -2.314488
v -4.900240 0.021498 -2.314488
v -3.081396 0.154722 0.822766
v -3.081397 0.441953 0.822766
v -3.081397 0.441953 -2.314488
v -3.081396 0.154722 -2.314488
v -2.915219 0.129330 0.822766
v -2.993911 0.145536 0.822766
v -2.734579 0.377161 0.822766
v -2.901576 0.418316 0.822766
v -2.734579 0.377161 -2.314488
v -2.901576 0.418316 -2.314488
v -2.915219 0.129330 -2.314488
v -2.993911 0.145536 -2.314488
v -2.166271 0.021497 0.822766
v -1.975850 0.093603 0.822766
v -1.975850 0.093603 -2.314488
v -2.166271 0.021497 -2.314488
v -1.260421 0.104302 0.822766
v -1.239296 0.369913 0.822766
v -1.239296 0.369913 -2.314488
v -1.260421 0.104302 -2.314488
v -0.859839 0.066393 0.822766
v -0.838715 0.287277 0.822766
v -0.838715 0.287277 -2.314488
v -0.859839 0.066393 -2.314488
v 0.107079 0.021498 0.822766
v -0.138863 0.162493 0.822766
v -0.138863 0.162493 -2.314488
v 0.107079 0.021498 -2.314488
v -1.711764 0.154722 0.822766
v -1.711764 0.441953 0.822766
v -1.711764 0.441953 -2.314488
v -1.711764 0.154722 -2.314488
v -1.877942 0.129330 0.822766
v -1.799250 0.145536 0.822766
v -2.058581 0.377161 0.822766
v -1.891585 0.418316 0.822766
v -2.058581 0.377161 -2.314488
v -1.891585 0.418316 -2.314488
v -1.877942 0.129330 -2.314488
v -1.799250 0.145536 -2.314488
v -5.058917 0.022545 0.876206
v -5.058917 0.022545 -2.370593
v -2.396580 0.021436 0.876206
v -2.396580 0.021436 -2.370593
v -5.058917 0.002545 0.876206
v -5.058917 0.002545 -2.370593
v -2.396580 0.000327 0.876206
v -2.396580 0.000327 -2.370593
v 0.265757 0.022545 0.876206
v 0.265757 0.022545 -2.370593
v 0.265757 0.002545 0.876206
v 0.265757 0.002545 -2.370593
vt 0.375000 0.000000
vt 0.375000 0.750000
vt 0.375000 1.000000
vt 0.125000 0.000000
vt 0.125000 0.250000
vt 0.500000 0.500000
vt 0.500000 0.750000
vt 0.500000 0.000000
vt 0.500000 1.000000
vt 0.375000 0.250000
vt 0.500000 0.250000
vt 0.500000 0.500000
vt 0.375000 0.500000
vt 0.375000 0.250000
vt 0.500000 0.250000
vt 0.500000 0.500000
vt 0.375000 0.500000
vt 0.375000 0.250000
vt 0.500000 0.250000
vt 0.500000 0.500000
vt 0.375000 0.500000
vt 0.375000 0.250000
vt 0.500000 0.250000
vt 0.500000 0.250000
vt 0.375000 0.500000
vt 0.500000 0.500000
vt 0.375000 0.250000
vt 0.375000 0.500000
vt 0.500000 0.250000
vt 0.375000 0.250000
vt 0.500000 0.500000
vt 0.500000 0.250000
vt 0.375000 0.500000
vt 0.500000 0.500000
vt 0.375000 0.250000
vt 0.375000 0.500000
vt 0.375000 0.000000
vt 0.500000 0.000000
vt 0.500000 0.250000
vt 0.375000 0.250000
vt 0.375000 0.250000
vt 0.500000 0.250000
vt 0.500000 0.500000
vt 0.375000 0.500000
vt 0.375000 0.500000
vt 0.500000 0.500000
vt 0.500000 0.750000
vt 0.375000 0.750000
vt 0.500000 1.000000
vt 0.375000 1.000000
vt 0.125000 0.000000
vt 0.125000 0.250000
vt 0.375000 0.250000
vt 0.500000 0.250000
vt 0.500000 0.250000
vt 0.375000 0.250000
vt 0.500000 0.500000
vt 0.500000 0.500000
vt 0.375000 0.500000
vt 0.375000 0.500000
vt 0.375000 0.500000
vt 0.375000 0.250000
vt 0.500000 0.250000
vt 0.500000 0.500000
vt 0.375000 0.250000
vt 0.375000 0.250000
vt 0.375000 0.500000
vt 0.375000 0.500000
vt 0.500000 0.250000
vt 0.500000 0.250000
vt 0.500000 0.500000
vt 0.500000 0.500000
vt 0.500000 1.000000
vt 0.500000 0.000000
vt 0.000000 0.000000
vt 0.000000 1.000000
vt 0.000000 1.000000
vt 0.000000 0.000000
vt 0.500000 0.000000
vt 0.500000 1.000000
vt 0.000000 1.000000
vt 0.500000 1.000000
vt 0.000000 0.000000
vt 0.500000 0.000000
vt 0.000000 1.000000
vt 0.000000 0.000000
vt 0.500000 0.000000
vt 0.500000 1.000000
vt 0.500000 1.000000
vt 0.500000 0.000000
vt 0.000000 0.000000
vt 0.000000 1.000000
vt 0.000000 0.000000
vt 0.500000 0.000000
vt 0.000000 1.000000
vt 0.500000 1.000000
vn 0.000001 0.000000 1.000000
vn 0.000000 0.000000 1.000000
vn 0.000000 0.000000 1.000000
vn 0.000001 0.000000 1.000000
vn -0.497352 0.867549 0.000000
vn -0.497352 0.867549 0.000000
vn -0.497352 0.867549 0.000000
vn -0.497352 0.867549 0.000000
vn 0.000000 0.000000 -1.000000
vn 0.000000 0.000000 -1.000000
vn 0.000000 0.000000 -1.000000
vn 0.000000 0.000000 -1.000000
vn 0.000000 -1.000000 0.000000
vn 0.000000 -1.000000 0.000000
vn 0.000000 -1.000000 0.000000
vn 0.000000 -1.000000 0.000000
vn -0.354128 -0.935197 0.000000
vn -0.354128 -0.935197 0.000000
vn -0.350296 -0.936639 0.000000
vn -0.350296 -0.936639 0.000000
vn -0.000000 0.000000 1.000000
vn -0.000000 0.000000 1.000000
vn -0.000000 0.000000 1.000000
vn -0.000000 0.000000 1.000000
vn -0.174451 0.984666 0.000000
vn -0.174451 0.984666 0.000000
vn -0.202036 0.979378 0.000000
vn -0.202036 0.979378 0.000000
vn -0.000000 0.000000 -1.000000
vn -0.000000 0.000000 -1.000000
vn 0.000000 0.000000 -1.000000
vn 0.000000 0.000000 -1.000000
vn 0.103128 -0.994668 0.000000
vn 0.103128 -0.994668 0.000000
vn 0.094212 -0.995552 0.000000
vn 0.094212 -0.995552 0.000000
vn 0.000000 0.000000 1.000000
vn 0.000000 0.000000 1.000000
vn 0.000000 0.000000 1.000000
vn 0.000000 0.000000 1.000000
vn -0.175533 0.984474 0.000000
vn -0.175533 0.984474 0.000000
vn -0.175533 0.984474 0.000000
vn -0.175533 0.984474 0.000000
vn 0.000000 0.000000 -1.000000
vn 0.000000 0.000000 -1.000000
vn 0.000000 0.000000 -1.000000
vn 0.000000 0.000000 -1.000000
vn 0.046382 -0.998924 0.000000
vn 0.046382 -0.998924 0.000000
vn 0.046382 -0.998924 0.000000
vn 0.046382 -0.998924 0.000000
vn 0.076303 -0.997085 0.000000
vn 0.076303 -0.997085 0.000000
vn -0.000000 0.000000 1.000000
vn -0.000000 0.000000 1.000000
vn -0.074002 0.997258 0.000000
vn -0.074002 0.997258 0.000000
vn -0.000000 0.000000 -1.000000
vn -0.000000 0.000000 -1.000000
vn -0.282124 -0.959378 0.000000
vn -0.151047 -0.988527 0.000000
vn -0.151047 -0.988527 0.000000
vn -0.282124 -0.959378 0.000000
vn 0.000001 0.000000 1.000000
vn 0.000002 0.000000 1.000000
vn 0.000002 0.000000 1.000000
vn 0.000001 0.000000 1.000000
vn 0.183641 0.982993 0.000000
vn 0.468917 0.883242 0.000000
vn 0.468917 0.883242 0.000000
vn 0.183641 0.982993 0.000000
vn -0.000000 0.000000 -1.000000
vn 0.000000 0.000000 -1.000000
vn 0.000000 0.000000 -1.000000
vn -0.000000 0.000000 -1.000000
vn 0.557447 0.830213 0.000000
vn 0.557447 0.830213 0.000000
vn 0.000000 0.000000 1.000000
vn -0.000001 0.000000 1.000000
vn 0.497352 0.867549 0.000000
vn 0.497352 0.867549 0.000000
vn 0.497352 0.867549 0.000000
vn 0.497352 0.867549 0.000000
vn 0.000000 0.000000 -1.000000
vn 0.000000 0.000000 -1.000000
vn 0.000000 -1.000000 0.000000
vn 0.000000 -1.000000 0.000000
vn 0.354128 -0.935197 0.000000
vn 0.350296 -0.936639 0.000000
vn 0.350296 -0.936639 0.000000
vn 0.354128 -0.935197 0.000000
vn 0.000000 0.000000 1.000000
vn 0.000000 0.000000 1.000000
vn 0.000000 0.000000 1.000000
vn 0.000000 0.000000 1.000000
vn 0.174451 0.984666 0.000000
vn 0.202036 0.979378 0.000000
vn 0.202036 0.979378 0.000000
vn 0.174451 0.984666 0.000000
vn 0.000000 0.000000 -1.000000
vn 0.000000 0.000000 -1.000000
vn 0.000000 0.000000 -1.000000
vn 0.000000 0.000000 -1.000000
vn -0.103128 -0.994668 0.000000
vn -0.094212 -0.995552 0.000000
vn -0.094212 -0.995552 0.000000
vn -0.103128 -0.994668 0.000000
vn -0.000001 0.000000 1.000000
vn -0.000001 0.000000 1.000000
vn -0.000001 0.000000 1.000000
vn -0.000001 0.000000 1.000000
vn 0.175533 0.984474 0.000000
vn 0.175533 0.984474 0.000000
vn 0.175533 0.984474 0.000000
vn 0.175533 0.984474 0.000000
vn 0.000000 0.000000 -1.000000
vn 0.000000 0.000000 -1.000000
vn 0.000000 0.000000 -1.000000
vn 0.000000 0.000000 -1.000000
vn -0.046382 -0.998924 0.000000
vn -0.046382 -0.998924 0.000000
vn -0.046382 -0.998924 0.000000
vn -0.046382 -0.998924 0.000000
vn -0.076303 -0.997085 0.000000
vn -0.076303 -0.997085 0.000000
vn 0.000000 0.000000 1.000000
vn 0.000000 0.000000 1.000000
vn 0.074002 0.997258 0.000000
vn 0.074002 0.997258 0.000000
vn 0.000000 0.000000 -1.000000
vn 0.000000 0.000000 -1.000000
vn 0.282124 -0.959378 0.000000
vn 0.282124 -0.959378 0.000000
vn 0.151047 -0.988527 0.000000
vn 0.151047 -0.988527 0.000000
vn -0.000001 0.000000 1.000000
vn -0.000001 0.000000 1.000000
vn -0.000001 0.000000 1.000000
vn -0.000002 0.000000 1.000000
vn -0.183641 0.982993 0.000000
vn -0.183641 0.982993 0.000000
vn -0.468917 0.883242 0.000000
vn -0.468917 0.883242 0.000000
vn -0.000000 0.000000 -1.000000
vn -0.000000 0.000000 -1.000000
vn -0.000000 0.000000 -1.000000
vn 0.000000 0.000000 -1.000000
vn -0.557447 0.830213 0.000000
vn -0.557447 0.830213 0.000000
vn 0.000000 -1.000000 0.000000
vn 0.000000 -1.000000 0.000000
vn -0.000833 -1.000000 0.000000
vn -0.000833 -1.000000 0.000000
vn 0.000416 1.000000 0.000000
vn 0.000416 1.000000 0.000000
vn 0.000000 1.000000 0.000000
vn 0.000000 1.000000 0.000000
vn 0.000000 0.000000 -1.000000
vn 0.000000 0.000000 -1.000000
vn 0.000000 0.000000 -1.000000
vn 0.000000 0.000000 -1.000000
vn -1.000000 0.000000 0.000000
vn -1.000000 0.000000 0.000000
vn -1.000000 0.000000 0.000000
vn -1.000000 0.000000 0.000000
vn -0.000000 0.000000 1.000000
vn -0.000000 0.000000 1.000000
vn -0.000000 0.000000 1.000000
vn -0.000000 0.000000 1.000000
vn 0.000833 -1.000000 0.000000
vn 0.000833 -1.000000 0.000000
vn -0.000416 1.000000 0.000000
vn -0.000416 1.000000 0.000000
vn -0.000000 0.000000 1.000000
vn -0.000000 0.000000 1.000000
vn 1.000000 0.000000 0.000000
vn 1.000000 0.000000 0.000000
vn 1.000000 0.000000 0.000000
vn 1.000000 0.000000 0.000000
vn 0.000000 0.000000 -1.000000
vn 0.000000 0.000000 -1.000000
s 1
g book
usemtl initialShadingGroup
f 1/1/1 8/8/2 5/23/3 2/27/4
s off
f 17/14/5 18/15/6 19/16/7 20/17/8
s 2
f 3/25/9 6/6/10 7/7/11 4/2/12
s 3
f 4/2/13 7/7/14 8/9/15 1/3/16
s 4
f 4/4/17 1/1/18 2/27/19 3/5/20
s 1
f 9/18/21 10/19/22 14/11/23 13/10/24
s 6
f 10/19/25 11/20/26 15/12/27 14/11/28
s 2
f 11/20/29 12/21/30 16/13/31 15/12/32
s 4
f 12/21/33 9/18/34 13/10/35 16/13/36
s off
f 13/10/37 14/11/38 18/15/39 17/14/40
f 14/11/41 15/12/42 19/16/43 18/15/44
f 15/12/45 16/13/46 20/17/47 19/16/48
f 16/13/49 13/10/50 17/14/51 20/17/52
s 4
f 24/36/53 21/30/54 9/18/34 12/21/33
s 1
f 21/30/55 22/32/56 10/19/22 9/18/21
s 6
f 22/32/57 23/34/58 11/20/26 10/19/25
s 2
f 23/34/59 24/36/60 12/21/30 11/20/29
s 4
f 25/22/61 26/35/62 32/33/63 31/28/64
s 1
f 26/35/65 25/22/66 27/24/67 28/29/68
s 6
f 28/29/69 27/24/70 29/26/71 30/31/72
s 2
f 30/31/73 29/26/74 31/28/75 32/33/76
s 1
f 2/27/4 5/23/3 27/24/67 25/22/66
s 6
f 5/23/77 6/6/78 29/26/71 27/24/70
s 2
f 6/6/10 3/25/9 31/28/75 29/26/74
s 4
f 3/25/20 2/27/19 25/22/61 31/28/64
s 1
f 26/35/65 28/29/68 22/32/56 21/30/55
s 6
f 28/29/69 30/31/72 23/34/58 22/32/57
s 2
f 30/31/73 32/33/76 24/36/60 23/34/59
s 4
f 32/33/63 26/35/62 21/30/54 24/36/53
s 1
f 33/37/79 34/40/80 5/39/3 8/38/2
s off
f 45/41/81 48/44/82 47/43/83 46/42/84
s 2
f 35/45/85 36/48/86 7/47/11 6/46/10
s 3
f 36/48/87 33/50/88 8/49/15 7/47/14
s 10
f 36/51/89 35/52/90 34/40/91 33/37/92
s 1
f 37/53/93 41/56/94 42/55/95 38/54/96
s 12
f 38/54/97 42/55/98 43/58/99 39/57/100
s 2
f 39/57/101 43/58/102 44/60/103 40/59/104
s 10
f 40/59/105 44/60/106 41/56/107 37/53/108
s off
f 41/56/109 45/41/110 46/42/111 42/55/112
f 42/55/113 46/42/114 47/43/115 43/58/116
f 43/58/117 47/43/118 48/44/119 44/60/120
f 44/60/121 48/44/122 45/41/123 41/56/124
s 10
f 52/61/125 40/59/105 37/53/108 49/62/126
s 1
f 49/62/127 37/53/93 38/54/96 50/63/128
s 12
f 50/63/129 38/54/97 39/57/100 51/64/130
s 2
f 51/64/131 39/57/101 40/59/104 52/61/132
s 10
f 53/65/133 59/68/134 60/67/135 54/66/136
s 1
f 54/66/137 56/70/138 55/69/139 53/65/140
s 12
f 56/70/141 58/72/142 57/71/143 55/69/144
s 2
f 58/72/145 60/67/146 59/68/147 57/71/148
s 1
f 34/40/80 53/65/140 55/69/139 5/39/3
s 12
f 5/39/149 55/69/144 57/71/143 6/46/150
s 2
f 6/46/10 57/71/148 59/68/147 35/45/85
s 10
f 35/45/90 59/68/134 53/65/133 34/40/91
s 1
f 54/66/137 49/62/127 50/63/128 56/70/138
s 12
f 56/70/141 50/63/129 51/64/130 58/72/142
s 2
f 58/72/145 51/64/131 52/61/132 60/67/146
s 10
f 60/67/135 52/61/125 49/62/126 54/66/136
s 15
f 68/73/151 67/74/152 65/75/153 66/76/154
s 16
f 62/77/155 61/78/156 63/79/157 64/80/158
s 17
f 68/73/159 66/76/160 62/81/161 64/82/162
s off
f 62/81/163 66/76/164 65/75/165 61/83/166
s 18
f 67/74/167 63/84/168 61/83/169 65/75/170
s 15
f 72/85/171 71/86/172 67/87/152 68/88/151
s 16
f 64/89/158 63/90/157 69/91/173 70/92/174
s 18
f 67/87/167 71/86/175 69/93/176 63/94/168
s off
f 70/95/177 69/93/178 71/86/179 72/85/180
s 17
f 72/85/181 68/88/159 64/96/162 70/95/182
