# This file uses centimeters as units for non-parametric coordinates.

mtllib open book 2.mtl
g default
v -10.474769 0.073681 1.044802
v -5.649930 0.073681 1.044802
v -10.474769 0.099483 1.044802
v -5.649930 0.099483 1.044802
v -10.474769 0.099483 -2.343758
v -5.649930 0.099483 -2.343758
v -10.474769 0.073681 -2.343758
v -5.649930 0.073681 -2.343758
v -5.756283 0.099483 1.044802
v -5.756282 0.099483 -2.343758
v -5.756282 0.073681 -2.343758
v -5.756283 0.073681 1.044802
v -10.368417 0.099483 1.044802
v -10.368417 0.099483 -2.343758
v -10.368417 0.073681 -2.343758
v -10.368417 0.073681 1.044802
v -10.474769 0.099483 -2.296091
v -10.474769 0.073681 -2.296091
v -10.368417 0.073681 -2.296091
v -5.756282 0.073681 -2.296091
v -5.649930 0.073681 -2.296091
v -5.649930 0.099483 -2.296091
v -5.756282 0.099483 -2.296091
v -10.368417 0.099483 -2.296091
v -10.474769 0.099483 0.997135
v -10.474769 0.073681 0.997135
v -10.368417 0.073681 0.997135
v -5.756282 0.073681 0.997135
v -5.649930 0.073681 0.997135
v -5.649930 0.099483 0.997135
v -5.756283 0.099483 0.997135
v -10.368417 0.099483 0.997135
v -8.064089 0.072178 0.997135
v -8.064089 0.072178 1.044802
v -8.064089 0.046375 1.044802
v -8.064089 0.046375 0.997135
v -8.064089 0.046375 -2.296091
v -8.064089 0.046375 -2.343758
v -8.064089 0.072178 -2.343758
v -8.064089 0.072178 -2.296091
v -8.064089 0.119712 -2.296091
v -8.064089 0.119712 0.997135
v -10.368417 0.414349 0.997135
v -10.368417 0.414349 -2.296091
v -5.756282 0.166065 0.997135
v -5.756282 0.166065 -2.296091
v -8.136388 0.079571 1.044802
v -8.193938 0.091033 1.044802
v -8.258462 0.099214 1.044802
v -8.258462 0.099214 0.997135
v -8.193938 0.090919 0.997135
v -8.136388 0.079571 0.997135
v -8.136388 0.079571 -2.296091
v -8.193938 0.090919 -2.296091
v -8.258462 0.099214 -2.296091
v -8.258462 0.099214 -2.343758
v -8.193938 0.091033 -2.343758
v -8.136388 0.079571 -2.343758
v -8.258462 0.073411 -2.343758
v -8.193938 0.065282 -2.343758
v -8.136388 0.053769 -2.343758
v -8.258462 0.073411 -2.296091
v -8.193938 0.065282 -2.296091
v -8.136388 0.053769 -2.296091
v -8.258462 0.073411 0.997135
v -8.193938 0.065282 0.997135
v -8.136388 0.053769 0.997135
v -8.258462 0.073411 1.044802
v -8.193938 0.065282 1.044802
v -8.136388 0.053769 1.044802
v -8.368991 0.323969 0.997135
v -8.253251 0.283841 0.997135
v -8.163606 0.225353 0.997135
v -8.368991 0.323969 -2.296091
v -8.253251 0.283841 -2.296091
v -8.163606 0.225353 -2.296091
v -7.880634 0.072785 1.044802
v -7.963260 0.059423 1.044802
v -7.963260 0.085225 1.044802
v -7.880634 0.098587 1.044802
v -7.963260 0.085225 0.997135
v -7.880634 0.098587 0.997135
v -7.880634 0.098587 -2.296091
v -7.963260 0.085225 -2.296091
v -7.963260 0.085225 -2.343758
v -7.880634 0.098587 -2.343758
v -7.963260 0.059423 -2.343758
v -7.880634 0.072785 -2.343758
v -7.963260 0.059423 -2.296091
v -7.880634 0.072785 -2.296091
v -7.963260 0.059423 0.997135
v -7.880634 0.072785 0.997135
v -7.963158 0.148171 0.997135
v -7.880573 0.165215 0.997135
v -7.963158 0.148171 -2.296091
v -7.880573 0.165215 -2.296091
vt 0.375000 0.000000
vt 0.625000 0.000000
vt 0.375000 0.250000
vt 0.625000 0.250000
vt 0.375000 0.500000
vt 0.625000 0.500000
vt 0.375000 0.750000
vt 0.625000 0.750000
vt 0.375000 1.000000
vt 0.625000 1.000000
vt 0.875000 0.000000
vt 0.875000 0.250000
vt 0.125000 0.000000
vt 0.125000 0.250000
vt 0.541667 0.000000
vt 0.458333 1.000000
vt 0.208333 0.250000
vt 0.375000 0.416667
vt 0.208333 0.000000
vt 0.375000 0.833333
vt 0.625000 0.833333
vt 0.791667 0.000000
vt 0.625000 0.416667
vt 0.791667 0.250000
vt 0.291667 0.250000
vt 0.375000 0.333333
vt 0.291667 0.000000
vt 0.375000 0.916667
vt 0.625000 0.916667
vt 0.708333 0.000000
vt 0.625000 0.333333
vt 0.708333 0.250000
vt 0.458333 0.250000
vt 0.478357 0.333333
vt 0.458333 0.000000
vt 0.478357 0.250000
vt 0.458333 0.916667
vt 0.478356 1.000000
vt 0.478357 0.916667
vt 0.458333 0.833333
vt 0.478357 0.833333
vt 0.458333 0.750000
vt 0.458333 0.500000
vt 0.478359 0.750000
vt 0.458333 0.416667
vt 0.478357 0.500000
vt 0.458333 0.333333
vt 0.478219 0.416667
vt 0.489582 0.250000
vt 0.486515 0.333333
vt 0.489581 0.416667
vt 0.489582 0.500000
vt 0.489582 0.750000
vt 0.489582 0.833333
vt 0.489582 0.916667
vt 0.500000 1.000000
vt 0.489582 0.000000
vt 0.458333 0.333333
vt 0.478219 0.333333
vt 0.478357 0.416667
vt 0.458333 0.416667
vt 0.489582 0.333333
vt 0.486515 0.416667
vt 0.489582 1.000000
vt 0.478357 0.000000
vt 0.479167 0.250000
vt 0.479167 0.333333
vt 0.479167 0.416667
vt 0.479167 0.500000
vt 0.479167 0.750000
vt 0.479167 0.833333
vt 0.479167 0.916667
vt 0.479167 0.000000
vt 0.479167 1.000000
vt 0.479167 0.333333
vt 0.479167 0.416667
vt 0.521154 1.000000
vt 0.516667 0.000000
vt 0.500000 0.250000
vt 0.516667 0.333333
vt 0.500000 0.500000
vt 0.516667 0.750000
vt 0.500000 0.916667
vt 0.516667 1.000000
vt 0.500000 0.000000
vt 0.516667 0.250000
vt 0.516667 0.833333
vt 0.500000 0.750000
vt 0.500000 0.416667
vt 0.516667 0.500000
vt 0.516667 0.916667
vt 0.500000 0.833333
vt 0.500000 0.333333
vt 0.516684 0.416667
vt 0.521157 0.000000
vt 0.541667 0.250000
vt 0.521157 0.250000
vt 0.541667 0.333333
vt 0.521158 0.333333
vt 0.541667 0.416667
vt 0.521157 0.416667
vt 0.541667 0.500000
vt 0.521154 0.500000
vt 0.541667 0.750000
vt 0.541667 0.833333
vt 0.521157 0.750000
vt 0.541667 0.916667
vt 0.521157 0.833333
vt 0.521157 0.916667
vt 0.541667 1.000000
vt 0.500000 0.333333
vt 0.516684 0.333333
vt 0.516667 0.416667
vt 0.500000 0.416667
vt 0.521154 0.333333
vt 0.541667 0.333333
vt 0.541667 0.416667
vt 0.521158 0.416667
vn 0.000000 0.000000 1.000000
vn 0.000000 0.000000 1.000000
vn 0.000000 0.000000 1.000000
vn 0.000000 0.000000 1.000000
vn 0.000000 1.000000 0.000000
vn 0.000122 1.000000 0.000000
vn 0.000028 1.000000 0.000000
vn 0.000000 1.000000 0.000000
vn 0.000000 0.000000 -1.000000
vn -0.000000 0.000000 -1.000000
vn -0.000000 0.000000 -1.000000
vn 0.000000 0.000000 -1.000000
vn 0.000000 -1.000000 0.000000
vn -0.000122 -1.000000 0.000000
vn -0.000122 -1.000000 0.000000
vn 0.000000 -1.000000 0.000000
vn 1.000000 0.000000 0.000000
vn 1.000000 0.000000 0.000000
vn 1.000000 0.000000 0.000000
vn 1.000000 0.000000 0.000000
vn -1.000000 0.000000 0.000000
vn -1.000000 0.000000 0.000000
vn -1.000000 0.000000 0.000000
vn -1.000000 0.000000 0.000000
vn -0.000402 1.000000 0.000000
vn 0.000000 1.000000 0.000000
vn 0.000000 1.000000 -0.000000
vn -0.000094 1.000000 -0.000000
vn -0.000000 0.000000 -1.000000
vn -0.000000 0.000000 -1.000000
vn 0.000000 0.000000 -1.000000
vn 0.000000 0.000000 -1.000000
vn 0.000402 -1.000000 -0.000000
vn 0.000402 -1.000000 -0.000000
vn 0.000000 -1.000000 0.000000
vn 0.000000 -1.000000 0.000000
vn -0.000000 0.000000 1.000000
vn -0.000000 0.000000 1.000000
vn 0.000000 0.000000 1.000000
vn 0.000000 0.000000 1.000000
vn -1.000000 0.000000 0.000000
vn -1.000000 0.000000 0.000000
vn -1.000000 0.000000 0.000000
vn -1.000000 0.000000 0.000000
vn 0.000000 -1.000000 0.000000
vn -0.000122 -1.000000 0.000000
vn -0.000122 -1.000000 0.000000
vn 0.000000 -1.000000 0.000000
vn 0.000000 -1.000000 0.000000
vn 0.000402 -1.000000 0.000000
vn 0.000402 -1.000000 0.000000
vn 0.000000 -1.000000 0.000000
vn 1.000000 0.000000 0.000000
vn 1.000000 0.000000 0.000000
vn 1.000000 0.000000 0.000000
vn 1.000000 0.000000 0.000000
vn -0.000094 1.000000 -0.000000
vn 0.000000 1.000000 -0.000000
vn 0.000000 1.000000 0.000000
vn -0.000402 1.000000 0.000000
vn 0.000000 1.000000 0.000000
vn 0.000028 1.000000 0.000000
vn 0.000122 1.000000 0.000000
vn 0.000000 1.000000 0.000000
vn -1.000000 0.000000 0.000000
vn -1.000000 0.000000 0.000000
vn -1.000000 0.000000 0.000000
vn -1.000000 0.000000 0.000000
vn 1.000000 -0.000009 0.000000
vn 1.000000 -0.000009 0.000000
vn 1.000000 -0.000009 0.000000
vn 1.000000 -0.000009 0.000000
vn 0.003912 0.999992 -0.000035
vn 0.158855 0.987301 -0.001181
vn 0.158872 0.987299 -0.001181
vn 0.003912 0.999992 -0.000035
vn 0.143275 0.989683 -0.000525
vn 0.143275 0.989683 -0.000525
vn 0.003912 0.999992 0.000035
vn 0.158872 0.987299 0.001181
vn 0.158855 0.987301 0.001181
vn 0.003912 0.999992 0.000035
vn 0.143275 0.989683 0.000525
vn 0.143275 0.989683 0.000525
vn -0.000000 0.000000 1.000000
vn -0.000000 0.000000 1.000000
vn -0.003863 -0.999993 0.000000
vn -0.003863 -0.999993 0.000000
vn -0.003863 -0.999993 0.000000
vn -0.003863 -0.999993 0.000000
vn -0.000000 0.000000 -1.000000
vn 0.000000 0.000000 -1.000000
vn 0.045157 0.998980 0.000000
vn 0.061584 0.998102 0.000000
vn 0.061584 0.998102 0.000000
vn 0.045157 0.998980 0.000000
vn -0.032640 0.999467 0.000000
vn -0.032640 0.999467 0.000000
vn 0.655360 0.755317 0.000000
vn 0.655360 0.755317 0.000000
vn 0.727890 0.685694 0.000000
vn 0.727890 0.685694 0.000000
vn -0.032641 0.999467 0.000000
vn -0.032641 0.999467 0.000000
vn 0.000000 0.000000 -1.000000
vn 0.000000 0.000000 -1.000000
vn 0.000000 0.000000 -1.000000
vn 0.000000 0.000000 -1.000000
vn 0.032641 -0.999467 0.000000
vn 0.032640 -0.999467 0.000000
vn -0.144084 -0.989566 0.000000
vn -0.144084 -0.989566 0.000000
vn 0.032640 -0.999467 0.000000
vn -0.144084 -0.989566 0.000000
vn -0.144083 -0.989566 0.000000
vn 0.032640 -0.999467 0.000000
vn -0.000000 0.000000 1.000000
vn -0.000000 0.000000 1.000000
vn -0.000000 0.000000 1.000000
vn -0.000000 0.000000 1.000000
vn 0.000000 0.000000 1.000000
vn 0.000000 0.000000 1.000000
vn 0.000000 0.000000 1.000000
vn 0.000000 0.000000 1.000000
vn -0.000000 0.000000 -1.000000
vn 0.000000 0.000000 -1.000000
vn 0.000000 0.000000 -1.000000
vn -0.000000 0.000000 -1.000000
vn 0.000000 0.000000 1.000000
vn 0.000000 0.000000 1.000000
vn 0.000000 0.000000 1.000000
vn 0.000000 0.000000 1.000000
vn -0.000002 0.000000 -1.000000
vn -0.000001 0.000000 -1.000000
vn -0.000000 0.000000 -1.000000
vn -0.000002 0.000000 -1.000000
vn 0.000000 0.000000 1.000000
vn 0.000000 0.000000 1.000000
vn 0.000001 0.000000 -1.000000
vn 0.000001 0.000000 -1.000000
vn -0.158864 -0.987301 0.000000
vn -0.158864 -0.987301 0.000000
vn -0.158864 -0.987300 0.000000
vn -0.158864 -0.987301 0.000000
vn -0.000001 0.000000 1.000000
vn -0.000001 0.000000 1.000000
vn 0.432842 0.901470 0.000000
vn 0.432842 0.901470 0.000000
vn -0.000001 0.000000 -1.000000
vn -0.000001 0.000000 -1.000000
vn 0.006460 -0.999979 -0.000000
vn 0.142488 -0.989797 0.000000
vn 0.142488 -0.989797 0.000000
vn 0.006460 -0.999979 -0.000000
vn 0.000000 0.000000 1.000000
vn -0.000000 0.000000 1.000000
vn -0.000000 0.000000 1.000000
vn 0.000000 0.000000 1.000000
vn -0.142488 0.989797 0.000000
vn -0.006460 0.999979 0.000000
vn -0.006460 0.999979 0.000000
vn -0.142488 0.989797 0.000000
vn 0.000000 0.000000 1.000000
vn 0.000000 0.000000 1.000000
vn 0.000000 0.000000 1.000000
vn 0.000000 0.000000 1.000000
vn 0.000000 0.000000 -1.000000
vn -0.000001 0.000000 -1.000000
vn -0.000001 0.000000 -1.000000
vn 0.000000 0.000000 -1.000000
vn -0.142488 0.989797 0.000000
vn -0.006460 0.999979 0.000000
vn -0.006460 0.999979 0.000000
vn -0.142488 0.989797 0.000000
vn 0.000000 0.000000 -1.000000
vn -0.000000 0.000000 -1.000000
vn -0.000000 0.000000 -1.000000
vn 0.000000 0.000000 -1.000000
vn 0.142488 -0.989797 0.000000
vn 0.006460 -0.999979 0.000000
vn 0.006460 -0.999979 0.000000
vn 0.142488 -0.989797 0.000000
vn -0.240661 0.970609 0.000000
vn -0.008108 0.999967 0.000000
vn -0.008108 0.999967 0.000000
vn -0.240661 0.970609 0.000000
vn -0.271376 0.962473 0.000000
vn -0.271376 0.962473 0.000000
vn -0.000400 1.000000 0.000000
vn -0.000400 1.000000 0.000000
vn 0.000000 0.000000 1.000000
vn 0.000000 0.000000 1.000000
vn 0.000000 0.000000 -1.000000
vn 0.000000 0.000000 -1.000000
s 1
g book4
usemtl initialShadingGroup
f 1/1/1 16/35/2 13/33/3 3/3/4
s 2
f 3/3/5 13/33/6 32/58/7 25/26/8
s 3
f 5/5/9 14/43/10 15/42/11 7/7/12
s 4
f 26/28/13 27/37/14 16/16/15 1/9/16
s 5
f 2/2/17 29/30/18 30/32/19 4/4/20
s 6
f 26/27/21 1/1/22 3/3/23 25/25/24
s 2
f 9/96/25 4/4/26 30/31/27 31/98/28
s 3
f 11/104/29 10/102/30 6/6/31 8/8/32
s 4
f 12/110/33 28/107/34 29/29/35 2/10/36
s 1
f 9/96/37 12/15/38 2/2/39 4/4/40
s 6
f 7/13/41 18/19/42 17/17/43 5/14/44
s 4
f 7/7/45 15/42/46 19/40/47 18/20/48
f 21/21/49 20/105/50 11/104/51 8/8/52
s 5
f 22/24/53 21/22/54 8/11/55 6/12/56
s 2
f 23/117/57 22/23/58 6/6/59 10/102/60
f 17/18/61 24/45/62 14/43/63 5/5/64
s 6
f 18/19/42 26/27/21 25/25/24 17/17/43
s 4
f 18/20/48 19/40/47 27/37/14 26/28/13
f 29/29/35 28/107/34 20/105/50 21/21/49
s 5
f 30/32/19 29/30/18 21/22/54 22/24/53
s 2
f 31/98/28 30/31/27 22/23/58 23/117/57
f 25/26/8 32/58/7 24/45/62 17/18/61
s off
f 24/45/65 32/58/66 43/47/67 44/61/68
f 31/98/69 23/117/70 46/100/71 45/116/72
s 2
f 49/36/73 48/66/74 51/67/75 50/34/76
f 48/66/74 47/49/77 52/62/78 51/67/75
f 55/60/79 54/68/80 57/69/81 56/46/82
f 54/68/80 53/51/83 58/52/84 57/69/81
f 13/33/6 49/36/73 50/34/76 32/58/7
s 1
f 13/33/3 16/35/2 68/65/85 49/36/86
s 4
f 16/16/15 27/37/14 65/39/87 68/38/88
f 62/41/89 65/39/87 27/37/14 19/40/47
f 59/44/90 62/41/89 19/40/47 15/42/46
s 3
f 15/42/11 14/43/10 56/46/91 59/44/92
s 2
f 24/45/62 55/60/79 56/46/82 14/43/63
s 14
f 43/47/93 71/59/94 74/48/95 44/61/96
s 2
f 47/49/77 34/79/97 33/111/98 52/62/78
s 14
f 76/63/99 73/50/100 42/93/101 41/114/102
s 2
f 58/52/84 53/51/83 40/89/103 39/81/104
s 3
f 61/53/105 58/52/106 39/81/107 38/88/108
s 4
f 38/88/109 37/92/110 64/54/111 61/53/112
f 37/92/110 36/83/113 67/55/114 64/54/111
f 70/64/115 67/55/114 36/83/113 35/56/116
s 1
f 47/49/117 70/57/118 35/85/119 34/79/120
s 19
f 32/58/121 50/34/122 71/59/123 43/47/124
s 20
f 55/60/125 24/45/126 44/61/127 74/48/128
s 19
f 52/62/129 33/111/130 42/93/131 73/50/132
s 20
f 40/89/133 53/51/134 76/63/135 41/114/136
s 19
f 50/34/122 51/67/137 72/75/138 71/59/123
f 51/67/137 52/62/129 73/50/132 72/75/138
s 3
f 56/46/91 57/69/139 60/70/140 59/44/92
f 57/69/139 58/52/106 61/53/105 60/70/140
s 4
f 59/44/90 60/70/141 63/71/142 62/41/89
f 60/70/141 61/53/112 64/54/111 63/71/142
f 62/41/89 63/71/142 66/72/143 65/39/87
f 63/71/142 64/54/111 67/55/114 66/72/143
f 65/39/87 66/72/143 69/74/144 68/38/88
f 66/72/143 67/55/114 70/64/115 69/74/144
s 1
f 47/49/117 48/66/145 69/73/146 70/57/118
f 48/66/145 49/36/86 68/65/85 69/73/146
s 14
f 71/59/94 72/75/147 75/76/148 74/48/95
f 72/75/147 73/50/100 76/63/99 75/76/148
s 20
f 53/51/134 54/68/149 75/76/150 76/63/135
f 54/68/149 55/60/125 74/48/128 75/76/150
s 4
f 77/77/151 78/84/152 91/91/153 92/109/154
s 1
f 78/78/155 77/95/156 80/97/157 79/86/158
s 2
f 79/86/159 80/97/160 82/115/161 81/80/162
s 19
f 81/80/163 82/115/164 94/99/165 93/112/166
s 20
f 83/101/167 84/113/168 95/94/169 96/118/170
s 2
f 84/113/171 83/101/172 86/103/173 85/90/174
s 3
f 85/90/175 86/103/176 88/106/177 87/82/178
s 4
f 87/82/179 88/106/180 90/108/181 89/87/182
f 89/87/182 90/108/181 92/109/154 91/91/153
s 24
f 93/112/183 94/99/184 96/118/185 95/94/186
s 2
f 34/79/97 79/86/159 81/80/162 33/111/98
s 3
f 38/88/108 39/81/107 85/90/175 87/82/178
s 4
f 35/56/116 36/83/113 91/91/153 78/84/152
s 1
f 34/79/120 35/85/119 78/78/155 79/86/158
s 4
f 89/87/182 37/92/110 38/88/109 87/82/179
s 2
f 40/89/103 84/113/171 85/90/174 39/81/104
s 4
f 91/91/153 36/83/113 37/92/110 89/87/182
s 24
f 41/114/187 42/93/188 93/112/183 95/94/186
s 1
f 80/97/157 77/95/156 12/15/38 9/96/37
s 2
f 82/115/161 80/97/160 9/96/25 31/98/28
s 24
f 96/118/185 94/99/184 45/116/189 46/100/190
s 2
f 86/103/173 83/101/172 23/117/57 10/102/60
s 3
f 88/106/177 86/103/176 10/102/30 11/104/29
s 4
f 20/105/50 90/108/181 88/106/180 11/104/51
f 28/107/34 92/109/154 90/108/181 20/105/50
f 77/77/151 92/109/154 28/107/34 12/110/33
s 19
f 33/111/130 81/80/163 93/112/166 42/93/131
s 20
f 84/113/168 40/89/133 41/114/136 95/94/169
s 19
f 82/115/164 31/98/191 45/116/192 94/99/165
s 20
f 23/117/193 83/101/167 96/118/170 46/100/194
