# This file uses centimeters as units for non-parametric coordinates.

mtllib lightbulb.mtl
g default
v 2.262520 -0.916533 -1.187157
v 1.451728 -0.916533 -2.102352
v 0.308496 -0.916533 -2.535923
v -0.905276 -0.916533 -2.388545
v -1.911528 -0.916533 -1.693979
v -2.479739 -0.916533 -0.611344
v -2.479739 -0.916533 0.611343
v -1.911529 -0.916533 1.693979
v -0.905277 -0.916533 2.388544
v 0.308495 -0.916533 2.535923
v 1.451727 -0.916533 2.102352
v 2.262519 -0.916533 1.187158
v 2.555127 -0.916533 0.000000
v 2.696475 1.925710 -1.418714
v 1.727538 1.925710 -2.512419
v 0.361316 1.925710 -3.030559
v -1.089204 1.925710 -2.854434
v -2.291727 1.925710 -2.024393
v -2.970769 1.925710 -0.730588
v -2.970769 1.925710 0.730586
v -2.291728 1.925710 2.024392
v -1.089205 1.925710 2.854434
v 0.361315 1.925710 3.030559
v 1.727537 1.925710 2.512419
v 2.696474 1.925710 1.418715
v 3.046156 1.925710 0.000000
v 3.451596 3.562841 -1.821644
v 2.207471 3.562841 -3.225972
v 0.453229 3.562841 -3.891270
v -1.409255 3.562841 -3.665123
v -2.953306 3.562841 -2.599342
v -3.825203 3.562841 -0.938082
v -3.825203 3.562841 0.938080
v -2.953307 3.562841 2.599340
v -1.409257 3.562841 3.665123
v 0.453227 3.562841 3.891270
v 2.207470 3.562841 3.225973
v 3.451596 3.562841 1.821645
v 3.900590 3.562841 0.000000
v 4.284579 4.860612 -2.266119
v 2.736890 4.860612 -4.013099
v 0.554618 4.860612 -4.840727
v -1.762306 4.860612 -4.559402
v -3.683102 4.860612 -3.233573
v -4.767739 4.860612 -1.166971
v -4.767739 4.860612 1.166969
v -3.683104 4.860612 3.233572
v -1.762308 4.860612 4.559401
v 0.554616 4.860612 4.840727
v 2.736889 4.860612 4.013100
v 4.284577 4.860612 2.266120
v 4.843126 4.860612 0.000000
v 5.297860 8.382212 -2.806801
v 3.380902 8.382212 -4.970601
v 0.677953 8.382212 -5.995695
v -2.191775 8.382212 -5.647248
v -4.570860 8.382212 -4.005084
v -5.914285 8.382212 -1.445404
v -5.914285 8.382212 1.445401
v -4.570863 8.382212 4.005083
v -2.191777 8.382212 5.647246
v 0.677951 8.382212 5.995695
v 3.380900 8.382212 4.970601
v 5.297859 8.382212 2.806803
v 5.989672 8.382212 0.000000
v 4.591033 10.780368 -2.429641
v 2.931663 10.780368 -4.302684
v 0.591919 10.780368 -5.190033
v -1.892193 10.780368 -4.888408
v -3.951593 10.780368 -3.466906
v -5.114498 10.780368 -1.251180
v -5.114498 10.780368 1.251177
v -3.951595 10.780368 3.466905
v -1.892195 10.780368 4.888406
v 0.591917 10.780368 5.190033
v 2.931661 10.780368 4.302684
v 4.591031 10.780368 2.429643
v 5.189883 10.780368 0.000000
v 3.567055 12.190073 -1.883251
v 2.280853 12.190073 -3.335075
v 0.467282 12.190073 -4.022873
v -1.458191 12.190073 -3.789078
v -3.054462 12.190073 -2.687251
v -3.955847 12.190073 -0.969808
v -3.955847 12.190073 0.969806
v -3.054464 12.190073 2.687251
v -1.458192 12.190073 3.789077
v 0.467280 12.190073 4.022873
v 2.280851 12.190073 3.335075
v 3.567054 12.190073 1.883253
v 4.031233 12.190073 0.000000
v 1.564966 13.488433 -0.814946
v 1.008384 13.488433 -1.443199
v 0.012215 13.488433 0.000000
v 0.223591 13.488433 -1.740832
v -0.609626 13.488433 -1.639662
v -1.300386 13.488433 -1.162864
v -1.690446 13.488433 -0.419669
v -1.690446 13.488433 0.419668
v -1.300387 13.488433 1.162864
v -0.609627 13.488433 1.639661
v 0.223590 13.488433 1.740832
v 1.008383 13.488433 1.443199
v 1.564966 13.488433 0.814947
v 1.765832 13.488433 0.000000
v 2.530066 13.061839 -1.329919
v 1.621773 13.061839 -2.355171
v 0.341061 13.061839 -2.840881
v -1.018674 13.061839 -2.675780
v -2.145932 13.061839 -1.897690
v -2.782475 13.061839 -0.684861
v -2.782475 13.061839 0.684860
v -2.145934 13.061839 1.897689
v -1.018675 13.061839 2.675780
v 0.341060 13.061839 2.840881
v 1.621772 13.061839 2.355171
v 2.530066 13.061839 1.329920
v 2.857861 13.061839 0.000000
v 5.150732 6.941012 -2.728294
v 3.287391 6.941012 -4.831571
v 0.660045 6.941012 -5.827994
v -2.129416 6.941012 -5.489293
v -4.441958 6.941012 -3.893060
v -5.747807 6.941012 -1.404975
v -5.747807 6.941012 1.404973
v -4.441960 6.941012 3.893059
v -2.129418 6.941012 5.489291
v 0.660042 6.941012 5.827994
v 3.287389 6.941012 4.831572
v 5.150731 6.941012 2.728296
v 5.823193 6.941012 0.000000
v 5.117232 9.581291 -2.710419
v 3.266100 9.581291 -4.799916
v 0.655967 9.581291 -5.789811
v -2.115217 9.581291 -5.453328
v -4.412608 9.581291 -3.867554
v -5.709902 9.581291 -1.395770
v -5.709902 9.581291 1.395768
v -4.412611 9.581291 3.867553
v -2.115220 9.581291 5.453327
v 0.655965 9.581291 5.789811
v 3.266098 9.581291 4.799917
v 5.117230 9.581291 2.710421
v 5.785288 9.581291 0.000000
v 1.867335 -1.827197 -0.976288
v 1.200560 -1.827197 -1.728921
v 0.260395 -1.827197 -2.085480
v -0.737781 -1.827197 -1.964280
v -1.565297 -1.827197 -1.393086
v -2.032580 -1.827197 -0.502754
v -2.032580 -1.827197 0.502753
v -1.565298 -1.827197 1.393086
v -0.737782 -1.827197 1.964279
v 0.260394 -1.827197 2.085480
v 1.200559 -1.827197 1.728922
v 1.867334 -1.827197 0.976289
v 2.107967 -1.827197 0.000000
v 1.678813 -2.182034 -0.875694
v 1.080741 -2.182034 -1.550778
v 0.237448 -2.182034 -1.870597
v -0.657878 -2.182034 -1.761885
v -1.400129 -2.182034 -1.249546
v -1.819265 -2.182034 -0.450952
v -1.819265 -2.182034 0.450951
v -1.400130 -2.182034 1.249546
v -0.657879 -2.182034 1.761884
v 0.237447 -2.182034 1.870597
v 1.080741 -2.182034 1.550778
v 1.678813 -2.182034 0.875695
v 1.894652 -2.182034 0.000000
v 1.623925 -2.866367 -0.846406
v 1.045856 -2.866367 -1.498911
v 0.010819 -2.866368 0.000000
v 0.230767 -2.866367 -1.808034
v -0.634614 -2.866367 -1.702958
v -1.352040 -2.866367 -1.207754
v -1.757157 -2.866367 -0.435869
v -1.757157 -2.866367 0.435868
v -1.352041 -2.866367 1.207754
v -0.634615 -2.866367 1.702957
v 0.230766 -2.866367 1.808034
v 1.045855 -2.866367 1.498911
v 1.623924 -2.866367 0.846406
v 1.832544 -2.866367 0.000000
vt 0.638353 0.083637
vt 0.588760 0.027659
vt 0.518834 0.001139
vt 0.444593 0.010154
vt 0.383045 0.052637
vt 0.348290 0.118857
vt 0.348290 0.193643
vt 0.383045 0.259863
vt 0.444593 0.302346
vt 0.518834 0.311361
vt 0.588760 0.284841
vt 0.638353 0.228863
vt 0.656250 0.156250
vt 0.375000 0.312500
vt 0.394231 0.312500
vt 0.413462 0.312500
vt 0.432692 0.312500
vt 0.451923 0.312500
vt 0.471154 0.312500
vt 0.490385 0.312500
vt 0.509615 0.312500
vt 0.528846 0.312500
vt 0.548077 0.312500
vt 0.567308 0.312500
vt 0.586539 0.312500
vt 0.605769 0.312500
vt 0.625000 0.312500
vt 0.375000 0.688440
vt 0.394231 0.688440
vt 0.413462 0.688440
vt 0.432692 0.688440
vt 0.451923 0.688440
vt 0.471154 0.688440
vt 0.490385 0.688440
vt 0.509615 0.688440
vt 0.528846 0.688440
vt 0.548077 0.688440
vt 0.567308 0.688440
vt 0.586539 0.688440
vt 0.605769 0.688440
vt 0.625000 0.688440
vt 0.638353 0.771137
vt 0.588760 0.715159
vt 0.518834 0.688639
vt 0.444593 0.697654
vt 0.383045 0.740137
vt 0.348290 0.806357
vt 0.348290 0.881143
vt 0.383045 0.947363
vt 0.444593 0.989846
vt 0.518834 0.998861
vt 0.588760 0.972341
vt 0.638353 0.916363
vt 0.656250 0.843750
vt 0.500000 0.150000
vt 0.500000 0.837500
vt 0.638353 0.916363
vt 0.588760 0.972341
vt 0.518834 0.998861
vt 0.444593 0.989846
vt 0.383045 0.947363
vt 0.348290 0.881143
vt 0.348290 0.806357
vt 0.383045 0.740137
vt 0.444593 0.697654
vt 0.518834 0.688639
vt 0.588760 0.715159
vt 0.638353 0.771137
vt 0.656250 0.843750
vt 0.638353 0.916363
vt 0.588760 0.972341
vt 0.518834 0.998861
vt 0.444593 0.989846
vt 0.383045 0.947363
vt 0.348290 0.881143
vt 0.348290 0.806357
vt 0.383045 0.740137
vt 0.444593 0.697654
vt 0.518834 0.688639
vt 0.588760 0.715159
vt 0.638353 0.771137
vt 0.656250 0.843750
vt 0.638353 0.916363
vt 0.588760 0.972341
vt 0.518834 0.998861
vt 0.444593 0.989846
vt 0.383045 0.947363
vt 0.348290 0.881143
vt 0.348290 0.806357
vt 0.383045 0.740137
vt 0.444593 0.697654
vt 0.518834 0.688639
vt 0.588760 0.715159
vt 0.638353 0.771137
vt 0.656250 0.843750
vt 0.638353 0.916363
vt 0.588760 0.972341
vt 0.518834 0.998861
vt 0.444593 0.989846
vt 0.383045 0.947363
vt 0.348290 0.881143
vt 0.348290 0.806357
vt 0.383045 0.740137
vt 0.444593 0.697654
vt 0.518834 0.688639
vt 0.588760 0.715159
vt 0.638353 0.771137
vt 0.656250 0.843750
vt 0.638353 0.916363
vt 0.588760 0.972341
vt 0.518834 0.998861
vt 0.444593 0.989846
vt 0.383045 0.947363
vt 0.348290 0.881143
vt 0.348290 0.806357
vt 0.383045 0.740137
vt 0.444593 0.697654
vt 0.518834 0.688639
vt 0.588760 0.715159
vt 0.638353 0.771137
vt 0.656250 0.843750
vt 0.638353 0.916363
vt 0.588760 0.972341
vt 0.518834 0.998861
vt 0.444593 0.989846
vt 0.383045 0.947363
vt 0.348290 0.881143
vt 0.348290 0.806357
vt 0.383045 0.740137
vt 0.444593 0.697654
vt 0.518834 0.688639
vt 0.588760 0.715159
vt 0.638353 0.771137
vt 0.656250 0.843750
vt 0.638353 0.916363
vt 0.588760 0.972341
vt 0.518834 0.998861
vt 0.444593 0.989846
vt 0.383045 0.947363
vt 0.348290 0.881143
vt 0.348290 0.806357
vt 0.383045 0.740137
vt 0.444593 0.697654
vt 0.518834 0.688639
vt 0.588760 0.715159
vt 0.638353 0.771137
vt 0.656250 0.843750
vt 0.638353 0.916363
vt 0.588760 0.972341
vt 0.518834 0.998861
vt 0.444593 0.989846
vt 0.383045 0.947363
vt 0.348290 0.881143
vt 0.348290 0.806357
vt 0.383045 0.740137
vt 0.444593 0.697654
vt 0.518834 0.688639
vt 0.588760 0.715159
vt 0.638353 0.771137
vt 0.656250 0.843750
vt 0.638353 0.916363
vt 0.588760 0.972341
vt 0.518834 0.998861
vt 0.444593 0.989846
vt 0.383045 0.947363
vt 0.348290 0.881143
vt 0.348290 0.806357
vt 0.383045 0.740137
vt 0.444593 0.697654
vt 0.518834 0.688639
vt 0.588760 0.715159
vt 0.638353 0.771137
vt 0.656250 0.843750
vt 0.588760 0.027659
vt 0.638353 0.083637
vt 0.518834 0.001139
vt 0.444593 0.010154
vt 0.383045 0.052637
vt 0.348290 0.118857
vt 0.348290 0.193643
vt 0.383045 0.259863
vt 0.444593 0.302346
vt 0.518834 0.311361
vt 0.588760 0.284841
vt 0.638353 0.228863
vt 0.656250 0.156250
vt 0.588760 0.027659
vt 0.638353 0.083637
vt 0.518834 0.001139
vt 0.444593 0.010154
vt 0.383045 0.052637
vt 0.348290 0.118857
vt 0.348290 0.193643
vt 0.383045 0.259863
vt 0.444593 0.302346
vt 0.518834 0.311361
vt 0.588760 0.284841
vt 0.638353 0.228863
vt 0.656250 0.156250
vt 0.588760 0.027659
vt 0.638353 0.083637
vt 0.518834 0.001139
vt 0.444593 0.010154
vt 0.383045 0.052637
vt 0.348290 0.118857
vt 0.348290 0.193643
vt 0.383045 0.259863
vt 0.444593 0.302346
vt 0.518834 0.311361
vt 0.588760 0.284841
vt 0.638353 0.228863
vt 0.656250 0.156250
vn 0.861969 -0.228888 -0.452349
vn 0.552912 -0.229883 -0.800901
vn 0.539798 -0.312244 -0.781743
vn 0.841617 -0.310906 -0.441609
vn 0.117358 -0.231284 -0.965782
vn 0.114631 -0.314127 -0.942435
vn -0.344785 -0.232770 -0.909363
vn -0.336247 -0.316124 -0.887132
vn -0.727689 -0.234001 -0.644757
vn -0.709625 -0.317777 -0.628848
vn -0.943817 -0.234695 -0.232653
vn -0.920298 -0.318710 -0.226882
vn -0.943817 -0.234695 0.232652
vn -0.920298 -0.318710 0.226882
vn -0.727690 -0.234001 0.644757
vn -0.709625 -0.317777 0.628848
vn -0.344785 -0.232770 0.909363
vn -0.336247 -0.316124 0.887132
vn 0.117357 -0.231285 0.965782
vn 0.114631 -0.314127 0.942435
vn 0.552912 -0.229883 0.800901
vn 0.539798 -0.312244 0.781743
vn 0.861969 -0.228888 0.452349
vn 0.841616 -0.310906 0.441610
vn 0.973537 -0.228528 0.000000
vn 0.950598 -0.310424 0.000000
vn 0.366777 -0.763755 -0.531180
vn 0.571673 -0.763681 -0.299969
vn -0.000000 -1.000000 0.000000
vn 0.077920 -0.763861 -0.640660
vn -0.228696 -0.763972 -0.603361
vn -0.482837 -0.764065 -0.427871
vn -0.626326 -0.764117 -0.154407
vn -0.626326 -0.764117 0.154407
vn -0.482837 -0.764065 0.427871
vn -0.228696 -0.763972 0.603361
vn 0.077919 -0.763860 0.640661
vn 0.366777 -0.763755 0.531180
vn 0.571673 -0.763681 0.299970
vn 0.645626 -0.763654 0.000001
vn 0.229954 0.965721 -0.120433
vn 0.147350 0.965928 -0.212773
vn 0.000000 1.000000 -0.000000
vn 0.031538 0.966216 -0.255797
vn -0.090576 0.966519 -0.240078
vn -0.191156 0.966767 -0.169766
vn -0.247690 0.966907 -0.061166
vn -0.247690 0.966907 0.061165
vn -0.191156 0.966767 0.169766
vn -0.090576 0.966519 0.240078
vn 0.031538 0.966216 0.255798
vn 0.147350 0.965927 0.212773
vn 0.229954 0.965721 0.120433
vn 0.259860 0.965646 0.000000
vn 0.479355 -0.536821 -0.694292
vn 0.748091 -0.535025 -0.392565
vn 0.101620 -0.539342 -0.835933
vn -0.297899 -0.542003 -0.785805
vn -0.627917 -0.544198 -0.556390
vn -0.813793 -0.545433 -0.200611
vn -0.813793 -0.545433 0.200610
vn -0.627917 -0.544198 0.556389
vn -0.297899 -0.542003 0.785805
vn 0.101619 -0.539342 0.835933
vn 0.479355 -0.536821 0.694292
vn 0.748091 -0.535025 0.392565
vn 0.845247 -0.534376 0.000000
vn 0.497422 -0.483308 -0.720406
vn 0.776040 -0.481602 -0.407212
vn 0.105523 -0.485703 -0.867731
vn -0.309327 -0.488234 -0.816054
vn -0.652287 -0.490323 -0.578019
vn -0.845563 -0.491498 -0.208452
vn -0.845563 -0.491498 0.208452
vn -0.652287 -0.490323 0.578018
vn -0.309327 -0.488234 0.816054
vn 0.105523 -0.485703 0.867731
vn 0.497422 -0.483308 0.720406
vn 0.776040 -0.481602 0.407212
vn 0.876729 -0.480985 0.000000
vn 0.845718 -0.295880 -0.444090
vn 0.542124 -0.297115 -0.786017
vn 0.567797 0.013621 -0.823056
vn 0.885306 0.013560 -0.464811
vn 0.114611 -0.298853 -0.947392
vn 0.120211 0.013706 -0.992654
vn -0.338564 -0.300693 -0.891604
vn -0.354850 0.013797 -0.934821
vn -0.713696 -0.302214 -0.631905
vn -0.748579 0.013872 -0.662901
vn -0.925301 -0.303071 -0.227962
vn -0.970866 0.013914 -0.239219
vn -0.925301 -0.303072 0.227962
vn -0.970866 0.013914 0.239218
vn -0.713696 -0.302214 0.631905
vn -0.748579 0.013872 0.662901
vn -0.338564 -0.300693 0.891604
vn -0.354850 0.013797 0.934821
vn 0.114610 -0.298853 0.947392
vn 0.120211 0.013706 0.992654
vn 0.542124 -0.297115 0.786018
vn 0.567796 0.013621 0.823057
vn 0.845718 -0.295880 0.444090
vn 0.885306 0.013560 0.464812
vn 0.955363 -0.295434 0.000000
vn 0.999908 0.013538 0.000000
vn 0.843148 0.305205 -0.442665
vn 0.540540 0.306471 -0.783513
vn 0.476483 0.544138 -0.690563
vn 0.743864 0.542378 -0.390503
vn 0.114392 0.308252 -0.944402
vn 0.100762 0.546607 -0.831305
vn -0.337363 0.310138 -0.888820
vn -0.296491 0.549210 -0.781320
vn -0.711343 0.311698 -0.629949
vn -0.624537 0.551356 -0.553137
vn -0.922306 0.312577 -0.227260
vn -0.809263 0.552562 -0.199423
vn -0.922306 0.312577 0.227260
vn -0.809263 0.552562 0.199423
vn -0.711343 0.311698 0.629949
vn -0.624537 0.551356 0.553137
vn -0.337364 0.310138 0.888820
vn -0.296491 0.549210 0.781320
vn 0.114392 0.308252 0.944402
vn 0.100762 0.546607 0.831305
vn 0.540540 0.306471 0.783513
vn 0.476483 0.544138 0.690563
vn 0.843147 0.305205 0.442665
vn 0.743863 0.542378 0.390504
vn 0.952433 0.304748 0.000000
vn 0.840545 0.541741 0.000000
vn 0.408145 0.695896 -0.590886
vn 0.637363 0.694240 -0.334363
vn 0.086571 0.698212 -0.710637
vn -0.252766 0.700647 -0.667235
vn -0.532470 0.702647 -0.471977
vn -0.689768 0.703770 -0.170082
vn -0.689768 0.703770 0.170082
vn -0.532470 0.702647 0.471977
vn -0.252766 0.700647 0.667235
vn 0.086571 0.698212 0.710637
vn 0.408145 0.695896 0.590886
vn 0.637363 0.694240 0.334364
vn 0.720322 0.693640 0.000000
vn 0.471327 0.846623 -0.247145
vn 0.301609 0.847728 -0.436336
vn 0.064057 0.849269 -0.524060
vn -0.185926 0.850882 -0.491357
vn -0.391447 0.852202 -0.347162
vn -0.506817 0.852940 -0.125022
vn -0.506817 0.852940 0.125022
vn -0.391447 0.852202 0.347162
vn -0.185926 0.850882 0.491357
vn 0.064057 0.849269 0.524060
vn 0.301609 0.847728 0.436336
vn 0.471327 0.846622 0.247146
vn 0.532832 0.846221 0.000000
vn 0.786796 -0.458914 -0.412736
vn 0.504485 -0.460595 -0.730306
vn 0.107226 -0.462959 -0.879870
vn -0.313510 -0.465458 -0.827684
vn -0.661498 -0.467522 -0.586381
vn -0.857674 -0.468685 -0.211493
vn -0.857674 -0.468685 0.211493
vn -0.661499 -0.467522 0.586381
vn -0.313510 -0.465458 0.827684
vn 0.107226 -0.462959 0.879870
vn 0.504485 -0.460595 0.730306
vn 0.786795 -0.458914 0.412736
vn 0.888795 -0.458305 0.000000
vn 0.851693 -0.273744 -0.446860
vn 0.546353 -0.274958 -0.791137
vn 0.116097 -0.276670 -0.953926
vn -0.340342 -0.278487 -0.898116
vn -0.718454 -0.279992 -0.636732
vn -0.931850 -0.280842 -0.229747
vn -0.931850 -0.280842 0.229746
vn -0.718454 -0.279993 0.636732
vn -0.340342 -0.278487 0.898116
vn 0.116097 -0.276671 0.953926
vn 0.546352 -0.274958 0.791137
vn 0.851692 -0.273744 0.446861
vn 0.961927 -0.273305 0.000000
s 1
g pCylinder1
usemtl initialShadingGroup
f 1/14/1 2/15/2 15/29/3 14/28/4
f 2/15/2 3/16/5 16/30/6 15/29/3
f 3/16/5 4/17/7 17/31/8 16/30/6
f 4/17/7 5/18/9 18/32/10 17/31/8
f 5/18/9 6/19/11 19/33/12 18/32/10
f 6/19/11 7/20/13 20/34/14 19/33/12
f 7/20/13 8/21/15 21/35/16 20/34/14
f 8/21/15 9/22/17 22/36/18 21/35/16
f 9/22/17 10/23/19 23/37/20 22/36/18
f 10/23/19 11/24/21 24/38/22 23/37/20
f 11/24/21 12/25/23 25/39/24 24/38/22
f 12/25/23 13/26/25 26/40/26 25/39/24
f 13/26/25 1/27/1 14/41/4 26/40/26
f 172/200/27 171/201/28 173/55/29
f 174/202/30 172/200/27 173/55/29
f 175/203/31 174/202/30 173/55/29
f 176/204/32 175/203/31 173/55/29
f 177/205/33 176/204/32 173/55/29
f 178/206/34 177/205/33 173/55/29
f 179/207/35 178/206/34 173/55/29
f 180/208/36 179/207/35 173/55/29
f 181/209/37 180/208/36 173/55/29
f 182/210/38 181/209/37 173/55/29
f 183/211/39 182/210/38 173/55/29
f 184/212/40 183/211/39 173/55/29
f 171/201/28 184/212/40 173/55/29
f 92/122/41 93/123/42 94/56/43
f 93/123/42 95/124/44 94/56/43
f 95/124/44 96/125/45 94/56/43
f 96/125/45 97/126/46 94/56/43
f 97/126/46 98/127/47 94/56/43
f 98/127/47 99/128/48 94/56/43
f 99/128/48 100/129/49 94/56/43
f 100/129/49 101/130/50 94/56/43
f 101/130/50 102/131/51 94/56/43
f 102/131/51 103/132/52 94/56/43
f 103/132/52 104/133/53 94/56/43
f 104/133/53 105/134/54 94/56/43
f 105/134/54 92/122/41 94/56/43
f 14/53/4 15/52/3 28/58/55 27/57/56
f 15/52/3 16/51/6 29/59/57 28/58/55
f 16/51/6 17/50/8 30/60/58 29/59/57
f 17/50/8 18/49/10 31/61/59 30/60/58
f 18/49/10 19/48/12 32/62/60 31/61/59
f 19/48/12 20/47/14 33/63/61 32/62/60
f 20/47/14 21/46/16 34/64/62 33/63/61
f 21/46/16 22/45/18 35/65/63 34/64/62
f 22/45/18 23/44/20 36/66/64 35/65/63
f 23/44/20 24/43/22 37/67/65 36/66/64
f 24/43/22 25/42/24 38/68/66 37/67/65
f 25/42/24 26/54/26 39/69/67 38/68/66
f 26/54/26 14/53/4 27/57/56 39/69/67
f 27/57/56 28/58/55 41/71/68 40/70/69
f 28/58/55 29/59/57 42/72/70 41/71/68
f 29/59/57 30/60/58 43/73/71 42/72/70
f 30/60/58 31/61/59 44/74/72 43/73/71
f 31/61/59 32/62/60 45/75/73 44/74/72
f 32/62/60 33/63/61 46/76/74 45/75/73
f 33/63/61 34/64/62 47/77/75 46/76/74
f 34/64/62 35/65/63 48/78/76 47/77/75
f 35/65/63 36/66/64 49/79/77 48/78/76
f 36/66/64 37/67/65 50/80/78 49/79/77
f 37/67/65 38/68/66 51/81/79 50/80/78
f 38/68/66 39/69/67 52/82/80 51/81/79
f 39/69/67 27/57/56 40/70/69 52/82/80
f 119/148/81 120/149/82 54/84/83 53/83/84
f 120/149/82 121/150/85 55/85/86 54/84/83
f 121/150/85 122/151/87 56/86/88 55/85/86
f 122/151/87 123/152/89 57/87/90 56/86/88
f 123/152/89 124/153/91 58/88/92 57/87/90
f 124/153/91 125/154/93 59/89/94 58/88/92
f 125/154/93 126/155/95 60/90/96 59/89/94
f 126/155/95 127/156/97 61/91/98 60/90/96
f 127/156/97 128/157/99 62/92/100 61/91/98
f 128/157/99 129/158/101 63/93/102 62/92/100
f 129/158/101 130/159/103 64/94/104 63/93/102
f 130/159/103 131/160/105 65/95/106 64/94/104
f 131/160/105 119/148/81 53/83/84 65/95/106
f 132/161/107 133/162/108 67/97/109 66/96/110
f 133/162/108 134/163/111 68/98/112 67/97/109
f 134/163/111 135/164/113 69/99/114 68/98/112
f 135/164/113 136/165/115 70/100/116 69/99/114
f 136/165/115 137/166/117 71/101/118 70/100/116
f 137/166/117 138/167/119 72/102/120 71/101/118
f 138/167/119 139/168/121 73/103/122 72/102/120
f 139/168/121 140/169/123 74/104/124 73/103/122
f 140/169/123 141/170/125 75/105/126 74/104/124
f 141/170/125 142/171/127 76/106/128 75/105/126
f 142/171/127 143/172/129 77/107/130 76/106/128
f 143/172/129 144/173/131 78/108/132 77/107/130
f 144/173/131 132/161/107 66/96/110 78/108/132
f 66/96/110 67/97/109 80/110/133 79/109/134
f 67/97/109 68/98/112 81/111/135 80/110/133
f 68/98/112 69/99/114 82/112/136 81/111/135
f 69/99/114 70/100/116 83/113/137 82/112/136
f 70/100/116 71/101/118 84/114/138 83/113/137
f 71/101/118 72/102/120 85/115/139 84/114/138
f 72/102/120 73/103/122 86/116/140 85/115/139
f 73/103/122 74/104/124 87/117/141 86/116/140
f 74/104/124 75/105/126 88/118/142 87/117/141
f 75/105/126 76/106/128 89/119/143 88/118/142
f 76/106/128 77/107/130 90/120/144 89/119/143
f 77/107/130 78/108/132 91/121/145 90/120/144
f 78/108/132 66/96/110 79/109/134 91/121/145
f 106/135/146 107/136/147 93/123/42 92/122/41
f 107/136/147 108/137/148 95/124/44 93/123/42
f 108/137/148 109/138/149 96/125/45 95/124/44
f 109/138/149 110/139/150 97/126/46 96/125/45
f 110/139/150 111/140/151 98/127/47 97/126/46
f 111/140/151 112/141/152 99/128/48 98/127/47
f 112/141/152 113/142/153 100/129/49 99/128/48
f 113/142/153 114/143/154 101/130/50 100/129/49
f 114/143/154 115/144/155 102/131/51 101/130/50
f 115/144/155 116/145/156 103/132/52 102/131/51
f 116/145/156 117/146/157 104/133/53 103/132/52
f 117/146/157 118/147/158 105/134/54 104/133/53
f 118/147/158 106/135/146 92/122/41 105/134/54
f 79/109/134 80/110/133 107/136/147 106/135/146
f 80/110/133 81/111/135 108/137/148 107/136/147
f 81/111/135 82/112/136 109/138/149 108/137/148
f 82/112/136 83/113/137 110/139/150 109/138/149
f 83/113/137 84/114/138 111/140/151 110/139/150
f 84/114/138 85/115/139 112/141/152 111/140/151
f 85/115/139 86/116/140 113/142/153 112/141/152
f 86/116/140 87/117/141 114/143/154 113/142/153
f 87/117/141 88/118/142 115/144/155 114/143/154
f 88/118/142 89/119/143 116/145/156 115/144/155
f 89/119/143 90/120/144 117/146/157 116/145/156
f 90/120/144 91/121/145 118/147/158 117/146/157
f 91/121/145 79/109/134 106/135/146 118/147/158
f 40/70/69 41/71/68 120/149/82 119/148/81
f 41/71/68 42/72/70 121/150/85 120/149/82
f 42/72/70 43/73/71 122/151/87 121/150/85
f 43/73/71 44/74/72 123/152/89 122/151/87
f 44/74/72 45/75/73 124/153/91 123/152/89
f 45/75/73 46/76/74 125/154/93 124/153/91
f 46/76/74 47/77/75 126/155/95 125/154/93
f 47/77/75 48/78/76 127/156/97 126/155/95
f 48/78/76 49/79/77 128/157/99 127/156/97
f 49/79/77 50/80/78 129/158/101 128/157/99
f 50/80/78 51/81/79 130/159/103 129/158/101
f 51/81/79 52/82/80 131/160/105 130/159/103
f 52/82/80 40/70/69 119/148/81 131/160/105
f 53/83/84 54/84/83 133/162/108 132/161/107
f 54/84/83 55/85/86 134/163/111 133/162/108
f 55/85/86 56/86/88 135/164/113 134/163/111
f 56/86/88 57/87/90 136/165/115 135/164/113
f 57/87/90 58/88/92 137/166/117 136/165/115
f 58/88/92 59/89/94 138/167/119 137/166/117
f 59/89/94 60/90/96 139/168/121 138/167/119
f 60/90/96 61/91/98 140/169/123 139/168/121
f 61/91/98 62/92/100 141/170/125 140/169/123
f 62/92/100 63/93/102 142/171/127 141/170/125
f 63/93/102 64/94/104 143/172/129 142/171/127
f 64/94/104 65/95/106 144/173/131 143/172/129
f 65/95/106 53/83/84 132/161/107 144/173/131
f 2/2/2 1/1/1 145/175/159 146/174/160
f 3/3/5 2/2/2 146/174/160 147/176/161
f 4/4/7 3/3/5 147/176/161 148/177/162
f 5/5/9 4/4/7 148/177/162 149/178/163
f 6/6/11 5/5/9 149/178/163 150/179/164
f 7/7/13 6/6/11 150/179/164 151/180/165
f 8/8/15 7/7/13 151/180/165 152/181/166
f 9/9/17 8/8/15 152/181/166 153/182/167
f 10/10/19 9/9/17 153/182/167 154/183/168
f 11/11/21 10/10/19 154/183/168 155/184/169
f 12/12/23 11/11/21 155/184/169 156/185/170
f 13/13/25 12/12/23 156/185/170 157/186/171
f 1/1/1 13/13/25 157/186/171 145/175/159
f 146/174/160 145/175/159 158/188/172 159/187/173
f 147/176/161 146/174/160 159/187/173 160/189/174
f 148/177/162 147/176/161 160/189/174 161/190/175
f 149/178/163 148/177/162 161/190/175 162/191/176
f 150/179/164 149/178/163 162/191/176 163/192/177
f 151/180/165 150/179/164 163/192/177 164/193/178
f 152/181/166 151/180/165 164/193/178 165/194/179
f 153/182/167 152/181/166 165/194/179 166/195/180
f 154/183/168 153/182/167 166/195/180 167/196/181
f 155/184/169 154/183/168 167/196/181 168/197/182
f 156/185/170 155/184/169 168/197/182 169/198/183
f 157/186/171 156/185/170 169/198/183 170/199/184
f 145/175/159 157/186/171 170/199/184 158/188/172
f 159/187/173 158/188/172 171/201/28 172/200/27
f 160/189/174 159/187/173 172/200/27 174/202/30
f 161/190/175 160/189/174 174/202/30 175/203/31
f 162/191/176 161/190/175 175/203/31 176/204/32
f 163/192/177 162/191/176 176/204/32 177/205/33
f 164/193/178 163/192/177 177/205/33 178/206/34
f 165/194/179 164/193/178 178/206/34 179/207/35
f 166/195/180 165/194/179 179/207/35 180/208/36
f 167/196/181 166/195/180 180/208/36 181/209/37
f 168/197/182 167/196/181 181/209/37 182/210/38
f 169/198/183 168/197/182 182/210/38 183/211/39
f 170/199/184 169/198/183 183/211/39 184/212/40
f 158/188/172 170/199/184 184/212/40 171/201/28
