# This file uses centimeters as units for non-parametric coordinates.

mtllib lorge vent.mtl
g default
v 1.806034 -1.221892 0.500000
v 1.806034 0.749511 0.500000
v 1.806034 0.749511 -0.500000
v 1.806034 -1.221892 -0.500000
v 0.000000 -1.221892 0.500000
v 0.000000 -1.221892 -0.500000
v 0.000000 0.749511 -0.500000
v 0.000000 0.749511 0.500000
v -1.806034 -1.221892 0.500000
v -1.806034 0.749511 0.500000
v -1.806034 0.749511 -0.500000
v -1.806034 -1.221892 -0.500000
v 1.806034 0.502193 0.500000
v 1.806034 0.502193 -0.500000
v 0.000000 0.502193 -0.500000
v -1.806034 0.502193 -0.500000
v -1.806034 0.502193 0.500000
v 0.000000 0.502193 0.500000
v 1.806034 -0.359849 0.500000
v 1.806034 -0.359849 -0.500000
v 0.000000 -0.359849 -0.500000
v -1.806034 -0.359849 -0.500000
v -1.806034 -0.359849 0.500000
v 0.000000 -0.359849 0.500000
v 1.806034 0.071172 -0.500000
v 1.806034 0.071172 0.500000
v 0.000000 0.071172 0.500000
v -1.806034 0.071172 0.500000
v -1.806034 0.071172 -0.500000
v 0.000000 0.071172 -0.500000
v 1.806034 -0.790871 0.500000
v 1.806034 -0.790871 -0.500000
v 0.000000 -0.790871 -0.500000
v -1.806034 -0.790871 -0.500000
v -1.806034 -0.790871 0.500000
v 0.000000 -0.790871 0.500000
v 1.806034 0.286683 0.500000
v 0.000000 0.286683 0.500000
v -1.806034 0.286683 0.500000
v 1.806034 -0.575360 -0.500000
v 1.806034 -0.575360 0.500000
v 0.000000 -0.575360 0.500000
v -1.806034 -0.575360 0.500000
v -1.806034 -0.575360 -0.500000
v 0.000000 -0.575360 -0.500000
v 1.806034 -0.144339 0.500000
v 1.806034 -0.144339 -0.500000
v 0.000000 -0.144339 -0.500000
v -1.806034 -0.144339 -0.500000
v -1.806034 -0.144339 0.500000
v 0.000000 -0.144339 0.500000
v 1.401654 -1.221892 0.500000
v 1.401654 -0.790871 0.500000
v 1.401654 -0.575360 0.500000
v 1.401654 -0.359849 0.500000
v 1.401654 -0.144339 0.500000
v 1.401654 0.071172 0.500000
v 1.401654 0.286683 0.500000
v 1.401654 0.502193 0.500000
v 1.401654 0.749511 0.500000
v 1.401654 0.749511 -0.500000
v 1.401654 0.502193 -0.500000
v 1.401654 0.071172 -0.500000
v 1.401654 -0.144339 -0.500000
v 1.401654 -0.359849 -0.500000
v 1.401654 -0.575360 -0.500000
v 1.401654 -0.790871 -0.500000
v 1.401654 -1.221892 -0.500000
v -1.401654 -1.221892 0.500000
v -1.401654 -0.790871 0.500000
v -1.401654 -0.575360 0.500000
v -1.401654 -0.359849 0.500000
v -1.401654 -0.144339 0.500000
v -1.401654 0.071172 0.500000
v -1.401654 0.286683 0.500000
v -1.401654 0.502193 0.500000
v -1.401654 0.749511 0.500000
v -1.401654 0.749511 -0.500000
v -1.401654 0.502193 -0.500000
v -1.401654 0.071172 -0.500000
v -1.401654 -0.144339 -0.500000
v -1.401654 -0.359849 -0.500000
v -1.401654 -0.575360 -0.500000
v -1.401654 -0.790871 -0.500000
v -1.401654 -1.221892 -0.500000
v 1.806034 -1.077251 0.500000
v 1.806034 -1.077251 -0.500000
v 1.401654 -1.077251 -0.500000
v 0.000000 -1.077251 -0.500000
v -1.401654 -1.077251 -0.500000
v -1.806034 -1.077251 -0.500000
v -1.806034 -1.077251 0.500000
v -1.401654 -1.077251 0.500000
v 0.000000 -1.077251 0.500000
v 1.401654 -1.077251 0.500000
v 1.401654 -0.144339 -0.011693
v 1.401654 0.071172 -0.011693
v 0.000000 0.071172 -0.011693
v 0.000000 -0.144339 -0.011693
v -1.401654 0.071172 -0.011693
v -1.401654 -0.144339 -0.011693
v 0.000000 -1.077251 -0.011693
v 1.401654 -1.077251 -0.011693
v 1.401654 -0.790871 -0.011693
v 0.000000 -0.790871 -0.011693
v -1.401654 -0.790871 -0.011693
v -1.401654 -1.077251 -0.011693
v 1.401654 0.286683 -0.011693
v 1.401654 0.502193 -0.011693
v 0.000000 0.502193 -0.011693
v 0.000000 0.286683 -0.011693
v -1.401654 0.502193 -0.011693
v -1.401654 0.286683 -0.011693
v 1.401654 -0.575360 -0.011693
v 1.401654 -0.359849 -0.011693
v 0.000000 -0.359849 -0.011693
v 0.000000 -0.575360 -0.011693
v -1.401654 -0.359849 -0.011693
v -1.401654 -0.575360 -0.011693
vt 0.625000 0.000000
vt 0.625000 0.250000
vt 0.625000 0.500000
vt 0.625000 0.750000
vt 0.625000 1.000000
vt 0.875000 0.000000
vt 0.875000 0.250000
vt 0.500000 0.000000
vt 0.500000 1.000000
vt 0.500000 0.750000
vt 0.500000 0.500000
vt 0.500000 0.250000
vt 0.500000 0.250000
vt 0.500000 0.000000
vt 0.625000 0.000000
vt 0.625000 0.250000
vt 0.500000 0.500000
vt 0.625000 0.500000
vt 0.500000 0.750000
vt 0.625000 0.750000
vt 0.500000 1.000000
vt 0.625000 1.000000
vt 0.875000 0.000000
vt 0.875000 0.250000
vt 0.625000 0.125000
vt 0.625000 0.625000
vt 0.875000 0.125000
vt 0.500000 0.625000
vt 0.500000 0.625000
vt 0.875000 0.125000
vt 0.625000 0.625000
vt 0.625000 0.125000
vt 0.500000 0.125000
vt 0.500000 0.125000
vt 0.625000 0.062500
vt 0.625000 0.687500
vt 0.875000 0.062500
vt 0.500000 0.687500
vt 0.500000 0.687500
vt 0.875000 0.062500
vt 0.625000 0.687500
vt 0.625000 0.062500
vt 0.500000 0.062500
vt 0.500000 0.062500
vt 0.625000 0.656250
vt 0.875000 0.093750
vt 0.625000 0.093750
vt 0.500000 0.093750
vt 0.500000 0.093750
vt 0.625000 0.093750
vt 0.875000 0.093750
vt 0.625000 0.656250
vt 0.500000 0.656250
vt 0.500000 0.656250
vt 0.625000 0.031250
vt 0.625000 0.718750
vt 0.875000 0.031250
vt 0.500000 0.718750
vt 0.500000 0.718750
vt 0.875000 0.031250
vt 0.625000 0.718750
vt 0.625000 0.031250
vt 0.500000 0.031250
vt 0.500000 0.031250
vt 0.625000 0.109375
vt 0.500000 0.109375
vt 0.500000 0.109375
vt 0.625000 0.109375
vt 0.625000 0.703125
vt 0.875000 0.046875
vt 0.625000 0.046875
vt 0.500000 0.046875
vt 0.500000 0.046875
vt 0.625000 0.046875
vt 0.875000 0.046875
vt 0.625000 0.703125
vt 0.500000 0.703125
vt 0.500000 0.703125
vt 0.625000 0.078125
vt 0.625000 0.671875
vt 0.875000 0.078125
vt 0.500000 0.671875
vt 0.500000 0.671875
vt 0.875000 0.078125
vt 0.625000 0.671875
vt 0.625000 0.078125
vt 0.500000 0.078125
vt 0.500000 0.078125
vt 0.562500 0.000000
vt 0.562500 1.000000
vt 0.562500 0.031250
vt 0.562500 0.046875
vt 0.562500 0.062500
vt 0.562500 0.078125
vt 0.562500 0.093750
vt 0.562500 0.109375
vt 0.562500 0.125000
vt 0.562500 0.250000
vt 0.562500 0.500000
vt 0.562500 0.625000
vt 0.562500 0.656250
vt 0.562500 0.671875
vt 0.562500 0.687500
vt 0.562500 0.703125
vt 0.562500 0.718750
vt 0.562500 0.750000
vt 0.562500 1.000000
vt 0.562500 0.000000
vt 0.562500 0.031250
vt 0.562500 0.046875
vt 0.562500 0.062500
vt 0.562500 0.078125
vt 0.562500 0.093750
vt 0.562500 0.109375
vt 0.562500 0.125000
vt 0.562500 0.250000
vt 0.562500 0.500000
vt 0.562500 0.625000
vt 0.562500 0.656250
vt 0.562500 0.671875
vt 0.562500 0.687500
vt 0.562500 0.703125
vt 0.562500 0.718750
vt 0.562500 0.750000
vt 0.625000 0.015625
vt 0.625000 0.734375
vt 0.875000 0.015625
vt 0.562500 0.734375
vt 0.500000 0.734375
vt 0.500000 0.734375
vt 0.562500 0.734375
vt 0.875000 0.015625
vt 0.625000 0.734375
vt 0.625000 0.015625
vt 0.562500 0.015625
vt 0.500000 0.015625
vt 0.500000 0.015625
vt 0.562500 0.015625
vt 0.562500 0.078125
vt 0.562500 0.093750
vt 0.500000 0.093750
vt 0.500000 0.078125
vt 0.500000 0.015625
vt 0.562500 0.015625
vt 0.562500 0.031250
vt 0.500000 0.031250
vt 0.562500 0.109375
vt 0.562500 0.125000
vt 0.500000 0.125000
vt 0.500000 0.109375
vt 0.562500 0.046875
vt 0.562500 0.062500
vt 0.500000 0.062500
vt 0.500000 0.046875
vt 0.500000 0.031250
vt 0.562500 0.031250
vt 0.562500 0.015625
vt 0.500000 0.015625
vt 0.500000 0.062500
vt 0.562500 0.062500
vt 0.562500 0.046875
vt 0.500000 0.046875
vt 0.500000 0.093750
vt 0.562500 0.093750
vt 0.562500 0.078125
vt 0.500000 0.078125
vt 0.500000 0.125000
vt 0.562500 0.125000
vt 0.562500 0.109375
vt 0.500000 0.109375
vn 0.000000 0.000000 1.000000
vn 0.000000 0.000000 1.000000
vn 0.000000 0.000000 1.000000
vn 0.000000 0.000000 1.000000
vn 0.000000 1.000000 0.000000
vn 0.000000 1.000000 0.000000
vn 0.000000 1.000000 0.000000
vn 0.000000 1.000000 0.000000
vn 0.000000 0.000000 -1.000000
vn 0.000000 0.000000 -1.000000
vn 0.000000 0.000000 -1.000000
vn 0.000000 0.000000 -1.000000
vn 0.000000 -1.000000 0.000000
vn 0.000000 -1.000000 0.000000
vn 0.000000 -1.000000 0.000000
vn 0.000000 -1.000000 0.000000
vn 1.000000 0.000000 0.000000
vn 1.000000 0.000000 0.000000
vn 1.000000 0.000000 0.000000
vn 1.000000 0.000000 0.000000
vn 0.000000 0.000000 1.000000
vn 0.000000 0.000000 1.000000
vn 0.000000 0.000000 1.000000
vn 0.000000 0.000000 1.000000
vn 0.000000 1.000000 0.000000
vn 0.000000 1.000000 0.000000
vn 0.000000 1.000000 0.000000
vn 0.000000 1.000000 0.000000
vn 0.000000 0.000000 -1.000000
vn 0.000000 0.000000 -1.000000
vn 0.000000 0.000000 -1.000000
vn 0.000000 0.000000 -1.000000
vn 0.000000 -1.000000 0.000000
vn 0.000000 -1.000000 0.000000
vn 0.000000 -1.000000 0.000000
vn 0.000000 -1.000000 0.000000
vn -1.000000 0.000000 0.000000
vn -1.000000 0.000000 0.000000
vn -1.000000 0.000000 0.000000
vn -1.000000 0.000000 0.000000
vn 1.000000 0.000000 0.000000
vn 1.000000 0.000000 0.000000
vn 1.000000 0.000000 0.000000
vn 1.000000 0.000000 0.000000
vn 0.000000 0.000000 -1.000000
vn 0.000000 0.000000 -1.000000
vn 0.000000 0.000000 -1.000000
vn 0.000000 0.000000 -1.000000
vn 0.000000 0.000000 -1.000000
vn 0.000000 0.000000 -1.000000
vn 0.000000 0.000000 -1.000000
vn 0.000000 0.000000 -1.000000
vn -1.000000 0.000000 0.000000
vn -1.000000 0.000000 0.000000
vn -1.000000 0.000000 0.000000
vn -1.000000 0.000000 0.000000
vn 0.000000 0.000000 1.000000
vn 0.000000 0.000000 1.000000
vn 0.000000 0.000000 1.000000
vn 0.000000 0.000000 1.000000
vn 0.000000 0.000000 1.000000
vn 0.000000 0.000000 1.000000
vn 0.000000 0.000000 1.000000
vn 0.000000 0.000000 1.000000
vn 1.000000 0.000000 0.000000
vn 1.000000 0.000000 0.000000
vn 1.000000 0.000000 0.000000
vn 1.000000 0.000000 0.000000
vn 0.000000 0.000000 -1.000000
vn 0.000000 0.000000 -1.000000
vn 0.000000 0.000000 -1.000000
vn 0.000000 0.000000 -1.000000
vn 0.000000 0.000000 -1.000000
vn 0.000000 0.000000 -1.000000
vn 0.000000 0.000000 -1.000000
vn 0.000000 0.000000 -1.000000
vn -1.000000 0.000000 0.000000
vn -1.000000 0.000000 0.000000
vn -1.000000 0.000000 0.000000
vn -1.000000 0.000000 0.000000
vn 0.000000 0.000000 1.000000
vn 0.000000 0.000000 1.000000
vn 0.000000 0.000000 1.000000
vn 0.000000 0.000000 1.000000
vn 0.000000 0.000000 1.000000
vn 0.000000 0.000000 1.000000
vn 0.000000 0.000000 1.000000
vn 0.000000 0.000000 1.000000
vn 1.000000 0.000000 0.000000
vn 0.000000 0.000000 1.000000
vn 0.000000 0.000000 1.000000
vn 0.000000 0.000000 1.000000
vn 0.000000 0.000000 1.000000
vn 0.000000 0.000000 1.000000
vn 0.000000 0.000000 1.000000
vn -1.000000 0.000000 0.000000
vn 1.000000 0.000000 0.000000
vn 1.000000 0.000000 0.000000
vn 0.000000 0.000000 -1.000000
vn 0.000000 0.000000 -1.000000
vn 0.000000 0.000000 -1.000000
vn 0.000000 0.000000 -1.000000
vn -1.000000 0.000000 0.000000
vn -1.000000 0.000000 0.000000
vn 0.000000 0.000000 1.000000
vn 0.000000 0.000000 1.000000
vn 0.000000 0.000000 1.000000
vn 0.000000 0.000000 1.000000
vn 0.000000 0.000000 1.000000
vn 0.000000 0.000000 1.000000
vn 0.000000 0.000000 1.000000
vn 0.000000 0.000000 1.000000
vn 0.000000 0.000000 1.000000
vn 0.000000 0.000000 1.000000
vn 1.000000 0.000000 0.000000
vn 1.000000 0.000000 0.000000
vn 0.000000 0.000000 1.000000
vn 0.000000 0.000000 1.000000
vn 0.000000 0.000000 1.000000
vn 0.000000 0.000000 1.000000
vn 0.000000 0.000000 1.000000
vn 0.000000 0.000000 1.000000
vn -1.000000 0.000000 0.000000
vn -1.000000 0.000000 0.000000
vn 0.000000 0.000000 -1.000000
vn 0.000000 0.000000 -1.000000
vn 0.000000 0.000000 -1.000000
vn 0.000000 0.000000 -1.000000
vn 0.000000 0.000000 1.000000
vn 0.000000 0.000000 1.000000
vn 0.000000 0.000000 1.000000
vn 0.000000 0.000000 1.000000
vn 0.000000 0.000000 1.000000
vn 0.000000 0.000000 1.000000
vn 0.000000 0.000000 1.000000
vn 0.000000 0.000000 1.000000
vn 0.000000 0.000000 1.000000
vn 0.000000 0.000000 1.000000
vn 0.000000 0.000000 1.000000
vn 0.000000 0.000000 1.000000
vn 0.000000 0.000000 1.000000
vn 0.000000 0.000000 1.000000
vn 0.000000 1.000000 0.000000
vn 0.000000 1.000000 0.000000
vn 0.000000 0.000000 -1.000000
vn 0.000000 0.000000 -1.000000
vn 0.000000 0.000000 -1.000000
vn 0.000000 0.000000 -1.000000
vn 0.000000 0.000000 -1.000000
vn 0.000000 0.000000 -1.000000
vn 0.000000 0.000000 -1.000000
vn 0.000000 0.000000 -1.000000
vn 0.000000 -1.000000 0.000000
vn 0.000000 -1.000000 0.000000
vn 0.000000 0.000000 1.000000
vn 0.000000 0.000000 1.000000
vn 0.000000 0.000000 1.000000
vn 0.000000 0.000000 1.000000
vn 0.000000 0.000000 1.000000
vn 0.000000 0.000000 1.000000
vn 0.000000 0.000000 1.000000
vn 0.000000 0.000000 1.000000
vn 1.000000 0.000000 0.000000
vn 1.000000 0.000000 0.000000
vn 0.000000 0.000000 -1.000000
vn 0.000000 0.000000 -1.000000
vn 0.000000 0.000000 -1.000000
vn 0.000000 0.000000 -1.000000
vn 0.000000 0.000000 -1.000000
vn -1.000000 0.000000 0.000000
vn -1.000000 0.000000 0.000000
vn 0.000000 0.000000 1.000000
vn 0.000000 0.000000 1.000000
vn 0.000000 0.000000 1.000000
vn 0.000000 0.000000 1.000000
vn 0.000000 0.000000 1.000000
vn 0.000000 0.000000 1.000000
vn -1.000000 0.000000 0.000000
vn -1.000000 0.000000 0.000000
vn -1.000000 0.000000 0.000000
vn -1.000000 0.000000 0.000000
vn 0.000000 -1.000000 0.000000
vn 0.000000 -1.000000 0.000000
vn 0.000000 -1.000000 0.000000
vn 0.000000 -1.000000 0.000000
vn 0.000000 1.000000 0.000000
vn 0.000000 1.000000 0.000000
vn 0.000000 1.000000 0.000000
vn 0.000000 1.000000 0.000000
vn 0.000000 -1.000000 0.000000
vn 0.000000 -1.000000 0.000000
vn 0.000000 -1.000000 0.000000
vn 0.000000 -1.000000 0.000000
vn 1.000000 0.000000 0.000000
vn 1.000000 0.000000 0.000000
vn 1.000000 0.000000 0.000000
vn 1.000000 0.000000 0.000000
vn 0.000000 1.000000 0.000000
vn 0.000000 1.000000 0.000000
vn 0.000000 1.000000 0.000000
vn 0.000000 1.000000 0.000000
vn 0.000000 1.000000 0.000000
vn 0.000000 1.000000 0.000000
vn 0.000000 1.000000 0.000000
vn 0.000000 1.000000 0.000000
vn -1.000000 0.000000 0.000000
vn -1.000000 0.000000 0.000000
vn -1.000000 0.000000 0.000000
vn -1.000000 0.000000 0.000000
vn 0.000000 -1.000000 0.000000
vn 0.000000 -1.000000 0.000000
vn 0.000000 -1.000000 0.000000
vn 0.000000 -1.000000 0.000000
vn 0.000000 -1.000000 0.000000
vn 0.000000 -1.000000 0.000000
vn 0.000000 -1.000000 0.000000
vn 0.000000 -1.000000 0.000000
vn 1.000000 0.000000 0.000000
vn 1.000000 0.000000 0.000000
vn 1.000000 0.000000 0.000000
vn 1.000000 0.000000 0.000000
vn 0.000000 1.000000 0.000000
vn 0.000000 1.000000 0.000000
vn 0.000000 1.000000 0.000000
vn 0.000000 1.000000 0.000000
vn -1.000000 0.000000 0.000000
vn -1.000000 0.000000 0.000000
vn -1.000000 0.000000 0.000000
vn -1.000000 0.000000 0.000000
vn 0.000000 -1.000000 0.000000
vn 0.000000 -1.000000 0.000000
vn 0.000000 -1.000000 0.000000
vn 0.000000 -1.000000 0.000000
vn 0.000000 1.000000 0.000000
vn 0.000000 1.000000 0.000000
vn 0.000000 1.000000 0.000000
vn 0.000000 1.000000 0.000000
vn 0.000000 -1.000000 0.000000
vn 0.000000 -1.000000 0.000000
vn 0.000000 -1.000000 0.000000
vn 0.000000 -1.000000 0.000000
vn 1.000000 0.000000 0.000000
vn 1.000000 0.000000 0.000000
vn 1.000000 0.000000 0.000000
vn 1.000000 0.000000 0.000000
vn 0.000000 1.000000 0.000000
vn 0.000000 1.000000 0.000000
vn 0.000000 1.000000 0.000000
vn 0.000000 1.000000 0.000000
vn -1.000000 0.000000 0.000000
vn -1.000000 0.000000 0.000000
vn -1.000000 0.000000 0.000000
vn -1.000000 0.000000 0.000000
vn 0.000000 -1.000000 0.000000
vn 0.000000 -1.000000 0.000000
vn 0.000000 -1.000000 0.000000
vn 0.000000 -1.000000 0.000000
vn 0.000000 1.000000 0.000000
vn 0.000000 1.000000 0.000000
vn 0.000000 1.000000 0.000000
vn 0.000000 1.000000 0.000000
vn 0.000000 -1.000000 0.000000
vn 0.000000 -1.000000 0.000000
vn 0.000000 -1.000000 0.000000
vn 0.000000 -1.000000 0.000000
vn 1.000000 0.000000 0.000000
vn 1.000000 0.000000 0.000000
vn 1.000000 0.000000 0.000000
vn 1.000000 0.000000 0.000000
vn 0.000000 1.000000 0.000000
vn 0.000000 1.000000 0.000000
vn 0.000000 1.000000 0.000000
vn 0.000000 1.000000 0.000000
s 1
g lorge_vent
usemtl initialShadingGroup
f 8/12/1 18/33/2 59/97/3 60/98/4
s 2
f 7/11/5 8/12/6 60/98/7 61/99/8
s 3
f 61/99/9 62/100/10 15/28/11 7/11/12
s 4
f 5/9/13 6/10/14 68/106/15 52/90/16
s 5
f 13/25/17 14/27/18 3/7/19 2/2/20
s 1
f 76/115/21 77/116/22 10/16/23 17/32/24
s 2
f 77/116/25 78/117/26 11/18/27 10/16/28
s 3
f 78/117/29 79/118/30 16/31/31 11/18/32
s 4
f 85/124/33 69/107/34 9/22/35 12/20/36
s 6
f 16/30/37 17/32/38 10/16/39 11/24/40
s 5
f 46/79/41 47/81/42 25/46/43 26/47/44
s 3
f 63/101/45 64/102/46 48/82/47 30/53/48
f 80/119/49 81/120/50 49/85/51 29/52/52
s 6
f 49/84/53 50/86/54 28/50/55 29/51/56
s 1
f 73/112/57 74/113/58 28/50/59 50/86/60
s 11
f 96/139/61 97/140/62 98/141/63 99/142/64
s 5
f 31/55/65 32/57/66 40/70/67 41/71/68
s 3
f 66/104/69 67/105/70 33/58/71 45/77/72
f 83/122/73 84/123/74 34/61/75 44/76/76
s 6
f 34/60/77 35/62/78 43/74/79 44/75/80
s 1
f 70/109/81 71/110/82 43/74/83 35/62/84
f 53/91/85 54/92/86 42/72/87 36/63/88
s 5
f 26/47/44 25/46/43 14/27/18 13/25/17 37/65/89
s 1
f 57/95/90 58/96/91 38/66/92 27/48/93
f 74/113/58 75/114/94 39/68/95 28/50/59
s 6
f 29/51/56 28/50/55 39/68/96 17/32/38 16/30/37
s 3
f 79/118/30 80/119/49 29/52/52 16/31/31
f 62/100/10 63/101/45 30/53/48 15/28/11
s 5
f 86/125/97 87/127/98 32/57/66 31/55/65
s 3
f 88/128/99 89/129/100 33/58/71 67/105/70
f 84/123/74 90/131/101 91/133/102 34/61/75
s 6
f 91/132/103 92/134/104 35/62/78 34/60/77
s 1
f 92/134/105 93/135/106 70/109/81 35/62/84
s 18
f 102/143/107 103/144/108 104/145/109 105/146/110
s 19
f 108/147/111 109/148/112 110/149/113 111/150/114
s 1
f 75/114/94 76/115/21 17/32/24 39/68/95
s 5
f 41/71/68 40/70/67 20/37/115 19/35/116
s 20
f 114/151/117 115/152/118 116/153/119 117/154/120
s 1
f 71/110/82 72/111/121 23/42/122 43/74/83
s 6
f 44/75/80 43/74/79 23/42/123 22/40/124
s 3
f 82/121/125 83/122/73 44/76/76 22/41/126
f 65/103/127 66/104/69 45/77/72 21/38/128
s 5
f 19/35/116 20/37/115 47/81/42 46/79/41
s 3
f 64/102/46 65/103/127 21/38/128 48/82/47
f 81/120/50 82/121/125 22/41/126 49/85/51
s 6
f 22/40/124 23/42/123 50/86/54 49/84/53
s 1
f 72/111/121 73/112/57 50/86/60 23/42/122
f 55/93/129 56/94/130 51/87/131 24/43/132
f 31/55/133 53/91/85 95/138/134 86/125/135
f 41/71/136 54/92/86 53/91/85 31/55/133
f 19/35/137 55/93/129 54/92/86 41/71/136
f 46/79/138 56/94/130 55/93/129 19/35/137
f 26/47/139 57/95/90 56/94/130 46/79/138
f 37/65/140 58/96/91 57/95/90 26/47/139
f 13/25/141 59/97/3 58/96/91 37/65/140
f 60/98/4 59/97/3 13/25/141 2/2/142
s 2
f 61/99/8 60/98/7 2/2/143 3/3/144
s 3
f 14/26/145 62/100/10 61/99/9 3/3/146
f 25/45/147 63/101/45 62/100/10 14/26/145
f 47/80/148 64/102/46 63/101/45 25/45/147
f 20/36/149 65/103/127 64/102/46 47/80/148
f 40/69/150 66/104/69 65/103/127 20/36/149
f 32/56/151 67/105/70 66/104/69 40/69/150
f 87/126/152 88/128/99 67/105/70 32/56/151
s 4
f 52/90/16 68/106/15 4/4/153 1/5/154
s 18
f 105/155/110 106/156/155 107/157/156 102/158/107
s 1
f 42/73/87 71/110/82 70/109/81 36/64/88
s 20
f 116/159/119 118/160/157 119/161/158 117/162/120
s 1
f 51/88/131 73/112/57 72/111/121 24/44/132
s 11
f 98/163/63 100/164/159 101/165/160 99/166/64
s 1
f 38/67/92 75/114/94 74/113/58 27/49/93
s 19
f 110/167/113 112/168/161 113/169/162 111/170/114
s 1
f 8/13/1 77/116/22 76/115/21 18/34/2
s 2
f 7/17/5 78/117/26 77/116/25 8/13/6
s 3
f 15/29/11 79/118/30 78/117/29 7/17/12
f 30/54/48 80/119/49 79/118/30 15/29/11
f 48/83/47 81/120/50 80/119/49 30/54/48
f 21/39/128 82/121/125 81/120/50 48/83/47
f 45/78/72 83/122/73 82/121/125 21/39/128
f 33/59/71 84/123/74 83/122/73 45/78/72
f 89/130/100 90/131/101 84/123/74 33/59/71
s 4
f 5/21/13 69/107/34 85/124/33 6/19/14
s 5
f 1/1/163 4/6/164 87/127/98 86/125/97
s 3
f 68/106/165 88/128/99 87/126/152 4/4/166
f 6/10/167 89/129/100 88/128/99 68/106/165
f 6/19/167 85/124/168 90/131/101 89/130/100
f 91/133/102 90/131/101 85/124/168 12/20/169
s 6
f 9/15/170 92/134/104 91/132/103 12/23/171
s 1
f 69/108/172 93/135/106 92/134/105 9/15/173
f 94/137/174 93/135/106 69/108/172 5/14/175
f 52/89/176 95/138/134 94/136/174 5/8/175
f 86/125/135 95/138/134 52/89/176 1/1/177
s off
f 56/94/178 57/95/179 97/140/180 96/139/181
f 57/95/182 27/48/183 98/141/184 97/140/185
f 51/87/186 56/94/187 96/139/188 99/142/189
f 27/136/190 74/138/191 100/144/192 98/143/193
f 74/138/194 73/91/195 101/145/196 100/144/197
f 73/91/198 51/63/199 99/146/200 101/145/201
f 94/96/202 95/97/203 103/148/204 102/147/205
f 95/97/206 53/33/207 104/149/208 103/148/209
f 53/66/210 36/96/211 105/147/212 104/150/213
f 36/92/214 70/93/215 106/152/216 105/151/217
f 70/93/218 93/43/219 107/153/220 106/152/221
f 93/72/222 94/92/223 102/151/224 107/154/225
f 58/64/226 59/109/227 109/156/228 108/155/229
f 59/109/230 18/135/231 110/157/232 109/156/233
f 38/135/234 58/137/235 108/158/236 111/157/237
f 18/44/238 76/111/239 112/160/240 110/159/241
f 76/111/242 75/110/243 113/161/244 112/160/245
f 75/110/246 38/73/247 111/162/248 113/161/249
f 54/49/250 55/113/251 115/164/252 114/163/253
f 55/113/254 24/112/255 116/165/256 115/164/257
f 42/112/258 54/88/259 114/166/260 117/165/261
f 24/34/262 72/115/263 118/168/264 116/167/265
f 72/115/266 71/114/267 119/169/268 118/168/269
f 71/114/270 42/67/271 117/170/272 119/169/273
