# This file uses centimeters as units for non-parametric coordinates.

mtllib three block.mtl
g default
v -4.331424 0.061705 5.859435
v -4.212127 0.000252 5.870167
v -4.207382 0.063389 5.984056
v -4.184359 0.198832 6.001999
v -4.306730 0.197571 5.950366
v -4.357413 0.196336 5.825680
v 4.305519 0.199757 5.949193
v 4.181067 0.201756 6.001057
v 4.205407 0.064224 5.983582
v 4.211575 0.000252 5.869615
v 4.331147 0.062104 5.858378
v 4.357055 0.197727 5.823977
v -4.305515 0.199748 -5.949200
v -4.181067 0.201756 -6.001057
v -4.205407 0.064224 -5.983582
v -4.211575 0.000252 -5.869615
v -4.331147 0.062104 -5.858378
v -4.357055 0.197727 -5.823977
v 4.305517 0.199744 -5.949200
v 4.357055 0.197727 -5.823977
v 4.331322 0.062082 -5.858665
v 4.212127 0.000252 -5.870167
v 4.205849 0.064245 -5.983747
v 4.181067 0.201756 -6.001057
v -3.440559 3.590895 4.752034
v -3.511296 3.483532 4.782756
v -3.461799 3.479072 4.899288
v -3.342191 3.474716 4.947433
v -3.321472 3.588525 4.868447
v -3.318278 3.633159 4.741922
v 3.440557 3.590899 4.752045
v 3.318278 3.633159 4.741922
v 3.328195 3.593324 4.866470
v 3.354245 3.489341 4.942725
v 3.465322 3.486519 4.895853
v 3.511296 3.483532 4.782756
v -3.440557 3.590899 -4.752045
v -3.318278 3.633159 -4.741922
v -3.328195 3.593324 -4.866470
v -3.354245 3.489341 -4.942725
v -3.465322 3.486519 -4.895853
v -3.511296 3.483532 -4.782756
v 3.440557 3.590899 -4.752045
v 3.511296 3.483532 -4.782756
v 3.461799 3.479072 -4.899288
v 3.342191 3.474716 -4.947433
v 3.321496 3.588533 -4.868440
v 3.318278 3.633159 -4.741922
v -4.305048 0.089337 5.955511
v 4.304110 0.090251 5.954754
v -4.304108 0.090248 -5.954757
v 4.304303 0.090246 -5.954872
v -3.421306 3.570153 4.852076
v 3.424230 3.573555 4.850186
v -3.424230 3.573555 -4.850186
v 3.421313 3.570158 -4.852077
vt 0.858420 0.636179
vt 0.857495 0.639886
vt 0.538246 0.639925
vt 0.537304 0.636190
vt 0.860911 0.639920
vt 0.861052 0.636940
vt 0.828914 0.730414
vt 0.566780 0.730414
vt 0.534815 0.639980
vt 0.534663 0.636965
vt 0.832108 0.730291
vt 0.828072 0.733371
vt 0.567622 0.733371
vt 0.563681 0.730496
vt 0.830814 0.732800
vt 0.564932 0.732893
vt 0.534776 0.539565
vt 0.538208 0.539509
vt 0.566742 0.629999
vt 0.563642 0.630081
vt 0.537265 0.535774
vt 0.534624 0.536549
vt 0.857409 0.539509
vt 0.828875 0.629999
vt 0.567583 0.632955
vt 0.564893 0.632478
vt 0.858360 0.535774
vt 0.860841 0.539565
vt 0.832069 0.629876
vt 0.828034 0.632955
vt 0.860996 0.536549
vt 0.830775 0.632384
vt 0.992976 0.908644
vt 0.992864 0.909965
vt 0.871189 0.909962
vt 0.871072 0.908638
vt 0.994158 0.908592
vt 0.993862 0.909673
vt 0.869888 0.908570
vt 0.870188 0.909663
vt 0.992970 0.815385
vt 0.871066 0.815379
vt 0.994153 0.815453
vt 0.869887 0.815448
vt 0.992853 0.814061
vt 0.871185 0.814059
vt 0.993854 0.814361
vt 0.870186 0.814358
vt 0.871405 0.985562
vt 0.871517 0.984260
vt 0.975863 0.984260
vt 0.975975 0.985562
vt 0.870125 0.984294
vt 0.870305 0.985357
vt 0.871517 0.913575
vt 0.975863 0.913575
vt 0.977233 0.984366
vt 0.977054 0.985389
vt 0.870146 0.913469
vt 0.871405 0.912273
vt 0.975975 0.912273
vt 0.977255 0.913541
vt 0.870325 0.912446
vt 0.977075 0.912477
vt 0.559484 0.744024
vt 0.558737 0.739264
vt 0.831874 0.739293
vt 0.831084 0.744127
vt 0.555511 0.743980
vt 0.555566 0.740176
vt 0.835124 0.744056
vt 0.835078 0.740208
vt 0.586827 0.859158
vt 0.804239 0.859672
vt 0.582944 0.859311
vt 0.807846 0.859573
vt 0.587499 0.863158
vt 0.803393 0.863327
vt 0.584258 0.862512
vt 0.806511 0.862632
vt 0.831084 0.873471
vt 0.835124 0.873400
vt 0.807846 0.988916
vt 0.804240 0.989016
vt 0.831874 0.868637
vt 0.835078 0.869551
vt 0.803394 0.992671
vt 0.806512 0.991975
vt 0.559592 0.873471
vt 0.586827 0.988502
vt 0.558787 0.868637
vt 0.587499 0.992502
vt 0.555551 0.873399
vt 0.582944 0.988655
vt 0.555590 0.869551
vt 0.584258 0.991856
vn -0.006834 -0.999963 0.005217
vn -0.458592 -0.888642 0.002946
vn -0.458606 -0.888634 -0.003071
vn -0.006820 -0.999963 -0.005217
vn -0.982302 -0.187272 0.003541
vn -0.974029 0.226345 0.006009
vn -0.974060 0.226218 -0.005717
vn -0.982313 -0.187208 -0.003733
vn -0.007520 0.285950 0.958215
vn -0.004482 -0.127321 0.991852
vn 0.004830 -0.127195 0.991866
vn 0.007646 0.285954 0.958213
vn -0.004287 -0.873493 0.486818
vn 0.006841 -0.999963 0.005183
vn 0.004427 -0.873450 0.486893
vn -0.872101 0.326350 0.364602
vn -0.865623 0.344099 0.363721
vn -0.966205 0.257755 0.003344
vn -0.351254 0.355364 0.866220
vn -0.005062 0.315143 0.949031
vn -0.348681 0.372107 0.860208
vn 0.366041 0.355368 0.860074
vn 0.364628 0.372467 0.853414
vn 0.005023 0.314933 0.949101
vn 0.878891 0.322860 0.351158
vn 0.974061 0.226214 0.005715
vn 0.966211 0.257732 0.003291
vn 0.872865 0.340916 0.349117
vn 0.982607 -0.185661 0.003687
vn 0.982611 -0.185639 -0.003678
vn 0.974041 0.226294 -0.006023
vn 0.459860 -0.887986 0.003055
vn 0.006831 -0.999963 -0.005214
vn 0.459872 -0.887980 -0.003012
vn -0.007644 0.285941 -0.958217
vn -0.366037 0.355366 -0.860077
vn -0.364625 0.372466 -0.853416
vn -0.005026 0.314939 -0.949099
vn -0.878885 0.322863 -0.351172
vn -0.966211 0.257730 -0.003290
vn -0.872858 0.340920 -0.349131
vn -0.004372 -0.871786 -0.489867
vn 0.004321 -0.871777 -0.489883
vn -0.004697 -0.124047 -0.992265
vn 0.007575 0.285858 -0.958242
vn 0.004696 -0.124016 -0.992269
vn 0.871595 0.326501 -0.365677
vn 0.865215 0.344104 -0.364686
vn 0.966202 0.257764 -0.003365
vn 0.350314 0.354954 -0.866768
vn 0.005089 0.315154 -0.949027
vn 0.347849 0.371780 -0.860686
vn -0.834884 0.550421 0.002361
vn -0.834909 0.550385 -0.001982
vn -0.326064 0.945342 0.003211
vn -0.006529 0.999969 0.004433
vn -0.006517 0.999968 -0.004563
vn -0.326169 0.945308 -0.002694
vn -0.004142 0.947902 0.318534
vn 0.003817 0.948091 0.317975
vn 0.006517 0.999968 0.004563
vn -0.003737 0.580454 0.814284
vn 0.002621 0.580751 0.814077
vn 0.326159 0.945311 0.002694
vn 0.326054 0.945346 -0.003210
vn 0.006529 0.999969 -0.004433
vn 0.834909 0.550385 0.001982
vn 0.834885 0.550420 -0.002361
vn -0.002621 0.580754 -0.814075
vn 0.003737 0.580457 -0.814282
vn -0.003817 0.948098 -0.317956
vn 0.004142 0.947909 -0.318514
vn -0.940590 -0.053455 0.335312
vn -0.403646 -0.816496 0.412801
vn -0.344200 -0.019155 0.938701
vn 0.939225 -0.049287 0.339745
vn 0.341312 -0.013648 0.939851
vn 0.404227 -0.812671 0.419721
vn -0.939223 -0.049284 -0.339751
vn -0.341288 -0.013662 -0.939859
vn -0.404215 -0.812683 -0.419710
vn 0.341623 -0.011680 -0.939765
vn 0.939341 -0.047332 -0.339702
vn 0.405523 -0.811453 -0.420827
vn -0.259922 0.922714 0.284673
vn -0.772365 0.554554 0.309715
vn -0.266157 0.561916 0.783206
vn 0.785182 0.557560 0.269475
vn 0.271306 0.930342 0.246691
vn 0.294211 0.585544 0.755366
vn -0.785182 0.557560 -0.269475
vn -0.271306 0.930342 -0.246691
vn -0.294211 0.585544 -0.755366
vn 0.259917 0.922731 -0.284623
vn 0.772403 0.554507 -0.309701
vn 0.266163 0.561878 -0.783231
s 1
g three_block
usemtl initialShadingGroup
f 2/33/1 1/34/2 17/35/3 16/36/4
s 2
f 1/1/5 6/2/6 18/3/7 17/4/8
s 3
f 4/65/9 3/66/10 9/67/11 8/68/12
s 1
f 3/37/13 2/33/1 10/41/14 9/43/15
s 2
f 6/2/6 5/5/16 27/11/17 26/7/18
s 3
f 5/69/19 4/65/9 28/73/20 27/75/21
f 8/68/12 7/71/22 35/76/23 34/74/24
s 4
f 7/17/25 12/18/26 36/19/27 35/20/28
f 12/18/26 11/21/29 21/27/30 20/23/31
s 1
f 11/45/32 10/41/14 22/42/33 21/46/34
s 5
f 14/81/35 13/82/36 41/83/37 40/84/38
s 2
f 13/9/39 18/3/7 42/8/40 41/14/41
s 1
f 16/36/4 15/39/42 23/44/43 22/42/33
s 5
f 15/85/44 14/81/35 24/89/45 23/91/46
s 4
f 20/23/31 19/28/47 45/29/48 44/24/49
s 5
f 19/93/50 24/89/45 46/90/51 45/94/52
s 2
f 26/7/18 25/12/53 37/13/54 42/8/40
s 6
f 25/49/55 30/50/56 38/51/57 37/52/58
f 30/50/56 29/53/59 33/59/60 32/55/61
s 3
f 29/77/62 28/73/20 34/74/24 33/78/63
s 6
f 32/55/61 31/60/64 43/61/65 48/56/66
s 4
f 31/25/67 36/19/27 44/24/49 43/30/68
s 5
f 40/84/38 39/87/69 47/92/70 46/90/51
s 6
f 39/57/71 38/51/57 48/56/66 47/62/72
s 3
f 28/73/20 4/65/9 8/68/12 34/74/24
s 5
f 24/89/45 14/81/35 40/84/38 46/90/51
s 4
f 12/18/26 20/23/31 44/24/49 36/19/27
s 2
f 18/3/7 6/2/6 26/7/18 42/8/40
s 1
f 10/41/14 2/33/1 16/36/4 22/42/33
s 6
f 30/50/56 32/55/61 48/56/66 38/51/57
s 2
f 5/5/16 6/2/6 1/1/5 49/6/73
s 1
f 1/34/2 2/33/1 3/37/13 49/38/74
s 3
f 3/66/10 4/65/9 5/69/19 49/70/75
s 4
f 11/21/29 12/18/26 7/17/25 50/22/76
s 3
f 7/71/22 8/68/12 9/67/11 50/72/77
s 1
f 9/43/15 10/41/14 11/45/32 50/47/78
s 2
f 17/4/8 18/3/7 13/9/39 51/10/79
s 5
f 13/82/36 14/81/35 15/85/44 51/86/80
s 1
f 15/39/42 16/36/4 17/35/3 51/40/81
s 5
f 23/91/46 24/89/45 19/93/50 52/95/82
s 4
f 19/28/47 20/23/31 21/27/30 52/31/83
s 1
f 21/46/34 22/42/33 23/44/43 52/48/84
s 6
f 29/53/59 30/50/56 25/49/55 53/54/85
s 2
f 25/12/53 26/7/18 27/11/17 53/15/86
s 3
f 27/75/21 28/73/20 29/77/62 53/79/87
s 4
f 35/20/28 36/19/27 31/25/67 54/26/88
s 6
f 31/60/64 32/55/61 33/59/60 54/63/89
s 3
f 33/78/63 34/74/24 35/76/23 54/80/90
s 2
f 41/14/41 42/8/40 37/13/54 55/16/91
s 6
f 37/52/58 38/51/57 39/57/71 55/58/92
s 5
f 39/87/69 40/84/38 41/83/37 55/88/93
s 6
f 47/62/72 48/56/66 43/61/65 56/64/94
s 4
f 43/30/68 44/24/49 45/29/48 56/32/95
s 5
f 45/94/52 46/90/51 47/92/70 56/96/96
