# This file uses centimeters as units for non-parametric coordinates.

mtllib four block.mtl
g default
v -5.425771 0.066233 -7.360826
v -5.449635 0.204369 -7.317207
v -5.397253 0.208125 -7.444071
v -5.270694 0.211850 -7.496593
v -5.297721 0.070126 -7.487311
v -5.304245 0.002385 -7.375827
v -4.432281 3.619111 -5.996203
v -4.307884 3.662723 -5.986486
v -4.309600 3.623267 -6.114812
v -4.328928 3.522507 -6.196228
v -4.454339 3.516093 -6.148007
v -4.506175 3.509881 -6.031281
v 5.425771 0.066233 -7.360826
v 5.304245 0.002385 -7.375827
v 5.299776 0.068923 -7.487842
v 5.275170 0.207888 -7.498150
v 5.398540 0.206128 -7.445167
v 5.449635 0.204369 -7.317207
v 4.432281 3.619111 -5.996203
v 4.506175 3.509881 -6.031281
v 4.454889 3.517046 -6.147503
v 4.330719 3.524387 -6.195489
v 4.310571 3.623885 -6.114480
v 4.307884 3.662723 -5.986486
v 5.299291 0.068947 7.487527
v 5.303237 0.002385 7.374819
v 5.425445 0.066286 7.360316
v 5.449635 0.204369 7.317207
v 5.398541 0.206142 7.445159
v 5.275170 0.207888 7.498150
v 4.310129 3.623210 6.115181
v 4.328928 3.522507 6.196228
v 4.454557 3.515578 6.147807
v 4.506465 3.508864 6.030551
v 4.432784 3.618693 5.996360
v 4.308961 3.662723 5.987564
v -5.425771 0.066232 7.360831
v -5.304245 0.002385 7.375827
v -5.299773 0.068923 7.487842
v -5.275170 0.207888 7.498150
v -5.398541 0.206142 7.445159
v -5.449635 0.204369 7.317207
v -4.432280 3.619112 5.996198
v -4.506175 3.509881 6.031281
v -4.454891 3.517042 6.147503
v -4.330719 3.524387 6.195489
v -4.310574 3.623884 6.114480
v -4.307884 3.662723 5.986486
v -5.397906 0.096334 -7.456538
v -4.412396 3.602565 -6.097862
v 5.398741 0.095464 -7.457076
v 4.412831 3.603004 -6.097568
v 5.398519 0.095512 7.456841
v 4.412781 3.602253 6.097952
v -5.398741 0.095470 7.457073
v -4.412832 3.603004 6.097565
vt 0.147332 0.650319
vt 0.146211 0.646451
vt 0.524714 0.646451
vt 0.523592 0.650319
vt 0.144071 0.650425
vt 0.143750 0.647294
vt 0.526882 0.650369
vt 0.527188 0.647270
vt 0.490530 0.742887
vt 0.180395 0.742887
vt 0.177393 0.743061
vt 0.493519 0.743088
vt 0.181296 0.745946
vt 0.489628 0.745946
vt 0.178683 0.745483
vt 0.492235 0.745495
vt 0.522448 0.541182
vt 0.521326 0.545051
vt 0.145067 0.545051
vt 0.143958 0.541184
vt 0.524616 0.545100
vt 0.524922 0.542001
vt 0.488265 0.637618
vt 0.178147 0.637590
vt 0.141777 0.545101
vt 0.141477 0.542002
vt 0.491253 0.637819
vt 0.487363 0.640677
vt 0.179027 0.640666
vt 0.175132 0.637778
vt 0.489969 0.640226
vt 0.176414 0.640205
vt 0.005253 0.725417
vt 0.006621 0.725245
vt 0.006621 0.895082
vt 0.005253 0.894910
vt 0.006695 0.723961
vt 0.005567 0.724315
vt 0.126080 0.725245
vt 0.126069 0.895071
vt 0.006672 0.896372
vt 0.005557 0.896018
vt 0.126029 0.723955
vt 0.127448 0.725417
vt 0.127445 0.894904
vt 0.126024 0.896368
vt 0.127144 0.724309
vt 0.127141 0.896015
vt 0.009437 0.904983
vt 0.009341 0.903753
vt 0.126800 0.903753
vt 0.126705 0.904983
vt 0.008180 0.904966
vt 0.008346 0.903950
vt 0.127959 0.904956
vt 0.127793 0.903946
vt 0.009437 0.990139
vt 0.126716 0.990150
vt 0.008183 0.990166
vt 0.127966 0.990162
vt 0.009341 0.991369
vt 0.126802 0.991374
vt 0.008348 0.991177
vt 0.127797 0.991176
vt 0.520382 0.877977
vt 0.524910 0.877857
vt 0.491176 0.985053
vt 0.486690 0.985261
vt 0.521348 0.873384
vt 0.524933 0.874234
vt 0.485998 0.988526
vt 0.489676 0.987855
vt 0.176888 0.985322
vt 0.143100 0.877848
vt 0.142219 0.873345
vt 0.177609 0.988546
vt 0.138686 0.877791
vt 0.172446 0.985084
vt 0.138679 0.874205
vt 0.173951 0.987869
vt 0.521382 0.752135
vt 0.520519 0.756638
vt 0.143077 0.756638
vt 0.142197 0.752135
vt 0.524933 0.756581
vt 0.524932 0.752996
vt 0.486667 0.864050
vt 0.176865 0.864111
vt 0.138664 0.756581
vt 0.138656 0.752995
vt 0.491161 0.863826
vt 0.485995 0.867313
vt 0.177586 0.867335
vt 0.172423 0.863873
vt 0.489667 0.866634
vt 0.173928 0.866659
vn -0.968429 0.249237 -0.005067
vn -0.985637 -0.168845 -0.003195
vn -0.985631 -0.168884 0.003108
vn -0.968431 0.249230 0.005037
vn -0.465081 -0.885265 -0.002482
vn -0.005531 -0.999975 -0.004363
vn -0.005530 -0.999975 0.004368
vn -0.465082 -0.885264 0.002404
vn -0.006273 0.345115 -0.938539
vn -0.351002 0.415490 -0.839146
vn -0.349234 0.430984 -0.832039
vn -0.003882 0.373486 -0.927628
vn -0.861228 0.367419 -0.351126
vn -0.959326 0.282288 -0.002636
vn -0.854199 0.385278 -0.349148
vn -0.003664 -0.857311 -0.514787
vn 0.003617 -0.857375 -0.514679
vn 0.005532 -0.999975 -0.004405
vn -0.003973 -0.068331 -0.997655
vn 0.006205 0.345225 -0.938500
vn 0.003639 -0.068487 -0.997645
vn -0.005200 0.999981 -0.003242
vn -0.330411 0.943835 -0.002207
vn -0.330422 0.943831 0.002153
vn -0.005199 0.999981 0.003258
vn -0.828111 0.560562 -0.001688
vn -0.959329 0.282277 0.002608
vn -0.828114 0.560557 0.001646
vn -0.002849 0.630002 -0.776588
vn 0.002729 0.630038 -0.776559
vn 0.003864 0.373451 -0.927642
vn -0.003135 0.956489 -0.291752
vn 0.005224 0.999981 -0.003256
vn 0.003105 0.956506 -0.291696
vn 0.464221 -0.885716 -0.002376
vn 0.464206 -0.885724 0.002438
vn 0.005546 -0.999975 0.004378
vn 0.985432 -0.170040 -0.003096
vn 0.968449 0.249160 -0.005038
vn 0.968435 0.249215 0.005076
vn 0.985427 -0.170073 0.003105
vn 0.863800 0.365927 -0.346332
vn 0.856563 0.384212 -0.344501
vn 0.959338 0.282248 -0.002608
vn 0.355543 0.416240 -0.836859
vn 0.353636 0.431524 -0.829897
vn 0.829194 0.558959 -0.001638
vn 0.829206 0.558941 0.001710
vn 0.959327 0.282285 0.002621
vn 0.332498 0.943102 -0.002161
vn 0.005206 0.999981 0.003238
vn 0.332533 0.943089 0.002185
vn 0.003732 -0.860583 0.509296
vn -0.003640 -0.860566 0.509326
vn 0.003786 -0.073938 0.997256
vn 0.006226 0.345230 0.938497
vn -0.006207 0.345192 0.938512
vn -0.003773 -0.073901 0.997259
vn 0.354431 0.416272 0.837315
vn 0.352483 0.431500 0.830400
vn 0.003874 0.373467 0.927635
vn 0.863211 0.366295 0.347413
vn 0.855940 0.384535 0.345687
vn 0.002882 0.629235 0.777210
vn -0.002747 0.629289 0.777166
vn -0.003861 0.373417 0.927656
vn 0.003138 0.956199 0.292702
vn -0.003134 0.956223 0.292621
vn -0.863808 0.365924 0.346317
vn -0.856571 0.384207 0.344486
vn -0.355543 0.416242 0.836858
vn -0.353635 0.431525 0.829897
vn -0.414367 -0.794487 -0.443950
vn -0.940142 -0.010875 -0.340609
vn -0.340126 0.048935 -0.939106
vn -0.767979 0.576279 -0.279483
vn -0.271178 0.930060 -0.247894
vn -0.283588 0.611717 -0.738498
vn 0.943513 -0.015868 -0.330956
vn 0.417416 -0.799997 -0.431010
vn 0.348239 0.040612 -0.936526
vn 0.272606 0.930949 -0.242940
vn 0.769751 0.576581 -0.273930
vn 0.287150 0.614901 -0.734467
vn 0.347951 0.037574 0.936760
vn 0.415276 -0.802395 0.428611
vn 0.943587 -0.019029 0.330578
vn 0.275677 0.928365 0.249279
vn 0.287016 0.609215 0.739242
vn 0.771149 0.572350 0.278828
vn -0.943509 -0.015853 0.330967
vn -0.417420 -0.799976 0.431044
vn -0.348267 0.040627 0.936514
vn -0.272611 0.930946 0.242945
vn -0.769751 0.576582 0.273929
vn -0.287163 0.614905 0.734459
s 1
g four_block
usemtl initialShadingGroup
f 2/1/1 1/2/2 37/3/3 42/4/4
s 2
f 1/33/5 6/34/6 38/35/7 37/36/8
s 3
f 4/65/9 3/66/10 11/67/11 10/68/12
s 1
f 3/5/13 2/1/1 12/10/14 11/11/15
s 2
f 6/34/6 5/37/16 15/43/17 14/39/18
s 3
f 5/69/19 4/65/9 16/74/20 15/75/21
s 4
f 8/49/22 7/50/23 43/51/24 48/52/25
s 1
f 7/13/26 12/10/14 44/9/27 43/14/28
s 3
f 10/68/12 9/71/29 23/76/30 22/73/31
s 4
f 9/53/32 8/49/22 24/57/33 23/59/34
s 2
f 14/39/18 13/44/35 27/45/36 26/40/37
s 5
f 13/17/38 18/18/39 28/19/40 27/20/41
f 18/18/39 17/21/42 21/27/43 20/23/44
s 3
f 17/77/45 16/74/20 22/73/31 21/78/46
s 5
f 20/23/44 19/28/47 35/29/48 34/24/49
s 4
f 19/61/50 24/57/33 36/58/51 35/62/52
s 2
f 26/40/37 25/46/53 39/41/54 38/35/7
s 6
f 25/81/55 30/82/56 40/83/57 39/84/58
f 30/82/56 29/85/59 33/91/60 32/87/61
s 5
f 29/25/62 28/19/40 34/24/49 33/30/63
s 6
f 32/87/61 31/92/64 47/93/65 46/88/66
s 4
f 31/60/67 36/58/51 48/52/25 47/55/68
s 1
f 42/4/4 41/7/69 45/12/70 44/9/27
s 6
f 41/89/71 40/83/57 46/88/66 45/94/72
s 2
f 6/34/6 14/39/18 26/40/37 38/35/7
s 3
f 10/68/12 22/73/31 16/74/20 4/65/9
s 5
f 20/23/44 34/24/49 28/19/40 18/18/39
s 6
f 32/87/61 46/88/66 40/83/57 30/82/56
s 1
f 44/9/27 12/10/14 2/1/1 42/4/4
s 4
f 24/57/33 8/49/22 48/52/25 36/58/51
s 2
f 5/37/16 6/34/6 1/33/5 49/38/73
s 1
f 1/2/2 2/1/1 3/5/13 49/6/74
s 3
f 3/66/10 4/65/9 5/69/19 49/70/75
s 1
f 11/11/15 12/10/14 7/13/26 50/15/76
s 4
f 7/50/23 8/49/22 9/53/32 50/54/77
s 3
f 9/71/29 10/68/12 11/67/11 50/72/78
s 5
f 17/21/42 18/18/39 13/17/38 51/22/79
s 2
f 13/44/35 14/39/18 15/43/17 51/47/80
s 3
f 15/75/21 16/74/20 17/77/45 51/79/81
s 4
f 23/59/34 24/57/33 19/61/50 52/63/82
s 5
f 19/28/47 20/23/44 21/27/43 52/31/83
s 3
f 21/78/46 22/73/31 23/76/30 52/80/84
s 6
f 29/85/59 30/82/56 25/81/55 53/86/85
s 2
f 25/46/53 26/40/37 27/45/36 53/48/86
s 5
f 27/20/41 28/19/40 29/25/62 53/26/87
s 4
f 35/62/52 36/58/51 31/60/67 54/64/88
s 6
f 31/92/64 32/87/61 33/91/60 54/95/89
s 5
f 33/30/63 34/24/49 35/29/48 54/32/90
s 1
f 41/7/69 42/4/4 37/3/3 55/8/91
s 2
f 37/36/8 38/35/7 39/41/54 55/42/92
s 6
f 39/84/58 40/83/57 41/89/71 55/90/93
s 4
f 47/55/68 48/52/25 43/51/24 56/56/94
s 1
f 43/14/28 44/9/27 45/12/70 56/16/95
s 6
f 45/94/72 46/88/66 47/93/65 56/96/96
