# This file uses centimeters as units for non-parametric coordinates.

mtllib one block.mtl
g default
v -1.922859 2.221444 2.954473
v -1.844218 2.222286 2.987294
v -1.832100 2.295932 2.937251
v -1.831070 2.324933 2.857019
v -1.909533 2.294976 2.859280
v -1.955430 2.220599 2.875226
v 1.922859 2.221444 2.954473
v 1.955430 2.220599 2.875226
v 1.908829 2.295061 2.858113
v 1.828938 2.324933 2.854886
v 1.830961 2.296005 2.936555
v 1.844218 2.222286 2.987294
v -1.922859 2.221444 -2.954473
v -1.955430 2.220599 -2.875226
v -1.908829 2.295061 -2.858113
v -1.828938 2.324933 -2.854886
v -1.830961 2.296005 -2.936555
v -1.844218 2.222286 -2.987294
v 1.922859 2.221444 -2.954473
v 1.844218 2.222286 -2.987294
v 1.832100 2.295932 -2.937251
v 1.831070 2.324933 -2.857019
v 1.909535 2.294973 -2.859273
v 1.955430 2.220599 -2.875226
v -2.390926 0.040670 -3.637463
v -2.393811 0.000000 -3.563478
v -2.471127 0.039652 -3.556976
v -2.488211 0.126520 -3.535711
v -2.455451 0.127303 -3.616216
v -2.376352 0.128088 -3.649561
v 2.471234 0.039638 -3.557152
v 2.394151 0.000000 -3.563819
v 2.391096 0.040664 -3.637568
v 2.376352 0.128088 -3.649561
v 2.455450 0.127306 -3.616217
v 2.488211 0.126520 -3.535711
v -2.390926 0.040670 3.637463
v -2.376352 0.128088 3.649561
v -2.455286 0.127756 3.615895
v -2.487983 0.127416 3.534617
v -2.471061 0.039896 3.556481
v -2.393811 0.000000 3.563478
v 2.390924 0.040670 3.637463
v 2.393811 0.000000 3.563478
v 2.471127 0.039652 3.556977
v 2.488211 0.126520 3.535711
v 2.455450 0.127306 3.616217
v 2.376352 0.128088 3.649561
v -1.896782 2.282301 2.925020
v 1.896262 2.282392 2.924493
v -1.896262 2.282392 -2.924493
v 1.896783 2.282300 -2.925018
v -2.454138 0.057438 -3.619164
v 2.454214 0.057429 -3.619243
v -2.454062 0.057624 3.618959
v 2.454137 0.057439 3.619165
vt 0.813032 0.115875
vt 0.809271 0.115834
vt 0.840559 0.013199
vt 0.844416 0.013216
vt 0.808515 0.119481
vt 0.811634 0.118859
vt 0.505080 0.013155
vt 0.536419 0.115834
vt 0.841596 0.008908
vt 0.844561 0.009777
vt 0.537231 0.119485
vt 0.504071 0.008896
vt 0.532659 0.115875
vt 0.501260 0.013194
vt 0.534081 0.118864
vt 0.501120 0.009768
vt 0.536417 0.229824
vt 0.532657 0.229866
vt 0.501258 0.127184
vt 0.505078 0.127146
vt 0.537229 0.233475
vt 0.534079 0.232854
vt 0.504069 0.122886
vt 0.501118 0.123759
vt 0.840609 0.127146
vt 0.809270 0.229824
vt 0.808513 0.233471
vt 0.841626 0.122885
vt 0.813030 0.229866
vt 0.844429 0.127184
vt 0.811633 0.232850
vt 0.844572 0.123758
vt 0.847934 0.511534
vt 0.846078 0.511556
vt 0.846094 0.433658
vt 0.847983 0.433701
vt 0.847881 0.513203
vt 0.846361 0.512932
vt 0.847908 0.432002
vt 0.846373 0.432269
vt 0.980080 0.433656
vt 0.980031 0.511489
vt 0.980105 0.513188
vt 0.980132 0.431987
vt 0.981919 0.511532
vt 0.981935 0.433634
vt 0.981641 0.512921
vt 0.981652 0.432258
vt 0.840524 0.428935
vt 0.839015 0.428872
vt 0.839013 0.325678
vt 0.840517 0.325612
vt 0.840657 0.430603
vt 0.839388 0.430236
vt 0.840653 0.323949
vt 0.839387 0.324316
vt 0.985892 0.325620
vt 0.985892 0.428935
vt 0.985749 0.430602
vt 0.985759 0.323951
vt 0.987401 0.428872
vt 0.987401 0.325682
vt 0.987023 0.430235
vt 0.987028 0.324318
vt 0.557272 0.376078
vt 0.552523 0.376026
vt 0.520371 0.248058
vt 0.525137 0.248078
vt 0.558004 0.380579
vt 0.554098 0.379746
vt 0.524257 0.242735
vt 0.520445 0.243771
vt 0.812148 0.248078
vt 0.780013 0.376078
vt 0.779213 0.380584
vt 0.813028 0.242735
vt 0.784762 0.376026
vt 0.816925 0.248030
vt 0.783156 0.379752
vt 0.816846 0.243760
vt 0.784763 0.516430
vt 0.780014 0.516482
vt 0.812149 0.388483
vt 0.816926 0.388435
vt 0.779213 0.520988
vt 0.783157 0.520156
vt 0.557273 0.516482
vt 0.525138 0.388483
vt 0.813029 0.383140
vt 0.816847 0.384164
vt 0.558005 0.520983
vt 0.552524 0.516430
vt 0.520362 0.388435
vt 0.524248 0.383139
vt 0.554099 0.520150
vt 0.520436 0.384163
vn -0.005985 0.310420 0.950581
vn -0.363041 0.368400 0.855852
vn -0.364776 0.352070 0.861966
vn -0.009018 0.280873 0.959703
vn -0.872846 0.338270 0.351730
vn -0.966843 0.255346 0.003650
vn -0.974714 0.223363 0.006403
vn -0.878893 0.320655 0.353167
vn -0.008099 0.999955 0.005002
vn -0.004911 0.941756 0.336261
vn 0.005243 0.941806 0.336117
vn 0.008142 0.999954 0.005030
vn -0.004294 0.564630 0.825333
vn 0.005976 0.310364 0.950599
vn 0.004375 0.564724 0.825268
vn -0.849236 0.528007 0.002580
vn -0.849199 0.528067 -0.002636
vn -0.966859 0.255286 -0.003651
vn -0.352970 0.935630 0.003113
vn -0.008142 0.999954 -0.005029
vn -0.352871 0.935666 -0.003330
vn 0.966860 0.255283 0.003650
vn 0.872315 0.338761 0.352572
vn 0.878345 0.321039 0.354180
vn 0.974697 0.223441 0.006382
vn 0.362083 0.368568 0.856185
vn 0.009025 0.280879 0.959701
vn 0.363780 0.351911 0.862451
vn 0.352881 0.935662 0.003330
vn 0.352980 0.935626 -0.003112
vn 0.008099 0.999955 -0.005002
vn 0.849199 0.528066 0.002636
vn 0.966844 0.255342 -0.003646
vn 0.849237 0.528006 -0.002580
vn -0.872316 0.338760 -0.352571
vn -0.878347 0.321036 -0.354179
vn -0.974705 0.223405 -0.006380
vn -0.362086 0.368569 -0.856184
vn -0.005976 0.310364 -0.950599
vn -0.009026 0.280908 -0.959692
vn -0.363783 0.351911 -0.862450
vn -0.004375 0.564724 -0.825268
vn 0.004295 0.564630 -0.825333
vn 0.005969 0.310417 -0.950582
vn -0.005243 0.941806 -0.336117
vn 0.004911 0.941756 -0.336261
vn 0.362147 0.368341 -0.856256
vn 0.363780 0.351957 -0.862433
vn 0.009024 0.280885 -0.959699
vn 0.872375 0.338544 -0.352633
vn 0.974702 0.223417 -0.006380
vn 0.878327 0.321090 -0.354179
vn -0.007767 -0.999955 -0.005500
vn -0.004977 -0.876218 -0.481888
vn 0.004913 -0.876208 -0.481909
vn 0.007733 -0.999955 -0.005494
vn -0.005235 -0.134942 -0.990840
vn 0.005226 -0.134914 -0.990843
vn -0.981770 -0.190038 -0.003751
vn -0.981781 -0.189979 0.003859
vn -0.457485 -0.889212 -0.003160
vn -0.007739 -0.999955 0.005501
vn -0.457515 -0.889196 0.003171
vn 0.456715 -0.889607 -0.003155
vn 0.456704 -0.889613 0.003197
vn 0.007742 -0.999955 0.005501
vn 0.981588 -0.190975 -0.003801
vn 0.981584 -0.190996 0.003807
vn -0.005279 -0.135507 0.990762
vn 0.005224 -0.135525 0.990760
vn -0.005006 -0.876525 0.481331
vn 0.004949 -0.876523 0.481335
vn -0.799836 0.523970 0.292776
vn -0.300798 0.547102 0.781153
vn -0.297347 0.911515 0.284121
vn 0.298019 0.554091 0.777282
vn 0.796128 0.531170 0.289895
vn 0.291085 0.915433 0.277942
vn -0.298019 0.554091 -0.777282
vn -0.796128 0.531170 -0.289895
vn -0.291085 0.915433 -0.277942
vn 0.799834 0.523980 -0.292765
vn 0.300809 0.547115 -0.781140
vn 0.297382 0.911510 -0.284102
vn -0.343553 -0.025649 -0.938783
vn -0.401216 -0.819026 -0.410149
vn -0.940245 -0.058550 -0.335427
vn 0.940268 -0.056852 -0.335656
vn 0.402359 -0.817843 -0.411388
vn 0.343766 -0.023987 -0.938749
vn -0.405370 -0.817584 0.408939
vn -0.347114 -0.024341 0.937507
vn -0.941462 -0.055789 0.332470
vn 0.343553 -0.025649 0.938783
vn 0.401212 -0.819022 0.410161
vn 0.940240 -0.058534 0.335443
s 1
g top_block
usemtl initialShadingGroup
f 2/65/1 1/66/2 39/67/3 38/68/4
s 2
f 1/1/5 6/2/6 40/3/7 39/4/8
s 3
f 4/33/9 3/34/10 11/35/11 10/36/12
s 1
f 3/69/13 2/65/1 12/74/14 11/75/15
s 2
f 6/2/6 5/5/16 15/11/17 14/8/18
s 3
f 5/37/19 4/33/9 16/42/20 15/43/21
s 4
f 8/17/22 7/18/23 47/19/24 46/20/25
s 1
f 7/77/26 12/74/14 48/73/27 47/78/28
s 3
f 10/36/12 9/39/29 23/44/30 22/41/31
s 4
f 9/21/32 8/17/22 24/26/33 23/27/34
s 2
f 14/8/18 13/13/35 29/14/36 28/7/37
s 5
f 13/81/38 18/82/39 30/83/40 29/84/41
f 18/82/39 17/85/42 21/91/43 20/87/44
s 3
f 17/45/45 16/42/20 22/41/31 21/46/46
s 5
f 20/87/44 19/92/47 35/93/48 34/88/49
s 4
f 19/29/50 24/26/33 36/25/51 35/30/52
s 6
f 26/49/53 25/50/54 33/51/55 32/52/56
s 5
f 25/89/57 30/83/40 34/88/49 33/94/58
s 2
f 28/7/37 27/12/59 41/9/60 40/3/7
s 6
f 27/53/61 26/49/53 42/58/62 41/59/63
f 32/52/56 31/55/64 45/60/65 44/57/66
s 4
f 31/28/67 36/25/51 46/20/25 45/23/68
s 1
f 38/68/4 37/71/69 43/76/70 48/73/27
s 6
f 37/61/71 42/58/62 44/57/66 43/62/72
s 3
f 4/33/9 10/36/12 22/41/31 16/42/20
s 2
f 28/7/37 40/3/7 6/2/6 14/8/18
s 5
f 18/82/39 20/87/44 34/88/49 30/83/40
s 4
f 46/20/25 36/25/51 24/26/33 8/17/22
s 1
f 38/68/4 48/73/27 12/74/14 2/65/1
s 6
f 26/49/53 32/52/56 44/57/66 42/58/62
s 2
f 5/5/16 6/2/6 1/1/5 49/6/73
s 1
f 1/66/2 2/65/1 3/69/13 49/70/74
s 3
f 3/34/10 4/33/9 5/37/19 49/38/75
s 1
f 11/75/15 12/74/14 7/77/26 50/79/76
s 4
f 7/18/23 8/17/22 9/21/32 50/22/77
s 3
f 9/39/29 10/36/12 11/35/11 50/40/78
s 5
f 17/85/42 18/82/39 13/81/38 51/86/79
s 2
f 13/13/35 14/8/18 15/11/17 51/15/80
s 3
f 15/43/21 16/42/20 17/45/45 51/47/81
s 4
f 23/27/34 24/26/33 19/29/50 52/31/82
s 5
f 19/92/47 20/87/44 21/91/43 52/95/83
s 3
f 21/46/46 22/41/31 23/44/30 52/48/84
s 5
f 29/84/41 30/83/40 25/89/57 53/90/85
s 6
f 25/50/54 26/49/53 27/53/61 53/54/86
s 2
f 27/12/59 28/7/37 29/14/36 53/16/87
s 4
f 35/30/52 36/25/51 31/28/67 54/32/88
s 6
f 31/55/64 32/52/56 33/51/55 54/56/89
s 5
f 33/94/58 34/88/49 35/93/48 54/96/90
s 6
f 41/59/63 42/58/62 37/61/71 55/63/91
s 1
f 37/71/69 38/68/4 39/67/3 55/72/92
s 2
f 39/4/8 40/3/7 41/9/60 55/10/93
s 1
f 47/78/28 48/73/27 43/76/70 56/80/94
s 6
f 43/62/72 44/57/66 45/60/65 56/64/95
s 4
f 45/23/68 46/20/25 47/19/24 56/24/96
