# This file uses centimeters as units for non-parametric coordinates.

mtllib sports ball.mtl
g default
v -0.972341 -2.826305 0.000000
v -0.842072 -2.826305 0.486171
v -0.486171 -2.826305 0.842072
v 0.000000 -2.826305 0.972341
v 0.486171 -2.826305 0.842072
v 0.842072 -2.826305 0.486171
v 0.972341 -2.826305 0.000000
v -1.849503 -2.404198 0.000000
v -1.601716 -2.404198 0.924751
v -0.924751 -2.404198 1.601716
v 0.000000 -2.404198 1.849503
v 0.924751 -2.404198 1.601716
v 1.601716 -2.404198 0.924751
v 1.849503 -2.404198 0.000000
v -2.545622 -1.746752 -0.000000
v -2.204573 -1.746752 1.272811
v -1.272811 -1.746752 2.204573
v 0.000000 -1.746752 2.545622
v 1.272811 -1.746752 2.204573
v 2.204573 -1.746752 1.272811
v 2.545622 -1.746752 -0.000000
v -2.992558 -0.918322 -0.000000
v -2.591631 -0.918322 1.496279
v -1.496279 -0.918322 2.591631
v 0.000000 -0.918322 2.992558
v 1.496279 -0.918322 2.591631
v 2.591631 -0.918322 1.496279
v 2.992558 -0.918322 0.000000
v -3.146562 0.000000 0.000000
v -2.725003 0.000000 1.573281
v -1.573281 0.000000 2.725003
v 0.000000 0.000000 3.146562
v 1.573281 0.000000 2.725003
v 2.725003 0.000000 1.573281
v 3.146562 0.000000 0.000000
v -2.992558 0.918322 0.000000
v -2.591631 0.918322 1.496279
v -1.496279 0.918322 2.591631
v 0.000000 0.918322 2.992558
v 1.496279 0.918322 2.591631
v 2.591631 0.918322 1.496279
v 2.992558 0.918322 0.000000
v -2.545622 1.746752 -0.000000
v -2.204573 1.746752 1.272811
v -1.272811 1.746752 2.204573
v 0.000000 1.746752 2.545622
v 1.272811 1.746752 2.204573
v 2.204573 1.746752 1.272811
v 2.545622 1.746752 -0.000000
v -1.849503 2.404198 -0.000000
v -1.601716 2.404198 0.924751
v -0.924751 2.404198 1.601716
v 0.000000 2.404198 1.849503
v 0.924751 2.404198 1.601716
v 1.601716 2.404198 0.924751
v 1.849503 2.404198 0.000000
v -0.972341 2.826305 -0.000000
v -0.842072 2.826305 0.486171
v -0.486171 2.826305 0.842072
v 0.000000 2.826305 0.972341
v 0.486171 2.826305 0.842072
v 0.842072 2.826305 0.486171
v 0.972341 2.826305 0.000000
v -0.000000 -2.971753 -0.000000
v 0.000000 2.971753 -0.000000
v -0.842072 -2.826305 -0.486171
v -0.486171 -2.826305 -0.842072
v -0.000000 -2.826305 -0.972341
v 0.486171 -2.826305 -0.842072
v 0.842072 -2.826305 -0.486171
v -1.601716 -2.404198 -0.924751
v -0.924751 -2.404198 -1.601716
v -0.000000 -2.404198 -1.849503
v 0.924751 -2.404198 -1.601716
v 1.601716 -2.404198 -0.924751
v -2.204573 -1.746752 -1.272811
v -1.272811 -1.746752 -2.204573
v -0.000000 -1.746752 -2.545622
v 1.272811 -1.746752 -2.204573
v 2.204573 -1.746752 -1.272811
v -2.591631 -0.918322 -1.496279
v -1.496279 -0.918322 -2.591631
v 0.000000 -0.918322 -2.992558
v 1.496279 -0.918322 -2.591631
v 2.591631 -0.918322 -1.496279
v -2.725003 0.000000 -1.573281
v -1.573281 0.000000 -2.725003
v 0.000000 0.000000 -3.146562
v 1.573281 -0.000000 -2.725003
v 2.725003 0.000000 -1.573281
v -2.591631 0.918322 -1.496279
v -1.496279 0.918322 -2.591631
v 0.000000 0.918322 -2.992558
v 1.496279 0.918322 -2.591631
v 2.591631 0.918322 -1.496279
v -2.204573 1.746752 -1.272811
v -1.272811 1.746752 -2.204573
v -0.000000 1.746752 -2.545622
v 1.272811 1.746752 -2.204573
v 2.204573 1.746752 -1.272811
v -1.601716 2.404198 -0.924751
v -0.924751 2.404198 -1.601716
v 0.000000 2.404198 -1.849503
v 0.924751 2.404198 -1.601716
v 1.601716 2.404198 -0.924751
v -0.842072 2.826305 -0.486171
v -0.486171 2.826305 -0.842072
v -0.000000 2.826305 -0.972341
v 0.486171 2.826305 -0.842072
v 0.842072 2.826305 -0.486171
vt 0.345492 0.024472
vt 0.366192 0.024472
vt 0.245481 0.095492
vt 0.206107 0.095492
vt 0.422746 0.024472
vt 0.353054 0.095492
vt 0.500000 0.024472
vt 0.500000 0.095492
vt 0.577254 0.024472
vt 0.646946 0.095492
vt 0.633808 0.024472
vt 0.754519 0.095492
vt 0.654508 0.024472
vt 0.793893 0.095492
vt 0.149685 0.206107
vt 0.095492 0.206107
vt 0.297746 0.206107
vt 0.500000 0.206107
vt 0.702254 0.206107
vt 0.850315 0.206107
vt 0.904508 0.206107
vt 0.088180 0.345492
vt 0.024472 0.345492
vt 0.262236 0.345492
vt 0.500000 0.345492
vt 0.737764 0.345492
vt 0.911820 0.345492
vt 0.975528 0.345492
vt 0.066987 0.500000
vt 0.000000 0.500000
vt 0.250000 0.500000
vt 0.500000 0.500000
vt 0.750000 0.500000
vt 0.933013 0.500000
vt 1.000000 0.500000
vt 0.088180 0.654508
vt 0.024472 0.654508
vt 0.262236 0.654508
vt 0.500000 0.654508
vt 0.737764 0.654508
vt 0.911820 0.654508
vt 0.975528 0.654508
vt 0.149685 0.793893
vt 0.095492 0.793893
vt 0.297746 0.793893
vt 0.500000 0.793893
vt 0.702254 0.793893
vt 0.850315 0.793893
vt 0.904508 0.793893
vt 0.245481 0.904508
vt 0.206107 0.904508
vt 0.353054 0.904508
vt 0.500000 0.904508
vt 0.646946 0.904508
vt 0.754519 0.904508
vt 0.793893 0.904508
vt 0.366192 0.975528
vt 0.345492 0.975528
vt 0.422746 0.975528
vt 0.500000 0.975528
vt 0.577254 0.975528
vt 0.633808 0.975528
vt 0.654508 0.975528
vt 0.500000 0.000000
vt 0.500000 1.000000
vt 0.345492 0.024472
vt 0.366192 0.024472
vt 0.245481 0.095492
vt 0.206107 0.095492
vt 0.422746 0.024472
vt 0.353054 0.095492
vt 0.500000 0.024472
vt 0.500000 0.095492
vt 0.577254 0.024472
vt 0.646946 0.095492
vt 0.633808 0.024472
vt 0.754519 0.095492
vt 0.654508 0.024472
vt 0.793893 0.095492
vt 0.149685 0.206107
vt 0.095492 0.206107
vt 0.297746 0.206107
vt 0.500000 0.206107
vt 0.702254 0.206107
vt 0.850315 0.206107
vt 0.904508 0.206107
vt 0.088180 0.345492
vt 0.024472 0.345492
vt 0.262236 0.345492
vt 0.500000 0.345492
vt 0.737764 0.345492
vt 0.911820 0.345492
vt 0.975528 0.345492
vt 0.066987 0.500000
vt 0.000000 0.500000
vt 0.250000 0.500000
vt 0.500000 0.500000
vt 0.750000 0.500000
vt 0.933013 0.500000
vt 1.000000 0.500000
vt 0.088180 0.654508
vt 0.024472 0.654508
vt 0.262236 0.654508
vt 0.500000 0.654508
vt 0.737764 0.654508
vt 0.911820 0.654508
vt 0.975528 0.654508
vt 0.149685 0.793893
vt 0.095492 0.793893
vt 0.297746 0.793893
vt 0.500000 0.793893
vt 0.702254 0.793893
vt 0.850315 0.793893
vt 0.904508 0.793893
vt 0.245481 0.904508
vt 0.206107 0.904508
vt 0.353054 0.904508
vt 0.500000 0.904508
vt 0.646946 0.904508
vt 0.754519 0.904508
vt 0.793893 0.904508
vt 0.366192 0.975528
vt 0.345492 0.975528
vt 0.422746 0.975528
vt 0.500000 0.975528
vt 0.577254 0.975528
vt 0.633808 0.975528
vt 0.654508 0.975528
vt 0.500000 0.000000
vt 0.500000 1.000000
vn -0.433623 -0.901094 -0.000000
vn -0.430726 -0.895073 0.115413
vn -0.430726 -0.895073 0.115413
vn -0.433623 -0.901094 -0.000000
vn -0.315313 -0.895073 0.315313
vn -0.315313 -0.895073 0.315313
vn -0.315313 -0.895073 0.315313
vn -0.315313 -0.895073 0.315313
vn -0.115413 -0.895073 0.430726
vn -0.115413 -0.895073 0.430726
vn -0.115413 -0.895073 0.430726
vn -0.115413 -0.895073 0.430726
vn 0.115413 -0.895073 0.430726
vn 0.115413 -0.895073 0.430726
vn 0.115413 -0.895073 0.430726
vn 0.115413 -0.895073 0.430726
vn 0.315313 -0.895073 0.315313
vn 0.315313 -0.895073 0.315313
vn 0.315313 -0.895073 0.315313
vn 0.315313 -0.895073 0.315313
vn 0.430726 -0.895073 0.115413
vn 0.433623 -0.901094 -0.000000
vn 0.433623 -0.901094 -0.000000
vn 0.430726 -0.895073 0.115413
vn -0.686623 -0.727013 0.000000
vn -0.675290 -0.715013 0.180943
vn -0.675290 -0.715013 0.180943
vn -0.686624 -0.727013 0.000000
vn -0.494346 -0.715013 0.494346
vn -0.494346 -0.715013 0.494346
vn -0.494346 -0.715013 0.494346
vn -0.494346 -0.715013 0.494346
vn -0.180943 -0.715013 0.675290
vn -0.180943 -0.715013 0.675290
vn -0.180943 -0.715013 0.675290
vn -0.180943 -0.715013 0.675290
vn 0.180943 -0.715013 0.675290
vn 0.180943 -0.715013 0.675290
vn 0.180943 -0.715013 0.675290
vn 0.180943 -0.715013 0.675290
vn 0.494346 -0.715013 0.494346
vn 0.494346 -0.715013 0.494346
vn 0.494346 -0.715013 0.494346
vn 0.494346 -0.715013 0.494346
vn 0.675290 -0.715013 0.180943
vn 0.686623 -0.727013 -0.000000
vn 0.686624 -0.727013 -0.000000
vn 0.675290 -0.715013 0.180943
vn -0.880090 -0.474806 0.000000
vn -0.856595 -0.462131 0.229524
vn -0.856595 -0.462131 0.229524
vn -0.880090 -0.474806 0.000000
vn -0.627071 -0.462131 0.627071
vn -0.627071 -0.462131 0.627071
vn -0.627071 -0.462131 0.627071
vn -0.627071 -0.462131 0.627071
vn -0.229524 -0.462131 0.856595
vn -0.229524 -0.462131 0.856595
vn -0.229524 -0.462131 0.856595
vn -0.229524 -0.462131 0.856595
vn 0.229524 -0.462131 0.856595
vn 0.229524 -0.462131 0.856595
vn 0.229524 -0.462131 0.856595
vn 0.229524 -0.462131 0.856595
vn 0.627071 -0.462131 0.627071
vn 0.627071 -0.462131 0.627071
vn 0.627071 -0.462131 0.627071
vn 0.627071 -0.462131 0.627071
vn 0.856595 -0.462131 0.229524
vn 0.880090 -0.474806 0.000000
vn 0.880090 -0.474806 0.000000
vn 0.856595 -0.462131 0.229524
vn -0.986228 -0.165392 0.000000
vn -0.953497 -0.159903 0.255489
vn -0.953497 -0.159903 0.255489
vn -0.986228 -0.165392 0.000000
vn -0.698008 -0.159903 0.698008
vn -0.698008 -0.159903 0.698008
vn -0.698008 -0.159903 0.698008
vn -0.698008 -0.159903 0.698008
vn -0.255489 -0.159903 0.953497
vn -0.255489 -0.159903 0.953497
vn -0.255489 -0.159903 0.953497
vn -0.255489 -0.159903 0.953497
vn 0.255489 -0.159903 0.953497
vn 0.255489 -0.159903 0.953497
vn 0.255489 -0.159903 0.953497
vn 0.255489 -0.159903 0.953497
vn 0.698008 -0.159903 0.698008
vn 0.698008 -0.159903 0.698008
vn 0.698008 -0.159903 0.698008
vn 0.698008 -0.159903 0.698008
vn 0.953497 -0.159903 0.255489
vn 0.986228 -0.165392 0.000000
vn 0.986228 -0.165392 0.000000
vn 0.953497 -0.159903 0.255489
vn -0.986228 0.165392 0.000000
vn -0.953497 0.159903 0.255489
vn -0.953497 0.159903 0.255489
vn -0.986228 0.165392 0.000000
vn -0.698008 0.159903 0.698008
vn -0.698008 0.159903 0.698008
vn -0.698008 0.159903 0.698008
vn -0.698008 0.159903 0.698008
vn -0.255489 0.159903 0.953497
vn -0.255489 0.159903 0.953497
vn -0.255489 0.159903 0.953497
vn -0.255489 0.159903 0.953497
vn 0.255489 0.159903 0.953497
vn 0.255489 0.159903 0.953497
vn 0.255489 0.159903 0.953497
vn 0.255489 0.159903 0.953497
vn 0.698008 0.159903 0.698008
vn 0.698008 0.159903 0.698008
vn 0.698008 0.159903 0.698008
vn 0.698008 0.159903 0.698008
vn 0.953497 0.159903 0.255489
vn 0.986228 0.165392 0.000000
vn 0.986228 0.165392 0.000000
vn 0.953497 0.159903 0.255489
vn -0.880090 0.474806 -0.000000
vn -0.856595 0.462131 0.229524
vn -0.856595 0.462131 0.229524
vn -0.880090 0.474806 -0.000000
vn -0.627071 0.462131 0.627071
vn -0.627071 0.462131 0.627071
vn -0.627071 0.462131 0.627071
vn -0.627071 0.462131 0.627071
vn -0.229524 0.462131 0.856595
vn -0.229524 0.462131 0.856595
vn -0.229524 0.462131 0.856595
vn -0.229524 0.462131 0.856595
vn 0.229524 0.462131 0.856595
vn 0.229524 0.462131 0.856595
vn 0.229524 0.462131 0.856595
vn 0.229524 0.462131 0.856595
vn 0.627071 0.462130 0.627071
vn 0.627071 0.462130 0.627071
vn 0.627071 0.462131 0.627071
vn 0.627071 0.462131 0.627071
vn 0.856595 0.462131 0.229524
vn 0.880090 0.474806 0.000000
vn 0.880090 0.474806 0.000000
vn 0.856595 0.462131 0.229524
vn -0.686623 0.727013 0.000000
vn -0.675290 0.715013 0.180943
vn -0.675290 0.715013 0.180943
vn -0.686623 0.727013 0.000000
vn -0.494346 0.715013 0.494346
vn -0.494346 0.715013 0.494346
vn -0.494346 0.715013 0.494346
vn -0.494346 0.715013 0.494346
vn -0.180943 0.715013 0.675290
vn -0.180943 0.715013 0.675290
vn -0.180943 0.715013 0.675290
vn -0.180943 0.715013 0.675290
vn 0.180943 0.715013 0.675290
vn 0.180943 0.715013 0.675290
vn 0.180943 0.715013 0.675290
vn 0.180943 0.715013 0.675290
vn 0.494346 0.715013 0.494346
vn 0.494346 0.715013 0.494346
vn 0.494346 0.715013 0.494346
vn 0.494346 0.715013 0.494346
vn 0.675290 0.715013 0.180943
vn 0.686623 0.727013 -0.000000
vn 0.686623 0.727013 -0.000000
vn 0.675290 0.715013 0.180943
vn -0.433623 0.901094 0.000000
vn -0.430726 0.895073 0.115413
vn -0.430726 0.895073 0.115413
vn -0.433623 0.901094 0.000000
vn -0.315313 0.895073 0.315313
vn -0.315313 0.895073 0.315313
vn -0.315313 0.895073 0.315313
vn -0.315313 0.895073 0.315313
vn -0.115413 0.895073 0.430726
vn -0.115413 0.895073 0.430726
vn -0.115413 0.895073 0.430726
vn -0.115413 0.895073 0.430726
vn 0.115413 0.895073 0.430726
vn 0.115413 0.895073 0.430726
vn 0.115413 0.895073 0.430726
vn 0.115413 0.895073 0.430726
vn 0.315313 0.895073 0.315313
vn 0.315313 0.895073 0.315313
vn 0.315313 0.895073 0.315313
vn 0.315313 0.895073 0.315313
vn 0.430726 0.895073 0.115413
vn 0.433623 0.901094 0.000000
vn 0.433623 0.901094 0.000000
vn 0.430726 0.895073 0.115413
vn -0.147823 -0.988220 0.039610
vn -0.147939 -0.988996 0.000000
vn -0.147939 -0.988996 0.000000
vn -0.108214 -0.988220 0.108213
vn -0.108214 -0.988220 0.108213
vn -0.108214 -0.988220 0.108213
vn -0.039609 -0.988220 0.147823
vn -0.039609 -0.988220 0.147823
vn -0.039609 -0.988220 0.147823
vn 0.039609 -0.988220 0.147823
vn 0.039609 -0.988220 0.147823
vn 0.039609 -0.988220 0.147823
vn 0.108214 -0.988220 0.108213
vn 0.108214 -0.988220 0.108213
vn 0.108214 -0.988220 0.108213
vn 0.147939 -0.988996 0.000000
vn 0.147823 -0.988220 0.039610
vn 0.147939 -0.988996 0.000000
vn -0.147939 0.988996 0.000000
vn -0.147823 0.988220 0.039610
vn -0.147939 0.988996 0.000000
vn -0.108214 0.988220 0.108213
vn -0.108214 0.988220 0.108213
vn -0.108214 0.988220 0.108213
vn -0.039609 0.988220 0.147823
vn -0.039609 0.988220 0.147823
vn -0.039609 0.988220 0.147823
vn 0.039609 0.988220 0.147823
vn 0.039609 0.988220 0.147823
vn 0.039609 0.988220 0.147823
vn 0.108214 0.988220 0.108213
vn 0.108214 0.988220 0.108213
vn 0.108214 0.988220 0.108213
vn 0.147823 0.988220 0.039610
vn 0.147939 0.988996 0.000000
vn 0.147939 0.988996 0.000000
vn -0.430726 -0.895073 -0.115413
vn -0.430726 -0.895073 -0.115413
vn -0.315313 -0.895073 -0.315313
vn -0.315313 -0.895073 -0.315313
vn -0.315313 -0.895073 -0.315313
vn -0.315313 -0.895073 -0.315313
vn -0.115413 -0.895073 -0.430726
vn -0.115413 -0.895073 -0.430726
vn -0.115413 -0.895073 -0.430726
vn -0.115413 -0.895073 -0.430726
vn 0.115413 -0.895073 -0.430726
vn 0.115413 -0.895073 -0.430726
vn 0.115413 -0.895073 -0.430726
vn 0.115413 -0.895073 -0.430726
vn 0.315313 -0.895073 -0.315313
vn 0.315313 -0.895073 -0.315313
vn 0.315313 -0.895073 -0.315313
vn 0.315313 -0.895073 -0.315313
vn 0.430726 -0.895073 -0.115413
vn 0.430726 -0.895073 -0.115413
vn -0.675290 -0.715013 -0.180943
vn -0.675290 -0.715013 -0.180943
vn -0.494346 -0.715013 -0.494346
vn -0.494346 -0.715013 -0.494346
vn -0.494346 -0.715013 -0.494346
vn -0.494346 -0.715013 -0.494346
vn -0.180943 -0.715013 -0.675290
vn -0.180943 -0.715013 -0.675290
vn -0.180943 -0.715013 -0.675290
vn -0.180943 -0.715013 -0.675290
vn 0.180943 -0.715013 -0.675290
vn 0.180943 -0.715013 -0.675290
vn 0.180943 -0.715013 -0.675290
vn 0.180943 -0.715013 -0.675290
vn 0.494346 -0.715013 -0.494346
vn 0.494346 -0.715013 -0.494346
vn 0.494346 -0.715013 -0.494346
vn 0.494346 -0.715013 -0.494346
vn 0.675290 -0.715013 -0.180943
vn 0.675290 -0.715013 -0.180943
vn -0.856595 -0.462131 -0.229524
vn -0.856595 -0.462131 -0.229524
vn -0.627071 -0.462131 -0.627071
vn -0.627071 -0.462130 -0.627071
vn -0.627071 -0.462130 -0.627071
vn -0.627071 -0.462131 -0.627071
vn -0.229524 -0.462131 -0.856595
vn -0.229524 -0.462131 -0.856595
vn -0.229524 -0.462131 -0.856595
vn -0.229524 -0.462131 -0.856595
vn 0.229524 -0.462131 -0.856595
vn 0.229524 -0.462131 -0.856595
vn 0.229524 -0.462131 -0.856595
vn 0.229524 -0.462131 -0.856595
vn 0.627071 -0.462131 -0.627071
vn 0.627071 -0.462131 -0.627071
vn 0.627071 -0.462131 -0.627071
vn 0.627071 -0.462131 -0.627071
vn 0.856595 -0.462131 -0.229524
vn 0.856595 -0.462131 -0.229524
vn -0.953497 -0.159903 -0.255489
vn -0.953497 -0.159903 -0.255489
vn -0.698008 -0.159903 -0.698008
vn -0.698008 -0.159903 -0.698008
vn -0.698008 -0.159903 -0.698008
vn -0.698008 -0.159903 -0.698008
vn -0.255489 -0.159903 -0.953497
vn -0.255489 -0.159903 -0.953497
vn -0.255489 -0.159903 -0.953497
vn -0.255489 -0.159903 -0.953497
vn 0.255489 -0.159903 -0.953497
vn 0.255489 -0.159903 -0.953497
vn 0.255489 -0.159903 -0.953497
vn 0.255489 -0.159903 -0.953497
vn 0.698008 -0.159903 -0.698008
vn 0.698008 -0.159903 -0.698008
vn 0.698008 -0.159903 -0.698008
vn 0.698008 -0.159903 -0.698008
vn 0.953497 -0.159903 -0.255489
vn 0.953497 -0.159903 -0.255489
vn -0.953497 0.159903 -0.255489
vn -0.953497 0.159903 -0.255489
vn -0.698008 0.159903 -0.698008
vn -0.698008 0.159903 -0.698008
vn -0.698008 0.159903 -0.698008
vn -0.698008 0.159903 -0.698008
vn -0.255489 0.159903 -0.953497
vn -0.255489 0.159903 -0.953497
vn -0.255489 0.159903 -0.953497
vn -0.255489 0.159903 -0.953497
vn 0.255489 0.159903 -0.953497
vn 0.255489 0.159903 -0.953497
vn 0.255489 0.159903 -0.953497
vn 0.255489 0.159903 -0.953497
vn 0.698008 0.159903 -0.698008
vn 0.698008 0.159903 -0.698008
vn 0.698008 0.159903 -0.698008
vn 0.698008 0.159903 -0.698008
vn 0.953497 0.159903 -0.255489
vn 0.953497 0.159903 -0.255489
vn -0.856595 0.462131 -0.229524
vn -0.856595 0.462131 -0.229524
vn -0.627071 0.462131 -0.627071
vn -0.627071 0.462131 -0.627071
vn -0.627071 0.462131 -0.627071
vn -0.627071 0.462131 -0.627071
vn -0.229524 0.462131 -0.856595
vn -0.229524 0.462131 -0.856595
vn -0.229524 0.462131 -0.856595
vn -0.229524 0.462131 -0.856595
vn 0.229524 0.462131 -0.856595
vn 0.229524 0.462131 -0.856595
vn 0.229524 0.462131 -0.856595
vn 0.229524 0.462131 -0.856595
vn 0.627071 0.462130 -0.627071
vn 0.627071 0.462131 -0.627071
vn 0.627071 0.462131 -0.627071
vn 0.627071 0.462130 -0.627071
vn 0.856595 0.462131 -0.229524
vn 0.856595 0.462131 -0.229524
vn -0.675290 0.715013 -0.180943
vn -0.675290 0.715013 -0.180943
vn -0.494346 0.715013 -0.494346
vn -0.494346 0.715013 -0.494346
vn -0.494346 0.715013 -0.494346
vn -0.494346 0.715013 -0.494346
vn -0.180943 0.715013 -0.675290
vn -0.180943 0.715013 -0.675290
vn -0.180943 0.715013 -0.675290
vn -0.180943 0.715013 -0.675290
vn 0.180943 0.715013 -0.675290
vn 0.180943 0.715013 -0.675290
vn 0.180943 0.715013 -0.675290
vn 0.180943 0.715013 -0.675290
vn 0.494346 0.715013 -0.494346
vn 0.494346 0.715013 -0.494346
vn 0.494346 0.715013 -0.494346
vn 0.494346 0.715013 -0.494346
vn 0.675290 0.715013 -0.180943
vn 0.675290 0.715013 -0.180943
vn -0.430726 0.895073 -0.115413
vn -0.430726 0.895073 -0.115413
vn -0.315313 0.895073 -0.315313
vn -0.315313 0.895073 -0.315313
vn -0.315313 0.895073 -0.315313
vn -0.315313 0.895073 -0.315313
vn -0.115413 0.895073 -0.430726
vn -0.115413 0.895073 -0.430726
vn -0.115413 0.895073 -0.430726
vn -0.115413 0.895073 -0.430726
vn 0.115413 0.895073 -0.430726
vn 0.115413 0.895073 -0.430726
vn 0.115413 0.895073 -0.430726
vn 0.115413 0.895073 -0.430726
vn 0.315313 0.895073 -0.315313
vn 0.315313 0.895073 -0.315313
vn 0.315313 0.895073 -0.315313
vn 0.315313 0.895073 -0.315313
vn 0.430726 0.895073 -0.115413
vn 0.430726 0.895073 -0.115413
vn -0.147823 -0.988220 -0.039610
vn -0.108214 -0.988220 -0.108213
vn -0.108214 -0.988220 -0.108213
vn -0.108214 -0.988220 -0.108213
vn -0.039609 -0.988220 -0.147823
vn -0.039609 -0.988220 -0.147823
vn -0.039609 -0.988220 -0.147823
vn 0.039609 -0.988220 -0.147823
vn 0.039609 -0.988220 -0.147823
vn 0.039609 -0.988220 -0.147823
vn 0.108214 -0.988220 -0.108213
vn 0.108214 -0.988220 -0.108213
vn 0.108214 -0.988220 -0.108213
vn 0.147823 -0.988220 -0.039610
vn -0.147823 0.988220 -0.039610
vn -0.108214 0.988220 -0.108213
vn -0.108214 0.988220 -0.108213
vn -0.108214 0.988220 -0.108213
vn -0.039609 0.988220 -0.147823
vn -0.039609 0.988220 -0.147823
vn -0.039609 0.988220 -0.147823
vn 0.039609 0.988220 -0.147823
vn 0.039609 0.988220 -0.147823
vn 0.039609 0.988220 -0.147823
vn 0.108214 0.988220 -0.108213
vn 0.108214 0.988220 -0.108213
vn 0.108214 0.988220 -0.108213
vn 0.147823 0.988220 -0.039610
s 1
g pSphere1
usemtl lambert2SG
f 1/1/1 2/2/2 9/3/3 8/4/4
s off
f 2/2/5 3/5/6 10/6/7 9/3/8
f 3/5/9 4/7/10 11/8/11 10/6/12
f 4/7/13 5/9/14 12/10/15 11/8/16
f 5/9/17 6/11/18 13/12/19 12/10/20
s 2
f 6/11/21 7/13/22 14/14/23 13/12/24
s 3
f 8/4/25 9/3/26 16/15/27 15/16/28
s off
f 9/3/29 10/6/30 17/17/31 16/15/32
f 10/6/33 11/8/34 18/18/35 17/17/36
f 11/8/37 12/10/38 19/19/39 18/18/40
f 12/10/41 13/12/42 20/20/43 19/19/44
s 4
f 13/12/45 14/14/46 21/21/47 20/20/48
s 5
f 15/16/49 16/15/50 23/22/51 22/23/52
s off
f 16/15/53 17/17/54 24/24/55 23/22/56
f 17/17/57 18/18/58 25/25/59 24/24/60
f 18/18/61 19/19/62 26/26/63 25/25/64
f 19/19/65 20/20/66 27/27/67 26/26/68
s 6
f 20/20/69 21/21/70 28/28/71 27/27/72
s 7
f 22/23/73 23/22/74 30/29/75 29/30/76
s off
f 23/22/77 24/24/78 31/31/79 30/29/80
f 24/24/81 25/25/82 32/32/83 31/31/84
f 25/25/85 26/26/86 33/33/87 32/32/88
f 26/26/89 27/27/90 34/34/91 33/33/92
s 8
f 27/27/93 28/28/94 35/35/95 34/34/96
s 9
f 29/30/97 30/29/98 37/36/99 36/37/100
s off
f 30/29/101 31/31/102 38/38/103 37/36/104
f 31/31/105 32/32/106 39/39/107 38/38/108
f 32/32/109 33/33/110 40/40/111 39/39/112
f 33/33/113 34/34/114 41/41/115 40/40/116
s 10
f 34/34/117 35/35/118 42/42/119 41/41/120
s 11
f 36/37/121 37/36/122 44/43/123 43/44/124
s off
f 37/36/125 38/38/126 45/45/127 44/43/128
f 38/38/129 39/39/130 46/46/131 45/45/132
f 39/39/133 40/40/134 47/47/135 46/46/136
f 40/40/137 41/41/138 48/48/139 47/47/140
s 12
f 41/41/141 42/42/142 49/49/143 48/48/144
s 13
f 43/44/145 44/43/146 51/50/147 50/51/148
s off
f 44/43/149 45/45/150 52/52/151 51/50/152
f 45/45/153 46/46/154 53/53/155 52/52/156
f 46/46/157 47/47/158 54/54/159 53/53/160
f 47/47/161 48/48/162 55/55/163 54/54/164
s 14
f 48/48/165 49/49/166 56/56/167 55/55/168
s 15
f 50/51/169 51/50/170 58/57/171 57/58/172
s off
f 51/50/173 52/52/174 59/59/175 58/57/176
f 52/52/177 53/53/178 60/60/179 59/59/180
f 53/53/181 54/54/182 61/61/183 60/60/184
f 54/54/185 55/55/186 62/62/187 61/61/188
s 16
f 55/55/189 56/56/190 63/63/191 62/62/192
s 17
f 2/2/193 1/1/194 64/64/195
s off
f 3/5/196 2/2/197 64/64/198
f 4/7/199 3/5/200 64/64/201
f 5/9/202 4/7/203 64/64/204
f 6/11/205 5/9/206 64/64/207
s 18
f 7/13/208 6/11/209 64/64/210
s 19
f 57/58/211 58/57/212 65/65/213
s off
f 58/57/214 59/59/215 65/65/216
f 59/59/217 60/60/218 65/65/219
f 60/60/220 61/61/221 65/65/222
f 61/61/223 62/62/224 65/65/225
s 20
f 62/62/226 63/63/227 65/65/228
s 1
f 1/66/1 8/69/4 71/68/229 66/67/230
s off
f 66/67/231 71/68/232 72/71/233 67/70/234
f 67/70/235 72/71/236 73/73/237 68/72/238
f 68/72/239 73/73/240 74/75/241 69/74/242
f 69/74/243 74/75/244 75/77/245 70/76/246
s 2
f 70/76/247 75/77/248 14/79/23 7/78/22
s 3
f 8/69/25 15/81/28 76/80/249 71/68/250
s off
f 71/68/251 76/80/252 77/82/253 72/71/254
f 72/71/255 77/82/256 78/83/257 73/73/258
f 73/73/259 78/83/260 79/84/261 74/75/262
f 74/75/263 79/84/264 80/85/265 75/77/266
s 4
f 75/77/267 80/85/268 21/86/47 14/79/46
s 5
f 15/81/49 22/88/52 81/87/269 76/80/270
s off
f 76/80/271 81/87/272 82/89/273 77/82/274
f 77/82/275 82/89/276 83/90/277 78/83/278
f 78/83/279 83/90/280 84/91/281 79/84/282
f 79/84/283 84/91/284 85/92/285 80/85/286
s 6
f 80/85/287 85/92/288 28/93/71 21/86/70
s 7
f 22/88/73 29/95/76 86/94/289 81/87/290
s off
f 81/87/291 86/94/292 87/96/293 82/89/294
f 82/89/295 87/96/296 88/97/297 83/90/298
f 83/90/299 88/97/300 89/98/301 84/91/302
f 84/91/303 89/98/304 90/99/305 85/92/306
s 8
f 85/92/307 90/99/308 35/100/95 28/93/94
s 9
f 29/95/97 36/102/100 91/101/309 86/94/310
s off
f 86/94/311 91/101/312 92/103/313 87/96/314
f 87/96/315 92/103/316 93/104/317 88/97/318
f 88/97/319 93/104/320 94/105/321 89/98/322
f 89/98/323 94/105/324 95/106/325 90/99/326
s 10
f 90/99/327 95/106/328 42/107/119 35/100/118
s 11
f 36/102/121 43/109/124 96/108/329 91/101/330
s off
f 91/101/331 96/108/332 97/110/333 92/103/334
f 92/103/335 97/110/336 98/111/337 93/104/338
f 93/104/339 98/111/340 99/112/341 94/105/342
f 94/105/343 99/112/344 100/113/345 95/106/346
s 12
f 95/106/347 100/113/348 49/114/143 42/107/142
s 13
f 43/109/145 50/116/148 101/115/349 96/108/350
s off
f 96/108/351 101/115/352 102/117/353 97/110/354
f 97/110/355 102/117/356 103/118/357 98/111/358
f 98/111/359 103/118/360 104/119/361 99/112/362
f 99/112/363 104/119/364 105/120/365 100/113/366
s 14
f 100/113/367 105/120/368 56/121/167 49/114/166
s 15
f 50/116/169 57/123/172 106/122/369 101/115/370
s off
f 101/115/371 106/122/372 107/124/373 102/117/374
f 102/117/375 107/124/376 108/125/377 103/118/378
f 103/118/379 108/125/380 109/126/381 104/119/382
f 104/119/383 109/126/384 110/127/385 105/120/386
s 16
f 105/120/387 110/127/388 63/128/191 56/121/190
s 17
f 66/67/389 64/129/195 1/66/194
s off
f 67/70/390 64/129/391 66/67/392
f 68/72/393 64/129/394 67/70/395
f 69/74/396 64/129/397 68/72/398
f 70/76/399 64/129/400 69/74/401
s 18
f 7/78/208 64/129/210 70/76/402
s 19
f 57/123/211 65/130/213 106/122/403
s off
f 106/122/404 65/130/405 107/124/406
f 107/124/407 65/130/408 108/125/409
f 108/125/410 65/130/411 109/126/412
f 109/126/413 65/130/414 110/127/415
s 20
f 110/127/416 65/130/228 63/128/227
