# This file uses centimeters as units for non-parametric coordinates.

mtllib team flag rect.mtl
g default
v -0.041423 0.169574 7.776810
v 0.041423 0.169574 7.776810
v -0.041423 3.350870 7.776810
v 0.041423 3.350870 7.776810
v -0.041423 3.483312 -0.218589
v 0.041423 3.483312 -0.218589
v -0.041423 0.037132 -0.218589
v 0.041423 0.037132 -0.218589
v -0.041423 1.760222 -0.218589
v -0.041423 1.760222 5.983150
v 0.041423 1.760222 5.983150
v 0.041423 1.760222 -0.218589
vt 0.855722 0.155436
vt 0.855722 0.155436
vt 0.973108 0.262768
vt 0.973108 0.262768
vt 0.449848 0.271704
vt 0.449848 0.271704
vt 0.449848 0.155436
vt 0.449848 0.155436
vt 0.449848 0.039168
vt 0.449848 0.039168
vt 0.973108 0.048105
vt 0.973108 0.048105
vn 0.000000 -0.000000 1.000000
vn 0.000000 -0.000000 1.000000
vn 0.000000 -0.748178 0.663498
vn 0.000000 -0.748178 0.663498
vn 0.000000 0.999863 0.016563
vn 0.000000 0.999863 0.016563
vn 0.000000 0.999863 0.016563
vn 0.000000 0.999863 0.016563
vn 0.000000 0.000000 -1.000000
vn 0.000000 0.000000 -1.000000
vn 0.000000 0.000000 -1.000000
vn 0.000000 0.000000 -1.000000
vn 0.000000 -0.999863 0.016563
vn 0.000000 -0.999863 0.016563
vn 0.000000 -0.999863 0.016563
vn 0.000000 -0.999863 0.016563
vn 1.000000 0.000000 0.000000
vn 1.000000 0.000000 0.000000
vn 1.000000 0.000000 0.000000
vn 1.000000 0.000000 0.000000
vn -1.000000 0.000000 0.000000
vn -1.000000 0.000000 0.000000
vn -1.000000 0.000000 0.000000
vn -1.000000 0.000000 0.000000
vn -1.000000 0.000000 0.000000
vn -1.000000 0.000000 0.000000
vn 0.000000 0.748178 0.663498
vn 0.000000 0.748178 0.663498
vn 1.000000 0.000000 0.000000
vn 1.000000 0.000000 0.000000
vn 0.000000 0.000000 -1.000000
vn 0.000000 0.000000 -1.000000
s 1
g team_flag_1
usemtl initialShadingGroup
f 10/1/1 11/2/2 4/3/3 3/4/4
s off
f 3/4/5 4/3/6 6/5/7 5/6/8
s 2
f 5/6/9 6/5/10 12/7/11 9/8/12
s off
f 7/9/13 8/10/14 2/11/15 1/12/16
s 3
f 11/2/17 12/7/18 6/5/19 4/3/20
s 4
f 9/8/21 10/1/22 3/4/23 5/6/24
f 7/9/25 1/12/26 10/1/22 9/8/21
s 1
f 1/12/27 2/11/28 11/2/2 10/1/1
s 3
f 2/11/29 8/10/30 12/7/18 11/2/17
s 2
f 9/8/12 12/7/11 8/10/31 7/9/32
