# This file uses centimeters as units for non-parametric coordinates.

mtllib team flag triangle.mtl
g default
v -0.038556 6.685557 -2.268052
v 0.038556 6.685557 -2.268052
v -0.038556 6.961846 -2.268052
v 0.038556 6.961846 -2.268052
v -0.038556 6.961846 -7.006603
v 0.038556 6.961846 -7.006603
v -0.038556 6.685557 -7.006603
v 0.038556 6.685557 -7.006603
v -0.038556 6.961846 -4.832134
v -0.038556 0.108826 -4.801207
v 0.038556 0.108826 -4.801207
v 0.038556 6.961846 -4.832134
v -0.038556 6.961846 -4.442519
v -0.038556 0.108826 -4.473447
v 0.038556 0.108826 -4.473447
v 0.038556 6.961846 -4.442519
vt 0.391316 0.443344
vt 0.391316 0.443344
vt 0.391316 0.460863
vt 0.391316 0.460863
vt 0.254191 0.460863
vt 0.254191 0.460863
vt 0.092497 0.460863
vt 0.092497 0.460863
vt 0.092497 0.443344
vt 0.092497 0.443344
vt 0.252241 0.026327
vt 0.252241 0.026327
vt 0.231572 0.026327
vt 0.229622 0.460863
vt 0.231572 0.026327
vt 0.229622 0.460863
vn 0.000000 0.000000 1.000000
vn 0.000000 0.000000 1.000000
vn 0.000000 0.000000 1.000000
vn 0.000000 0.000000 1.000000
vn 0.000000 1.000000 0.000000
vn 0.000000 1.000000 0.000000
vn 0.000000 1.000000 0.000000
vn 0.000000 1.000000 0.000000
vn 0.000000 0.000000 -1.000000
vn 0.000000 0.000000 -1.000000
vn 0.000000 0.000000 -1.000000
vn 0.000000 0.000000 -1.000000
vn 0.000000 -0.317934 0.948113
vn 0.000000 -0.317934 0.948113
vn 0.000000 -0.317934 0.948113
vn 0.000000 -0.317934 0.948113
vn 1.000000 0.000000 0.000000
vn 1.000000 -0.000000 0.000000
vn 1.000000 -0.000000 0.000000
vn 1.000000 0.000000 0.000000
vn -1.000000 -0.000000 0.000000
vn -1.000000 -0.000000 0.000000
vn -1.000000 -0.000000 0.000000
vn -1.000000 -0.000000 0.000000
vn -1.000000 0.000000 0.000000
vn -1.000000 -0.000000 0.000000
vn -1.000000 -0.000000 0.000000
vn -1.000000 0.000000 0.000000
vn 0.000000 -0.317934 -0.948113
vn 0.000000 -0.317934 -0.948113
vn 0.000000 -0.317934 -0.948113
vn 0.000000 -0.317934 -0.948113
vn 1.000000 -0.000000 0.000000
vn 1.000000 -0.000000 0.000000
vn 1.000000 0.000000 0.000000
vn 1.000000 0.000000 0.000000
vn 0.000000 1.000000 0.000000
vn 0.000000 1.000000 0.000000
vn 0.000000 1.000000 0.000000
vn 0.000000 1.000000 0.000000
vn 0.000000 -1.000000 0.000000
vn 0.000000 -1.000000 0.000000
vn 0.000000 -1.000000 0.000000
vn 0.000000 -1.000000 0.000000
s off
g team_flag_2_tri
usemtl initialShadingGroup
f 1/1/1 2/2/2 4/3/3 3/4/4
s 1
f 3/4/5 4/3/6 16/5/7 13/6/8
s off
f 5/7/9 6/8/10 8/9/11 7/10/12
f 14/11/13 15/12/14 2/2/15 1/1/16
s 2
f 2/2/17 15/12/18 16/5/19 4/3/20
s 3
f 14/11/21 1/1/22 3/4/23 13/6/24
f 7/10/25 10/13/26 9/14/27 5/7/28
s off
f 7/10/29 8/9/30 11/15/31 10/13/32
s 2
f 12/16/33 11/15/34 8/9/35 6/8/36
s 1
f 9/14/37 12/16/38 6/8/39 5/7/40
s 3
f 10/13/26 14/11/21 13/6/24 9/14/27
s off
f 10/13/41 11/15/42 15/12/43 14/11/44
s 2
f 16/5/19 15/12/18 11/15/34 12/16/33
s 1
f 13/6/8 16/5/7 12/16/38 9/14/37
