# This file uses centimeters as units for non-parametric coordinates.

mtllib wood piles.mtl
g default
v 10.739683 0.001037 5.229462
v 11.337930 0.001037 -5.014844
v 10.739683 0.122631 5.229462
v 11.337930 0.122631 -5.014844
v 10.034081 0.122631 5.188257
v 10.632328 0.122631 -5.056050
v 10.034081 0.001037 5.188257
v 10.632328 0.001037 -5.056050
v 9.752017 0.001037 3.650655
v 8.464320 0.001037 -3.163712
v 9.752017 0.122631 3.650655
v 8.464320 0.122631 -3.163712
v 9.057504 0.122631 3.781896
v 7.769807 0.122631 -3.032471
v 9.057504 0.001037 3.781896
v 7.769807 0.001037 -3.032471
v 8.100526 0.130915 1.711800
v 11.972470 0.130915 1.711800
v 8.100526 0.252509 1.711800
v 11.972470 0.252509 1.711800
v 8.100526 0.252509 1.004995
v 11.972470 0.252509 1.004995
v 8.100526 0.130915 1.004995
v 11.972470 0.130915 1.004995
v 8.319721 0.127964 2.607498
v 11.286816 0.127964 3.243458
v 8.319721 0.184082 2.607498
v 11.286816 0.184082 3.243458
v 8.467852 0.184082 1.916390
v 11.434946 0.184082 2.552350
v 8.467852 0.127964 1.916390
v 11.434946 0.127964 2.552350
vt 0.375000 0.000000
vt 0.625000 0.000000
vt 0.375000 0.250000
vt 0.625000 0.250000
vt 0.375000 0.500000
vt 0.625000 0.500000
vt 0.375000 0.750000
vt 0.625000 0.750000
vt 0.375000 1.000000
vt 0.625000 1.000000
vt 0.875000 0.000000
vt 0.875000 0.250000
vt 0.125000 0.000000
vt 0.125000 0.250000
vt 0.375000 0.000000
vt 0.625000 0.000000
vt 0.625000 0.250000
vt 0.375000 0.250000
vt 0.625000 0.500000
vt 0.375000 0.500000
vt 0.625000 0.750000
vt 0.375000 0.750000
vt 0.625000 1.000000
vt 0.375000 1.000000
vt 0.875000 0.000000
vt 0.875000 0.250000
vt 0.125000 0.000000
vt 0.125000 0.250000
vt 0.375000 0.000000
vt 0.625000 0.000000
vt 0.625000 0.250000
vt 0.375000 0.250000
vt 0.625000 0.500000
vt 0.375000 0.500000
vt 0.625000 0.750000
vt 0.375000 0.750000
vt 0.625000 1.000000
vt 0.375000 1.000000
vt 0.875000 0.000000
vt 0.875000 0.250000
vt 0.125000 0.000000
vt 0.125000 0.250000
vt 0.375000 0.000000
vt 0.625000 0.000000
vt 0.625000 0.250000
vt 0.375000 0.250000
vt 0.625000 0.500000
vt 0.375000 0.500000
vt 0.625000 0.750000
vt 0.375000 0.750000
vt 0.625000 1.000000
vt 0.375000 1.000000
vt 0.875000 0.000000
vt 0.875000 0.250000
vt 0.125000 0.000000
vt 0.125000 0.250000
vn 0.998299 0.000000 0.058299
vn 0.998299 0.000000 0.058299
vn 0.998299 0.000000 0.058299
vn 0.998299 0.000000 0.058299
vn 0.000000 1.000000 0.000000
vn 0.000000 1.000000 0.000000
vn 0.000000 1.000000 0.000000
vn 0.000000 1.000000 0.000000
vn -0.998299 0.000000 -0.058299
vn -0.998299 0.000000 -0.058299
vn -0.998299 0.000000 -0.058299
vn -0.998299 0.000000 -0.058299
vn 0.000000 -1.000000 0.000000
vn 0.000000 -1.000000 0.000000
vn 0.000000 -1.000000 0.000000
vn 0.000000 -1.000000 0.000000
vn 0.058298 0.000000 -0.998299
vn 0.058298 0.000000 -0.998299
vn 0.058298 0.000000 -0.998299
vn 0.058298 0.000000 -0.998299
vn -0.058299 0.000000 0.998299
vn -0.058299 0.000000 0.998299
vn -0.058299 0.000000 0.998299
vn -0.058299 0.000000 0.998299
vn 0.982610 0.000000 -0.185682
vn 0.982610 0.000000 -0.185682
vn 0.982610 0.000000 -0.185682
vn 0.982610 0.000000 -0.185682
vn 0.000000 1.000000 0.000000
vn 0.000000 1.000000 0.000000
vn 0.000000 1.000000 0.000000
vn 0.000000 1.000000 0.000000
vn -0.982610 0.000000 0.185682
vn -0.982610 0.000000 0.185682
vn -0.982610 0.000000 0.185682
vn -0.982610 0.000000 0.185682
vn 0.000000 -1.000000 0.000000
vn 0.000000 -1.000000 0.000000
vn 0.000000 -1.000000 0.000000
vn 0.000000 -1.000000 0.000000
vn -0.185682 0.000000 -0.982610
vn -0.185682 0.000000 -0.982610
vn -0.185682 0.000000 -0.982610
vn -0.185682 0.000000 -0.982610
vn 0.185682 0.000000 0.982610
vn 0.185682 0.000000 0.982610
vn 0.185682 0.000000 0.982610
vn 0.185682 0.000000 0.982610
vn 0.000000 0.000000 1.000000
vn 0.000000 0.000000 1.000000
vn 0.000000 0.000000 1.000000
vn 0.000000 0.000000 1.000000
vn 0.000000 1.000000 0.000000
vn 0.000000 1.000000 0.000000
vn 0.000000 1.000000 0.000000
vn 0.000000 1.000000 0.000000
vn 0.000000 0.000000 -1.000000
vn 0.000000 0.000000 -1.000000
vn 0.000000 0.000000 -1.000000
vn 0.000000 0.000000 -1.000000
vn 0.000000 -1.000000 0.000000
vn 0.000000 -1.000000 0.000000
vn 0.000000 -1.000000 0.000000
vn 0.000000 -1.000000 0.000000
vn 1.000000 0.000000 0.000000
vn 1.000000 0.000000 0.000000
vn 1.000000 0.000000 0.000000
vn 1.000000 0.000000 0.000000
vn -1.000000 0.000000 0.000000
vn -1.000000 0.000000 0.000000
vn -1.000000 0.000000 0.000000
vn -1.000000 0.000000 0.000000
vn -0.209578 0.000000 0.977792
vn -0.209578 0.000000 0.977792
vn -0.209578 0.000000 0.977792
vn -0.209578 0.000000 0.977792
vn 0.000000 1.000000 -0.000000
vn 0.000000 1.000000 -0.000000
vn 0.000000 1.000000 -0.000000
vn 0.000000 1.000000 -0.000000
vn 0.209578 0.000000 -0.977792
vn 0.209578 0.000000 -0.977792
vn 0.209578 0.000000 -0.977792
vn 0.209578 0.000000 -0.977792
vn 0.000000 -1.000000 -0.000000
vn 0.000000 -1.000000 -0.000000
vn 0.000000 -1.000000 -0.000000
vn 0.000000 -1.000000 -0.000000
vn 0.977792 0.000000 0.209578
vn 0.977792 0.000000 0.209578
vn 0.977792 0.000000 0.209578
vn 0.977792 0.000000 0.209578
vn -0.977792 0.000000 -0.209578
vn -0.977792 0.000000 -0.209578
vn -0.977792 0.000000 -0.209578
vn -0.977792 0.000000 -0.209578
s off
g pile_1
usemtl initialShadingGroup
f 1/1/1 2/2/2 4/4/3 3/3/4
f 3/3/5 4/4/6 6/6/7 5/5/8
f 5/5/9 6/6/10 8/8/11 7/7/12
f 7/7/13 8/8/14 2/10/15 1/9/16
f 2/2/17 8/11/18 6/12/19 4/4/20
f 7/13/21 1/1/22 3/3/23 5/14/24
f 9/15/25 10/16/26 12/17/27 11/18/28
f 11/18/29 12/17/30 14/19/31 13/20/32
f 13/20/33 14/19/34 16/21/35 15/22/36
f 15/22/37 16/21/38 10/23/39 9/24/40
f 10/16/41 16/25/42 14/26/43 12/17/44
f 15/27/45 9/15/46 11/18/47 13/28/48
f 17/29/49 18/30/50 20/31/51 19/32/52
f 19/32/53 20/31/54 22/33/55 21/34/56
f 21/34/57 22/33/58 24/35/59 23/36/60
f 23/36/61 24/35/62 18/37/63 17/38/64
f 18/30/65 24/39/66 22/40/67 20/31/68
f 23/41/69 17/29/70 19/32/71 21/42/72
f 25/43/73 26/44/74 28/45/75 27/46/76
f 27/46/77 28/45/78 30/47/79 29/48/80
f 29/48/81 30/47/82 32/49/83 31/50/84
f 31/50/85 32/49/86 26/51/87 25/52/88
f 26/44/89 32/53/90 30/54/91 28/45/92
f 31/55/93 25/43/94 27/46/95 29/56/96
g default
v 3.141338 0.371611 6.377402
v 3.784585 0.371611 6.377402
v 3.141338 0.442870 6.374356
v 3.784585 0.442870 6.374356
v 3.141338 0.127006 -1.013418
v 3.784585 0.127006 -1.013418
v 3.141338 0.055748 -1.010372
v 3.784585 0.055748 -1.010372
v 3.808062 0.127116 4.050789
v 5.896780 0.127116 0.761212
v 3.808062 0.212863 4.050789
v 5.896780 0.212863 0.761212
v 3.211376 0.212863 3.671924
v 5.300095 0.212863 0.382347
v 3.211376 0.127116 3.671924
v 5.300095 0.127116 0.382347
v 2.334284 -0.000077 2.027913
v 6.920007 -0.000077 1.235401
v 2.334284 0.121516 2.027913
v 6.920007 0.121516 1.235401
v 2.213917 0.121516 1.331433
v 6.799640 0.121516 0.538921
v 2.213917 -0.000077 1.331433
v 6.799640 -0.000077 0.538921
v 1.526989 -0.000077 3.035245
v 5.398934 -0.000077 3.035245
v 1.526989 0.121516 3.035245
v 5.398934 0.121516 3.035245
v 1.526989 0.121516 2.328440
v 5.398934 0.121516 2.328440
v 1.526989 -0.000077 2.328440
v 5.398934 -0.000077 2.328440
v 1.824631 -0.000077 3.746838
v 4.859116 -0.000077 3.746838
v 1.824631 0.121516 3.746838
v 4.859116 0.121516 3.746838
v 1.824631 0.121516 3.040033
v 4.859116 0.121516 3.040033
v 1.824631 -0.000077 3.040033
v 4.859116 -0.000077 3.040033
vt 0.375000 0.000000
vt 0.625000 0.000000
vt 0.375000 0.250000
vt 0.625000 0.250000
vt 0.375000 0.500000
vt 0.625000 0.500000
vt 0.375000 0.750000
vt 0.625000 0.750000
vt 0.375000 1.000000
vt 0.625000 1.000000
vt 0.875000 0.000000
vt 0.875000 0.250000
vt 0.125000 0.000000
vt 0.125000 0.250000
vt 0.375000 0.000000
vt 0.625000 0.000000
vt 0.625000 0.250000
vt 0.375000 0.250000
vt 0.625000 0.500000
vt 0.375000 0.500000
vt 0.625000 0.750000
vt 0.375000 0.750000
vt 0.625000 1.000000
vt 0.375000 1.000000
vt 0.875000 0.000000
vt 0.875000 0.250000
vt 0.125000 0.000000
vt 0.125000 0.250000
vt 0.375000 0.000000
vt 0.625000 0.000000
vt 0.625000 0.250000
vt 0.375000 0.250000
vt 0.625000 0.500000
vt 0.375000 0.500000
vt 0.625000 0.750000
vt 0.375000 0.750000
vt 0.625000 1.000000
vt 0.375000 1.000000
vt 0.875000 0.000000
vt 0.875000 0.250000
vt 0.125000 0.000000
vt 0.125000 0.250000
vt 0.375000 0.000000
vt 0.625000 0.000000
vt 0.625000 0.250000
vt 0.375000 0.250000
vt 0.625000 0.500000
vt 0.375000 0.500000
vt 0.625000 0.750000
vt 0.375000 0.750000
vt 0.625000 1.000000
vt 0.375000 1.000000
vt 0.875000 0.000000
vt 0.875000 0.250000
vt 0.125000 0.000000
vt 0.125000 0.250000
vt 0.375000 0.000000
vt 0.625000 0.000000
vt 0.625000 0.250000
vt 0.375000 0.250000
vt 0.625000 0.500000
vt 0.375000 0.500000
vt 0.625000 0.750000
vt 0.375000 0.750000
vt 0.625000 1.000000
vt 0.375000 1.000000
vt 0.875000 0.000000
vt 0.875000 0.250000
vt 0.125000 0.000000
vt 0.125000 0.250000
vn 0.000000 0.042707 0.999088
vn 0.000000 0.042707 0.999088
vn 0.000000 0.042707 0.999088
vn 0.000000 0.042707 0.999088
vn 0.000000 0.999087 -0.042716
vn 0.000000 0.999087 -0.042716
vn 0.000000 0.999087 -0.042716
vn 0.000000 0.999087 -0.042716
vn 0.000000 -0.042714 -0.999087
vn 0.000000 -0.042714 -0.999087
vn 0.000000 -0.042714 -0.999087
vn 0.000000 -0.042714 -0.999087
vn 0.000000 -0.999087 0.042716
vn 0.000000 -0.999087 0.042716
vn 0.000000 -0.999087 0.042716
vn 0.000000 -0.999087 0.042716
vn 1.000000 0.000004 0.000000
vn 1.000000 0.000004 0.000000
vn 1.000000 0.000004 0.000000
vn 1.000000 0.000004 0.000000
vn -1.000000 -0.000002 0.000000
vn -1.000000 -0.000002 0.000000
vn -1.000000 -0.000002 0.000000
vn -1.000000 -0.000002 0.000000
vn 0.844201 0.000000 0.536026
vn 0.844201 0.000000 0.536026
vn 0.844201 0.000000 0.536026
vn 0.844201 0.000000 0.536026
vn 0.000000 1.000000 -0.000000
vn 0.000000 1.000000 -0.000000
vn 0.000000 1.000000 -0.000000
vn 0.000000 1.000000 -0.000000
vn -0.844201 0.000000 -0.536026
vn -0.844201 0.000000 -0.536026
vn -0.844201 0.000000 -0.536026
vn -0.844201 0.000000 -0.536026
vn 0.000000 -1.000000 0.000000
vn 0.000000 -1.000000 0.000000
vn 0.000000 -1.000000 0.000000
vn 0.000000 -1.000000 0.000000
vn 0.536026 0.000000 -0.844202
vn 0.536026 0.000000 -0.844202
vn 0.536026 0.000000 -0.844202
vn 0.536026 0.000000 -0.844202
vn -0.536026 0.000000 0.844202
vn -0.536026 0.000000 0.844202
vn -0.536026 0.000000 0.844202
vn -0.536026 0.000000 0.844202
vn 0.170297 0.000000 0.985393
vn 0.170297 0.000000 0.985393
vn 0.170297 0.000000 0.985393
vn 0.170297 0.000000 0.985393
vn 0.000000 1.000000 -0.000000
vn 0.000000 1.000000 -0.000000
vn 0.000000 1.000000 -0.000000
vn 0.000000 1.000000 -0.000000
vn -0.170297 0.000000 -0.985393
vn -0.170297 0.000000 -0.985393
vn -0.170297 0.000000 -0.985393
vn -0.170297 0.000000 -0.985393
vn 0.000000 -1.000000 -0.000000
vn 0.000000 -1.000000 -0.000000
vn 0.000000 -1.000000 -0.000000
vn 0.000000 -1.000000 -0.000000
vn 0.985393 0.000000 -0.170298
vn 0.985393 0.000000 -0.170298
vn 0.985393 0.000000 -0.170298
vn 0.985393 0.000000 -0.170298
vn -0.985393 0.000000 0.170298
vn -0.985393 0.000000 0.170298
vn -0.985393 0.000000 0.170298
vn -0.985393 0.000000 0.170298
vn 0.000000 0.000000 1.000000
vn 0.000000 0.000000 1.000000
vn 0.000000 0.000000 1.000000
vn 0.000000 0.000000 1.000000
vn 0.000000 1.000000 0.000000
vn 0.000000 1.000000 0.000000
vn 0.000000 1.000000 0.000000
vn 0.000000 1.000000 0.000000
vn 0.000000 0.000000 -1.000000
vn 0.000000 0.000000 -1.000000
vn 0.000000 0.000000 -1.000000
vn 0.000000 0.000000 -1.000000
vn 0.000000 -1.000000 0.000000
vn 0.000000 -1.000000 0.000000
vn 0.000000 -1.000000 0.000000
vn 0.000000 -1.000000 0.000000
vn 1.000000 0.000000 0.000000
vn 1.000000 0.000000 0.000000
vn 1.000000 0.000000 0.000000
vn 1.000000 0.000000 0.000000
vn -1.000000 0.000000 0.000000
vn -1.000000 0.000000 0.000000
vn -1.000000 0.000000 0.000000
vn -1.000000 0.000000 0.000000
vn 0.000000 0.000000 1.000000
vn 0.000000 0.000000 1.000000
vn 0.000000 0.000000 1.000000
vn 0.000000 0.000000 1.000000
vn 0.000000 1.000000 0.000000
vn 0.000000 1.000000 0.000000
vn 0.000000 1.000000 0.000000
vn 0.000000 1.000000 0.000000
vn 0.000000 0.000000 -1.000000
vn 0.000000 0.000000 -1.000000
vn 0.000000 0.000000 -1.000000
vn 0.000000 0.000000 -1.000000
vn 0.000000 -1.000000 0.000000
vn 0.000000 -1.000000 0.000000
vn 0.000000 -1.000000 0.000000
vn 0.000000 -1.000000 0.000000
vn 1.000000 0.000000 0.000000
vn 1.000000 0.000000 0.000000
vn 1.000000 0.000000 0.000000
vn 1.000000 0.000000 0.000000
vn -1.000000 0.000000 0.000000
vn -1.000000 0.000000 0.000000
vn -1.000000 0.000000 0.000000
vn -1.000000 0.000000 0.000000
s off
g pile_2
usemtl initialShadingGroup
f 33/57/97 34/58/98 36/60/99 35/59/100
f 35/59/101 36/60/102 38/62/103 37/61/104
f 37/61/105 38/62/106 40/64/107 39/63/108
f 39/63/109 40/64/110 34/66/111 33/65/112
f 34/58/113 40/67/114 38/68/115 36/60/116
f 39/69/117 33/57/118 35/59/119 37/70/120
f 41/71/121 42/72/122 44/73/123 43/74/124
f 43/74/125 44/73/126 46/75/127 45/76/128
f 45/76/129 46/75/130 48/77/131 47/78/132
f 47/78/133 48/77/134 42/79/135 41/80/136
f 42/72/137 48/81/138 46/82/139 44/73/140
f 47/83/141 41/71/142 43/74/143 45/84/144
f 49/85/145 50/86/146 52/87/147 51/88/148
f 51/88/149 52/87/150 54/89/151 53/90/152
f 53/90/153 54/89/154 56/91/155 55/92/156
f 55/92/157 56/91/158 50/93/159 49/94/160
f 50/86/161 56/95/162 54/96/163 52/87/164
f 55/97/165 49/85/166 51/88/167 53/98/168
f 57/99/169 58/100/170 60/101/171 59/102/172
f 59/102/173 60/101/174 62/103/175 61/104/176
f 61/104/177 62/103/178 64/105/179 63/106/180
f 63/106/181 64/105/182 58/107/183 57/108/184
f 58/100/185 64/109/186 62/110/187 60/101/188
f 63/111/189 57/99/190 59/102/191 61/112/192
f 65/113/193 66/114/194 68/115/195 67/116/196
f 67/116/197 68/115/198 70/117/199 69/118/200
f 69/118/201 70/117/202 72/119/203 71/120/204
f 71/120/205 72/119/206 66/121/207 65/122/208
f 66/114/209 72/123/210 70/124/211 68/115/212
f 71/125/213 65/113/214 67/116/215 69/126/216
