# This file uses centimeters as units for non-parametric coordinates.

mtllib dandelion.mtl
g default
v -5.887189 0.249029 0.498513
v -5.794856 0.196876 0.499677
v -5.715789 0.150314 0.524442
v -5.627235 0.123136 0.556197
v -5.523502 0.106600 0.583598
v -5.408206 0.094129 0.594130
v -5.288219 0.095785 0.597327
v -5.168283 0.127010 0.588252
v -5.061455 0.174793 0.560617
v -4.968728 0.212697 0.530935
v -4.871123 0.224912 0.521026
v -5.890898 0.190469 0.396781
v -5.802244 0.128627 0.398510
v -5.715683 0.089422 0.407074
v -5.623676 0.068367 0.419120
v -5.523758 0.054673 0.430340
v -5.417615 0.044920 0.432689
v -5.307562 0.041987 0.439856
v -5.188167 0.058624 0.451911
v -5.070062 0.108978 0.449257
v -4.966626 0.177873 0.432246
v -4.863537 0.211975 0.425253
v -5.913812 0.138690 0.307944
v -5.809504 0.087149 0.299545
v -5.711005 0.054520 0.293734
v -5.616645 0.037348 0.293226
v -5.521361 0.028358 0.294949
v -5.424713 0.020641 0.294949
v -5.324231 0.018765 0.301646
v -5.208588 0.028212 0.319958
v -5.078860 0.061157 0.336755
v -4.959688 0.108548 0.337140
v -4.840420 0.173575 0.336827
v -5.931655 0.111401 0.211967
v -5.809689 0.066094 0.198748
v -5.702573 0.034114 0.188182
v -5.608475 0.018026 0.183697
v -5.519098 0.010890 0.183697
v -5.429720 0.003754 0.183697
v -5.335877 0.004856 0.188744
v -5.224663 0.019487 0.202712
v -5.103115 0.027112 0.214858
v -4.964900 0.055476 0.227709
v -4.819697 0.125249 0.236861
v -5.944684 0.105737 0.110640
v -5.809772 0.062770 0.101394
v -5.697369 0.031225 0.094270
v -5.604808 0.014346 0.091645
v -5.518054 0.007420 0.091645
v -5.431301 0.000493 0.091645
v -5.339794 0.003490 0.094270
v -5.243447 0.004165 0.096793
v -5.125483 0.015346 0.103777
v -4.979979 0.034801 0.113596
v -4.813530 0.090763 0.123006
v -5.957613 0.120459 0.004843
v -5.817070 0.077759 0.004843
v -5.702415 0.047498 0.004843
v -5.607410 0.031362 0.004843
v -5.517553 0.013694 0.004843
v -5.430799 0.006767 0.004843
v -5.344046 -0.000159 0.004843
v -5.249965 0.002009 0.004843
v -5.133337 0.015412 0.004843
v -4.988091 0.034759 0.004843
v -4.816152 0.085865 0.004843
v -5.976045 0.156885 -0.108646
v -5.836321 0.107871 -0.100243
v -5.717367 0.080177 -0.094092
v -5.609984 0.046807 -0.087108
v -5.517547 0.030307 -0.084585
v -5.428107 0.023957 -0.084585
v -5.343545 0.006115 -0.081960
v -5.249449 0.008473 -0.084585
v -5.132791 0.022251 -0.091860
v -4.987505 0.042097 -0.102119
v -4.818875 0.095280 -0.112315
v -5.977515 0.225834 -0.226334
v -5.855382 0.160504 -0.219104
v -5.730582 0.107450 -0.205281
v -5.618034 0.077955 -0.193027
v -5.518583 0.063161 -0.188562
v -5.425598 0.039482 -0.179059
v -5.338310 0.022073 -0.174012
v -5.241987 0.022451 -0.179059
v -5.124057 0.033212 -0.193026
v -4.982796 0.056313 -0.210346
v -4.832070 0.121336 -0.223046
v -5.945982 0.310084 -0.329167
v -5.844495 0.226742 -0.329637
v -5.739660 0.159490 -0.328002
v -5.628959 0.122164 -0.320908
v -5.519727 0.101640 -0.310415
v -5.419737 0.068901 -0.291961
v -5.324977 0.051596 -0.285264
v -5.222366 0.048257 -0.291961
v -5.103679 0.058540 -0.306984
v -4.976922 0.095922 -0.317841
v -4.853016 0.174118 -0.320795
v -5.909910 0.356742 -0.416197
v -5.816879 0.307936 -0.423410
v -5.730805 0.250505 -0.443030
v -5.631583 0.202410 -0.458162
v -5.520267 0.147642 -0.449406
v -5.411548 0.109629 -0.430171
v -5.306398 0.090436 -0.423004
v -5.196723 0.088797 -0.425366
v -5.084006 0.112252 -0.425127
v -4.978944 0.170039 -0.413882
v -4.874916 0.232789 -0.406463
v -5.896959 0.381913 -0.511341
v -5.804271 0.363376 -0.522755
v -5.720966 0.336933 -0.555530
v -5.626577 0.301235 -0.590769
v -5.516350 0.237866 -0.601653
v -5.400041 0.188461 -0.590750
v -5.284647 0.166326 -0.580481
v -5.172088 0.173408 -0.563971
v -5.069243 0.207242 -0.537018
v -4.977348 0.248444 -0.508967
v -4.874847 0.280181 -0.503986
vt 0.000000 0.000000
vt 0.100000 0.000000
vt 0.200000 0.000000
vt 0.300000 0.000000
vt 0.400000 0.000000
vt 0.500000 0.000000
vt 0.600000 0.000000
vt 0.700000 0.000000
vt 0.800000 0.000000
vt 0.900000 0.000000
vt 1.000000 0.000000
vt 0.000000 0.100000
vt 0.100000 0.100000
vt 0.200000 0.100000
vt 0.300000 0.100000
vt 0.400000 0.100000
vt 0.500000 0.100000
vt 0.600000 0.100000
vt 0.700000 0.100000
vt 0.800000 0.100000
vt 0.900000 0.100000
vt 1.000000 0.100000
vt 0.000000 0.200000
vt 0.100000 0.200000
vt 0.200000 0.200000
vt 0.300000 0.200000
vt 0.400000 0.200000
vt 0.500000 0.200000
vt 0.600000 0.200000
vt 0.700000 0.200000
vt 0.800000 0.200000
vt 0.900000 0.200000
vt 1.000000 0.200000
vt 0.000000 0.300000
vt 0.100000 0.300000
vt 0.200000 0.300000
vt 0.300000 0.300000
vt 0.400000 0.300000
vt 0.500000 0.300000
vt 0.600000 0.300000
vt 0.700000 0.300000
vt 0.800000 0.300000
vt 0.900000 0.300000
vt 1.000000 0.300000
vt 0.000000 0.400000
vt 0.100000 0.400000
vt 0.200000 0.400000
vt 0.300000 0.400000
vt 0.400000 0.400000
vt 0.500000 0.400000
vt 0.600000 0.400000
vt 0.700000 0.400000
vt 0.800000 0.400000
vt 0.900000 0.400000
vt 1.000000 0.400000
vt 0.000000 0.500000
vt 0.100000 0.500000
vt 0.200000 0.500000
vt 0.300000 0.500000
vt 0.400000 0.500000
vt 0.500000 0.500000
vt 0.600000 0.500000
vt 0.700000 0.500000
vt 0.800000 0.500000
vt 0.900000 0.500000
vt 1.000000 0.500000
vt 0.000000 0.600000
vt 0.100000 0.600000
vt 0.200000 0.600000
vt 0.300000 0.600000
vt 0.400000 0.600000
vt 0.500000 0.600000
vt 0.600000 0.600000
vt 0.700000 0.600000
vt 0.800000 0.600000
vt 0.900000 0.600000
vt 1.000000 0.600000
vt 0.000000 0.700000
vt 0.100000 0.700000
vt 0.200000 0.700000
vt 0.300000 0.700000
vt 0.400000 0.700000
vt 0.500000 0.700000
vt 0.600000 0.700000
vt 0.700000 0.700000
vt 0.800000 0.700000
vt 0.900000 0.700000
vt 1.000000 0.700000
vt 0.000000 0.800000
vt 0.100000 0.800000
vt 0.200000 0.800000
vt 0.300000 0.800000
vt 0.400000 0.800000
vt 0.500000 0.800000
vt 0.600000 0.800000
vt 0.700000 0.800000
vt 0.800000 0.800000
vt 0.900000 0.800000
vt 1.000000 0.800000
vt 0.000000 0.900000
vt 0.100000 0.900000
vt 0.200000 0.900000
vt 0.300000 0.900000
vt 0.400000 0.900000
vt 0.500000 0.900000
vt 0.600000 0.900000
vt 0.700000 0.900000
vt 0.800000 0.900000
vt 0.900000 0.900000
vt 1.000000 0.900000
vt 0.000000 1.000000
vt 0.100000 1.000000
vt 0.200000 1.000000
vt 0.300000 1.000000
vt 0.400000 1.000000
vt 0.500000 1.000000
vt 0.600000 1.000000
vt 0.700000 1.000000
vt 0.800000 1.000000
vt 0.900000 1.000000
vt 1.000000 1.000000
vn 0.471375 0.736067 -0.485808
vn 0.475239 0.741760 -0.473224
vn 0.437785 0.787693 -0.433456
vn 0.457645 0.753077 -0.472690
vn 0.396190 0.815736 -0.421436
vn 0.340653 0.869693 -0.357197
vn 0.250790 0.899586 -0.357560
vn 0.216132 0.928945 -0.300581
vn 0.150200 0.935514 -0.319770
vn 0.133721 0.954244 -0.267465
vn 0.062084 0.949223 -0.308419
vn 0.063549 0.965947 -0.250815
vn -0.088691 0.937338 -0.336945
vn -0.052534 0.963511 -0.262462
vn -0.301435 0.874056 -0.381003
vn -0.243011 0.919530 -0.308886
vn -0.456356 0.804300 -0.380580
vn -0.413299 0.831523 -0.371151
vn -0.406638 0.857038 -0.316436
vn -0.402657 0.821859 -0.403008
vn -0.237518 0.940542 -0.242831
vn -0.316977 0.854612 -0.411296
vn 0.359887 0.882871 -0.301696
vn 0.403028 0.842416 -0.357636
vn 0.252158 0.940316 -0.228523
vn 0.148198 0.968912 -0.198109
vn 0.095859 0.979273 -0.178423
vn 0.053247 0.985141 -0.163287
vn -0.034002 0.988866 -0.144871
vn -0.148541 0.973456 -0.174125
vn -0.286801 0.911374 -0.295200
vn -0.373085 0.826766 -0.421029
vn -0.384479 0.798023 -0.464041
vn 0.311585 0.941409 -0.129091
vn 0.340721 0.927070 -0.156368
vn 0.227731 0.968534 -0.100398
vn 0.127289 0.986518 -0.102858
vn 0.081564 0.991219 -0.104075
vn 0.037385 0.994894 -0.093748
vn -0.042710 0.995383 -0.085962
vn -0.093648 0.989734 -0.107965
vn -0.157846 0.973095 -0.167840
vn -0.301249 0.916174 -0.264339
vn -0.380638 0.868532 -0.317439
vn 0.292090 0.955462 0.042134
vn 0.309245 0.950508 0.030023
vn 0.226040 0.971789 0.067316
vn 0.141327 0.988138 0.060089
vn 0.093881 0.995112 0.030626
vn 0.039022 0.999226 0.004961
vn -0.023343 0.999211 -0.032120
vn -0.068333 0.996119 -0.055473
vn -0.115841 0.991714 -0.055544
vn -0.245267 0.966211 -0.079250
vn -0.331437 0.936888 -0.111311
vn 0.273003 0.944072 0.184923
vn 0.297794 0.937284 0.181157
vn 0.226707 0.953637 0.197942
vn 0.181522 0.967439 0.176387
vn 0.118460 0.982889 0.141057
vn 0.078449 0.991625 0.102599
vn 0.029136 0.998529 0.045724
vn -0.068643 0.997276 0.026997
vn -0.121687 0.991899 0.036446
vn -0.223914 0.973933 0.036298
vn -0.296049 0.954592 0.033308
vn 0.292870 0.911239 0.289605
vn 0.327864 0.881838 0.338920
vn 0.247015 0.937007 0.246986
vn 0.200153 0.952396 0.229960
vn 0.138054 0.965250 0.221887
vn 0.138991 0.972909 0.184742
vn 0.073300 0.988279 0.133911
vn -0.063889 0.992458 0.104619
vn -0.119803 0.988579 0.091427
vn -0.232071 0.966548 0.109214
vn -0.310298 0.941898 0.128624
vn 0.374143 0.822371 0.428629
vn 0.402189 0.764546 0.503700
vn 0.292149 0.901956 0.318001
vn 0.196382 0.937677 0.286698
vn 0.168986 0.945471 0.278439
vn 0.184314 0.952646 0.241855
vn 0.092946 0.972511 0.213502
vn -0.034734 0.982320 0.183958
vn -0.118546 0.977800 0.172785
vn -0.272729 0.932331 0.237440
vn -0.370597 0.881208 0.293479
vn 0.446486 0.698893 0.558748
vn 0.450188 0.666790 0.593904
vn 0.368006 0.797639 0.477852
vn 0.253748 0.882257 0.396527
vn 0.225714 0.919344 0.322274
vn 0.203386 0.937667 0.281807
vn 0.094593 0.957648 0.271960
vn -0.027504 0.963408 0.266624
vn -0.173964 0.933191 0.314470
vn -0.351359 0.835203 0.423063
vn -0.426068 0.762901 0.486260
vn 0.456186 0.698480 0.551380
vn 0.419674 0.734067 0.533872
vn 0.437907 0.703606 0.559621
vn 0.372452 0.776356 0.508478
vn 0.298538 0.850575 0.432894
vn 0.202417 0.900894 0.383950
vn 0.066648 0.921746 0.382024
vn -0.102759 0.904399 0.414129
vn -0.299092 0.825889 0.477966
vn -0.414599 0.741366 0.527715
vn -0.413643 0.736328 0.535462
vn 0.444489 0.760666 0.473094
vn 0.347770 0.849086 0.397628
vn 0.469169 0.697598 0.541514
vn 0.426481 0.730113 0.533900
vn 0.346922 0.795986 0.496037
vn 0.205979 0.864148 0.459153
vn 0.043006 0.887539 0.458721
vn -0.166963 0.847526 0.503809
vn -0.372218 0.753302 0.542208
vn -0.423242 0.737374 0.526446
vn -0.384466 0.774414 0.502463
s 1
g flower1
usemtl initialShadingGroup
f 1/1/1 2/2/2 13/13/3 12/12/4
f 2/2/2 3/3/5 14/14/6 13/13/3
f 3/3/5 4/4/7 15/15/8 14/14/6
f 4/4/7 5/5/9 16/16/10 15/15/8
f 5/5/9 6/6/11 17/17/12 16/16/10
f 6/6/11 7/7/13 18/18/14 17/17/12
f 7/7/13 8/8/15 19/19/16 18/18/14
f 8/8/15 9/9/17 20/20/18 19/19/16
f 9/9/17 10/10/19 21/21/20 20/20/18
f 10/10/19 11/11/21 22/22/22 21/21/20
f 12/12/4 13/13/3 24/24/23 23/23/24
f 13/13/3 14/14/6 25/25/25 24/24/23
f 14/14/6 15/15/8 26/26/26 25/25/25
f 15/15/8 16/16/10 27/27/27 26/26/26
f 16/16/10 17/17/12 28/28/28 27/27/27
f 17/17/12 18/18/14 29/29/29 28/28/28
f 18/18/14 19/19/16 30/30/30 29/29/29
f 19/19/16 20/20/18 31/31/31 30/30/30
f 20/20/18 21/21/20 32/32/32 31/31/31
f 21/21/20 22/22/22 33/33/33 32/32/32
f 23/23/24 24/24/23 35/35/34 34/34/35
f 24/24/23 25/25/25 36/36/36 35/35/34
f 25/25/25 26/26/26 37/37/37 36/36/36
f 26/26/26 27/27/27 38/38/38 37/37/37
f 27/27/27 28/28/28 39/39/39 38/38/38
f 28/28/28 29/29/29 40/40/40 39/39/39
f 29/29/29 30/30/30 41/41/41 40/40/40
f 30/30/30 31/31/31 42/42/42 41/41/41
f 31/31/31 32/32/32 43/43/43 42/42/42
f 32/32/32 33/33/33 44/44/44 43/43/43
f 34/34/35 35/35/34 46/46/45 45/45/46
f 35/35/34 36/36/36 47/47/47 46/46/45
f 36/36/36 37/37/37 48/48/48 47/47/47
f 37/37/37 38/38/38 49/49/49 48/48/48
f 38/38/38 39/39/39 50/50/50 49/49/49
f 39/39/39 40/40/40 51/51/51 50/50/50
f 40/40/40 41/41/41 52/52/52 51/51/51
f 41/41/41 42/42/42 53/53/53 52/52/52
f 42/42/42 43/43/43 54/54/54 53/53/53
f 43/43/43 44/44/44 55/55/55 54/54/54
f 45/45/46 46/46/45 57/57/56 56/56/57
f 46/46/45 47/47/47 58/58/58 57/57/56
f 47/47/47 48/48/48 59/59/59 58/58/58
f 48/48/48 49/49/49 60/60/60 59/59/59
f 49/49/49 50/50/50 61/61/61 60/60/60
f 50/50/50 51/51/51 62/62/62 61/61/61
f 51/51/51 52/52/52 63/63/63 62/62/62
f 52/52/52 53/53/53 64/64/64 63/63/63
f 53/53/53 54/54/54 65/65/65 64/64/64
f 54/54/54 55/55/55 66/66/66 65/65/65
f 56/56/57 57/57/56 68/68/67 67/67/68
f 57/57/56 58/58/58 69/69/69 68/68/67
f 58/58/58 59/59/59 70/70/70 69/69/69
f 59/59/59 60/60/60 71/71/71 70/70/70
f 60/60/60 61/61/61 72/72/72 71/71/71
f 61/61/61 62/62/62 73/73/73 72/72/72
f 62/62/62 63/63/63 74/74/74 73/73/73
f 63/63/63 64/64/64 75/75/75 74/74/74
f 64/64/64 65/65/65 76/76/76 75/75/75
f 65/65/65 66/66/66 77/77/77 76/76/76
f 67/67/68 68/68/67 79/79/78 78/78/79
f 68/68/67 69/69/69 80/80/80 79/79/78
f 69/69/69 70/70/70 81/81/81 80/80/80
f 70/70/70 71/71/71 82/82/82 81/81/81
f 71/71/71 72/72/72 83/83/83 82/82/82
f 72/72/72 73/73/73 84/84/84 83/83/83
f 73/73/73 74/74/74 85/85/85 84/84/84
f 74/74/74 75/75/75 86/86/86 85/85/85
f 75/75/75 76/76/76 87/87/87 86/86/86
f 76/76/76 77/77/77 88/88/88 87/87/87
f 78/78/79 79/79/78 90/90/89 89/89/90
f 79/79/78 80/80/80 91/91/91 90/90/89
f 80/80/80 81/81/81 92/92/92 91/91/91
f 81/81/81 82/82/82 93/93/93 92/92/92
f 82/82/82 83/83/83 94/94/94 93/93/93
f 83/83/83 84/84/84 95/95/95 94/94/94
f 84/84/84 85/85/85 96/96/96 95/95/95
f 85/85/85 86/86/86 97/97/97 96/96/96
f 86/86/86 87/87/87 98/98/98 97/97/97
f 87/87/87 88/88/88 99/99/99 98/98/98
f 89/89/90 90/90/89 101/101/100 100/100/101
f 90/90/89 91/91/91 102/102/102 101/101/100
f 91/91/91 92/92/92 103/103/103 102/102/102
f 92/92/92 93/93/93 104/104/104 103/103/103
f 93/93/93 94/94/94 105/105/105 104/104/104
f 94/94/94 95/95/95 106/106/106 105/105/105
f 95/95/95 96/96/96 107/107/107 106/106/106
f 96/96/96 97/97/97 108/108/108 107/107/107
f 97/97/97 98/98/98 109/109/109 108/108/108
f 98/98/98 99/99/99 110/110/110 109/109/109
f 100/100/101 101/101/100 112/112/111 111/111/112
f 101/101/100 102/102/102 113/113/113 112/112/111
f 102/102/102 103/103/103 114/114/114 113/113/113
f 103/103/103 104/104/104 115/115/115 114/114/114
f 104/104/104 105/105/105 116/116/116 115/115/115
f 105/105/105 106/106/106 117/117/117 116/116/116
f 106/106/106 107/107/107 118/118/118 117/117/117
f 107/107/107 108/108/108 119/119/119 118/118/118
f 108/108/108 109/109/109 120/120/120 119/119/119
f 109/109/109 110/110/110 121/121/121 120/120/120
