# This file uses centimeters as units for non-parametric coordinates.

mtllib net2.mtl
g default
v -63.993133 32.535285 0.491258
v 63.993133 32.535285 0.491258
v -63.993133 55.903902 0.491258
v 63.993133 55.903902 0.491258
v -63.993133 55.903902 -0.491258
v 63.993133 55.903902 -0.491258
v -63.993133 32.535285 -0.491258
v 63.993133 32.535285 -0.491258
vt 0.069689 0.980238
vt 0.394763 0.980238
vt 0.394763 0.980238
vt 0.069689 0.980238
vt 0.394763 0.886839
vt 0.069689 0.886839
vt 0.394763 0.886839
vt 0.069689 0.886839
vt 0.000000 0.722413
vt 1.000000 0.722413
vt 1.000000 0.366846
vt 0.000000 0.366846
vn 0.000000 0.000000 1.000000
vn 0.000000 0.000000 1.000000
vn 0.000000 0.000000 1.000000
vn 0.000000 0.000000 1.000000
vn 0.000000 1.000000 0.000000
vn 0.000000 1.000000 0.000000
vn 0.000000 1.000000 0.000000
vn 0.000000 1.000000 0.000000
vn 0.000000 0.000000 -1.000000
vn 0.000000 0.000000 -1.000000
vn 0.000000 0.000000 -1.000000
vn 0.000000 0.000000 -1.000000
vn 0.000000 -1.000000 0.000000
vn 0.000000 -1.000000 0.000000
vn 0.000000 -1.000000 0.000000
vn 0.000000 -1.000000 0.000000
vn 1.000000 0.000000 0.000000
vn 1.000000 0.000000 0.000000
vn 1.000000 0.000000 0.000000
vn 1.000000 0.000000 0.000000
vn -1.000000 0.000000 0.000000
vn -1.000000 0.000000 0.000000
vn -1.000000 0.000000 0.000000
vn -1.000000 0.000000 0.000000
s off
g pCube1
usemtl texturedFacets10
f 1/12/1 2/11/2 4/10/3 3/9/4
usemtl texturedFacets11
f 3/1/5 4/2/6 6/3/7 5/4/8
f 5/4/9 6/3/10 8/5/11 7/6/12
f 7/6/13 8/5/14 2/7/15 1/8/16
f 2/7/17 8/5/18 6/3/19 4/2/20
f 7/6/21 1/8/22 3/1/23 5/4/24
