# This file uses centimeters as units for non-parametric coordinates.

mtllib hangingStar.mtl
g default
v -1.316605 -2.070402 0.467408
v 1.316605 -2.070402 0.467408
v -0.575424 0.810452 0.467408
v 0.575424 0.810452 0.467408
v -0.575424 0.810452 -0.456852
v 0.575424 0.810452 -0.456852
v -1.316605 -2.070402 -0.456852
v 1.316605 -2.070402 -0.456852
v 0.000000 -1.137085 0.467408
v 0.000000 -1.137085 -0.456852
v 0.000000 1.808212 -0.456852
v 0.000000 1.808212 0.467408
v -0.432015 -1.472280 0.467408
v -0.432015 -1.472280 -0.456852
v -0.391760 1.112261 -0.456852
v -0.391760 1.112261 0.467408
v -2.230287 0.549352 0.474246
v -0.432015 0.249898 0.474246
v 0.000000 0.249898 0.474246
v 2.230287 0.549352 0.474246
v 2.230287 0.549352 -0.463690
v 0.000000 0.249898 -0.463690
v -0.432015 0.249898 -0.463690
v -2.230287 0.549352 -0.463690
v 0.432015 -1.472280 0.467408
v 0.432015 0.249898 0.474246
v 0.391760 1.112261 0.467408
v 0.391760 1.112261 -0.456852
v 0.432015 0.249898 -0.463690
v 0.432015 -1.472280 -0.456852
v -0.677225 0.663181 -0.456852
v -0.432015 0.657427 -0.456852
v 0.000000 0.657427 -0.456852
v 0.432015 0.657427 -0.456852
v 0.677225 0.663181 -0.456852
v 0.677225 0.663181 0.467409
v 0.432015 0.657427 0.467408
v 0.000000 0.657427 0.467408
v -0.432015 0.657427 0.467408
v -0.677225 0.663181 0.467409
v -0.925097 -0.344580 0.467409
v -0.432015 -0.344584 0.467409
v 0.000000 -0.344578 0.467409
v 0.432015 -0.344584 0.467409
v 0.925097 -0.344580 0.467409
v 0.925097 -0.344580 -0.456852
v 0.432015 -0.344584 -0.456852
v 0.000000 -0.344578 -0.456852
v -0.432015 -0.344584 -0.456852
v -0.925097 -0.344580 -0.456852
vt 0.375000 0.000000
vt 0.625000 0.000000
vt 0.375000 0.250000
vt 0.625000 0.250000
vt 0.375000 0.500000
vt 0.625000 0.500000
vt 0.375000 0.750000
vt 0.625000 0.750000
vt 0.375000 1.000000
vt 0.625000 1.000000
vt 0.875000 0.000000
vt 0.875000 0.250000
vt 0.125000 0.000000
vt 0.125000 0.250000
vt 0.500000 0.000000
vt 0.500000 1.000000
vt 0.500000 0.750000
vt 0.500000 0.500000
vt 0.500000 0.250000
vt 0.437500 0.000000
vt 0.437500 1.000000
vt 0.437500 0.750000
vt 0.437500 0.500000
vt 0.437500 0.250000
vt 0.375000 0.125000
vt 0.437500 0.125000
vt 0.500000 0.125000
vt 0.625000 0.125000
vt 0.625000 0.625000
vt 0.875000 0.125000
vt 0.500000 0.625000
vt 0.437500 0.625000
vt 0.125000 0.125000
vt 0.375000 0.625000
vt 0.562500 0.000000
vt 0.562500 1.000000
vt 0.562500 0.125000
vt 0.562500 0.250000
vt 0.562500 0.500000
vt 0.562500 0.625000
vt 0.562500 0.750000
vt 0.125000 0.187500
vt 0.375000 0.562500
vt 0.437500 0.562500
vt 0.500000 0.562500
vt 0.562500 0.562500
vt 0.625000 0.562500
vt 0.875000 0.187500
vt 0.625000 0.187500
vt 0.562500 0.187500
vt 0.500000 0.187500
vt 0.437500 0.187500
vt 0.375000 0.187500
vt 0.375000 0.062500
vt 0.437500 0.062500
vt 0.500000 0.062500
vt 0.562500 0.062500
vt 0.625000 0.062500
vt 0.625000 0.687500
vt 0.875000 0.062500
vt 0.562500 0.687500
vt 0.500000 0.687500
vt 0.437500 0.687500
vt 0.125000 0.062500
vt 0.375000 0.687500
vn -0.001141 0.010819 0.999941
vn -0.000000 0.005911 0.999982
vn 0.000000 0.000000 1.000000
vn 0.000123 -0.001492 0.999999
vn 0.000000 1.000000 0.000000
vn 0.000000 1.000000 0.000000
vn 0.866263 0.499588 0.000000
vn 0.866263 0.499588 0.000000
vn -0.000000 0.005911 -0.999982
vn -0.001141 0.010819 -0.999941
vn 0.000122 -0.001492 -0.999999
vn 0.000000 0.000000 -1.000000
vn 0.000000 -1.000000 0.000000
vn 0.000000 -1.000000 0.000000
vn -0.578315 -0.815813 0.000000
vn -0.578315 -0.815813 0.000000
vn 0.971073 0.238784 0.000000
vn 0.971073 0.238784 0.000000
vn 0.155076 0.987903 0.000000
vn 0.155076 0.987903 0.000000
vn -0.971073 0.238784 0.000000
vn -0.971073 0.238784 0.000000
vn -0.155076 0.987903 0.000000
vn -0.155076 0.987903 0.000000
vn 0.578315 -0.815813 0.000000
vn 0.578315 -0.815813 0.000000
vn -0.000123 -0.001492 -0.999999
vn 0.001141 0.010819 -0.999941
vn -0.866263 0.499588 0.000000
vn -0.866263 0.499588 0.000000
vn 0.001141 0.010819 0.999941
vn -0.000123 -0.001492 0.999999
vn 0.560132 -0.828404 0.000000
vn 0.560132 -0.828404 0.000000
vn 0.002593 0.017359 -0.999846
vn -0.000469 -0.004157 -0.999991
vn -0.854256 0.519853 0.000000
vn -0.854256 0.519853 0.000000
vn -0.000469 -0.004157 0.999991
vn 0.002593 0.017359 0.999846
vn -0.000727 -0.005566 0.999984
vn -0.000435 -0.004589 0.999989
vn 0.000000 -0.004399 0.999990
vn 0.000435 -0.004589 0.999989
vn 0.943088 -0.332542 0.000000
vn 0.943088 -0.332542 0.000000
vn 0.000435 -0.004589 -0.999989
vn 0.000000 -0.004399 -0.999990
vn -0.000435 -0.004589 -0.999989
vn -0.000727 -0.005566 -0.999984
vn -0.943088 -0.332542 0.000000
vn -0.943088 -0.332542 0.000000
vn 0.000469 -0.004157 0.999991
vn 0.000727 -0.005566 0.999984
vn -0.002593 0.017359 0.999846
vn 0.854256 0.519853 0.000000
vn 0.854256 0.519853 0.000000
vn 0.000469 -0.004157 -0.999991
vn -0.002593 0.017359 -0.999846
vn 0.000727 -0.005566 -0.999984
vn -0.560132 -0.828404 0.000000
vn -0.560132 -0.828404 0.000000
vn -0.000000 0.000000 -1.000000
vn -0.000000 0.000000 -1.000000
vn -0.000000 0.000000 -1.000000
vn 0.000000 0.000000 -1.000000
vn 0.000000 0.000000 -1.000000
vn 0.822598 0.568624 0.000000
vn 0.822598 0.568624 0.000000
vn -0.000000 0.000000 1.000000
vn -0.000000 0.000000 1.000000
vn -0.000000 0.000000 1.000000
vn 0.000000 0.000000 1.000000
vn 0.000000 0.000000 1.000000
vn -0.822598 0.568624 0.000000
vn -0.822598 0.568624 0.000000
vn 0.000000 -0.000000 1.000000
vn 0.000000 -0.000000 1.000000
vn 0.000000 -0.000000 1.000000
vn -0.000000 -0.000000 1.000000
vn -0.000000 -0.000000 1.000000
vn 0.975221 0.221231 0.000000
vn 0.975221 0.221231 0.000000
vn -0.000000 0.000000 -1.000000
vn 0.000000 0.000000 -1.000000
vn 0.000000 0.000000 -1.000000
vn 0.000000 0.000000 -1.000000
vn 0.000000 0.000000 -1.000000
vn -0.975221 0.221231 0.000000
vn -0.975221 0.221231 0.000000
s 1
g star stars
usemtl initialShadingGroup
f 37/50/1 38/51/2 19/27/3 26/37/4
s 2
f 11/18/5 12/19/6 27/38/7 28/39/8
s 3
f 33/45/9 34/46/10 29/40/11 22/31/12
s 4
f 9/16/13 10/17/14 30/41/15 25/36/16
s 5
f 20/28/17 21/30/18 35/48/19 36/49/20
s 6
f 24/33/21 17/25/22 40/53/23 31/42/24
s 4
f 13/21/25 14/22/26 10/17/14 9/16/13
s 3
f 22/31/12 23/32/27 32/44/28 33/45/9
s 2
f 15/23/29 16/24/30 12/19/6 11/18/5
s 1
f 38/51/2 39/52/31 18/26/32 19/27/3
s 4
f 7/7/33 14/22/26 13/21/25 1/9/34
s 3
f 31/43/35 32/44/28 23/32/27 24/34/36
s 2
f 3/3/37 16/24/30 15/23/29 5/5/38
s 1
f 17/25/39 18/26/32 39/52/31 40/53/40
f 41/54/41 42/55/42 18/26/32 17/25/39
f 19/27/3 18/26/32 42/55/42 43/56/43
f 43/56/43 44/57/44 26/37/4 19/27/3
s 5
f 45/58/45 46/60/46 21/30/18 20/28/17
s 3
f 47/61/47 48/62/48 22/31/12 29/40/11
f 48/62/48 49/63/49 23/32/27 22/31/12
f 24/34/36 23/32/27 49/63/49 50/65/50
s 6
f 50/64/51 41/54/52 17/25/22 24/33/21
s 1
f 20/28/53 26/37/4 44/57/44 45/58/54
f 36/49/55 37/50/1 26/37/4 20/28/53
s 2
f 28/39/8 27/38/7 4/4/56 6/6/57
s 3
f 21/29/58 29/40/11 34/46/10 35/47/59
f 46/59/60 47/61/47 29/40/11 21/29/58
s 4
f 25/36/16 30/41/15 8/8/61 2/10/62
s 3
f 5/5/63 15/23/64 32/44/28 31/43/35
f 33/45/9 32/44/28 15/23/64 11/18/65
f 28/39/66 34/46/10 33/45/9 11/18/65
f 35/47/59 34/46/10 28/39/66 6/6/67
s 5
f 36/49/20 35/48/19 6/12/68 4/4/69
s 1
f 27/38/70 37/50/1 36/49/55 4/4/71
f 12/19/72 38/51/2 37/50/1 27/38/70
f 16/24/73 39/52/31 38/51/2 12/19/72
f 40/53/40 39/52/31 16/24/73 3/3/74
s 6
f 31/42/24 40/53/23 3/3/75 5/14/76
s 1
f 1/1/77 13/20/78 42/55/42 41/54/41
f 43/56/43 42/55/42 13/20/78 9/15/79
f 25/35/80 44/57/44 43/56/43 9/15/79
f 45/58/54 44/57/44 25/35/80 2/2/81
s 5
f 2/2/82 8/11/83 46/60/46 45/58/45
s 3
f 30/41/84 47/61/47 46/59/60 8/8/85
f 10/17/86 48/62/48 47/61/47 30/41/84
f 14/22/87 49/63/49 48/62/48 10/17/86
f 50/65/50 49/63/49 14/22/87 7/7/88
s 6
f 7/13/89 1/1/90 41/54/52 50/64/51
g default
v 0.074307 -0.775337 -0.017016
v 0.058354 -0.775337 -0.037020
v 0.035302 -0.775337 -0.048122
v 0.009716 -0.775337 -0.048122
v -0.013336 -0.775337 -0.037020
v -0.029289 -0.775337 -0.017016
v -0.034983 -0.775337 0.007928
v -0.029289 -0.775337 0.032873
v -0.013336 -0.775337 0.052877
v 0.009716 -0.775337 0.063978
v 0.035302 -0.775337 0.063978
v 0.058354 -0.775337 0.052877
v 0.074307 -0.775337 0.032873
v 0.080001 -0.775337 0.007928
v 0.074307 6.593619 -0.017016
v 0.058354 6.593619 -0.037020
v 0.035302 6.593619 -0.048122
v 0.009716 6.593619 -0.048122
v -0.013336 6.593619 -0.037020
v -0.029289 6.593619 -0.017016
v -0.034983 6.593619 0.007928
v -0.029289 6.593619 0.032873
v -0.013336 6.593619 0.052877
v 0.009716 6.593619 0.063978
v 0.035302 6.593619 0.063978
v 0.058354 6.593619 0.052877
v 0.074307 6.593619 0.032873
v 0.080001 6.593619 0.007928
v 0.022509 -0.775337 0.007928
v 0.022509 6.593619 0.007928
vt 0.640776 0.088456
vt 0.597420 0.034089
vt 0.534769 0.003918
vt 0.465231 0.003918
vt 0.402580 0.034089
vt 0.359224 0.088456
vt 0.343750 0.156250
vt 0.359224 0.224044
vt 0.402580 0.278411
vt 0.465231 0.308582
vt 0.534769 0.308582
vt 0.597420 0.278411
vt 0.640776 0.224044
vt 0.656250 0.156250
vt 0.375000 0.312500
vt 0.392857 0.312500
vt 0.410714 0.312500
vt 0.428571 0.312500
vt 0.446429 0.312500
vt 0.464286 0.312500
vt 0.482143 0.312500
vt 0.500000 0.312500
vt 0.517857 0.312500
vt 0.535714 0.312500
vt 0.553571 0.312500
vt 0.571428 0.312500
vt 0.589286 0.312500
vt 0.607143 0.312500
vt 0.625000 0.312500
vt 0.375000 0.688440
vt 0.392857 0.688440
vt 0.410714 0.688440
vt 0.428571 0.688440
vt 0.446429 0.688440
vt 0.464286 0.688440
vt 0.482143 0.688440
vt 0.500000 0.688440
vt 0.517857 0.688440
vt 0.535714 0.688440
vt 0.553571 0.688440
vt 0.571428 0.688440
vt 0.589286 0.688440
vt 0.607143 0.688440
vt 0.625000 0.688440
vt 0.640776 0.775956
vt 0.597420 0.721589
vt 0.534769 0.691418
vt 0.465231 0.691418
vt 0.402580 0.721589
vt 0.359224 0.775956
vt 0.343750 0.843750
vt 0.359224 0.911544
vt 0.402580 0.965911
vt 0.465231 0.996082
vt 0.534769 0.996082
vt 0.597420 0.965911
vt 0.640776 0.911544
vt 0.656250 0.843750
vt 0.500000 0.150000
vt 0.500000 0.837500
vn 0.900969 0.000000 -0.433884
vn 0.623490 0.000000 -0.781831
vn 0.623490 0.000000 -0.781831
vn 0.900969 0.000000 -0.433884
vn 0.222521 0.000000 -0.974928
vn 0.222521 0.000000 -0.974928
vn -0.222521 0.000000 -0.974928
vn -0.222521 0.000000 -0.974928
vn -0.623490 0.000000 -0.781832
vn -0.623490 0.000000 -0.781832
vn -0.900969 0.000000 -0.433884
vn -0.900969 0.000000 -0.433884
vn -1.000000 0.000000 -0.000000
vn -1.000000 0.000000 -0.000000
vn -0.900969 0.000000 0.433884
vn -0.900969 0.000000 0.433884
vn -0.623490 0.000000 0.781831
vn -0.623490 0.000000 0.781831
vn -0.222521 0.000000 0.974928
vn -0.222521 0.000000 0.974928
vn 0.222521 0.000000 0.974928
vn 0.222521 0.000000 0.974928
vn 0.623490 0.000000 0.781832
vn 0.623490 0.000000 0.781832
vn 0.900969 0.000000 0.433884
vn 0.900969 0.000000 0.433884
vn 1.000000 0.000000 0.000000
vn 1.000000 0.000000 0.000000
vn 0.000000 -1.000000 -0.000002
vn 0.000000 -1.000000 0.000000
vn 0.000000 -1.000000 0.000000
vn 0.000000 -1.000000 0.000000
vn 0.000000 -1.000000 0.000002
vn 0.000000 -1.000000 0.000000
vn 0.000000 -1.000000 0.000000
vn 0.000000 -1.000000 0.000000
vn 0.000000 -1.000000 0.000000
vn 0.000000 -1.000000 0.000000
vn 0.000000 -1.000000 0.000000
vn 0.000000 -1.000000 0.000000
vn 0.000000 -1.000000 0.000000
vn 0.000000 -1.000000 0.000000
vn 0.000000 -1.000000 0.000000
vn 0.000000 1.000000 0.000000
vn 0.000000 1.000000 0.000000
vn 0.000000 1.000000 0.000000
vn 0.000000 1.000000 0.000002
vn 0.000000 1.000000 0.000002
vn 0.000000 1.000000 0.000000
vn 0.000000 1.000000 0.000000
vn 0.000000 1.000000 0.000000
vn 0.000000 1.000000 0.000000
vn 0.000000 1.000000 0.000000
vn 0.000000 1.000000 0.000000
vn 0.000000 1.000000 0.000000
vn 0.000000 1.000000 0.000000
vn 0.000000 1.000000 0.000000
vn 0.000000 1.000000 0.000000
s 1
g stars support
usemtl initialShadingGroup
f 51/80/91 52/81/92 66/96/93 65/95/94
f 52/81/92 53/82/95 67/97/96 66/96/93
f 53/82/95 54/83/97 68/98/98 67/97/96
f 54/83/97 55/84/99 69/99/100 68/98/98
f 55/84/99 56/85/101 70/100/102 69/99/100
f 56/85/101 57/86/103 71/101/104 70/100/102
f 57/86/103 58/87/105 72/102/106 71/101/104
f 58/87/105 59/88/107 73/103/108 72/102/106
f 59/88/107 60/89/109 74/104/110 73/103/108
f 60/89/109 61/90/111 75/105/112 74/104/110
f 61/90/111 62/91/113 76/106/114 75/105/112
f 62/91/113 63/92/115 77/107/116 76/106/114
f 63/92/115 64/93/117 78/108/118 77/107/116
f 64/93/117 51/94/91 65/109/94 78/108/118
s 2
f 52/67/119 51/66/120 79/124/121
f 53/68/122 52/67/119 79/124/121
f 54/69/123 53/68/122 79/124/121
f 55/70/124 54/69/123 79/124/121
f 56/71/125 55/70/124 79/124/121
f 57/72/126 56/71/125 79/124/121
f 58/73/127 57/72/126 79/124/121
f 59/74/128 58/73/127 79/124/121
f 60/75/129 59/74/128 79/124/121
f 61/76/130 60/75/129 79/124/121
f 62/77/131 61/76/130 79/124/121
f 63/78/132 62/77/131 79/124/121
f 64/79/133 63/78/132 79/124/121
f 51/66/120 64/79/133 79/124/121
s 3
f 65/122/134 66/121/135 80/125/136
f 66/121/135 67/120/137 80/125/136
f 67/120/137 68/119/138 80/125/136
f 68/119/138 69/118/139 80/125/136
f 69/118/139 70/117/140 80/125/136
f 70/117/140 71/116/141 80/125/136
f 71/116/141 72/115/142 80/125/136
f 72/115/142 73/114/143 80/125/136
f 73/114/143 74/113/144 80/125/136
f 74/113/144 75/112/145 80/125/136
f 75/112/145 76/111/146 80/125/136
f 76/111/146 77/110/147 80/125/136
f 77/110/147 78/123/148 80/125/136
f 78/123/148 65/122/134 80/125/136
