# This file uses centimeters as units for non-parametric coordinates.

mtllib KEY.mtl
g default
v 0.411450 -0.566312 0.000000
v 0.665740 -0.216312 0.000000
v 0.665740 0.216312 0.000000
v 0.411450 0.566312 0.000000
v -0.000000 0.700000 0.000000
v -0.411450 0.566312 0.000000
v -0.662789 0.138347 0.000000
v -0.653879 -0.267966 0.000000
v -0.411450 -0.566312 0.000000
v 0.000000 -0.700000 0.000000
v 0.445127 -0.612664 0.176336
v 0.720230 -0.234017 0.176336
v 0.720230 0.234017 0.176336
v 0.445127 0.612665 0.176336
v -0.000000 0.757295 0.176336
v -0.445127 0.612664 0.176336
v -0.717843 0.143794 0.176336
v -0.710634 -0.275806 0.176336
v -0.445127 -0.612664 0.176336
v 0.000000 -0.757295 0.176336
v 0.533295 -0.734017 0.285317
v 0.862889 -0.280369 0.285317
v 0.862889 0.280370 0.285317
v 0.533295 0.734017 0.285317
v -0.000000 0.907295 0.285317
v -0.533295 0.734017 0.285317
v -0.861977 0.158055 0.285317
v -0.859223 -0.296331 0.285317
v -0.533295 -0.734017 0.285317
v 0.000000 -0.907295 0.285317
v 0.730444 -1.005370 0.176336
v 1.181883 -0.384017 0.176336
v 1.181883 0.384017 0.176336
v 0.730444 1.005370 0.176336
v -0.000000 1.242705 0.176336
v -0.841784 0.931143 0.176336
v -1.184270 0.189944 0.176336
v -1.191479 -0.342228 0.176336
v -0.841784 -0.968256 0.176336
v 0.000000 -1.242705 0.176336
v 0.764121 -1.051722 0.000000
v 1.236374 -0.401722 0.000000
v 1.236374 0.401722 0.000000
v 0.764121 1.051722 0.000000
v -0.000000 1.300000 0.000000
v -0.875461 0.977496 0.000000
v -1.239324 0.195392 0.000000
v -1.248235 -0.350068 0.000000
v -0.875461 -1.014609 0.000000
v 0.000000 -1.300000 0.000000
v 0.730444 -1.005370 -0.176336
v 1.181883 -0.384017 -0.176336
v 1.181883 0.384017 -0.176336
v 0.730444 1.005370 -0.176336
v -0.000000 1.242705 -0.176336
v -0.841784 0.931143 -0.176336
v -1.184270 0.189944 -0.176336
v -1.191479 -0.342228 -0.176336
v -0.841784 -0.968256 -0.176336
v 0.000000 -1.242705 -0.176336
v 0.533295 -0.734017 -0.285317
v 0.862889 -0.280370 -0.285317
v 0.862889 0.280370 -0.285317
v 0.533295 0.734017 -0.285317
v -0.000000 0.907295 -0.285317
v -0.533295 0.734017 -0.285317
v -0.861977 0.158055 -0.285317
v -0.859223 -0.296331 -0.285317
v -0.533295 -0.734017 -0.285317
v 0.000000 -0.907295 -0.285317
v 0.445127 -0.612664 -0.176336
v 0.720230 -0.234017 -0.176336
v 0.720230 0.234017 -0.176336
v 0.445127 0.612665 -0.176336
v -0.000000 0.757295 -0.176336
v -0.445127 0.612664 -0.176336
v -0.717843 0.143794 -0.176336
v -0.710634 -0.275806 -0.176336
v -0.445127 -0.612664 -0.176336
v 0.000000 -0.757295 -0.176336
v -4.350070 0.104850 0.129432
v -4.355361 -0.193983 0.129432
v -4.390481 0.108848 0.000000
v -4.397021 -0.199738 0.000000
v -4.350070 0.104850 -0.129432
v -4.355361 -0.193983 -0.129432
v -4.305379 0.140409 0.159012
v -4.305379 0.145321 0.000000
v -4.305379 0.140409 -0.159012
v -4.305379 -0.226718 -0.159012
v -4.305379 -0.233788 0.000000
v -4.305379 -0.226718 0.159012
v -3.971746 0.159159 0.166036
v -3.971746 0.164288 0.000000
v -3.971746 0.159159 -0.166036
v -3.971746 -0.224185 -0.166036
v -3.971747 -0.231568 0.000000
v -3.971746 -0.224185 0.166036
v -3.636590 0.159159 0.166036
v -3.662510 0.164288 0.000000
v -3.636590 0.159159 -0.166036
v -3.639984 -0.224185 -0.166036
v -3.666705 -0.231568 0.000000
v -3.639984 -0.224185 0.166036
v -3.362104 0.159159 0.166036
v -3.362104 0.164288 0.000000
v -3.362104 0.159159 -0.166036
v -3.362104 -0.224185 -0.166036
v -3.362105 -0.231568 0.000000
v -3.362104 -0.224185 0.166036
v -4.008290 -0.224751 -0.140600
v -4.008290 -0.231002 0.000000
v -4.294359 -0.233246 0.000000
v -4.294358 -0.227259 -0.134651
v -4.008290 -0.224751 0.140600
v -4.294358 -0.227259 0.134652
v -3.385257 -0.224751 -0.140600
v -3.385257 -0.231002 0.000000
v -3.643193 -0.231002 0.000000
v -3.620566 -0.224751 -0.140600
v -3.385257 -0.224751 0.140600
v -3.620566 -0.224751 0.140600
v -4.008290 -0.726125 -0.140600
v -4.008290 -0.732376 0.000000
v -4.294359 -0.713409 0.000000
v -4.294358 -0.707422 -0.134651
v -4.008290 -0.726125 0.140600
v -4.294358 -0.707422 0.134652
v -3.385257 -0.726125 -0.140600
v -3.385257 -0.732376 0.000000
v -3.643193 -0.732376 0.000000
v -3.620566 -0.726125 -0.140600
v -3.385257 -0.726125 0.140600
v -3.620566 -0.726125 0.140600
v -1.279275 0.159159 0.166036
v -1.279276 0.164288 0.000000
v -1.279275 0.159159 -0.166036
v -1.279275 -0.207944 -0.166036
v -1.279276 -0.215327 0.000000
v -1.279275 -0.207944 0.166036
vt 0.000000 1.000000
vt 0.100000 1.000000
vt 0.200000 1.000000
vt 0.300000 1.000000
vt 0.400000 1.000000
vt 0.500000 1.000000
vt 0.600000 1.000000
vt 0.700000 1.000000
vt 0.800000 1.000000
vt 0.900000 1.000000
vt 1.000000 1.000000
vt 0.000000 0.900000
vt 0.100000 0.900000
vt 0.200000 0.900000
vt 0.300000 0.900000
vt 0.400000 0.900000
vt 0.500000 0.900000
vt 0.600000 0.900000
vt 0.700000 0.900000
vt 0.800000 0.900000
vt 0.900000 0.900000
vt 1.000000 0.900000
vt 0.000000 0.800000
vt 0.100000 0.800000
vt 0.200000 0.800000
vt 0.300000 0.800000
vt 0.400000 0.800000
vt 0.500000 0.800000
vt 0.600000 0.800000
vt 0.700000 0.800000
vt 0.800000 0.800000
vt 0.900000 0.800000
vt 1.000000 0.800000
vt 0.000000 0.600000
vt 0.100000 0.600000
vt 0.200000 0.600000
vt 0.300000 0.600000
vt 0.400000 0.600000
vt 0.500000 0.600000
vt 0.600000 0.600000
vt 0.700000 0.600000
vt 0.800000 0.600000
vt 0.900000 0.600000
vt 1.000000 0.600000
vt 0.000000 0.500000
vt 0.100000 0.500000
vt 0.200000 0.500000
vt 0.300000 0.500000
vt 0.400000 0.500000
vt 0.500000 0.500000
vt 0.600000 0.500000
vt 0.700000 0.500000
vt 0.800000 0.500000
vt 0.900000 0.500000
vt 1.000000 0.500000
vt 0.000000 0.400000
vt 0.100000 0.400000
vt 0.200000 0.400000
vt 0.300000 0.400000
vt 0.400000 0.400000
vt 0.500000 0.400000
vt 0.600000 0.400000
vt 0.700000 0.400000
vt 0.800000 0.400000
vt 0.900000 0.400000
vt 1.000000 0.400000
vt 0.000000 0.200000
vt 0.100000 0.200000
vt 0.200000 0.200000
vt 0.300000 0.200000
vt 0.400000 0.200000
vt 0.500000 0.200000
vt 0.600000 0.200000
vt 0.700000 0.200000
vt 0.800000 0.200000
vt 0.900000 0.200000
vt 1.000000 0.200000
vt 0.000000 0.100000
vt 0.100000 0.100000
vt 0.200000 0.100000
vt 0.300000 0.100000
vt 0.400000 0.100000
vt 0.500000 0.100000
vt 0.600000 0.100000
vt 0.700000 0.100000
vt 0.800000 0.100000
vt 0.900000 0.100000
vt 1.000000 0.100000
vt 0.000000 -0.000000
vt 0.100000 -0.000000
vt 0.200000 -0.000000
vt 0.300000 -0.000000
vt 0.400000 -0.000000
vt 0.500000 -0.000000
vt 0.600000 -0.000000
vt 0.700000 -0.000000
vt 0.800000 -0.000000
vt 0.900000 -0.000000
vt 1.000000 -0.000000
vt 0.700000 0.600000
vt 0.600000 0.600000
vt 0.600000 0.500000
vt 0.700000 0.500000
vt 0.600000 0.400000
vt 0.700000 0.400000
vt 0.600000 0.600000
vt 0.600000 0.500000
vt 0.600000 0.400000
vt 0.700000 0.400000
vt 0.700000 0.500000
vt 0.700000 0.600000
vt 0.600000 0.600000
vt 0.600000 0.500000
vt 0.600000 0.400000
vt 0.700000 0.400000
vt 0.700000 0.500000
vt 0.700000 0.600000
vt 0.600000 0.600000
vt 0.600000 0.500000
vt 0.600000 0.400000
vt 0.700000 0.400000
vt 0.700000 0.500000
vt 0.700000 0.600000
vt 0.600000 0.600000
vt 0.600000 0.500000
vt 0.600000 0.400000
vt 0.700000 0.400000
vt 0.700000 0.500000
vt 0.700000 0.600000
vt 0.700000 0.400000
vt 0.700000 0.500000
vt 0.700000 0.500000
vt 0.700000 0.400000
vt 0.700000 0.600000
vt 0.700000 0.600000
vt 0.700000 0.400000
vt 0.700000 0.500000
vt 0.700000 0.500000
vt 0.700000 0.400000
vt 0.700000 0.600000
vt 0.700000 0.600000
vt 0.700000 0.400000
vt 0.700000 0.500000
vt 0.700000 0.500000
vt 0.700000 0.400000
vt 0.700000 0.600000
vt 0.700000 0.600000
vt 0.700000 0.400000
vt 0.700000 0.500000
vt 0.700000 0.500000
vt 0.700000 0.400000
vt 0.700000 0.600000
vt 0.700000 0.600000
vt 0.600000 0.600000
vt 0.600000 0.500000
vt 0.600000 0.400000
vt 0.700000 0.400000
vt 0.700000 0.500000
vt 0.700000 0.600000
vn -0.951057 0.309017 0.000000
vn -0.587785 0.809017 0.000000
vn -0.455654 0.627154 0.631710
vn -0.737264 0.239551 0.631710
vn -0.951057 -0.309017 -0.000000
vn -0.737264 -0.239552 0.631710
vn -0.587785 -0.809017 0.000000
vn -0.455654 -0.627154 0.631710
vn 0.000000 -1.000000 0.000000
vn 0.000000 -0.775205 0.631710
vn 0.650587 -0.759432 -0.000000
vn 0.505514 -0.587877 0.631550
vn 0.957027 -0.290000 0.000000
vn 0.756292 -0.230648 0.612229
vn 0.936902 0.349592 0.000000
vn 0.729724 0.268943 0.628628
vn 0.555118 0.831771 0.000000
vn 0.439936 0.646173 0.623632
vn 0.000000 1.000000 0.000000
vn 0.000000 0.775205 0.631710
vn 0.069205 -0.095253 0.993045
vn 0.111976 -0.036383 0.993045
vn 0.111976 0.036383 0.993045
vn 0.069205 0.095253 0.993045
vn -0.007486 0.126959 0.991880
vn -0.074920 0.105316 0.991613
vn -0.093928 0.034132 0.994994
vn -0.101097 -0.040636 0.994046
vn -0.063151 -0.103000 0.992675
vn -0.003676 -0.124696 0.992188
vn 0.393408 -0.541480 0.742987
vn 0.636548 -0.206827 0.742987
vn 0.636548 0.206827 0.742987
vn 0.393408 0.541480 0.742987
vn -0.027841 0.683983 0.728967
vn -0.462378 0.492563 0.737285
vn -0.505623 0.203809 0.838336
vn -0.519401 -0.230215 0.822936
vn -0.413327 -0.526055 0.743255
vn -0.013882 -0.674842 0.737832
vn 0.587785 -0.809017 0.000000
vn 0.951057 -0.309017 0.000000
vn 0.951057 0.309017 -0.000000
vn 0.587785 0.809017 -0.000000
vn -0.044838 0.998994 -0.000000
vn -0.657832 0.753165 0.000000
vn -0.879568 0.475774 0.000000
vn -0.848967 -0.186792 0.494331
vn -0.846068 0.192209 0.497218
vn -0.982024 0.188757 0.000000
vn -0.984831 -0.173518 -0.000000
vn -0.880991 -0.473133 0.000000
vn -0.600691 -0.799481 0.000000
vn -0.023073 -0.999734 0.000000
vn 0.393408 -0.541480 -0.742987
vn 0.636548 -0.206827 -0.742987
vn 0.636548 0.206827 -0.742987
vn 0.393408 0.541480 -0.742987
vn -0.027841 0.683983 -0.728966
vn -0.462378 0.492563 -0.737285
vn -0.505623 0.203809 -0.838336
vn -0.846068 0.192209 -0.497218
vn -0.848967 -0.186792 -0.494331
vn -0.519401 -0.230215 -0.822936
vn -0.413327 -0.526055 -0.743255
vn -0.013882 -0.674842 -0.737832
vn 0.069205 -0.095253 -0.993045
vn 0.111976 -0.036383 -0.993045
vn 0.111976 0.036383 -0.993045
vn 0.069205 0.095253 -0.993045
vn -0.007486 0.126959 -0.991880
vn -0.074920 0.105316 -0.991613
vn -0.093928 0.034132 -0.994994
vn -0.101097 -0.040636 -0.994046
vn -0.063151 -0.103001 -0.992675
vn -0.003676 -0.124696 -0.992188
vn -0.455654 0.627154 -0.631710
vn -0.737264 0.239551 -0.631710
vn -0.737264 -0.239552 -0.631710
vn -0.455654 -0.627154 -0.631710
vn 0.000000 -0.775205 -0.631710
vn 0.505514 -0.587877 -0.631551
vn 0.756292 -0.230648 -0.612229
vn 0.729724 0.268943 -0.628628
vn 0.439936 0.646173 -0.623632
vn 0.000000 0.775205 -0.631710
vn -0.092731 -0.096217 0.991032
vn -0.101327 0.394680 0.913215
vn -0.130146 0.991495 0.000000
vn -0.386221 -0.922406 -0.000000
vn -0.101327 0.394680 -0.913215
vn -0.092731 -0.096217 -0.991032
vn -0.020409 0.391110 0.920118
vn -0.028590 0.999591 0.000000
vn -0.020409 0.391110 -0.920118
vn -0.010191 -0.224971 -0.974312
vn 0.427924 -0.248199 -0.869068
vn 0.858867 -0.512198 -0.000000
vn -0.856456 -0.516220 -0.000000
vn -0.425998 -0.235049 -0.873658
vn 0.427924 -0.248199 0.869068
vn -0.425998 -0.235049 0.873658
vn -0.010191 -0.224971 0.974312
vn -0.000000 0.391343 0.920245
vn -0.000000 1.000000 0.000000
vn 0.000000 0.391343 -0.920245
vn 0.000185 -0.219747 -0.975557
vn 0.001266 -0.999999 -0.000000
vn -0.001482 -0.999999 0.000000
vn 0.000185 -0.219747 0.975557
vn -0.000000 0.400815 0.916159
vn -0.000000 1.000000 0.000000
vn 0.000000 0.400815 -0.916159
vn 0.002752 -0.363704 -0.931511
vn 0.503314 -0.240766 -0.829883
vn 0.892199 -0.451643 -0.000000
vn -0.910323 -0.413899 0.000000
vn -0.468139 -0.246752 -0.848505
vn 0.503314 -0.240766 0.829884
vn -0.468139 -0.246752 0.848505
vn 0.002752 -0.363704 0.931511
vn -0.012218 0.390830 0.920382
vn -0.015077 0.999886 0.000000
vn -0.012218 0.390830 -0.920382
vn -0.030034 -0.377552 -0.925501
vn -0.058865 -0.998266 0.000000
vn 0.007470 -0.999972 0.000000
vn -0.030034 -0.377552 0.925501
vn 0.997016 -0.077189 0.000000
vn 0.420144 -0.129315 -0.898196
vn -0.419071 -0.079225 -0.904490
vn -0.999702 -0.024396 -0.000000
vn 0.420145 -0.129315 0.898196
vn -0.419071 -0.079225 0.904490
vn 0.998799 -0.049004 0.000000
vn 0.496951 -0.109217 -0.860878
vn -0.464920 -0.099126 -0.879786
vn -0.998496 -0.054817 0.000000
vn 0.496951 -0.109216 0.860878
vn -0.464920 -0.099125 0.879786
s 1
g pTorus1
usemtl initialShadingGroup
f 2/2/1 1/1/2 11/12/3 12/13/4
f 3/3/5 2/2/1 12/13/4 13/14/6
f 4/4/7 3/3/5 13/14/6 14/15/8
f 5/5/9 4/4/7 14/15/8 15/16/10
f 6/6/11 5/5/9 15/16/10 16/17/12
f 7/7/13 6/6/11 16/17/12 17/18/14
f 8/8/15 7/7/13 17/18/14 18/19/16
f 9/9/17 8/8/15 18/19/16 19/20/18
f 10/10/19 9/9/17 19/20/18 20/21/20
f 1/11/2 10/10/19 20/21/20 11/22/3
f 12/13/4 11/12/3 21/23/21 22/24/22
f 13/14/6 12/13/4 22/24/22 23/25/23
f 14/15/8 13/14/6 23/25/23 24/26/24
f 15/16/10 14/15/8 24/26/24 25/27/25
f 16/17/12 15/16/10 25/27/25 26/28/26
f 17/18/14 16/17/12 26/28/26 27/29/27
f 18/19/16 17/18/14 27/29/27 28/30/28
f 19/20/18 18/19/16 28/30/28 29/31/29
f 20/21/20 19/20/18 29/31/29 30/32/30
f 11/22/3 20/21/20 30/32/30 21/33/21
f 22/24/22 21/23/21 31/34/31 32/35/32
f 23/25/23 22/24/22 32/35/32 33/36/33
f 24/26/24 23/25/23 33/36/33 34/37/34
f 25/27/25 24/26/24 34/37/34 35/38/35
f 26/28/26 25/27/25 35/38/35 36/39/36
f 27/29/27 26/28/26 36/39/36 37/40/37
f 28/30/28 27/29/27 37/40/37 38/41/38
f 29/31/29 28/30/28 38/41/38 39/42/39
f 30/32/30 29/31/29 39/42/39 40/43/40
f 21/33/21 30/32/30 40/43/40 31/44/31
f 32/35/32 31/34/31 41/45/41 42/46/42
f 33/36/33 32/35/32 42/46/42 43/47/43
f 34/37/34 33/36/33 43/47/43 44/48/44
f 35/38/35 34/37/34 44/48/44 45/49/45
f 36/39/36 35/38/35 45/49/45 46/50/46
f 37/40/37 36/39/36 46/50/46 47/51/47
f 82/100/48 81/101/49 83/102/50 84/103/51
f 39/42/39 38/41/38 48/52/52 49/53/53
f 40/43/40 39/42/39 49/53/53 50/54/54
f 31/44/31 40/43/40 50/54/54 41/55/41
f 42/46/42 41/45/41 51/56/55 52/57/56
f 43/47/43 42/46/42 52/57/56 53/58/57
f 44/48/44 43/47/43 53/58/57 54/59/58
f 45/49/45 44/48/44 54/59/58 55/60/59
f 46/50/46 45/49/45 55/60/59 56/61/60
f 47/51/47 46/50/46 56/61/60 57/62/61
f 84/103/51 83/102/50 85/104/62 86/105/63
f 49/53/53 48/52/52 58/63/64 59/64/65
f 50/54/54 49/53/53 59/64/65 60/65/66
f 41/55/41 50/54/54 60/65/66 51/66/55
f 52/57/56 51/56/55 61/67/67 62/68/68
f 53/58/57 52/57/56 62/68/68 63/69/69
f 54/59/58 53/58/57 63/69/69 64/70/70
f 55/60/59 54/59/58 64/70/70 65/71/71
f 56/61/60 55/60/59 65/71/71 66/72/72
f 57/62/61 56/61/60 66/72/72 67/73/73
f 58/63/64 57/62/61 67/73/73 68/74/74
f 59/64/65 58/63/64 68/74/74 69/75/75
f 60/65/66 59/64/65 69/75/75 70/76/76
f 51/66/55 60/65/66 70/76/76 61/77/67
f 62/68/68 61/67/67 71/78/77 72/79/78
f 63/69/69 62/68/68 72/79/78 73/80/79
f 64/70/70 63/69/69 73/80/79 74/81/80
f 65/71/71 64/70/70 74/81/80 75/82/81
f 66/72/72 65/71/71 75/82/81 76/83/82
f 67/73/73 66/72/72 76/83/82 77/84/83
f 68/74/74 67/73/73 77/84/83 78/85/84
f 69/75/75 68/74/74 78/85/84 79/86/85
f 70/76/76 69/75/75 79/86/85 80/87/86
f 61/77/67 70/76/76 80/87/86 71/88/77
f 72/79/78 71/78/77 1/89/2 2/90/1
f 73/80/79 72/79/78 2/90/1 3/91/5
f 74/81/80 73/80/79 3/91/5 4/92/7
f 75/82/81 74/81/80 4/92/7 5/93/9
f 76/83/82 75/82/81 5/93/9 6/94/11
f 77/84/83 76/83/82 6/94/11 7/95/13
f 78/85/84 77/84/83 7/95/13 8/96/15
f 79/86/85 78/85/84 8/96/15 9/97/17
f 80/87/86 79/86/85 9/97/17 10/98/19
f 71/88/77 80/87/86 10/98/19 1/99/2
f 92/111/87 87/106/88 81/101/49 82/100/48
f 87/106/88 88/107/89 83/102/50 81/101/49
f 91/110/90 92/111/87 82/100/48 84/103/51
f 88/107/89 89/108/91 85/104/62 83/102/50
f 89/108/91 90/109/92 86/105/63 85/104/62
f 90/109/92 91/110/90 84/103/51 86/105/63
f 93/112/93 94/113/94 88/107/89 87/106/88
f 94/113/94 95/114/95 89/108/91 88/107/89
f 95/114/95 96/115/96 90/109/92 89/108/91
f 123/142/97 124/143/98 125/144/99 126/145/100
f 124/143/98 127/146/101 128/147/102 125/144/99
f 98/117/103 93/112/93 87/106/88 92/111/87
f 99/118/104 100/119/105 94/113/94 93/112/93
f 100/119/105 101/120/106 95/114/95 94/113/94
f 101/120/106 102/121/107 96/115/96 95/114/95
f 102/121/107 103/122/108 97/116/109 96/115/96
f 103/122/108 104/123/110 98/117/103 97/116/109
f 104/123/110 99/118/104 93/112/93 98/117/103
f 105/124/111 106/125/112 100/119/105 99/118/104
f 106/125/112 107/126/113 101/120/106 100/119/105
f 107/126/113 108/127/114 102/121/107 101/120/106
f 129/148/115 130/149/116 131/150/117 132/151/118
f 130/149/116 133/152/119 134/153/120 131/150/117
f 110/129/121 105/124/111 99/118/104 104/123/110
f 135/154/122 136/155/123 106/125/112 105/124/111
f 136/155/123 137/156/124 107/126/113 106/125/112
f 137/156/124 138/157/125 108/127/114 107/126/113
f 138/157/125 139/158/126 109/128/127 108/127/114
f 139/158/126 140/159/128 110/129/121 109/128/127
f 140/159/128 135/154/122 105/124/111 110/129/121
f 96/115/96 97/116/109 112/131/129 111/130/130
f 91/110/90 90/109/92 114/133/131 113/132/132
f 90/109/92 96/115/96 111/130/130 114/133/131
f 97/116/109 98/117/103 115/134/133 112/131/129
f 98/117/103 92/111/87 116/135/134 115/134/133
f 92/111/87 91/110/90 113/132/132 116/135/134
f 108/127/114 109/128/127 118/137/135 117/136/136
f 103/122/108 102/121/107 120/139/137 119/138/138
f 102/121/107 108/127/114 117/136/136 120/139/137
f 109/128/127 110/129/121 121/140/139 118/137/135
f 110/129/121 104/123/110 122/141/140 121/140/139
f 104/123/110 103/122/108 119/138/138 122/141/140
f 111/130/130 112/131/129 124/143/98 123/142/97
f 113/132/132 114/133/131 126/145/100 125/144/99
f 114/133/131 111/130/130 123/142/97 126/145/100
f 112/131/129 115/134/133 127/146/101 124/143/98
f 115/134/133 116/135/134 128/147/102 127/146/101
f 116/135/134 113/132/132 125/144/99 128/147/102
f 117/136/136 118/137/135 130/149/116 129/148/115
f 119/138/138 120/139/137 132/151/118 131/150/117
f 120/139/137 117/136/136 129/148/115 132/151/118
f 118/137/135 121/140/139 133/152/119 130/149/116
f 121/140/139 122/141/140 134/153/120 133/152/119
f 122/141/140 119/138/138 131/150/117 134/153/120
f 37/40/37 47/51/47 136/155/123 135/154/122
f 47/51/47 57/62/61 137/156/124 136/155/123
f 57/62/61 58/63/64 138/157/125 137/156/124
f 58/63/64 48/52/52 139/158/126 138/157/125
f 48/52/52 38/41/38 140/159/128 139/158/126
f 38/41/38 37/40/37 135/154/122 140/159/128
